%TF.GenerationSoftware,KiCad,Pcbnew,(5.1.8)-1*%
%TF.CreationDate,2021-08-10T17:59:01+08:00*%
%TF.ProjectId,smartdisplay,736d6172-7464-4697-9370-6c61792e6b69,rev?*%
%TF.SameCoordinates,Original*%
%TF.FileFunction,Legend,Bot*%
%TF.FilePolarity,Positive*%
%FSLAX46Y46*%
G04 Gerber Fmt 4.6, Leading zero omitted, Abs format (unit mm)*
G04 Created by KiCad (PCBNEW (5.1.8)-1) date 2021-08-10 17:59:01*
%MOMM*%
%LPD*%
G01*
G04 APERTURE LIST*
%ADD10C,0.300000*%
%ADD11C,1.000000*%
%ADD12C,0.150000*%
G04 APERTURE END LIST*
D10*
X164157142Y-83107142D02*
X164014285Y-83178571D01*
X163728571Y-83178571D01*
X163585714Y-83107142D01*
X163514285Y-82964285D01*
X163514285Y-82892857D01*
X163585714Y-82750000D01*
X163728571Y-82678571D01*
X163942857Y-82678571D01*
X164085714Y-82607142D01*
X164157142Y-82464285D01*
X164157142Y-82392857D01*
X164085714Y-82250000D01*
X163942857Y-82178571D01*
X163728571Y-82178571D01*
X163585714Y-82250000D01*
X162871428Y-83178571D02*
X162871428Y-82178571D01*
X162871428Y-82321428D02*
X162800000Y-82250000D01*
X162657142Y-82178571D01*
X162442857Y-82178571D01*
X162300000Y-82250000D01*
X162228571Y-82392857D01*
X162228571Y-83178571D01*
X162228571Y-82392857D02*
X162157142Y-82250000D01*
X162014285Y-82178571D01*
X161800000Y-82178571D01*
X161657142Y-82250000D01*
X161585714Y-82392857D01*
X161585714Y-83178571D01*
X160228571Y-83178571D02*
X160228571Y-82392857D01*
X160300000Y-82250000D01*
X160442857Y-82178571D01*
X160728571Y-82178571D01*
X160871428Y-82250000D01*
X160228571Y-83107142D02*
X160371428Y-83178571D01*
X160728571Y-83178571D01*
X160871428Y-83107142D01*
X160942857Y-82964285D01*
X160942857Y-82821428D01*
X160871428Y-82678571D01*
X160728571Y-82607142D01*
X160371428Y-82607142D01*
X160228571Y-82535714D01*
X159514285Y-83178571D02*
X159514285Y-82178571D01*
X159514285Y-82464285D02*
X159442857Y-82321428D01*
X159371428Y-82250000D01*
X159228571Y-82178571D01*
X159085714Y-82178571D01*
X158800000Y-82178571D02*
X158228571Y-82178571D01*
X158585714Y-81678571D02*
X158585714Y-82964285D01*
X158514285Y-83107142D01*
X158371428Y-83178571D01*
X158228571Y-83178571D01*
X157085714Y-83178571D02*
X157085714Y-81678571D01*
X157085714Y-83107142D02*
X157228571Y-83178571D01*
X157514285Y-83178571D01*
X157657142Y-83107142D01*
X157728571Y-83035714D01*
X157800000Y-82892857D01*
X157800000Y-82464285D01*
X157728571Y-82321428D01*
X157657142Y-82250000D01*
X157514285Y-82178571D01*
X157228571Y-82178571D01*
X157085714Y-82250000D01*
X156371428Y-83178571D02*
X156371428Y-82178571D01*
X156371428Y-81678571D02*
X156442857Y-81750000D01*
X156371428Y-81821428D01*
X156300000Y-81750000D01*
X156371428Y-81678571D01*
X156371428Y-81821428D01*
X155728571Y-83107142D02*
X155585714Y-83178571D01*
X155300000Y-83178571D01*
X155157142Y-83107142D01*
X155085714Y-82964285D01*
X155085714Y-82892857D01*
X155157142Y-82750000D01*
X155300000Y-82678571D01*
X155514285Y-82678571D01*
X155657142Y-82607142D01*
X155728571Y-82464285D01*
X155728571Y-82392857D01*
X155657142Y-82250000D01*
X155514285Y-82178571D01*
X155300000Y-82178571D01*
X155157142Y-82250000D01*
X154442857Y-82178571D02*
X154442857Y-83678571D01*
X154442857Y-82250000D02*
X154300000Y-82178571D01*
X154014285Y-82178571D01*
X153871428Y-82250000D01*
X153800000Y-82321428D01*
X153728571Y-82464285D01*
X153728571Y-82892857D01*
X153800000Y-83035714D01*
X153871428Y-83107142D01*
X154014285Y-83178571D01*
X154300000Y-83178571D01*
X154442857Y-83107142D01*
X152871428Y-83178571D02*
X153014285Y-83107142D01*
X153085714Y-82964285D01*
X153085714Y-81678571D01*
X151657142Y-83178571D02*
X151657142Y-82392857D01*
X151728571Y-82250000D01*
X151871428Y-82178571D01*
X152157142Y-82178571D01*
X152300000Y-82250000D01*
X151657142Y-83107142D02*
X151800000Y-83178571D01*
X152157142Y-83178571D01*
X152300000Y-83107142D01*
X152371428Y-82964285D01*
X152371428Y-82821428D01*
X152300000Y-82678571D01*
X152157142Y-82607142D01*
X151800000Y-82607142D01*
X151657142Y-82535714D01*
X151085714Y-82178571D02*
X150728571Y-83178571D01*
X150371428Y-82178571D02*
X150728571Y-83178571D01*
X150871428Y-83535714D01*
X150942857Y-83607142D01*
X151085714Y-83678571D01*
D11*
X162252380Y-78914285D02*
X161680952Y-79104761D01*
X161490476Y-79295238D01*
X161300000Y-79676190D01*
X161300000Y-80247619D01*
X161490476Y-80628571D01*
X161680952Y-80819047D01*
X162061904Y-81009523D01*
X163585714Y-81009523D01*
X163585714Y-77009523D01*
X162252380Y-77009523D01*
X161871428Y-77200000D01*
X161680952Y-77390476D01*
X161490476Y-77771428D01*
X161490476Y-78152380D01*
X161680952Y-78533333D01*
X161871428Y-78723809D01*
X162252380Y-78914285D01*
X163585714Y-78914285D01*
X157680952Y-81009523D02*
X159585714Y-81009523D01*
X159585714Y-77009523D01*
X154633333Y-81009523D02*
X154633333Y-78914285D01*
X154823809Y-78533333D01*
X155204761Y-78342857D01*
X155966666Y-78342857D01*
X156347619Y-78533333D01*
X154633333Y-80819047D02*
X155014285Y-81009523D01*
X155966666Y-81009523D01*
X156347619Y-80819047D01*
X156538095Y-80438095D01*
X156538095Y-80057142D01*
X156347619Y-79676190D01*
X155966666Y-79485714D01*
X155014285Y-79485714D01*
X154633333Y-79295238D01*
X152728571Y-81009523D02*
X152728571Y-77009523D01*
X152728571Y-78533333D02*
X152347619Y-78342857D01*
X151585714Y-78342857D01*
X151204761Y-78533333D01*
X151014285Y-78723809D01*
X150823809Y-79104761D01*
X150823809Y-80247619D01*
X151014285Y-80628571D01*
X151204761Y-80819047D01*
X151585714Y-81009523D01*
X152347619Y-81009523D01*
X152728571Y-80819047D01*
D12*
X118400000Y-98400000D02*
X118400000Y-61600000D01*
X198400000Y-98400000D02*
X118400000Y-98400000D01*
X198400000Y-61600000D02*
X198400000Y-98400000D01*
X118400000Y-61600000D02*
X198400000Y-61600000D01*
M02*
