%TF.GenerationSoftware,KiCad,Pcbnew,(5.1.8)-1*%
%TF.CreationDate,2021-08-10T17:59:01+08:00*%
%TF.ProjectId,smartdisplay,736d6172-7464-4697-9370-6c61792e6b69,rev?*%
%TF.SameCoordinates,Original*%
%TF.FileFunction,Soldermask,Top*%
%TF.FilePolarity,Negative*%
%FSLAX46Y46*%
G04 Gerber Fmt 4.6, Leading zero omitted, Abs format (unit mm)*
G04 Created by KiCad (PCBNEW (5.1.8)-1) date 2021-08-10 17:59:01*
%MOMM*%
%LPD*%
G01*
G04 APERTURE LIST*
%ADD10C,0.350000*%
%ADD11O,2.200000X1.100000*%
%ADD12C,0.750000*%
%ADD13O,1.700000X1.100000*%
G04 APERTURE END LIST*
%TO.C,C9*%
G36*
G01*
X194525000Y-67575000D02*
X195075000Y-67575000D01*
G75*
G02*
X195325000Y-67825000I0J-250000D01*
G01*
X195325000Y-68325000D01*
G75*
G02*
X195075000Y-68575000I-250000J0D01*
G01*
X194525000Y-68575000D01*
G75*
G02*
X194275000Y-68325000I0J250000D01*
G01*
X194275000Y-67825000D01*
G75*
G02*
X194525000Y-67575000I250000J0D01*
G01*
G37*
G36*
G01*
X194525000Y-66025000D02*
X195075000Y-66025000D01*
G75*
G02*
X195325000Y-66275000I0J-250000D01*
G01*
X195325000Y-66775000D01*
G75*
G02*
X195075000Y-67025000I-250000J0D01*
G01*
X194525000Y-67025000D01*
G75*
G02*
X194275000Y-66775000I0J250000D01*
G01*
X194275000Y-66275000D01*
G75*
G02*
X194525000Y-66025000I250000J0D01*
G01*
G37*
%TD*%
%TO.C,L1*%
G36*
G01*
X186800000Y-68855000D02*
X183400000Y-68855000D01*
G75*
G02*
X183350000Y-68805000I0J50000D01*
G01*
X183350000Y-67825000D01*
G75*
G02*
X183400000Y-67775000I50000J0D01*
G01*
X186800000Y-67775000D01*
G75*
G02*
X186850000Y-67825000I0J-50000D01*
G01*
X186850000Y-68805000D01*
G75*
G02*
X186800000Y-68855000I-50000J0D01*
G01*
G37*
G36*
G01*
X186800000Y-71225000D02*
X183400000Y-71225000D01*
G75*
G02*
X183350000Y-71175000I0J50000D01*
G01*
X183350000Y-70195000D01*
G75*
G02*
X183400000Y-70145000I50000J0D01*
G01*
X186800000Y-70145000D01*
G75*
G02*
X186850000Y-70195000I0J-50000D01*
G01*
X186850000Y-71175000D01*
G75*
G02*
X186800000Y-71225000I-50000J0D01*
G01*
G37*
%TD*%
%TO.C,R5*%
G36*
G01*
X192875000Y-68300000D02*
X192875000Y-67700000D01*
G75*
G02*
X193100000Y-67475000I225000J0D01*
G01*
X193550000Y-67475000D01*
G75*
G02*
X193775000Y-67700000I0J-225000D01*
G01*
X193775000Y-68300000D01*
G75*
G02*
X193550000Y-68525000I-225000J0D01*
G01*
X193100000Y-68525000D01*
G75*
G02*
X192875000Y-68300000I0J225000D01*
G01*
G37*
G36*
G01*
X191225000Y-68300000D02*
X191225000Y-67700000D01*
G75*
G02*
X191450000Y-67475000I225000J0D01*
G01*
X191900000Y-67475000D01*
G75*
G02*
X192125000Y-67700000I0J-225000D01*
G01*
X192125000Y-68300000D01*
G75*
G02*
X191900000Y-68525000I-225000J0D01*
G01*
X191450000Y-68525000D01*
G75*
G02*
X191225000Y-68300000I0J225000D01*
G01*
G37*
%TD*%
%TO.C,R4*%
G36*
G01*
X192875000Y-70100000D02*
X192875000Y-69500000D01*
G75*
G02*
X193100000Y-69275000I225000J0D01*
G01*
X193550000Y-69275000D01*
G75*
G02*
X193775000Y-69500000I0J-225000D01*
G01*
X193775000Y-70100000D01*
G75*
G02*
X193550000Y-70325000I-225000J0D01*
G01*
X193100000Y-70325000D01*
G75*
G02*
X192875000Y-70100000I0J225000D01*
G01*
G37*
G36*
G01*
X191225000Y-70100000D02*
X191225000Y-69500000D01*
G75*
G02*
X191450000Y-69275000I225000J0D01*
G01*
X191900000Y-69275000D01*
G75*
G02*
X192125000Y-69500000I0J-225000D01*
G01*
X192125000Y-70100000D01*
G75*
G02*
X191900000Y-70325000I-225000J0D01*
G01*
X191450000Y-70325000D01*
G75*
G02*
X191225000Y-70100000I0J225000D01*
G01*
G37*
%TD*%
%TO.C,Q1*%
G36*
G01*
X188600000Y-68500000D02*
X188600000Y-69300000D01*
G75*
G02*
X188550000Y-69350000I-50000J0D01*
G01*
X187650000Y-69350000D01*
G75*
G02*
X187600000Y-69300000I0J50000D01*
G01*
X187600000Y-68500000D01*
G75*
G02*
X187650000Y-68450000I50000J0D01*
G01*
X188550000Y-68450000D01*
G75*
G02*
X188600000Y-68500000I0J-50000D01*
G01*
G37*
G36*
G01*
X190600000Y-67550000D02*
X190600000Y-68350000D01*
G75*
G02*
X190550000Y-68400000I-50000J0D01*
G01*
X189650000Y-68400000D01*
G75*
G02*
X189600000Y-68350000I0J50000D01*
G01*
X189600000Y-67550000D01*
G75*
G02*
X189650000Y-67500000I50000J0D01*
G01*
X190550000Y-67500000D01*
G75*
G02*
X190600000Y-67550000I0J-50000D01*
G01*
G37*
G36*
G01*
X190600000Y-69450000D02*
X190600000Y-70250000D01*
G75*
G02*
X190550000Y-70300000I-50000J0D01*
G01*
X189650000Y-70300000D01*
G75*
G02*
X189600000Y-70250000I0J50000D01*
G01*
X189600000Y-69450000D01*
G75*
G02*
X189650000Y-69400000I50000J0D01*
G01*
X190550000Y-69400000D01*
G75*
G02*
X190600000Y-69450000I0J-50000D01*
G01*
G37*
%TD*%
%TO.C,D5*%
G36*
G01*
X193400000Y-63650000D02*
X192200000Y-63650000D01*
G75*
G02*
X192150000Y-63600000I0J50000D01*
G01*
X192150000Y-62700000D01*
G75*
G02*
X192200000Y-62650000I50000J0D01*
G01*
X193400000Y-62650000D01*
G75*
G02*
X193450000Y-62700000I0J-50000D01*
G01*
X193450000Y-63600000D01*
G75*
G02*
X193400000Y-63650000I-50000J0D01*
G01*
G37*
G36*
G01*
X193400000Y-66950000D02*
X192200000Y-66950000D01*
G75*
G02*
X192150000Y-66900000I0J50000D01*
G01*
X192150000Y-66000000D01*
G75*
G02*
X192200000Y-65950000I50000J0D01*
G01*
X193400000Y-65950000D01*
G75*
G02*
X193450000Y-66000000I0J-50000D01*
G01*
X193450000Y-66900000D01*
G75*
G02*
X193400000Y-66950000I-50000J0D01*
G01*
G37*
%TD*%
%TO.C,D1*%
G36*
G01*
X190250000Y-66500000D02*
X190250000Y-65300000D01*
G75*
G02*
X190300000Y-65250000I50000J0D01*
G01*
X191200000Y-65250000D01*
G75*
G02*
X191250000Y-65300000I0J-50000D01*
G01*
X191250000Y-66500000D01*
G75*
G02*
X191200000Y-66550000I-50000J0D01*
G01*
X190300000Y-66550000D01*
G75*
G02*
X190250000Y-66500000I0J50000D01*
G01*
G37*
G36*
G01*
X186950000Y-66500000D02*
X186950000Y-65300000D01*
G75*
G02*
X187000000Y-65250000I50000J0D01*
G01*
X187900000Y-65250000D01*
G75*
G02*
X187950000Y-65300000I0J-50000D01*
G01*
X187950000Y-66500000D01*
G75*
G02*
X187900000Y-66550000I-50000J0D01*
G01*
X187000000Y-66550000D01*
G75*
G02*
X186950000Y-66500000I0J50000D01*
G01*
G37*
%TD*%
%TO.C,D4*%
G36*
G01*
X187950000Y-63000000D02*
X187950000Y-64200000D01*
G75*
G02*
X187900000Y-64250000I-50000J0D01*
G01*
X187000000Y-64250000D01*
G75*
G02*
X186950000Y-64200000I0J50000D01*
G01*
X186950000Y-63000000D01*
G75*
G02*
X187000000Y-62950000I50000J0D01*
G01*
X187900000Y-62950000D01*
G75*
G02*
X187950000Y-63000000I0J-50000D01*
G01*
G37*
G36*
G01*
X191250000Y-63000000D02*
X191250000Y-64200000D01*
G75*
G02*
X191200000Y-64250000I-50000J0D01*
G01*
X190300000Y-64250000D01*
G75*
G02*
X190250000Y-64200000I0J50000D01*
G01*
X190250000Y-63000000D01*
G75*
G02*
X190300000Y-62950000I50000J0D01*
G01*
X191200000Y-62950000D01*
G75*
G02*
X191250000Y-63000000I0J-50000D01*
G01*
G37*
%TD*%
%TO.C,C15*%
G36*
G01*
X183525000Y-85925000D02*
X183525000Y-86475000D01*
G75*
G02*
X183275000Y-86725000I-250000J0D01*
G01*
X182775000Y-86725000D01*
G75*
G02*
X182525000Y-86475000I0J250000D01*
G01*
X182525000Y-85925000D01*
G75*
G02*
X182775000Y-85675000I250000J0D01*
G01*
X183275000Y-85675000D01*
G75*
G02*
X183525000Y-85925000I0J-250000D01*
G01*
G37*
G36*
G01*
X185075000Y-85925000D02*
X185075000Y-86475000D01*
G75*
G02*
X184825000Y-86725000I-250000J0D01*
G01*
X184325000Y-86725000D01*
G75*
G02*
X184075000Y-86475000I0J250000D01*
G01*
X184075000Y-85925000D01*
G75*
G02*
X184325000Y-85675000I250000J0D01*
G01*
X184825000Y-85675000D01*
G75*
G02*
X185075000Y-85925000I0J-250000D01*
G01*
G37*
%TD*%
%TO.C,C14*%
G36*
G01*
X183525000Y-84425000D02*
X183525000Y-84975000D01*
G75*
G02*
X183275000Y-85225000I-250000J0D01*
G01*
X182775000Y-85225000D01*
G75*
G02*
X182525000Y-84975000I0J250000D01*
G01*
X182525000Y-84425000D01*
G75*
G02*
X182775000Y-84175000I250000J0D01*
G01*
X183275000Y-84175000D01*
G75*
G02*
X183525000Y-84425000I0J-250000D01*
G01*
G37*
G36*
G01*
X185075000Y-84425000D02*
X185075000Y-84975000D01*
G75*
G02*
X184825000Y-85225000I-250000J0D01*
G01*
X184325000Y-85225000D01*
G75*
G02*
X184075000Y-84975000I0J250000D01*
G01*
X184075000Y-84425000D01*
G75*
G02*
X184325000Y-84175000I250000J0D01*
G01*
X184825000Y-84175000D01*
G75*
G02*
X185075000Y-84425000I0J-250000D01*
G01*
G37*
%TD*%
%TO.C,C13*%
G36*
G01*
X183525000Y-82925000D02*
X183525000Y-83475000D01*
G75*
G02*
X183275000Y-83725000I-250000J0D01*
G01*
X182775000Y-83725000D01*
G75*
G02*
X182525000Y-83475000I0J250000D01*
G01*
X182525000Y-82925000D01*
G75*
G02*
X182775000Y-82675000I250000J0D01*
G01*
X183275000Y-82675000D01*
G75*
G02*
X183525000Y-82925000I0J-250000D01*
G01*
G37*
G36*
G01*
X185075000Y-82925000D02*
X185075000Y-83475000D01*
G75*
G02*
X184825000Y-83725000I-250000J0D01*
G01*
X184325000Y-83725000D01*
G75*
G02*
X184075000Y-83475000I0J250000D01*
G01*
X184075000Y-82925000D01*
G75*
G02*
X184325000Y-82675000I250000J0D01*
G01*
X184825000Y-82675000D01*
G75*
G02*
X185075000Y-82925000I0J-250000D01*
G01*
G37*
%TD*%
%TO.C,C12*%
G36*
G01*
X183525000Y-81425000D02*
X183525000Y-81975000D01*
G75*
G02*
X183275000Y-82225000I-250000J0D01*
G01*
X182775000Y-82225000D01*
G75*
G02*
X182525000Y-81975000I0J250000D01*
G01*
X182525000Y-81425000D01*
G75*
G02*
X182775000Y-81175000I250000J0D01*
G01*
X183275000Y-81175000D01*
G75*
G02*
X183525000Y-81425000I0J-250000D01*
G01*
G37*
G36*
G01*
X185075000Y-81425000D02*
X185075000Y-81975000D01*
G75*
G02*
X184825000Y-82225000I-250000J0D01*
G01*
X184325000Y-82225000D01*
G75*
G02*
X184075000Y-81975000I0J250000D01*
G01*
X184075000Y-81425000D01*
G75*
G02*
X184325000Y-81175000I250000J0D01*
G01*
X184825000Y-81175000D01*
G75*
G02*
X185075000Y-81425000I0J-250000D01*
G01*
G37*
%TD*%
%TO.C,C11*%
G36*
G01*
X183525000Y-79925000D02*
X183525000Y-80475000D01*
G75*
G02*
X183275000Y-80725000I-250000J0D01*
G01*
X182775000Y-80725000D01*
G75*
G02*
X182525000Y-80475000I0J250000D01*
G01*
X182525000Y-79925000D01*
G75*
G02*
X182775000Y-79675000I250000J0D01*
G01*
X183275000Y-79675000D01*
G75*
G02*
X183525000Y-79925000I0J-250000D01*
G01*
G37*
G36*
G01*
X185075000Y-79925000D02*
X185075000Y-80475000D01*
G75*
G02*
X184825000Y-80725000I-250000J0D01*
G01*
X184325000Y-80725000D01*
G75*
G02*
X184075000Y-80475000I0J250000D01*
G01*
X184075000Y-79925000D01*
G75*
G02*
X184325000Y-79675000I250000J0D01*
G01*
X184825000Y-79675000D01*
G75*
G02*
X185075000Y-79925000I0J-250000D01*
G01*
G37*
%TD*%
%TO.C,C10*%
G36*
G01*
X183525000Y-78425000D02*
X183525000Y-78975000D01*
G75*
G02*
X183275000Y-79225000I-250000J0D01*
G01*
X182775000Y-79225000D01*
G75*
G02*
X182525000Y-78975000I0J250000D01*
G01*
X182525000Y-78425000D01*
G75*
G02*
X182775000Y-78175000I250000J0D01*
G01*
X183275000Y-78175000D01*
G75*
G02*
X183525000Y-78425000I0J-250000D01*
G01*
G37*
G36*
G01*
X185075000Y-78425000D02*
X185075000Y-78975000D01*
G75*
G02*
X184825000Y-79225000I-250000J0D01*
G01*
X184325000Y-79225000D01*
G75*
G02*
X184075000Y-78975000I0J250000D01*
G01*
X184075000Y-78425000D01*
G75*
G02*
X184325000Y-78175000I250000J0D01*
G01*
X184825000Y-78175000D01*
G75*
G02*
X185075000Y-78425000I0J-250000D01*
G01*
G37*
%TD*%
%TO.C,C8*%
G36*
G01*
X184075000Y-72875000D02*
X184075000Y-72325000D01*
G75*
G02*
X184325000Y-72075000I250000J0D01*
G01*
X184825000Y-72075000D01*
G75*
G02*
X185075000Y-72325000I0J-250000D01*
G01*
X185075000Y-72875000D01*
G75*
G02*
X184825000Y-73125000I-250000J0D01*
G01*
X184325000Y-73125000D01*
G75*
G02*
X184075000Y-72875000I0J250000D01*
G01*
G37*
G36*
G01*
X182525000Y-72875000D02*
X182525000Y-72325000D01*
G75*
G02*
X182775000Y-72075000I250000J0D01*
G01*
X183275000Y-72075000D01*
G75*
G02*
X183525000Y-72325000I0J-250000D01*
G01*
X183525000Y-72875000D01*
G75*
G02*
X183275000Y-73125000I-250000J0D01*
G01*
X182775000Y-73125000D01*
G75*
G02*
X182525000Y-72875000I0J250000D01*
G01*
G37*
%TD*%
%TO.C,C7*%
G36*
G01*
X183525000Y-76925000D02*
X183525000Y-77475000D01*
G75*
G02*
X183275000Y-77725000I-250000J0D01*
G01*
X182775000Y-77725000D01*
G75*
G02*
X182525000Y-77475000I0J250000D01*
G01*
X182525000Y-76925000D01*
G75*
G02*
X182775000Y-76675000I250000J0D01*
G01*
X183275000Y-76675000D01*
G75*
G02*
X183525000Y-76925000I0J-250000D01*
G01*
G37*
G36*
G01*
X185075000Y-76925000D02*
X185075000Y-77475000D01*
G75*
G02*
X184825000Y-77725000I-250000J0D01*
G01*
X184325000Y-77725000D01*
G75*
G02*
X184075000Y-77475000I0J250000D01*
G01*
X184075000Y-76925000D01*
G75*
G02*
X184325000Y-76675000I250000J0D01*
G01*
X184825000Y-76675000D01*
G75*
G02*
X185075000Y-76925000I0J-250000D01*
G01*
G37*
%TD*%
%TO.C,C4*%
G36*
G01*
X184725000Y-66125000D02*
X184725000Y-66675000D01*
G75*
G02*
X184475000Y-66925000I-250000J0D01*
G01*
X183975000Y-66925000D01*
G75*
G02*
X183725000Y-66675000I0J250000D01*
G01*
X183725000Y-66125000D01*
G75*
G02*
X183975000Y-65875000I250000J0D01*
G01*
X184475000Y-65875000D01*
G75*
G02*
X184725000Y-66125000I0J-250000D01*
G01*
G37*
G36*
G01*
X186275000Y-66125000D02*
X186275000Y-66675000D01*
G75*
G02*
X186025000Y-66925000I-250000J0D01*
G01*
X185525000Y-66925000D01*
G75*
G02*
X185275000Y-66675000I0J250000D01*
G01*
X185275000Y-66125000D01*
G75*
G02*
X185525000Y-65875000I250000J0D01*
G01*
X186025000Y-65875000D01*
G75*
G02*
X186275000Y-66125000I0J-250000D01*
G01*
G37*
%TD*%
%TO.C,C2*%
G36*
G01*
X183525000Y-75425000D02*
X183525000Y-75975000D01*
G75*
G02*
X183275000Y-76225000I-250000J0D01*
G01*
X182775000Y-76225000D01*
G75*
G02*
X182525000Y-75975000I0J250000D01*
G01*
X182525000Y-75425000D01*
G75*
G02*
X182775000Y-75175000I250000J0D01*
G01*
X183275000Y-75175000D01*
G75*
G02*
X183525000Y-75425000I0J-250000D01*
G01*
G37*
G36*
G01*
X185075000Y-75425000D02*
X185075000Y-75975000D01*
G75*
G02*
X184825000Y-76225000I-250000J0D01*
G01*
X184325000Y-76225000D01*
G75*
G02*
X184075000Y-75975000I0J250000D01*
G01*
X184075000Y-75425000D01*
G75*
G02*
X184325000Y-75175000I250000J0D01*
G01*
X184825000Y-75175000D01*
G75*
G02*
X185075000Y-75425000I0J-250000D01*
G01*
G37*
%TD*%
%TO.C,C1*%
G36*
G01*
X183525000Y-73925000D02*
X183525000Y-74475000D01*
G75*
G02*
X183275000Y-74725000I-250000J0D01*
G01*
X182775000Y-74725000D01*
G75*
G02*
X182525000Y-74475000I0J250000D01*
G01*
X182525000Y-73925000D01*
G75*
G02*
X182775000Y-73675000I250000J0D01*
G01*
X183275000Y-73675000D01*
G75*
G02*
X183525000Y-73925000I0J-250000D01*
G01*
G37*
G36*
G01*
X185075000Y-73925000D02*
X185075000Y-74475000D01*
G75*
G02*
X184825000Y-74725000I-250000J0D01*
G01*
X184325000Y-74725000D01*
G75*
G02*
X184075000Y-74475000I0J250000D01*
G01*
X184075000Y-73925000D01*
G75*
G02*
X184325000Y-73675000I250000J0D01*
G01*
X184825000Y-73675000D01*
G75*
G02*
X185075000Y-73925000I0J-250000D01*
G01*
G37*
%TD*%
%TO.C,U3*%
G36*
G01*
X191700000Y-73780000D02*
X188600000Y-73780000D01*
G75*
G02*
X188550000Y-73730000I0J50000D01*
G01*
X188550000Y-71430000D01*
G75*
G02*
X188600000Y-71380000I50000J0D01*
G01*
X191700000Y-71380000D01*
G75*
G02*
X191750000Y-71430000I0J-50000D01*
G01*
X191750000Y-73730000D01*
G75*
G02*
X191700000Y-73780000I-50000J0D01*
G01*
G37*
G36*
G01*
X191700000Y-88620000D02*
X188600000Y-88620000D01*
G75*
G02*
X188550000Y-88570000I0J50000D01*
G01*
X188550000Y-86270000D01*
G75*
G02*
X188600000Y-86220000I50000J0D01*
G01*
X191700000Y-86220000D01*
G75*
G02*
X191750000Y-86270000I0J-50000D01*
G01*
X191750000Y-88570000D01*
G75*
G02*
X191700000Y-88620000I-50000J0D01*
G01*
G37*
G36*
G01*
X189000000Y-74450000D02*
X187900000Y-74450000D01*
G75*
G02*
X187850000Y-74400000I0J50000D01*
G01*
X187850000Y-74100000D01*
G75*
G02*
X187900000Y-74050000I50000J0D01*
G01*
X189000000Y-74050000D01*
G75*
G02*
X189050000Y-74100000I0J-50000D01*
G01*
X189050000Y-74400000D01*
G75*
G02*
X189000000Y-74450000I-50000J0D01*
G01*
G37*
G36*
G01*
X189000000Y-74950000D02*
X187900000Y-74950000D01*
G75*
G02*
X187850000Y-74900000I0J50000D01*
G01*
X187850000Y-74600000D01*
G75*
G02*
X187900000Y-74550000I50000J0D01*
G01*
X189000000Y-74550000D01*
G75*
G02*
X189050000Y-74600000I0J-50000D01*
G01*
X189050000Y-74900000D01*
G75*
G02*
X189000000Y-74950000I-50000J0D01*
G01*
G37*
G36*
G01*
X189000000Y-75450000D02*
X187900000Y-75450000D01*
G75*
G02*
X187850000Y-75400000I0J50000D01*
G01*
X187850000Y-75100000D01*
G75*
G02*
X187900000Y-75050000I50000J0D01*
G01*
X189000000Y-75050000D01*
G75*
G02*
X189050000Y-75100000I0J-50000D01*
G01*
X189050000Y-75400000D01*
G75*
G02*
X189000000Y-75450000I-50000J0D01*
G01*
G37*
G36*
G01*
X189000000Y-75950000D02*
X187900000Y-75950000D01*
G75*
G02*
X187850000Y-75900000I0J50000D01*
G01*
X187850000Y-75600000D01*
G75*
G02*
X187900000Y-75550000I50000J0D01*
G01*
X189000000Y-75550000D01*
G75*
G02*
X189050000Y-75600000I0J-50000D01*
G01*
X189050000Y-75900000D01*
G75*
G02*
X189000000Y-75950000I-50000J0D01*
G01*
G37*
G36*
G01*
X189000000Y-76450000D02*
X187900000Y-76450000D01*
G75*
G02*
X187850000Y-76400000I0J50000D01*
G01*
X187850000Y-76100000D01*
G75*
G02*
X187900000Y-76050000I50000J0D01*
G01*
X189000000Y-76050000D01*
G75*
G02*
X189050000Y-76100000I0J-50000D01*
G01*
X189050000Y-76400000D01*
G75*
G02*
X189000000Y-76450000I-50000J0D01*
G01*
G37*
G36*
G01*
X189000000Y-76950000D02*
X187900000Y-76950000D01*
G75*
G02*
X187850000Y-76900000I0J50000D01*
G01*
X187850000Y-76600000D01*
G75*
G02*
X187900000Y-76550000I50000J0D01*
G01*
X189000000Y-76550000D01*
G75*
G02*
X189050000Y-76600000I0J-50000D01*
G01*
X189050000Y-76900000D01*
G75*
G02*
X189000000Y-76950000I-50000J0D01*
G01*
G37*
G36*
G01*
X189000000Y-77450000D02*
X187900000Y-77450000D01*
G75*
G02*
X187850000Y-77400000I0J50000D01*
G01*
X187850000Y-77100000D01*
G75*
G02*
X187900000Y-77050000I50000J0D01*
G01*
X189000000Y-77050000D01*
G75*
G02*
X189050000Y-77100000I0J-50000D01*
G01*
X189050000Y-77400000D01*
G75*
G02*
X189000000Y-77450000I-50000J0D01*
G01*
G37*
G36*
G01*
X189000000Y-77950000D02*
X187900000Y-77950000D01*
G75*
G02*
X187850000Y-77900000I0J50000D01*
G01*
X187850000Y-77600000D01*
G75*
G02*
X187900000Y-77550000I50000J0D01*
G01*
X189000000Y-77550000D01*
G75*
G02*
X189050000Y-77600000I0J-50000D01*
G01*
X189050000Y-77900000D01*
G75*
G02*
X189000000Y-77950000I-50000J0D01*
G01*
G37*
G36*
G01*
X189000000Y-78450000D02*
X187900000Y-78450000D01*
G75*
G02*
X187850000Y-78400000I0J50000D01*
G01*
X187850000Y-78100000D01*
G75*
G02*
X187900000Y-78050000I50000J0D01*
G01*
X189000000Y-78050000D01*
G75*
G02*
X189050000Y-78100000I0J-50000D01*
G01*
X189050000Y-78400000D01*
G75*
G02*
X189000000Y-78450000I-50000J0D01*
G01*
G37*
G36*
G01*
X189000000Y-78950000D02*
X187900000Y-78950000D01*
G75*
G02*
X187850000Y-78900000I0J50000D01*
G01*
X187850000Y-78600000D01*
G75*
G02*
X187900000Y-78550000I50000J0D01*
G01*
X189000000Y-78550000D01*
G75*
G02*
X189050000Y-78600000I0J-50000D01*
G01*
X189050000Y-78900000D01*
G75*
G02*
X189000000Y-78950000I-50000J0D01*
G01*
G37*
G36*
G01*
X189000000Y-79450000D02*
X187900000Y-79450000D01*
G75*
G02*
X187850000Y-79400000I0J50000D01*
G01*
X187850000Y-79100000D01*
G75*
G02*
X187900000Y-79050000I50000J0D01*
G01*
X189000000Y-79050000D01*
G75*
G02*
X189050000Y-79100000I0J-50000D01*
G01*
X189050000Y-79400000D01*
G75*
G02*
X189000000Y-79450000I-50000J0D01*
G01*
G37*
G36*
G01*
X189000000Y-79950000D02*
X187900000Y-79950000D01*
G75*
G02*
X187850000Y-79900000I0J50000D01*
G01*
X187850000Y-79600000D01*
G75*
G02*
X187900000Y-79550000I50000J0D01*
G01*
X189000000Y-79550000D01*
G75*
G02*
X189050000Y-79600000I0J-50000D01*
G01*
X189050000Y-79900000D01*
G75*
G02*
X189000000Y-79950000I-50000J0D01*
G01*
G37*
G36*
G01*
X189000000Y-80450000D02*
X187900000Y-80450000D01*
G75*
G02*
X187850000Y-80400000I0J50000D01*
G01*
X187850000Y-80100000D01*
G75*
G02*
X187900000Y-80050000I50000J0D01*
G01*
X189000000Y-80050000D01*
G75*
G02*
X189050000Y-80100000I0J-50000D01*
G01*
X189050000Y-80400000D01*
G75*
G02*
X189000000Y-80450000I-50000J0D01*
G01*
G37*
G36*
G01*
X189000000Y-80950000D02*
X187900000Y-80950000D01*
G75*
G02*
X187850000Y-80900000I0J50000D01*
G01*
X187850000Y-80600000D01*
G75*
G02*
X187900000Y-80550000I50000J0D01*
G01*
X189000000Y-80550000D01*
G75*
G02*
X189050000Y-80600000I0J-50000D01*
G01*
X189050000Y-80900000D01*
G75*
G02*
X189000000Y-80950000I-50000J0D01*
G01*
G37*
G36*
G01*
X189000000Y-81450000D02*
X187900000Y-81450000D01*
G75*
G02*
X187850000Y-81400000I0J50000D01*
G01*
X187850000Y-81100000D01*
G75*
G02*
X187900000Y-81050000I50000J0D01*
G01*
X189000000Y-81050000D01*
G75*
G02*
X189050000Y-81100000I0J-50000D01*
G01*
X189050000Y-81400000D01*
G75*
G02*
X189000000Y-81450000I-50000J0D01*
G01*
G37*
G36*
G01*
X189000000Y-81950000D02*
X187900000Y-81950000D01*
G75*
G02*
X187850000Y-81900000I0J50000D01*
G01*
X187850000Y-81600000D01*
G75*
G02*
X187900000Y-81550000I50000J0D01*
G01*
X189000000Y-81550000D01*
G75*
G02*
X189050000Y-81600000I0J-50000D01*
G01*
X189050000Y-81900000D01*
G75*
G02*
X189000000Y-81950000I-50000J0D01*
G01*
G37*
G36*
G01*
X189000000Y-82450000D02*
X187900000Y-82450000D01*
G75*
G02*
X187850000Y-82400000I0J50000D01*
G01*
X187850000Y-82100000D01*
G75*
G02*
X187900000Y-82050000I50000J0D01*
G01*
X189000000Y-82050000D01*
G75*
G02*
X189050000Y-82100000I0J-50000D01*
G01*
X189050000Y-82400000D01*
G75*
G02*
X189000000Y-82450000I-50000J0D01*
G01*
G37*
G36*
G01*
X189000000Y-82950000D02*
X187900000Y-82950000D01*
G75*
G02*
X187850000Y-82900000I0J50000D01*
G01*
X187850000Y-82600000D01*
G75*
G02*
X187900000Y-82550000I50000J0D01*
G01*
X189000000Y-82550000D01*
G75*
G02*
X189050000Y-82600000I0J-50000D01*
G01*
X189050000Y-82900000D01*
G75*
G02*
X189000000Y-82950000I-50000J0D01*
G01*
G37*
G36*
G01*
X189000000Y-83450000D02*
X187900000Y-83450000D01*
G75*
G02*
X187850000Y-83400000I0J50000D01*
G01*
X187850000Y-83100000D01*
G75*
G02*
X187900000Y-83050000I50000J0D01*
G01*
X189000000Y-83050000D01*
G75*
G02*
X189050000Y-83100000I0J-50000D01*
G01*
X189050000Y-83400000D01*
G75*
G02*
X189000000Y-83450000I-50000J0D01*
G01*
G37*
G36*
G01*
X189000000Y-83950000D02*
X187900000Y-83950000D01*
G75*
G02*
X187850000Y-83900000I0J50000D01*
G01*
X187850000Y-83600000D01*
G75*
G02*
X187900000Y-83550000I50000J0D01*
G01*
X189000000Y-83550000D01*
G75*
G02*
X189050000Y-83600000I0J-50000D01*
G01*
X189050000Y-83900000D01*
G75*
G02*
X189000000Y-83950000I-50000J0D01*
G01*
G37*
G36*
G01*
X189000000Y-84450000D02*
X187900000Y-84450000D01*
G75*
G02*
X187850000Y-84400000I0J50000D01*
G01*
X187850000Y-84100000D01*
G75*
G02*
X187900000Y-84050000I50000J0D01*
G01*
X189000000Y-84050000D01*
G75*
G02*
X189050000Y-84100000I0J-50000D01*
G01*
X189050000Y-84400000D01*
G75*
G02*
X189000000Y-84450000I-50000J0D01*
G01*
G37*
G36*
G01*
X189000000Y-84950000D02*
X187900000Y-84950000D01*
G75*
G02*
X187850000Y-84900000I0J50000D01*
G01*
X187850000Y-84600000D01*
G75*
G02*
X187900000Y-84550000I50000J0D01*
G01*
X189000000Y-84550000D01*
G75*
G02*
X189050000Y-84600000I0J-50000D01*
G01*
X189050000Y-84900000D01*
G75*
G02*
X189000000Y-84950000I-50000J0D01*
G01*
G37*
G36*
G01*
X189000000Y-85450000D02*
X187900000Y-85450000D01*
G75*
G02*
X187850000Y-85400000I0J50000D01*
G01*
X187850000Y-85100000D01*
G75*
G02*
X187900000Y-85050000I50000J0D01*
G01*
X189000000Y-85050000D01*
G75*
G02*
X189050000Y-85100000I0J-50000D01*
G01*
X189050000Y-85400000D01*
G75*
G02*
X189000000Y-85450000I-50000J0D01*
G01*
G37*
G36*
G01*
X189000000Y-85950000D02*
X187900000Y-85950000D01*
G75*
G02*
X187850000Y-85900000I0J50000D01*
G01*
X187850000Y-85600000D01*
G75*
G02*
X187900000Y-85550000I50000J0D01*
G01*
X189000000Y-85550000D01*
G75*
G02*
X189050000Y-85600000I0J-50000D01*
G01*
X189050000Y-85900000D01*
G75*
G02*
X189000000Y-85950000I-50000J0D01*
G01*
G37*
%TD*%
%TO.C,U5*%
G36*
G01*
X177700000Y-98225000D02*
X177700000Y-98475000D01*
G75*
G02*
X177650000Y-98525000I-50000J0D01*
G01*
X177100000Y-98525000D01*
G75*
G02*
X177050000Y-98475000I0J50000D01*
G01*
X177050000Y-98225000D01*
G75*
G02*
X177100000Y-98175000I50000J0D01*
G01*
X177650000Y-98175000D01*
G75*
G02*
X177700000Y-98225000I0J-50000D01*
G01*
G37*
G36*
G01*
X177700000Y-97725000D02*
X177700000Y-97975000D01*
G75*
G02*
X177650000Y-98025000I-50000J0D01*
G01*
X177100000Y-98025000D01*
G75*
G02*
X177050000Y-97975000I0J50000D01*
G01*
X177050000Y-97725000D01*
G75*
G02*
X177100000Y-97675000I50000J0D01*
G01*
X177650000Y-97675000D01*
G75*
G02*
X177700000Y-97725000I0J-50000D01*
G01*
G37*
G36*
G01*
X177700000Y-97225000D02*
X177700000Y-97475000D01*
G75*
G02*
X177650000Y-97525000I-50000J0D01*
G01*
X177100000Y-97525000D01*
G75*
G02*
X177050000Y-97475000I0J50000D01*
G01*
X177050000Y-97225000D01*
G75*
G02*
X177100000Y-97175000I50000J0D01*
G01*
X177650000Y-97175000D01*
G75*
G02*
X177700000Y-97225000I0J-50000D01*
G01*
G37*
G36*
G01*
X177050000Y-96975000D02*
X177050000Y-96725000D01*
G75*
G02*
X177100000Y-96675000I50000J0D01*
G01*
X177650000Y-96675000D01*
G75*
G02*
X177700000Y-96725000I0J-50000D01*
G01*
X177700000Y-96975000D01*
G75*
G02*
X177650000Y-97025000I-50000J0D01*
G01*
X177100000Y-97025000D01*
G75*
G02*
X177050000Y-96975000I0J50000D01*
G01*
G37*
G36*
G01*
X175350000Y-96725000D02*
X175350000Y-96975000D01*
G75*
G02*
X175300000Y-97025000I-50000J0D01*
G01*
X174750000Y-97025000D01*
G75*
G02*
X174700000Y-96975000I0J50000D01*
G01*
X174700000Y-96725000D01*
G75*
G02*
X174750000Y-96675000I50000J0D01*
G01*
X175300000Y-96675000D01*
G75*
G02*
X175350000Y-96725000I0J-50000D01*
G01*
G37*
G36*
G01*
X175350000Y-97225000D02*
X175350000Y-97475000D01*
G75*
G02*
X175300000Y-97525000I-50000J0D01*
G01*
X174750000Y-97525000D01*
G75*
G02*
X174700000Y-97475000I0J50000D01*
G01*
X174700000Y-97225000D01*
G75*
G02*
X174750000Y-97175000I50000J0D01*
G01*
X175300000Y-97175000D01*
G75*
G02*
X175350000Y-97225000I0J-50000D01*
G01*
G37*
G36*
G01*
X175350000Y-97725000D02*
X175350000Y-97975000D01*
G75*
G02*
X175300000Y-98025000I-50000J0D01*
G01*
X174750000Y-98025000D01*
G75*
G02*
X174700000Y-97975000I0J50000D01*
G01*
X174700000Y-97725000D01*
G75*
G02*
X174750000Y-97675000I50000J0D01*
G01*
X175300000Y-97675000D01*
G75*
G02*
X175350000Y-97725000I0J-50000D01*
G01*
G37*
G36*
G01*
X175350000Y-98225000D02*
X175350000Y-98475000D01*
G75*
G02*
X175300000Y-98525000I-50000J0D01*
G01*
X174750000Y-98525000D01*
G75*
G02*
X174700000Y-98475000I0J50000D01*
G01*
X174700000Y-98225000D01*
G75*
G02*
X174750000Y-98175000I50000J0D01*
G01*
X175300000Y-98175000D01*
G75*
G02*
X175350000Y-98225000I0J-50000D01*
G01*
G37*
D10*
G36*
X175690245Y-98499039D02*
G01*
X175680866Y-98496194D01*
X175672221Y-98491573D01*
X175664645Y-98485355D01*
X175658427Y-98477779D01*
X175653806Y-98469134D01*
X175650961Y-98459755D01*
X175650000Y-98450000D01*
X175650000Y-96750000D01*
X175650961Y-96740245D01*
X175653806Y-96730866D01*
X175658427Y-96722221D01*
X175664645Y-96714645D01*
X175672221Y-96708427D01*
X175680866Y-96703806D01*
X175690245Y-96700961D01*
X175700000Y-96700000D01*
X176700000Y-96700000D01*
X176709755Y-96700961D01*
X176719134Y-96703806D01*
X176727779Y-96708427D01*
X176735355Y-96714645D01*
X176741573Y-96722221D01*
X176746194Y-96730866D01*
X176749039Y-96740245D01*
X176750000Y-96750000D01*
X176750000Y-98150000D01*
X176749039Y-98159755D01*
X176746194Y-98169134D01*
X176741573Y-98177779D01*
X176735355Y-98185355D01*
X176435355Y-98485355D01*
X176427779Y-98491573D01*
X176419134Y-98496194D01*
X176409755Y-98499039D01*
X176400000Y-98500000D01*
X175700000Y-98500000D01*
X175690245Y-98499039D01*
G37*
%TD*%
%TO.C,R8*%
G36*
G01*
X177625000Y-94200000D02*
X177625000Y-94800000D01*
G75*
G02*
X177400000Y-95025000I-225000J0D01*
G01*
X176950000Y-95025000D01*
G75*
G02*
X176725000Y-94800000I0J225000D01*
G01*
X176725000Y-94200000D01*
G75*
G02*
X176950000Y-93975000I225000J0D01*
G01*
X177400000Y-93975000D01*
G75*
G02*
X177625000Y-94200000I0J-225000D01*
G01*
G37*
G36*
G01*
X179275000Y-94200000D02*
X179275000Y-94800000D01*
G75*
G02*
X179050000Y-95025000I-225000J0D01*
G01*
X178600000Y-95025000D01*
G75*
G02*
X178375000Y-94800000I0J225000D01*
G01*
X178375000Y-94200000D01*
G75*
G02*
X178600000Y-93975000I225000J0D01*
G01*
X179050000Y-93975000D01*
G75*
G02*
X179275000Y-94200000I0J-225000D01*
G01*
G37*
%TD*%
%TO.C,R7*%
G36*
G01*
X175175000Y-94800000D02*
X175175000Y-94200000D01*
G75*
G02*
X175400000Y-93975000I225000J0D01*
G01*
X175850000Y-93975000D01*
G75*
G02*
X176075000Y-94200000I0J-225000D01*
G01*
X176075000Y-94800000D01*
G75*
G02*
X175850000Y-95025000I-225000J0D01*
G01*
X175400000Y-95025000D01*
G75*
G02*
X175175000Y-94800000I0J225000D01*
G01*
G37*
G36*
G01*
X173525000Y-94800000D02*
X173525000Y-94200000D01*
G75*
G02*
X173750000Y-93975000I225000J0D01*
G01*
X174200000Y-93975000D01*
G75*
G02*
X174425000Y-94200000I0J-225000D01*
G01*
X174425000Y-94800000D01*
G75*
G02*
X174200000Y-95025000I-225000J0D01*
G01*
X173750000Y-95025000D01*
G75*
G02*
X173525000Y-94800000I0J225000D01*
G01*
G37*
%TD*%
%TO.C,J2*%
G36*
G01*
X194130000Y-91850000D02*
X192680000Y-91850000D01*
G75*
G02*
X192630000Y-91800000I0J50000D01*
G01*
X192630000Y-91200000D01*
G75*
G02*
X192680000Y-91150000I50000J0D01*
G01*
X194130000Y-91150000D01*
G75*
G02*
X194180000Y-91200000I0J-50000D01*
G01*
X194180000Y-91800000D01*
G75*
G02*
X194130000Y-91850000I-50000J0D01*
G01*
G37*
G36*
G01*
X194130000Y-92650000D02*
X192680000Y-92650000D01*
G75*
G02*
X192630000Y-92600000I0J50000D01*
G01*
X192630000Y-92000000D01*
G75*
G02*
X192680000Y-91950000I50000J0D01*
G01*
X194130000Y-91950000D01*
G75*
G02*
X194180000Y-92000000I0J-50000D01*
G01*
X194180000Y-92600000D01*
G75*
G02*
X194130000Y-92650000I-50000J0D01*
G01*
G37*
G36*
G01*
X194130000Y-97550000D02*
X192680000Y-97550000D01*
G75*
G02*
X192630000Y-97500000I0J50000D01*
G01*
X192630000Y-96900000D01*
G75*
G02*
X192680000Y-96850000I50000J0D01*
G01*
X194130000Y-96850000D01*
G75*
G02*
X194180000Y-96900000I0J-50000D01*
G01*
X194180000Y-97500000D01*
G75*
G02*
X194130000Y-97550000I-50000J0D01*
G01*
G37*
G36*
G01*
X194130000Y-98350000D02*
X192680000Y-98350000D01*
G75*
G02*
X192630000Y-98300000I0J50000D01*
G01*
X192630000Y-97700000D01*
G75*
G02*
X192680000Y-97650000I50000J0D01*
G01*
X194130000Y-97650000D01*
G75*
G02*
X194180000Y-97700000I0J-50000D01*
G01*
X194180000Y-98300000D01*
G75*
G02*
X194130000Y-98350000I-50000J0D01*
G01*
G37*
G36*
G01*
X194130000Y-98350000D02*
X192680000Y-98350000D01*
G75*
G02*
X192630000Y-98300000I0J50000D01*
G01*
X192630000Y-97700000D01*
G75*
G02*
X192680000Y-97650000I50000J0D01*
G01*
X194130000Y-97650000D01*
G75*
G02*
X194180000Y-97700000I0J-50000D01*
G01*
X194180000Y-98300000D01*
G75*
G02*
X194130000Y-98350000I-50000J0D01*
G01*
G37*
G36*
G01*
X194130000Y-97550000D02*
X192680000Y-97550000D01*
G75*
G02*
X192630000Y-97500000I0J50000D01*
G01*
X192630000Y-96900000D01*
G75*
G02*
X192680000Y-96850000I50000J0D01*
G01*
X194130000Y-96850000D01*
G75*
G02*
X194180000Y-96900000I0J-50000D01*
G01*
X194180000Y-97500000D01*
G75*
G02*
X194130000Y-97550000I-50000J0D01*
G01*
G37*
G36*
G01*
X194130000Y-92650000D02*
X192680000Y-92650000D01*
G75*
G02*
X192630000Y-92600000I0J50000D01*
G01*
X192630000Y-92000000D01*
G75*
G02*
X192680000Y-91950000I50000J0D01*
G01*
X194130000Y-91950000D01*
G75*
G02*
X194180000Y-92000000I0J-50000D01*
G01*
X194180000Y-92600000D01*
G75*
G02*
X194130000Y-92650000I-50000J0D01*
G01*
G37*
G36*
G01*
X194130000Y-91850000D02*
X192680000Y-91850000D01*
G75*
G02*
X192630000Y-91800000I0J50000D01*
G01*
X192630000Y-91200000D01*
G75*
G02*
X192680000Y-91150000I50000J0D01*
G01*
X194130000Y-91150000D01*
G75*
G02*
X194180000Y-91200000I0J-50000D01*
G01*
X194180000Y-91800000D01*
G75*
G02*
X194130000Y-91850000I-50000J0D01*
G01*
G37*
G36*
G01*
X194130000Y-96700000D02*
X192680000Y-96700000D01*
G75*
G02*
X192630000Y-96650000I0J50000D01*
G01*
X192630000Y-96350000D01*
G75*
G02*
X192680000Y-96300000I50000J0D01*
G01*
X194130000Y-96300000D01*
G75*
G02*
X194180000Y-96350000I0J-50000D01*
G01*
X194180000Y-96650000D01*
G75*
G02*
X194130000Y-96700000I-50000J0D01*
G01*
G37*
G36*
G01*
X194130000Y-96200000D02*
X192680000Y-96200000D01*
G75*
G02*
X192630000Y-96150000I0J50000D01*
G01*
X192630000Y-95850000D01*
G75*
G02*
X192680000Y-95800000I50000J0D01*
G01*
X194130000Y-95800000D01*
G75*
G02*
X194180000Y-95850000I0J-50000D01*
G01*
X194180000Y-96150000D01*
G75*
G02*
X194130000Y-96200000I-50000J0D01*
G01*
G37*
G36*
G01*
X194130000Y-95700000D02*
X192680000Y-95700000D01*
G75*
G02*
X192630000Y-95650000I0J50000D01*
G01*
X192630000Y-95350000D01*
G75*
G02*
X192680000Y-95300000I50000J0D01*
G01*
X194130000Y-95300000D01*
G75*
G02*
X194180000Y-95350000I0J-50000D01*
G01*
X194180000Y-95650000D01*
G75*
G02*
X194130000Y-95700000I-50000J0D01*
G01*
G37*
G36*
G01*
X194130000Y-94700000D02*
X192680000Y-94700000D01*
G75*
G02*
X192630000Y-94650000I0J50000D01*
G01*
X192630000Y-94350000D01*
G75*
G02*
X192680000Y-94300000I50000J0D01*
G01*
X194130000Y-94300000D01*
G75*
G02*
X194180000Y-94350000I0J-50000D01*
G01*
X194180000Y-94650000D01*
G75*
G02*
X194130000Y-94700000I-50000J0D01*
G01*
G37*
G36*
G01*
X194130000Y-94200000D02*
X192680000Y-94200000D01*
G75*
G02*
X192630000Y-94150000I0J50000D01*
G01*
X192630000Y-93850000D01*
G75*
G02*
X192680000Y-93800000I50000J0D01*
G01*
X194130000Y-93800000D01*
G75*
G02*
X194180000Y-93850000I0J-50000D01*
G01*
X194180000Y-94150000D01*
G75*
G02*
X194130000Y-94200000I-50000J0D01*
G01*
G37*
G36*
G01*
X194130000Y-93700000D02*
X192680000Y-93700000D01*
G75*
G02*
X192630000Y-93650000I0J50000D01*
G01*
X192630000Y-93350000D01*
G75*
G02*
X192680000Y-93300000I50000J0D01*
G01*
X194130000Y-93300000D01*
G75*
G02*
X194180000Y-93350000I0J-50000D01*
G01*
X194180000Y-93650000D01*
G75*
G02*
X194130000Y-93700000I-50000J0D01*
G01*
G37*
G36*
G01*
X194130000Y-93200000D02*
X192680000Y-93200000D01*
G75*
G02*
X192630000Y-93150000I0J50000D01*
G01*
X192630000Y-92850000D01*
G75*
G02*
X192680000Y-92800000I50000J0D01*
G01*
X194130000Y-92800000D01*
G75*
G02*
X194180000Y-92850000I0J-50000D01*
G01*
X194180000Y-93150000D01*
G75*
G02*
X194130000Y-93200000I-50000J0D01*
G01*
G37*
G36*
G01*
X194130000Y-95200000D02*
X192680000Y-95200000D01*
G75*
G02*
X192630000Y-95150000I0J50000D01*
G01*
X192630000Y-94850000D01*
G75*
G02*
X192680000Y-94800000I50000J0D01*
G01*
X194130000Y-94800000D01*
G75*
G02*
X194180000Y-94850000I0J-50000D01*
G01*
X194180000Y-95150000D01*
G75*
G02*
X194130000Y-95200000I-50000J0D01*
G01*
G37*
D11*
X194320000Y-90430000D03*
X194320000Y-99070000D03*
D12*
X194850000Y-97640000D03*
D13*
X198500000Y-99070000D03*
D12*
X194850000Y-91860000D03*
D13*
X198500000Y-90430000D03*
%TD*%
%TO.C,R6*%
G36*
G01*
X181025000Y-89800000D02*
X181025000Y-90400000D01*
G75*
G02*
X180800000Y-90625000I-225000J0D01*
G01*
X180350000Y-90625000D01*
G75*
G02*
X180125000Y-90400000I0J225000D01*
G01*
X180125000Y-89800000D01*
G75*
G02*
X180350000Y-89575000I225000J0D01*
G01*
X180800000Y-89575000D01*
G75*
G02*
X181025000Y-89800000I0J-225000D01*
G01*
G37*
G36*
G01*
X182675000Y-89800000D02*
X182675000Y-90400000D01*
G75*
G02*
X182450000Y-90625000I-225000J0D01*
G01*
X182000000Y-90625000D01*
G75*
G02*
X181775000Y-90400000I0J225000D01*
G01*
X181775000Y-89800000D01*
G75*
G02*
X182000000Y-89575000I225000J0D01*
G01*
X182450000Y-89575000D01*
G75*
G02*
X182675000Y-89800000I0J-225000D01*
G01*
G37*
%TD*%
%TO.C,D6*%
G36*
G01*
X168900000Y-96618750D02*
X168900000Y-97181250D01*
G75*
G02*
X168656250Y-97425000I-243750J0D01*
G01*
X168168750Y-97425000D01*
G75*
G02*
X167925000Y-97181250I0J243750D01*
G01*
X167925000Y-96618750D01*
G75*
G02*
X168168750Y-96375000I243750J0D01*
G01*
X168656250Y-96375000D01*
G75*
G02*
X168900000Y-96618750I0J-243750D01*
G01*
G37*
G36*
G01*
X170475000Y-96618750D02*
X170475000Y-97181250D01*
G75*
G02*
X170231250Y-97425000I-243750J0D01*
G01*
X169743750Y-97425000D01*
G75*
G02*
X169500000Y-97181250I0J243750D01*
G01*
X169500000Y-96618750D01*
G75*
G02*
X169743750Y-96375000I243750J0D01*
G01*
X170231250Y-96375000D01*
G75*
G02*
X170475000Y-96618750I0J-243750D01*
G01*
G37*
%TD*%
%TO.C,D3*%
G36*
G01*
X181100000Y-92838750D02*
X181100000Y-93401250D01*
G75*
G02*
X180856250Y-93645000I-243750J0D01*
G01*
X180368750Y-93645000D01*
G75*
G02*
X180125000Y-93401250I0J243750D01*
G01*
X180125000Y-92838750D01*
G75*
G02*
X180368750Y-92595000I243750J0D01*
G01*
X180856250Y-92595000D01*
G75*
G02*
X181100000Y-92838750I0J-243750D01*
G01*
G37*
G36*
G01*
X182675000Y-92838750D02*
X182675000Y-93401250D01*
G75*
G02*
X182431250Y-93645000I-243750J0D01*
G01*
X181943750Y-93645000D01*
G75*
G02*
X181700000Y-93401250I0J243750D01*
G01*
X181700000Y-92838750D01*
G75*
G02*
X181943750Y-92595000I243750J0D01*
G01*
X182431250Y-92595000D01*
G75*
G02*
X182675000Y-92838750I0J-243750D01*
G01*
G37*
%TD*%
%TO.C,D2*%
G36*
G01*
X181100000Y-95198750D02*
X181100000Y-95761250D01*
G75*
G02*
X180856250Y-96005000I-243750J0D01*
G01*
X180368750Y-96005000D01*
G75*
G02*
X180125000Y-95761250I0J243750D01*
G01*
X180125000Y-95198750D01*
G75*
G02*
X180368750Y-94955000I243750J0D01*
G01*
X180856250Y-94955000D01*
G75*
G02*
X181100000Y-95198750I0J-243750D01*
G01*
G37*
G36*
G01*
X182675000Y-95198750D02*
X182675000Y-95761250D01*
G75*
G02*
X182431250Y-96005000I-243750J0D01*
G01*
X181943750Y-96005000D01*
G75*
G02*
X181700000Y-95761250I0J243750D01*
G01*
X181700000Y-95198750D01*
G75*
G02*
X181943750Y-94955000I243750J0D01*
G01*
X182431250Y-94955000D01*
G75*
G02*
X182675000Y-95198750I0J-243750D01*
G01*
G37*
%TD*%
%TO.C,C5*%
G36*
G01*
X189075000Y-98075000D02*
X189075000Y-97525000D01*
G75*
G02*
X189325000Y-97275000I250000J0D01*
G01*
X189825000Y-97275000D01*
G75*
G02*
X190075000Y-97525000I0J-250000D01*
G01*
X190075000Y-98075000D01*
G75*
G02*
X189825000Y-98325000I-250000J0D01*
G01*
X189325000Y-98325000D01*
G75*
G02*
X189075000Y-98075000I0J250000D01*
G01*
G37*
G36*
G01*
X187525000Y-98075000D02*
X187525000Y-97525000D01*
G75*
G02*
X187775000Y-97275000I250000J0D01*
G01*
X188275000Y-97275000D01*
G75*
G02*
X188525000Y-97525000I0J-250000D01*
G01*
X188525000Y-98075000D01*
G75*
G02*
X188275000Y-98325000I-250000J0D01*
G01*
X187775000Y-98325000D01*
G75*
G02*
X187525000Y-98075000I0J250000D01*
G01*
G37*
%TD*%
%TO.C,SW1*%
G36*
G01*
X179050000Y-89100000D02*
X177350000Y-89100000D01*
G75*
G02*
X177300000Y-89050000I0J50000D01*
G01*
X177300000Y-88150000D01*
G75*
G02*
X177350000Y-88100000I50000J0D01*
G01*
X179050000Y-88100000D01*
G75*
G02*
X179100000Y-88150000I0J-50000D01*
G01*
X179100000Y-89050000D01*
G75*
G02*
X179050000Y-89100000I-50000J0D01*
G01*
G37*
G36*
G01*
X179050000Y-93500000D02*
X177350000Y-93500000D01*
G75*
G02*
X177300000Y-93450000I0J50000D01*
G01*
X177300000Y-92550000D01*
G75*
G02*
X177350000Y-92500000I50000J0D01*
G01*
X179050000Y-92500000D01*
G75*
G02*
X179100000Y-92550000I0J-50000D01*
G01*
X179100000Y-93450000D01*
G75*
G02*
X179050000Y-93500000I-50000J0D01*
G01*
G37*
%TD*%
%TO.C,R9*%
G36*
G01*
X171800000Y-95675000D02*
X171200000Y-95675000D01*
G75*
G02*
X170975000Y-95450000I0J225000D01*
G01*
X170975000Y-95000000D01*
G75*
G02*
X171200000Y-94775000I225000J0D01*
G01*
X171800000Y-94775000D01*
G75*
G02*
X172025000Y-95000000I0J-225000D01*
G01*
X172025000Y-95450000D01*
G75*
G02*
X171800000Y-95675000I-225000J0D01*
G01*
G37*
G36*
G01*
X171800000Y-97325000D02*
X171200000Y-97325000D01*
G75*
G02*
X170975000Y-97100000I0J225000D01*
G01*
X170975000Y-96650000D01*
G75*
G02*
X171200000Y-96425000I225000J0D01*
G01*
X171800000Y-96425000D01*
G75*
G02*
X172025000Y-96650000I0J-225000D01*
G01*
X172025000Y-97100000D01*
G75*
G02*
X171800000Y-97325000I-225000J0D01*
G01*
G37*
%TD*%
%TO.C,R10*%
G36*
G01*
X169575000Y-95450000D02*
X169575000Y-94850000D01*
G75*
G02*
X169800000Y-94625000I225000J0D01*
G01*
X170250000Y-94625000D01*
G75*
G02*
X170475000Y-94850000I0J-225000D01*
G01*
X170475000Y-95450000D01*
G75*
G02*
X170250000Y-95675000I-225000J0D01*
G01*
X169800000Y-95675000D01*
G75*
G02*
X169575000Y-95450000I0J225000D01*
G01*
G37*
G36*
G01*
X167925000Y-95450000D02*
X167925000Y-94850000D01*
G75*
G02*
X168150000Y-94625000I225000J0D01*
G01*
X168600000Y-94625000D01*
G75*
G02*
X168825000Y-94850000I0J-225000D01*
G01*
X168825000Y-95450000D01*
G75*
G02*
X168600000Y-95675000I-225000J0D01*
G01*
X168150000Y-95675000D01*
G75*
G02*
X167925000Y-95450000I0J225000D01*
G01*
G37*
%TD*%
%TO.C,R2*%
G36*
G01*
X181025000Y-91300000D02*
X181025000Y-91900000D01*
G75*
G02*
X180800000Y-92125000I-225000J0D01*
G01*
X180350000Y-92125000D01*
G75*
G02*
X180125000Y-91900000I0J225000D01*
G01*
X180125000Y-91300000D01*
G75*
G02*
X180350000Y-91075000I225000J0D01*
G01*
X180800000Y-91075000D01*
G75*
G02*
X181025000Y-91300000I0J-225000D01*
G01*
G37*
G36*
G01*
X182675000Y-91300000D02*
X182675000Y-91900000D01*
G75*
G02*
X182450000Y-92125000I-225000J0D01*
G01*
X182000000Y-92125000D01*
G75*
G02*
X181775000Y-91900000I0J225000D01*
G01*
X181775000Y-91300000D01*
G75*
G02*
X182000000Y-91075000I225000J0D01*
G01*
X182450000Y-91075000D01*
G75*
G02*
X182675000Y-91300000I0J-225000D01*
G01*
G37*
%TD*%
%TO.C,R1*%
G36*
G01*
X181025000Y-97500000D02*
X181025000Y-98100000D01*
G75*
G02*
X180800000Y-98325000I-225000J0D01*
G01*
X180350000Y-98325000D01*
G75*
G02*
X180125000Y-98100000I0J225000D01*
G01*
X180125000Y-97500000D01*
G75*
G02*
X180350000Y-97275000I225000J0D01*
G01*
X180800000Y-97275000D01*
G75*
G02*
X181025000Y-97500000I0J-225000D01*
G01*
G37*
G36*
G01*
X182675000Y-97500000D02*
X182675000Y-98100000D01*
G75*
G02*
X182450000Y-98325000I-225000J0D01*
G01*
X182000000Y-98325000D01*
G75*
G02*
X181775000Y-98100000I0J225000D01*
G01*
X181775000Y-97500000D01*
G75*
G02*
X182000000Y-97275000I225000J0D01*
G01*
X182450000Y-97275000D01*
G75*
G02*
X182675000Y-97500000I0J-225000D01*
G01*
G37*
%TD*%
%TO.C,C17*%
G36*
G01*
X168175000Y-92525000D02*
X168725000Y-92525000D01*
G75*
G02*
X168975000Y-92775000I0J-250000D01*
G01*
X168975000Y-93275000D01*
G75*
G02*
X168725000Y-93525000I-250000J0D01*
G01*
X168175000Y-93525000D01*
G75*
G02*
X167925000Y-93275000I0J250000D01*
G01*
X167925000Y-92775000D01*
G75*
G02*
X168175000Y-92525000I250000J0D01*
G01*
G37*
G36*
G01*
X168175000Y-90975000D02*
X168725000Y-90975000D01*
G75*
G02*
X168975000Y-91225000I0J-250000D01*
G01*
X168975000Y-91725000D01*
G75*
G02*
X168725000Y-91975000I-250000J0D01*
G01*
X168175000Y-91975000D01*
G75*
G02*
X167925000Y-91725000I0J250000D01*
G01*
X167925000Y-91225000D01*
G75*
G02*
X168175000Y-90975000I250000J0D01*
G01*
G37*
%TD*%
%TO.C,C16*%
G36*
G01*
X181125000Y-88325000D02*
X181125000Y-88875000D01*
G75*
G02*
X180875000Y-89125000I-250000J0D01*
G01*
X180375000Y-89125000D01*
G75*
G02*
X180125000Y-88875000I0J250000D01*
G01*
X180125000Y-88325000D01*
G75*
G02*
X180375000Y-88075000I250000J0D01*
G01*
X180875000Y-88075000D01*
G75*
G02*
X181125000Y-88325000I0J-250000D01*
G01*
G37*
G36*
G01*
X182675000Y-88325000D02*
X182675000Y-88875000D01*
G75*
G02*
X182425000Y-89125000I-250000J0D01*
G01*
X181925000Y-89125000D01*
G75*
G02*
X181675000Y-88875000I0J250000D01*
G01*
X181675000Y-88325000D01*
G75*
G02*
X181925000Y-88075000I250000J0D01*
G01*
X182425000Y-88075000D01*
G75*
G02*
X182675000Y-88325000I0J-250000D01*
G01*
G37*
%TD*%
%TO.C,C3*%
G36*
G01*
X184775000Y-97525000D02*
X184775000Y-98075000D01*
G75*
G02*
X184525000Y-98325000I-250000J0D01*
G01*
X184025000Y-98325000D01*
G75*
G02*
X183775000Y-98075000I0J250000D01*
G01*
X183775000Y-97525000D01*
G75*
G02*
X184025000Y-97275000I250000J0D01*
G01*
X184525000Y-97275000D01*
G75*
G02*
X184775000Y-97525000I0J-250000D01*
G01*
G37*
G36*
G01*
X186325000Y-97525000D02*
X186325000Y-98075000D01*
G75*
G02*
X186075000Y-98325000I-250000J0D01*
G01*
X185575000Y-98325000D01*
G75*
G02*
X185325000Y-98075000I0J250000D01*
G01*
X185325000Y-97525000D01*
G75*
G02*
X185575000Y-97275000I250000J0D01*
G01*
X186075000Y-97275000D01*
G75*
G02*
X186325000Y-97525000I0J-250000D01*
G01*
G37*
%TD*%
%TO.C,U1*%
G36*
G01*
X185675000Y-89750000D02*
X185675000Y-89350000D01*
G75*
G02*
X185725000Y-89300000I50000J0D01*
G01*
X186375000Y-89300000D01*
G75*
G02*
X186425000Y-89350000I0J-50000D01*
G01*
X186425000Y-89750000D01*
G75*
G02*
X186375000Y-89800000I-50000J0D01*
G01*
X185725000Y-89800000D01*
G75*
G02*
X185675000Y-89750000I0J50000D01*
G01*
G37*
G36*
G01*
X185675000Y-91050000D02*
X185675000Y-90650000D01*
G75*
G02*
X185725000Y-90600000I50000J0D01*
G01*
X186375000Y-90600000D01*
G75*
G02*
X186425000Y-90650000I0J-50000D01*
G01*
X186425000Y-91050000D01*
G75*
G02*
X186375000Y-91100000I-50000J0D01*
G01*
X185725000Y-91100000D01*
G75*
G02*
X185675000Y-91050000I0J50000D01*
G01*
G37*
G36*
G01*
X183775000Y-90400000D02*
X183775000Y-90000000D01*
G75*
G02*
X183825000Y-89950000I50000J0D01*
G01*
X184475000Y-89950000D01*
G75*
G02*
X184525000Y-90000000I0J-50000D01*
G01*
X184525000Y-90400000D01*
G75*
G02*
X184475000Y-90450000I-50000J0D01*
G01*
X183825000Y-90450000D01*
G75*
G02*
X183775000Y-90400000I0J50000D01*
G01*
G37*
G36*
G01*
X185675000Y-90400000D02*
X185675000Y-90000000D01*
G75*
G02*
X185725000Y-89950000I50000J0D01*
G01*
X186375000Y-89950000D01*
G75*
G02*
X186425000Y-90000000I0J-50000D01*
G01*
X186425000Y-90400000D01*
G75*
G02*
X186375000Y-90450000I-50000J0D01*
G01*
X185725000Y-90450000D01*
G75*
G02*
X185675000Y-90400000I0J50000D01*
G01*
G37*
G36*
G01*
X183775000Y-91050000D02*
X183775000Y-90650000D01*
G75*
G02*
X183825000Y-90600000I50000J0D01*
G01*
X184475000Y-90600000D01*
G75*
G02*
X184525000Y-90650000I0J-50000D01*
G01*
X184525000Y-91050000D01*
G75*
G02*
X184475000Y-91100000I-50000J0D01*
G01*
X183825000Y-91100000D01*
G75*
G02*
X183775000Y-91050000I0J50000D01*
G01*
G37*
G36*
G01*
X183775000Y-89750000D02*
X183775000Y-89350000D01*
G75*
G02*
X183825000Y-89300000I50000J0D01*
G01*
X184475000Y-89300000D01*
G75*
G02*
X184525000Y-89350000I0J-50000D01*
G01*
X184525000Y-89750000D01*
G75*
G02*
X184475000Y-89800000I-50000J0D01*
G01*
X183825000Y-89800000D01*
G75*
G02*
X183775000Y-89750000I0J50000D01*
G01*
G37*
%TD*%
%TO.C,R3*%
G36*
G01*
X157100000Y-69975000D02*
X157700000Y-69975000D01*
G75*
G02*
X157925000Y-70200000I0J-225000D01*
G01*
X157925000Y-70650000D01*
G75*
G02*
X157700000Y-70875000I-225000J0D01*
G01*
X157100000Y-70875000D01*
G75*
G02*
X156875000Y-70650000I0J225000D01*
G01*
X156875000Y-70200000D01*
G75*
G02*
X157100000Y-69975000I225000J0D01*
G01*
G37*
G36*
G01*
X157100000Y-68325000D02*
X157700000Y-68325000D01*
G75*
G02*
X157925000Y-68550000I0J-225000D01*
G01*
X157925000Y-69000000D01*
G75*
G02*
X157700000Y-69225000I-225000J0D01*
G01*
X157100000Y-69225000D01*
G75*
G02*
X156875000Y-69000000I0J225000D01*
G01*
X156875000Y-68550000D01*
G75*
G02*
X157100000Y-68325000I225000J0D01*
G01*
G37*
%TD*%
%TO.C,J3*%
G36*
G01*
X159400000Y-94350000D02*
X159400000Y-91850000D01*
G75*
G02*
X159450000Y-91800000I50000J0D01*
G01*
X161950000Y-91800000D01*
G75*
G02*
X162000000Y-91850000I0J-50000D01*
G01*
X162000000Y-94350000D01*
G75*
G02*
X161950000Y-94400000I-50000J0D01*
G01*
X159450000Y-94400000D01*
G75*
G02*
X159400000Y-94350000I0J50000D01*
G01*
G37*
%TD*%
%TO.C,J1*%
G36*
G01*
X159400000Y-98050000D02*
X159400000Y-95550000D01*
G75*
G02*
X159450000Y-95500000I50000J0D01*
G01*
X161950000Y-95500000D01*
G75*
G02*
X162000000Y-95550000I0J-50000D01*
G01*
X162000000Y-98050000D01*
G75*
G02*
X161950000Y-98100000I-50000J0D01*
G01*
X159450000Y-98100000D01*
G75*
G02*
X159400000Y-98050000I0J50000D01*
G01*
G37*
%TD*%
%TO.C,C6*%
G36*
G01*
X157125000Y-72875000D02*
X157675000Y-72875000D01*
G75*
G02*
X157925000Y-73125000I0J-250000D01*
G01*
X157925000Y-73625000D01*
G75*
G02*
X157675000Y-73875000I-250000J0D01*
G01*
X157125000Y-73875000D01*
G75*
G02*
X156875000Y-73625000I0J250000D01*
G01*
X156875000Y-73125000D01*
G75*
G02*
X157125000Y-72875000I250000J0D01*
G01*
G37*
G36*
G01*
X157125000Y-71325000D02*
X157675000Y-71325000D01*
G75*
G02*
X157925000Y-71575000I0J-250000D01*
G01*
X157925000Y-72075000D01*
G75*
G02*
X157675000Y-72325000I-250000J0D01*
G01*
X157125000Y-72325000D01*
G75*
G02*
X156875000Y-72075000I0J250000D01*
G01*
X156875000Y-71575000D01*
G75*
G02*
X157125000Y-71325000I250000J0D01*
G01*
G37*
%TD*%
%TO.C,U6*%
G36*
G01*
X166320000Y-91925000D02*
X166320000Y-91275000D01*
G75*
G02*
X166370000Y-91225000I50000J0D01*
G01*
X167430000Y-91225000D01*
G75*
G02*
X167480000Y-91275000I0J-50000D01*
G01*
X167480000Y-91925000D01*
G75*
G02*
X167430000Y-91975000I-50000J0D01*
G01*
X166370000Y-91975000D01*
G75*
G02*
X166320000Y-91925000I0J50000D01*
G01*
G37*
G36*
G01*
X166320000Y-93825000D02*
X166320000Y-93175000D01*
G75*
G02*
X166370000Y-93125000I50000J0D01*
G01*
X167430000Y-93125000D01*
G75*
G02*
X167480000Y-93175000I0J-50000D01*
G01*
X167480000Y-93825000D01*
G75*
G02*
X167430000Y-93875000I-50000J0D01*
G01*
X166370000Y-93875000D01*
G75*
G02*
X166320000Y-93825000I0J50000D01*
G01*
G37*
G36*
G01*
X164120000Y-93825000D02*
X164120000Y-93175000D01*
G75*
G02*
X164170000Y-93125000I50000J0D01*
G01*
X165230000Y-93125000D01*
G75*
G02*
X165280000Y-93175000I0J-50000D01*
G01*
X165280000Y-93825000D01*
G75*
G02*
X165230000Y-93875000I-50000J0D01*
G01*
X164170000Y-93875000D01*
G75*
G02*
X164120000Y-93825000I0J50000D01*
G01*
G37*
G36*
G01*
X164120000Y-92875000D02*
X164120000Y-92225000D01*
G75*
G02*
X164170000Y-92175000I50000J0D01*
G01*
X165230000Y-92175000D01*
G75*
G02*
X165280000Y-92225000I0J-50000D01*
G01*
X165280000Y-92875000D01*
G75*
G02*
X165230000Y-92925000I-50000J0D01*
G01*
X164170000Y-92925000D01*
G75*
G02*
X164120000Y-92875000I0J50000D01*
G01*
G37*
G36*
G01*
X164120000Y-91925000D02*
X164120000Y-91275000D01*
G75*
G02*
X164170000Y-91225000I50000J0D01*
G01*
X165230000Y-91225000D01*
G75*
G02*
X165280000Y-91275000I0J-50000D01*
G01*
X165280000Y-91925000D01*
G75*
G02*
X165230000Y-91975000I-50000J0D01*
G01*
X164170000Y-91975000D01*
G75*
G02*
X164120000Y-91925000I0J50000D01*
G01*
G37*
%TD*%
%TO.C,U2*%
G36*
G01*
X188200000Y-92300000D02*
X188200000Y-96300000D01*
G75*
G02*
X188150000Y-96350000I-50000J0D01*
G01*
X185650000Y-96350000D01*
G75*
G02*
X185600000Y-96300000I0J50000D01*
G01*
X185600000Y-92300000D01*
G75*
G02*
X185650000Y-92250000I50000J0D01*
G01*
X188150000Y-92250000D01*
G75*
G02*
X188200000Y-92300000I0J-50000D01*
G01*
G37*
G36*
G01*
X184950000Y-96044999D02*
X184950000Y-96555001D01*
G75*
G02*
X184900001Y-96605000I-49999J0D01*
G01*
X183799999Y-96605000D01*
G75*
G02*
X183750000Y-96555001I0J49999D01*
G01*
X183750000Y-96044999D01*
G75*
G02*
X183799999Y-95995000I49999J0D01*
G01*
X184900001Y-95995000D01*
G75*
G02*
X184950000Y-96044999I0J-49999D01*
G01*
G37*
G36*
G01*
X184950000Y-95044999D02*
X184950000Y-95555001D01*
G75*
G02*
X184900001Y-95605000I-49999J0D01*
G01*
X183799999Y-95605000D01*
G75*
G02*
X183750000Y-95555001I0J49999D01*
G01*
X183750000Y-95044999D01*
G75*
G02*
X183799999Y-94995000I49999J0D01*
G01*
X184900001Y-94995000D01*
G75*
G02*
X184950000Y-95044999I0J-49999D01*
G01*
G37*
G36*
G01*
X190050000Y-92044999D02*
X190050000Y-92555001D01*
G75*
G02*
X190000001Y-92605000I-49999J0D01*
G01*
X188899999Y-92605000D01*
G75*
G02*
X188850000Y-92555001I0J49999D01*
G01*
X188850000Y-92044999D01*
G75*
G02*
X188899999Y-91995000I49999J0D01*
G01*
X190000001Y-91995000D01*
G75*
G02*
X190050000Y-92044999I0J-49999D01*
G01*
G37*
G36*
G01*
X184950000Y-94044999D02*
X184950000Y-94555001D01*
G75*
G02*
X184900001Y-94605000I-49999J0D01*
G01*
X183799999Y-94605000D01*
G75*
G02*
X183750000Y-94555001I0J49999D01*
G01*
X183750000Y-94044999D01*
G75*
G02*
X183799999Y-93995000I49999J0D01*
G01*
X184900001Y-93995000D01*
G75*
G02*
X184950000Y-94044999I0J-49999D01*
G01*
G37*
G36*
G01*
X184950000Y-93044999D02*
X184950000Y-93555001D01*
G75*
G02*
X184900001Y-93605000I-49999J0D01*
G01*
X183799999Y-93605000D01*
G75*
G02*
X183750000Y-93555001I0J49999D01*
G01*
X183750000Y-93044999D01*
G75*
G02*
X183799999Y-92995000I49999J0D01*
G01*
X184900001Y-92995000D01*
G75*
G02*
X184950000Y-93044999I0J-49999D01*
G01*
G37*
G36*
G01*
X184950000Y-92044999D02*
X184950000Y-92555001D01*
G75*
G02*
X184900001Y-92605000I-49999J0D01*
G01*
X183799999Y-92605000D01*
G75*
G02*
X183750000Y-92555001I0J49999D01*
G01*
X183750000Y-92044999D01*
G75*
G02*
X183799999Y-91995000I49999J0D01*
G01*
X184900001Y-91995000D01*
G75*
G02*
X184950000Y-92044999I0J-49999D01*
G01*
G37*
G36*
G01*
X190050000Y-93044999D02*
X190050000Y-93555001D01*
G75*
G02*
X190000001Y-93605000I-49999J0D01*
G01*
X188899999Y-93605000D01*
G75*
G02*
X188850000Y-93555001I0J49999D01*
G01*
X188850000Y-93044999D01*
G75*
G02*
X188899999Y-92995000I49999J0D01*
G01*
X190000001Y-92995000D01*
G75*
G02*
X190050000Y-93044999I0J-49999D01*
G01*
G37*
G36*
G01*
X190050000Y-94044999D02*
X190050000Y-94555001D01*
G75*
G02*
X190000001Y-94605000I-49999J0D01*
G01*
X188899999Y-94605000D01*
G75*
G02*
X188850000Y-94555001I0J49999D01*
G01*
X188850000Y-94044999D01*
G75*
G02*
X188899999Y-93995000I49999J0D01*
G01*
X190000001Y-93995000D01*
G75*
G02*
X190050000Y-94044999I0J-49999D01*
G01*
G37*
G36*
G01*
X190050000Y-95044999D02*
X190050000Y-95555001D01*
G75*
G02*
X190000001Y-95605000I-49999J0D01*
G01*
X188899999Y-95605000D01*
G75*
G02*
X188850000Y-95555001I0J49999D01*
G01*
X188850000Y-95044999D01*
G75*
G02*
X188899999Y-94995000I49999J0D01*
G01*
X190000001Y-94995000D01*
G75*
G02*
X190050000Y-95044999I0J-49999D01*
G01*
G37*
G36*
G01*
X190050000Y-96044999D02*
X190050000Y-96555001D01*
G75*
G02*
X190000001Y-96605000I-49999J0D01*
G01*
X188899999Y-96605000D01*
G75*
G02*
X188850000Y-96555001I0J49999D01*
G01*
X188850000Y-96044999D01*
G75*
G02*
X188899999Y-95995000I49999J0D01*
G01*
X190000001Y-95995000D01*
G75*
G02*
X190050000Y-96044999I0J-49999D01*
G01*
G37*
%TD*%
%TO.C,U7*%
G36*
G01*
X166320000Y-95575000D02*
X166320000Y-94925000D01*
G75*
G02*
X166370000Y-94875000I50000J0D01*
G01*
X167430000Y-94875000D01*
G75*
G02*
X167480000Y-94925000I0J-50000D01*
G01*
X167480000Y-95575000D01*
G75*
G02*
X167430000Y-95625000I-50000J0D01*
G01*
X166370000Y-95625000D01*
G75*
G02*
X166320000Y-95575000I0J50000D01*
G01*
G37*
G36*
G01*
X166320000Y-97475000D02*
X166320000Y-96825000D01*
G75*
G02*
X166370000Y-96775000I50000J0D01*
G01*
X167430000Y-96775000D01*
G75*
G02*
X167480000Y-96825000I0J-50000D01*
G01*
X167480000Y-97475000D01*
G75*
G02*
X167430000Y-97525000I-50000J0D01*
G01*
X166370000Y-97525000D01*
G75*
G02*
X166320000Y-97475000I0J50000D01*
G01*
G37*
G36*
G01*
X164120000Y-97475000D02*
X164120000Y-96825000D01*
G75*
G02*
X164170000Y-96775000I50000J0D01*
G01*
X165230000Y-96775000D01*
G75*
G02*
X165280000Y-96825000I0J-50000D01*
G01*
X165280000Y-97475000D01*
G75*
G02*
X165230000Y-97525000I-50000J0D01*
G01*
X164170000Y-97525000D01*
G75*
G02*
X164120000Y-97475000I0J50000D01*
G01*
G37*
G36*
G01*
X164120000Y-96525000D02*
X164120000Y-95875000D01*
G75*
G02*
X164170000Y-95825000I50000J0D01*
G01*
X165230000Y-95825000D01*
G75*
G02*
X165280000Y-95875000I0J-50000D01*
G01*
X165280000Y-96525000D01*
G75*
G02*
X165230000Y-96575000I-50000J0D01*
G01*
X164170000Y-96575000D01*
G75*
G02*
X164120000Y-96525000I0J50000D01*
G01*
G37*
G36*
G01*
X164120000Y-95575000D02*
X164120000Y-94925000D01*
G75*
G02*
X164170000Y-94875000I50000J0D01*
G01*
X165230000Y-94875000D01*
G75*
G02*
X165280000Y-94925000I0J-50000D01*
G01*
X165280000Y-95575000D01*
G75*
G02*
X165230000Y-95625000I-50000J0D01*
G01*
X164170000Y-95625000D01*
G75*
G02*
X164120000Y-95575000I0J50000D01*
G01*
G37*
%TD*%
%TO.C,U4*%
G36*
G01*
X176450000Y-68195000D02*
X176450000Y-67295000D01*
G75*
G02*
X176500000Y-67245000I50000J0D01*
G01*
X178500000Y-67245000D01*
G75*
G02*
X178550000Y-67295000I0J-50000D01*
G01*
X178550000Y-68195000D01*
G75*
G02*
X178500000Y-68245000I-50000J0D01*
G01*
X176500000Y-68245000D01*
G75*
G02*
X176450000Y-68195000I0J50000D01*
G01*
G37*
G36*
G01*
X176450000Y-69465000D02*
X176450000Y-68565000D01*
G75*
G02*
X176500000Y-68515000I50000J0D01*
G01*
X178500000Y-68515000D01*
G75*
G02*
X178550000Y-68565000I0J-50000D01*
G01*
X178550000Y-69465000D01*
G75*
G02*
X178500000Y-69515000I-50000J0D01*
G01*
X176500000Y-69515000D01*
G75*
G02*
X176450000Y-69465000I0J50000D01*
G01*
G37*
G36*
G01*
X176450000Y-70735000D02*
X176450000Y-69835000D01*
G75*
G02*
X176500000Y-69785000I50000J0D01*
G01*
X178500000Y-69785000D01*
G75*
G02*
X178550000Y-69835000I0J-50000D01*
G01*
X178550000Y-70735000D01*
G75*
G02*
X178500000Y-70785000I-50000J0D01*
G01*
X176500000Y-70785000D01*
G75*
G02*
X176450000Y-70735000I0J50000D01*
G01*
G37*
G36*
G01*
X176450000Y-72005000D02*
X176450000Y-71105000D01*
G75*
G02*
X176500000Y-71055000I50000J0D01*
G01*
X178500000Y-71055000D01*
G75*
G02*
X178550000Y-71105000I0J-50000D01*
G01*
X178550000Y-72005000D01*
G75*
G02*
X178500000Y-72055000I-50000J0D01*
G01*
X176500000Y-72055000D01*
G75*
G02*
X176450000Y-72005000I0J50000D01*
G01*
G37*
G36*
G01*
X176450000Y-73275000D02*
X176450000Y-72375000D01*
G75*
G02*
X176500000Y-72325000I50000J0D01*
G01*
X178500000Y-72325000D01*
G75*
G02*
X178550000Y-72375000I0J-50000D01*
G01*
X178550000Y-73275000D01*
G75*
G02*
X178500000Y-73325000I-50000J0D01*
G01*
X176500000Y-73325000D01*
G75*
G02*
X176450000Y-73275000I0J50000D01*
G01*
G37*
G36*
G01*
X176450000Y-74545000D02*
X176450000Y-73645000D01*
G75*
G02*
X176500000Y-73595000I50000J0D01*
G01*
X178500000Y-73595000D01*
G75*
G02*
X178550000Y-73645000I0J-50000D01*
G01*
X178550000Y-74545000D01*
G75*
G02*
X178500000Y-74595000I-50000J0D01*
G01*
X176500000Y-74595000D01*
G75*
G02*
X176450000Y-74545000I0J50000D01*
G01*
G37*
G36*
G01*
X176450000Y-75815000D02*
X176450000Y-74915000D01*
G75*
G02*
X176500000Y-74865000I50000J0D01*
G01*
X178500000Y-74865000D01*
G75*
G02*
X178550000Y-74915000I0J-50000D01*
G01*
X178550000Y-75815000D01*
G75*
G02*
X178500000Y-75865000I-50000J0D01*
G01*
X176500000Y-75865000D01*
G75*
G02*
X176450000Y-75815000I0J50000D01*
G01*
G37*
G36*
G01*
X176450000Y-77085000D02*
X176450000Y-76185000D01*
G75*
G02*
X176500000Y-76135000I50000J0D01*
G01*
X178500000Y-76135000D01*
G75*
G02*
X178550000Y-76185000I0J-50000D01*
G01*
X178550000Y-77085000D01*
G75*
G02*
X178500000Y-77135000I-50000J0D01*
G01*
X176500000Y-77135000D01*
G75*
G02*
X176450000Y-77085000I0J50000D01*
G01*
G37*
G36*
G01*
X176450000Y-78355000D02*
X176450000Y-77455000D01*
G75*
G02*
X176500000Y-77405000I50000J0D01*
G01*
X178500000Y-77405000D01*
G75*
G02*
X178550000Y-77455000I0J-50000D01*
G01*
X178550000Y-78355000D01*
G75*
G02*
X178500000Y-78405000I-50000J0D01*
G01*
X176500000Y-78405000D01*
G75*
G02*
X176450000Y-78355000I0J50000D01*
G01*
G37*
G36*
G01*
X176450000Y-79625000D02*
X176450000Y-78725000D01*
G75*
G02*
X176500000Y-78675000I50000J0D01*
G01*
X178500000Y-78675000D01*
G75*
G02*
X178550000Y-78725000I0J-50000D01*
G01*
X178550000Y-79625000D01*
G75*
G02*
X178500000Y-79675000I-50000J0D01*
G01*
X176500000Y-79675000D01*
G75*
G02*
X176450000Y-79625000I0J50000D01*
G01*
G37*
G36*
G01*
X176450000Y-80895000D02*
X176450000Y-79995000D01*
G75*
G02*
X176500000Y-79945000I50000J0D01*
G01*
X178500000Y-79945000D01*
G75*
G02*
X178550000Y-79995000I0J-50000D01*
G01*
X178550000Y-80895000D01*
G75*
G02*
X178500000Y-80945000I-50000J0D01*
G01*
X176500000Y-80945000D01*
G75*
G02*
X176450000Y-80895000I0J50000D01*
G01*
G37*
G36*
G01*
X176450000Y-82165000D02*
X176450000Y-81265000D01*
G75*
G02*
X176500000Y-81215000I50000J0D01*
G01*
X178500000Y-81215000D01*
G75*
G02*
X178550000Y-81265000I0J-50000D01*
G01*
X178550000Y-82165000D01*
G75*
G02*
X178500000Y-82215000I-50000J0D01*
G01*
X176500000Y-82215000D01*
G75*
G02*
X176450000Y-82165000I0J50000D01*
G01*
G37*
G36*
G01*
X176450000Y-83435000D02*
X176450000Y-82535000D01*
G75*
G02*
X176500000Y-82485000I50000J0D01*
G01*
X178500000Y-82485000D01*
G75*
G02*
X178550000Y-82535000I0J-50000D01*
G01*
X178550000Y-83435000D01*
G75*
G02*
X178500000Y-83485000I-50000J0D01*
G01*
X176500000Y-83485000D01*
G75*
G02*
X176450000Y-83435000I0J50000D01*
G01*
G37*
G36*
G01*
X176450000Y-84705000D02*
X176450000Y-83805000D01*
G75*
G02*
X176500000Y-83755000I50000J0D01*
G01*
X178500000Y-83755000D01*
G75*
G02*
X178550000Y-83805000I0J-50000D01*
G01*
X178550000Y-84705000D01*
G75*
G02*
X178500000Y-84755000I-50000J0D01*
G01*
X176500000Y-84755000D01*
G75*
G02*
X176450000Y-84705000I0J50000D01*
G01*
G37*
G36*
G01*
X175165000Y-86305000D02*
X174265000Y-86305000D01*
G75*
G02*
X174215000Y-86255000I0J50000D01*
G01*
X174215000Y-84255000D01*
G75*
G02*
X174265000Y-84205000I50000J0D01*
G01*
X175165000Y-84205000D01*
G75*
G02*
X175215000Y-84255000I0J-50000D01*
G01*
X175215000Y-86255000D01*
G75*
G02*
X175165000Y-86305000I-50000J0D01*
G01*
G37*
G36*
G01*
X173895000Y-86305000D02*
X172995000Y-86305000D01*
G75*
G02*
X172945000Y-86255000I0J50000D01*
G01*
X172945000Y-84255000D01*
G75*
G02*
X172995000Y-84205000I50000J0D01*
G01*
X173895000Y-84205000D01*
G75*
G02*
X173945000Y-84255000I0J-50000D01*
G01*
X173945000Y-86255000D01*
G75*
G02*
X173895000Y-86305000I-50000J0D01*
G01*
G37*
G36*
G01*
X172625000Y-86305000D02*
X171725000Y-86305000D01*
G75*
G02*
X171675000Y-86255000I0J50000D01*
G01*
X171675000Y-84255000D01*
G75*
G02*
X171725000Y-84205000I50000J0D01*
G01*
X172625000Y-84205000D01*
G75*
G02*
X172675000Y-84255000I0J-50000D01*
G01*
X172675000Y-86255000D01*
G75*
G02*
X172625000Y-86305000I-50000J0D01*
G01*
G37*
G36*
G01*
X171355000Y-86305000D02*
X170455000Y-86305000D01*
G75*
G02*
X170405000Y-86255000I0J50000D01*
G01*
X170405000Y-84255000D01*
G75*
G02*
X170455000Y-84205000I50000J0D01*
G01*
X171355000Y-84205000D01*
G75*
G02*
X171405000Y-84255000I0J-50000D01*
G01*
X171405000Y-86255000D01*
G75*
G02*
X171355000Y-86305000I-50000J0D01*
G01*
G37*
G36*
G01*
X170085000Y-86305000D02*
X169185000Y-86305000D01*
G75*
G02*
X169135000Y-86255000I0J50000D01*
G01*
X169135000Y-84255000D01*
G75*
G02*
X169185000Y-84205000I50000J0D01*
G01*
X170085000Y-84205000D01*
G75*
G02*
X170135000Y-84255000I0J-50000D01*
G01*
X170135000Y-86255000D01*
G75*
G02*
X170085000Y-86305000I-50000J0D01*
G01*
G37*
G36*
G01*
X168815000Y-86305000D02*
X167915000Y-86305000D01*
G75*
G02*
X167865000Y-86255000I0J50000D01*
G01*
X167865000Y-84255000D01*
G75*
G02*
X167915000Y-84205000I50000J0D01*
G01*
X168815000Y-84205000D01*
G75*
G02*
X168865000Y-84255000I0J-50000D01*
G01*
X168865000Y-86255000D01*
G75*
G02*
X168815000Y-86305000I-50000J0D01*
G01*
G37*
G36*
G01*
X167545000Y-86305000D02*
X166645000Y-86305000D01*
G75*
G02*
X166595000Y-86255000I0J50000D01*
G01*
X166595000Y-84255000D01*
G75*
G02*
X166645000Y-84205000I50000J0D01*
G01*
X167545000Y-84205000D01*
G75*
G02*
X167595000Y-84255000I0J-50000D01*
G01*
X167595000Y-86255000D01*
G75*
G02*
X167545000Y-86305000I-50000J0D01*
G01*
G37*
G36*
G01*
X166275000Y-86305000D02*
X165375000Y-86305000D01*
G75*
G02*
X165325000Y-86255000I0J50000D01*
G01*
X165325000Y-84255000D01*
G75*
G02*
X165375000Y-84205000I50000J0D01*
G01*
X166275000Y-84205000D01*
G75*
G02*
X166325000Y-84255000I0J-50000D01*
G01*
X166325000Y-86255000D01*
G75*
G02*
X166275000Y-86305000I-50000J0D01*
G01*
G37*
G36*
G01*
X165005000Y-86305000D02*
X164105000Y-86305000D01*
G75*
G02*
X164055000Y-86255000I0J50000D01*
G01*
X164055000Y-84255000D01*
G75*
G02*
X164105000Y-84205000I50000J0D01*
G01*
X165005000Y-84205000D01*
G75*
G02*
X165055000Y-84255000I0J-50000D01*
G01*
X165055000Y-86255000D01*
G75*
G02*
X165005000Y-86305000I-50000J0D01*
G01*
G37*
G36*
G01*
X163735000Y-86305000D02*
X162835000Y-86305000D01*
G75*
G02*
X162785000Y-86255000I0J50000D01*
G01*
X162785000Y-84255000D01*
G75*
G02*
X162835000Y-84205000I50000J0D01*
G01*
X163735000Y-84205000D01*
G75*
G02*
X163785000Y-84255000I0J-50000D01*
G01*
X163785000Y-86255000D01*
G75*
G02*
X163735000Y-86305000I-50000J0D01*
G01*
G37*
G36*
G01*
X159450000Y-84705000D02*
X159450000Y-83805000D01*
G75*
G02*
X159500000Y-83755000I50000J0D01*
G01*
X161500000Y-83755000D01*
G75*
G02*
X161550000Y-83805000I0J-50000D01*
G01*
X161550000Y-84705000D01*
G75*
G02*
X161500000Y-84755000I-50000J0D01*
G01*
X159500000Y-84755000D01*
G75*
G02*
X159450000Y-84705000I0J50000D01*
G01*
G37*
G36*
G01*
X159450000Y-83435000D02*
X159450000Y-82535000D01*
G75*
G02*
X159500000Y-82485000I50000J0D01*
G01*
X161500000Y-82485000D01*
G75*
G02*
X161550000Y-82535000I0J-50000D01*
G01*
X161550000Y-83435000D01*
G75*
G02*
X161500000Y-83485000I-50000J0D01*
G01*
X159500000Y-83485000D01*
G75*
G02*
X159450000Y-83435000I0J50000D01*
G01*
G37*
G36*
G01*
X159450000Y-82165000D02*
X159450000Y-81265000D01*
G75*
G02*
X159500000Y-81215000I50000J0D01*
G01*
X161500000Y-81215000D01*
G75*
G02*
X161550000Y-81265000I0J-50000D01*
G01*
X161550000Y-82165000D01*
G75*
G02*
X161500000Y-82215000I-50000J0D01*
G01*
X159500000Y-82215000D01*
G75*
G02*
X159450000Y-82165000I0J50000D01*
G01*
G37*
G36*
G01*
X159450000Y-80895000D02*
X159450000Y-79995000D01*
G75*
G02*
X159500000Y-79945000I50000J0D01*
G01*
X161500000Y-79945000D01*
G75*
G02*
X161550000Y-79995000I0J-50000D01*
G01*
X161550000Y-80895000D01*
G75*
G02*
X161500000Y-80945000I-50000J0D01*
G01*
X159500000Y-80945000D01*
G75*
G02*
X159450000Y-80895000I0J50000D01*
G01*
G37*
G36*
G01*
X159450000Y-79625000D02*
X159450000Y-78725000D01*
G75*
G02*
X159500000Y-78675000I50000J0D01*
G01*
X161500000Y-78675000D01*
G75*
G02*
X161550000Y-78725000I0J-50000D01*
G01*
X161550000Y-79625000D01*
G75*
G02*
X161500000Y-79675000I-50000J0D01*
G01*
X159500000Y-79675000D01*
G75*
G02*
X159450000Y-79625000I0J50000D01*
G01*
G37*
G36*
G01*
X159450000Y-78355000D02*
X159450000Y-77455000D01*
G75*
G02*
X159500000Y-77405000I50000J0D01*
G01*
X161500000Y-77405000D01*
G75*
G02*
X161550000Y-77455000I0J-50000D01*
G01*
X161550000Y-78355000D01*
G75*
G02*
X161500000Y-78405000I-50000J0D01*
G01*
X159500000Y-78405000D01*
G75*
G02*
X159450000Y-78355000I0J50000D01*
G01*
G37*
G36*
G01*
X159450000Y-77085000D02*
X159450000Y-76185000D01*
G75*
G02*
X159500000Y-76135000I50000J0D01*
G01*
X161500000Y-76135000D01*
G75*
G02*
X161550000Y-76185000I0J-50000D01*
G01*
X161550000Y-77085000D01*
G75*
G02*
X161500000Y-77135000I-50000J0D01*
G01*
X159500000Y-77135000D01*
G75*
G02*
X159450000Y-77085000I0J50000D01*
G01*
G37*
G36*
G01*
X159450000Y-75815000D02*
X159450000Y-74915000D01*
G75*
G02*
X159500000Y-74865000I50000J0D01*
G01*
X161500000Y-74865000D01*
G75*
G02*
X161550000Y-74915000I0J-50000D01*
G01*
X161550000Y-75815000D01*
G75*
G02*
X161500000Y-75865000I-50000J0D01*
G01*
X159500000Y-75865000D01*
G75*
G02*
X159450000Y-75815000I0J50000D01*
G01*
G37*
G36*
G01*
X159450000Y-74545000D02*
X159450000Y-73645000D01*
G75*
G02*
X159500000Y-73595000I50000J0D01*
G01*
X161500000Y-73595000D01*
G75*
G02*
X161550000Y-73645000I0J-50000D01*
G01*
X161550000Y-74545000D01*
G75*
G02*
X161500000Y-74595000I-50000J0D01*
G01*
X159500000Y-74595000D01*
G75*
G02*
X159450000Y-74545000I0J50000D01*
G01*
G37*
G36*
G01*
X159450000Y-73275000D02*
X159450000Y-72375000D01*
G75*
G02*
X159500000Y-72325000I50000J0D01*
G01*
X161500000Y-72325000D01*
G75*
G02*
X161550000Y-72375000I0J-50000D01*
G01*
X161550000Y-73275000D01*
G75*
G02*
X161500000Y-73325000I-50000J0D01*
G01*
X159500000Y-73325000D01*
G75*
G02*
X159450000Y-73275000I0J50000D01*
G01*
G37*
G36*
G01*
X159450000Y-72005000D02*
X159450000Y-71105000D01*
G75*
G02*
X159500000Y-71055000I50000J0D01*
G01*
X161500000Y-71055000D01*
G75*
G02*
X161550000Y-71105000I0J-50000D01*
G01*
X161550000Y-72005000D01*
G75*
G02*
X161500000Y-72055000I-50000J0D01*
G01*
X159500000Y-72055000D01*
G75*
G02*
X159450000Y-72005000I0J50000D01*
G01*
G37*
G36*
G01*
X159450000Y-70735000D02*
X159450000Y-69835000D01*
G75*
G02*
X159500000Y-69785000I50000J0D01*
G01*
X161500000Y-69785000D01*
G75*
G02*
X161550000Y-69835000I0J-50000D01*
G01*
X161550000Y-70735000D01*
G75*
G02*
X161500000Y-70785000I-50000J0D01*
G01*
X159500000Y-70785000D01*
G75*
G02*
X159450000Y-70735000I0J50000D01*
G01*
G37*
G36*
G01*
X159450000Y-69465000D02*
X159450000Y-68565000D01*
G75*
G02*
X159500000Y-68515000I50000J0D01*
G01*
X161500000Y-68515000D01*
G75*
G02*
X161550000Y-68565000I0J-50000D01*
G01*
X161550000Y-69465000D01*
G75*
G02*
X161500000Y-69515000I-50000J0D01*
G01*
X159500000Y-69515000D01*
G75*
G02*
X159450000Y-69465000I0J50000D01*
G01*
G37*
G36*
G01*
X159450000Y-68195000D02*
X159450000Y-67295000D01*
G75*
G02*
X159500000Y-67245000I50000J0D01*
G01*
X161500000Y-67245000D01*
G75*
G02*
X161550000Y-67295000I0J-50000D01*
G01*
X161550000Y-68195000D01*
G75*
G02*
X161500000Y-68245000I-50000J0D01*
G01*
X159500000Y-68245000D01*
G75*
G02*
X159450000Y-68195000I0J50000D01*
G01*
G37*
G36*
G01*
X165450000Y-77745000D02*
X165450000Y-72745000D01*
G75*
G02*
X165500000Y-72695000I50000J0D01*
G01*
X170500000Y-72695000D01*
G75*
G02*
X170550000Y-72745000I0J-50000D01*
G01*
X170550000Y-77745000D01*
G75*
G02*
X170500000Y-77795000I-50000J0D01*
G01*
X165500000Y-77795000D01*
G75*
G02*
X165450000Y-77745000I0J50000D01*
G01*
G37*
%TD*%
M02*
