G04 #@! TF.GenerationSoftware,KiCad,Pcbnew,(5.1.5)-3*
G04 #@! TF.CreationDate,2020-02-29T22:05:21+08:00*
G04 #@! TF.ProjectId,smartdisplay,736d6172-7464-4697-9370-6c61792e6b69,rev?*
G04 #@! TF.SameCoordinates,Original*
G04 #@! TF.FileFunction,Legend,Top*
G04 #@! TF.FilePolarity,Positive*
%FSLAX46Y46*%
G04 Gerber Fmt 4.6, Leading zero omitted, Abs format (unit mm)*
G04 Created by KiCad (PCBNEW (5.1.5)-3) date 2020-02-29 22:05:21*
%MOMM*%
%LPD*%
G04 APERTURE LIST*
%ADD10C,0.150000*%
%ADD11C,0.120000*%
%ADD12C,0.125000*%
G04 APERTURE END LIST*
D10*
X162819047Y-91471428D02*
X163580952Y-91471428D01*
X162819047Y-89471428D02*
X163580952Y-89471428D01*
X163200000Y-89852380D02*
X163200000Y-89090476D01*
X159733333Y-95652380D02*
X159400000Y-95176190D01*
X159161904Y-95652380D02*
X159161904Y-94652380D01*
X159542857Y-94652380D01*
X159638095Y-94700000D01*
X159685714Y-94747619D01*
X159733333Y-94842857D01*
X159733333Y-94985714D01*
X159685714Y-95080952D01*
X159638095Y-95128571D01*
X159542857Y-95176190D01*
X159161904Y-95176190D01*
X160066666Y-94652380D02*
X160733333Y-95652380D01*
X160733333Y-94652380D02*
X160066666Y-95652380D01*
X161114285Y-95652380D02*
X161114285Y-94652380D01*
X161352380Y-94652380D01*
X161495238Y-94700000D01*
X161590476Y-94795238D01*
X161638095Y-94890476D01*
X161685714Y-95080952D01*
X161685714Y-95223809D01*
X161638095Y-95414285D01*
X161590476Y-95509523D01*
X161495238Y-95604761D01*
X161352380Y-95652380D01*
X161114285Y-95652380D01*
X155538095Y-94652380D02*
X156109523Y-94652380D01*
X155823809Y-95652380D02*
X155823809Y-94652380D01*
X156347619Y-94652380D02*
X157014285Y-95652380D01*
X157014285Y-94652380D02*
X156347619Y-95652380D01*
X157395238Y-95652380D02*
X157395238Y-94652380D01*
X157633333Y-94652380D01*
X157776190Y-94700000D01*
X157871428Y-94795238D01*
X157919047Y-94890476D01*
X157966666Y-95080952D01*
X157966666Y-95223809D01*
X157919047Y-95414285D01*
X157871428Y-95509523D01*
X157776190Y-95604761D01*
X157633333Y-95652380D01*
X157395238Y-95652380D01*
X151838095Y-94700000D02*
X151742857Y-94652380D01*
X151600000Y-94652380D01*
X151457142Y-94700000D01*
X151361904Y-94795238D01*
X151314285Y-94890476D01*
X151266666Y-95080952D01*
X151266666Y-95223809D01*
X151314285Y-95414285D01*
X151361904Y-95509523D01*
X151457142Y-95604761D01*
X151600000Y-95652380D01*
X151695238Y-95652380D01*
X151838095Y-95604761D01*
X151885714Y-95557142D01*
X151885714Y-95223809D01*
X151695238Y-95223809D01*
X152314285Y-95652380D02*
X152314285Y-94652380D01*
X152885714Y-95652380D01*
X152885714Y-94652380D01*
X153361904Y-95652380D02*
X153361904Y-94652380D01*
X153600000Y-94652380D01*
X153742857Y-94700000D01*
X153838095Y-94795238D01*
X153885714Y-94890476D01*
X153933333Y-95080952D01*
X153933333Y-95223809D01*
X153885714Y-95414285D01*
X153838095Y-95509523D01*
X153742857Y-95604761D01*
X153600000Y-95652380D01*
X153361904Y-95652380D01*
X147561904Y-94652380D02*
X148180952Y-94652380D01*
X147847619Y-95033333D01*
X147990476Y-95033333D01*
X148085714Y-95080952D01*
X148133333Y-95128571D01*
X148180952Y-95223809D01*
X148180952Y-95461904D01*
X148133333Y-95557142D01*
X148085714Y-95604761D01*
X147990476Y-95652380D01*
X147704761Y-95652380D01*
X147609523Y-95604761D01*
X147561904Y-95557142D01*
X148466666Y-94652380D02*
X148800000Y-95652380D01*
X149133333Y-94652380D01*
X149371428Y-94652380D02*
X149990476Y-94652380D01*
X149657142Y-95033333D01*
X149800000Y-95033333D01*
X149895238Y-95080952D01*
X149942857Y-95128571D01*
X149990476Y-95223809D01*
X149990476Y-95461904D01*
X149942857Y-95557142D01*
X149895238Y-95604761D01*
X149800000Y-95652380D01*
X149514285Y-95652380D01*
X149419047Y-95604761D01*
X149371428Y-95557142D01*
X145952380Y-40852380D02*
X145380952Y-40852380D01*
X145666666Y-40852380D02*
X145666666Y-39852380D01*
X145571428Y-39995238D01*
X145476190Y-40090476D01*
X145380952Y-40138095D01*
X146571428Y-39852380D02*
X146666666Y-39852380D01*
X146761904Y-39900000D01*
X146809523Y-39947619D01*
X146857142Y-40042857D01*
X146904761Y-40233333D01*
X146904761Y-40471428D01*
X146857142Y-40661904D01*
X146809523Y-40757142D01*
X146761904Y-40804761D01*
X146666666Y-40852380D01*
X146571428Y-40852380D01*
X146476190Y-40804761D01*
X146428571Y-40757142D01*
X146380952Y-40661904D01*
X146333333Y-40471428D01*
X146333333Y-40233333D01*
X146380952Y-40042857D01*
X146428571Y-39947619D01*
X146476190Y-39900000D01*
X146571428Y-39852380D01*
X147523809Y-39852380D02*
X147619047Y-39852380D01*
X147714285Y-39900000D01*
X147761904Y-39947619D01*
X147809523Y-40042857D01*
X147857142Y-40233333D01*
X147857142Y-40471428D01*
X147809523Y-40661904D01*
X147761904Y-40757142D01*
X147714285Y-40804761D01*
X147619047Y-40852380D01*
X147523809Y-40852380D01*
X147428571Y-40804761D01*
X147380952Y-40757142D01*
X147333333Y-40661904D01*
X147285714Y-40471428D01*
X147285714Y-40233333D01*
X147333333Y-40042857D01*
X147380952Y-39947619D01*
X147428571Y-39900000D01*
X147523809Y-39852380D01*
X148285714Y-40757142D02*
X148333333Y-40804761D01*
X148285714Y-40852380D01*
X148238095Y-40804761D01*
X148285714Y-40757142D01*
X148285714Y-40852380D01*
X148952380Y-39852380D02*
X149047619Y-39852380D01*
X149142857Y-39900000D01*
X149190476Y-39947619D01*
X149238095Y-40042857D01*
X149285714Y-40233333D01*
X149285714Y-40471428D01*
X149238095Y-40661904D01*
X149190476Y-40757142D01*
X149142857Y-40804761D01*
X149047619Y-40852380D01*
X148952380Y-40852380D01*
X148857142Y-40804761D01*
X148809523Y-40757142D01*
X148761904Y-40661904D01*
X148714285Y-40471428D01*
X148714285Y-40233333D01*
X148761904Y-40042857D01*
X148809523Y-39947619D01*
X148857142Y-39900000D01*
X148952380Y-39852380D01*
X149904761Y-39852380D02*
X150000000Y-39852380D01*
X150095238Y-39900000D01*
X150142857Y-39947619D01*
X150190476Y-40042857D01*
X150238095Y-40233333D01*
X150238095Y-40471428D01*
X150190476Y-40661904D01*
X150142857Y-40757142D01*
X150095238Y-40804761D01*
X150000000Y-40852380D01*
X149904761Y-40852380D01*
X149809523Y-40804761D01*
X149761904Y-40757142D01*
X149714285Y-40661904D01*
X149666666Y-40471428D01*
X149666666Y-40233333D01*
X149714285Y-40042857D01*
X149761904Y-39947619D01*
X149809523Y-39900000D01*
X149904761Y-39852380D01*
X150857142Y-39852380D02*
X150952380Y-39852380D01*
X151047619Y-39900000D01*
X151095238Y-39947619D01*
X151142857Y-40042857D01*
X151190476Y-40233333D01*
X151190476Y-40471428D01*
X151142857Y-40661904D01*
X151095238Y-40757142D01*
X151047619Y-40804761D01*
X150952380Y-40852380D01*
X150857142Y-40852380D01*
X150761904Y-40804761D01*
X150714285Y-40757142D01*
X150666666Y-40661904D01*
X150619047Y-40471428D01*
X150619047Y-40233333D01*
X150666666Y-40042857D01*
X150714285Y-39947619D01*
X150761904Y-39900000D01*
X150857142Y-39852380D01*
X152380952Y-40852380D02*
X152380952Y-40185714D01*
X152380952Y-40280952D02*
X152428571Y-40233333D01*
X152523809Y-40185714D01*
X152666666Y-40185714D01*
X152761904Y-40233333D01*
X152809523Y-40328571D01*
X152809523Y-40852380D01*
X152809523Y-40328571D02*
X152857142Y-40233333D01*
X152952380Y-40185714D01*
X153095238Y-40185714D01*
X153190476Y-40233333D01*
X153238095Y-40328571D01*
X153238095Y-40852380D01*
X153714285Y-40852380D02*
X153714285Y-40185714D01*
X153714285Y-40280952D02*
X153761904Y-40233333D01*
X153857142Y-40185714D01*
X154000000Y-40185714D01*
X154095238Y-40233333D01*
X154142857Y-40328571D01*
X154142857Y-40852380D01*
X154142857Y-40328571D02*
X154190476Y-40233333D01*
X154285714Y-40185714D01*
X154428571Y-40185714D01*
X154523809Y-40233333D01*
X154571428Y-40328571D01*
X154571428Y-40852380D01*
X100000000Y-41700000D02*
X200000000Y-41700000D01*
X100000000Y-60000000D02*
X100000000Y-41113579D01*
X200000000Y-60000000D02*
X200000000Y-41113579D01*
X200000000Y-41700000D02*
X198873496Y-42286421D01*
X200000000Y-41700000D02*
X198873496Y-41113579D01*
X100000000Y-41700000D02*
X101126504Y-42286421D01*
X100000000Y-41700000D02*
X101126504Y-41113579D01*
X217214285Y-76333333D02*
X216547619Y-76333333D01*
X217595238Y-76095238D02*
X216880952Y-75857142D01*
X216880952Y-76476190D01*
X217547619Y-77047619D02*
X217547619Y-77142857D01*
X217500000Y-77238095D01*
X217452380Y-77285714D01*
X217357142Y-77333333D01*
X217166666Y-77380952D01*
X216928571Y-77380952D01*
X216738095Y-77333333D01*
X216642857Y-77285714D01*
X216595238Y-77238095D01*
X216547619Y-77142857D01*
X216547619Y-77047619D01*
X216595238Y-76952380D01*
X216642857Y-76904761D01*
X216738095Y-76857142D01*
X216928571Y-76809523D01*
X217166666Y-76809523D01*
X217357142Y-76857142D01*
X217452380Y-76904761D01*
X217500000Y-76952380D01*
X217547619Y-77047619D01*
X216642857Y-77809523D02*
X216595238Y-77857142D01*
X216547619Y-77809523D01*
X216595238Y-77761904D01*
X216642857Y-77809523D01*
X216547619Y-77809523D01*
X217547619Y-78476190D02*
X217547619Y-78571428D01*
X217500000Y-78666666D01*
X217452380Y-78714285D01*
X217357142Y-78761904D01*
X217166666Y-78809523D01*
X216928571Y-78809523D01*
X216738095Y-78761904D01*
X216642857Y-78714285D01*
X216595238Y-78666666D01*
X216547619Y-78571428D01*
X216547619Y-78476190D01*
X216595238Y-78380952D01*
X216642857Y-78333333D01*
X216738095Y-78285714D01*
X216928571Y-78238095D01*
X217166666Y-78238095D01*
X217357142Y-78285714D01*
X217452380Y-78333333D01*
X217500000Y-78380952D01*
X217547619Y-78476190D01*
X217547619Y-79428571D02*
X217547619Y-79523809D01*
X217500000Y-79619047D01*
X217452380Y-79666666D01*
X217357142Y-79714285D01*
X217166666Y-79761904D01*
X216928571Y-79761904D01*
X216738095Y-79714285D01*
X216642857Y-79666666D01*
X216595238Y-79619047D01*
X216547619Y-79523809D01*
X216547619Y-79428571D01*
X216595238Y-79333333D01*
X216642857Y-79285714D01*
X216738095Y-79238095D01*
X216928571Y-79190476D01*
X217166666Y-79190476D01*
X217357142Y-79238095D01*
X217452380Y-79285714D01*
X217500000Y-79333333D01*
X217547619Y-79428571D01*
X217547619Y-80380952D02*
X217547619Y-80476190D01*
X217500000Y-80571428D01*
X217452380Y-80619047D01*
X217357142Y-80666666D01*
X217166666Y-80714285D01*
X216928571Y-80714285D01*
X216738095Y-80666666D01*
X216642857Y-80619047D01*
X216595238Y-80571428D01*
X216547619Y-80476190D01*
X216547619Y-80380952D01*
X216595238Y-80285714D01*
X216642857Y-80238095D01*
X216738095Y-80190476D01*
X216928571Y-80142857D01*
X217166666Y-80142857D01*
X217357142Y-80190476D01*
X217452380Y-80238095D01*
X217500000Y-80285714D01*
X217547619Y-80380952D01*
X216547619Y-81904761D02*
X217214285Y-81904761D01*
X217119047Y-81904761D02*
X217166666Y-81952380D01*
X217214285Y-82047619D01*
X217214285Y-82190476D01*
X217166666Y-82285714D01*
X217071428Y-82333333D01*
X216547619Y-82333333D01*
X217071428Y-82333333D02*
X217166666Y-82380952D01*
X217214285Y-82476190D01*
X217214285Y-82619047D01*
X217166666Y-82714285D01*
X217071428Y-82761904D01*
X216547619Y-82761904D01*
X216547619Y-83238095D02*
X217214285Y-83238095D01*
X217119047Y-83238095D02*
X217166666Y-83285714D01*
X217214285Y-83380952D01*
X217214285Y-83523809D01*
X217166666Y-83619047D01*
X217071428Y-83666666D01*
X216547619Y-83666666D01*
X217071428Y-83666666D02*
X217166666Y-83714285D01*
X217214285Y-83809523D01*
X217214285Y-83952380D01*
X217166666Y-84047619D01*
X217071428Y-84095238D01*
X216547619Y-84095238D01*
X215700000Y-60000000D02*
X215700000Y-100000000D01*
X200000000Y-60000000D02*
X216286421Y-60000000D01*
X200000000Y-100000000D02*
X216286421Y-100000000D01*
X215700000Y-100000000D02*
X215113579Y-98873496D01*
X215700000Y-100000000D02*
X216286421Y-98873496D01*
X215700000Y-60000000D02*
X215113579Y-61126504D01*
X215700000Y-60000000D02*
X216286421Y-61126504D01*
X187928571Y-45052380D02*
X187357142Y-45052380D01*
X187642857Y-45052380D02*
X187642857Y-44052380D01*
X187547619Y-44195238D01*
X187452380Y-44290476D01*
X187357142Y-44338095D01*
X188261904Y-44052380D02*
X188928571Y-44052380D01*
X188500000Y-45052380D01*
X189309523Y-44957142D02*
X189357142Y-45004761D01*
X189309523Y-45052380D01*
X189261904Y-45004761D01*
X189309523Y-44957142D01*
X189309523Y-45052380D01*
X189976190Y-44052380D02*
X190071428Y-44052380D01*
X190166666Y-44100000D01*
X190214285Y-44147619D01*
X190261904Y-44242857D01*
X190309523Y-44433333D01*
X190309523Y-44671428D01*
X190261904Y-44861904D01*
X190214285Y-44957142D01*
X190166666Y-45004761D01*
X190071428Y-45052380D01*
X189976190Y-45052380D01*
X189880952Y-45004761D01*
X189833333Y-44957142D01*
X189785714Y-44861904D01*
X189738095Y-44671428D01*
X189738095Y-44433333D01*
X189785714Y-44242857D01*
X189833333Y-44147619D01*
X189880952Y-44100000D01*
X189976190Y-44052380D01*
X190928571Y-44052380D02*
X191023809Y-44052380D01*
X191119047Y-44100000D01*
X191166666Y-44147619D01*
X191214285Y-44242857D01*
X191261904Y-44433333D01*
X191261904Y-44671428D01*
X191214285Y-44861904D01*
X191166666Y-44957142D01*
X191119047Y-45004761D01*
X191023809Y-45052380D01*
X190928571Y-45052380D01*
X190833333Y-45004761D01*
X190785714Y-44957142D01*
X190738095Y-44861904D01*
X190690476Y-44671428D01*
X190690476Y-44433333D01*
X190738095Y-44242857D01*
X190785714Y-44147619D01*
X190833333Y-44100000D01*
X190928571Y-44052380D01*
X191880952Y-44052380D02*
X191976190Y-44052380D01*
X192071428Y-44100000D01*
X192119047Y-44147619D01*
X192166666Y-44242857D01*
X192214285Y-44433333D01*
X192214285Y-44671428D01*
X192166666Y-44861904D01*
X192119047Y-44957142D01*
X192071428Y-45004761D01*
X191976190Y-45052380D01*
X191880952Y-45052380D01*
X191785714Y-45004761D01*
X191738095Y-44957142D01*
X191690476Y-44861904D01*
X191642857Y-44671428D01*
X191642857Y-44433333D01*
X191690476Y-44242857D01*
X191738095Y-44147619D01*
X191785714Y-44100000D01*
X191880952Y-44052380D01*
X193404761Y-45052380D02*
X193404761Y-44385714D01*
X193404761Y-44480952D02*
X193452380Y-44433333D01*
X193547619Y-44385714D01*
X193690476Y-44385714D01*
X193785714Y-44433333D01*
X193833333Y-44528571D01*
X193833333Y-45052380D01*
X193833333Y-44528571D02*
X193880952Y-44433333D01*
X193976190Y-44385714D01*
X194119047Y-44385714D01*
X194214285Y-44433333D01*
X194261904Y-44528571D01*
X194261904Y-45052380D01*
X194738095Y-45052380D02*
X194738095Y-44385714D01*
X194738095Y-44480952D02*
X194785714Y-44433333D01*
X194880952Y-44385714D01*
X195023809Y-44385714D01*
X195119047Y-44433333D01*
X195166666Y-44528571D01*
X195166666Y-45052380D01*
X195166666Y-44528571D02*
X195214285Y-44433333D01*
X195309523Y-44385714D01*
X195452380Y-44385714D01*
X195547619Y-44433333D01*
X195595238Y-44528571D01*
X195595238Y-45052380D01*
X200000000Y-45900000D02*
X183000000Y-45900000D01*
X200000000Y-60000000D02*
X200000000Y-45313579D01*
X183000000Y-60000000D02*
X183000000Y-45313579D01*
X183000000Y-45900000D02*
X184126504Y-45313579D01*
X183000000Y-45900000D02*
X184126504Y-46486421D01*
X200000000Y-45900000D02*
X198873496Y-45313579D01*
X200000000Y-45900000D02*
X198873496Y-46486421D01*
X105000000Y-100000000D02*
X155000000Y-100000000D01*
X155000000Y-60000000D02*
X105000000Y-60000000D01*
X155000000Y-100000000D02*
X155000000Y-60000000D01*
X105000000Y-60000000D02*
X105000000Y-100000000D01*
D11*
X190680000Y-99400000D02*
X190680000Y-97900000D01*
X190680000Y-99400000D02*
X197940000Y-99400000D01*
X190680000Y-89900000D02*
X197940000Y-89900000D01*
X190680000Y-91400000D02*
X190680000Y-89900000D01*
X187200000Y-86160000D02*
X187200000Y-87650000D01*
X187200000Y-87650000D02*
X188540000Y-87650000D01*
X187200000Y-73840000D02*
X187200000Y-72350000D01*
X187200000Y-72350000D02*
X188540000Y-72350000D01*
X191260000Y-87650000D02*
X193000000Y-87650000D01*
X193000000Y-87650000D02*
X193000000Y-72350000D01*
X193000000Y-72350000D02*
X191260000Y-72350000D01*
X187200000Y-86160000D02*
X186000000Y-86160000D01*
X157422779Y-73690000D02*
X157097221Y-73690000D01*
X157422779Y-74710000D02*
X157097221Y-74710000D01*
X181720000Y-93710000D02*
X184150000Y-93710000D01*
X183480000Y-90640000D02*
X181720000Y-90640000D01*
X181800000Y-99160000D02*
X185250000Y-99160000D01*
X181800000Y-99160000D02*
X179850000Y-99160000D01*
X181800000Y-94040000D02*
X183750000Y-94040000D01*
X181800000Y-94040000D02*
X179850000Y-94040000D01*
X189100000Y-89990000D02*
X186650000Y-89990000D01*
X187300000Y-93210000D02*
X189100000Y-93210000D01*
X200910000Y-83850000D02*
X199300000Y-83850000D01*
X200910000Y-83850000D02*
X200910000Y-81850000D01*
X200630000Y-71310000D02*
X200630000Y-83560000D01*
X194870000Y-71310000D02*
X200630000Y-71310000D01*
X194870000Y-83570000D02*
X194870000Y-71310000D01*
X200620000Y-83570000D02*
X194880000Y-83570000D01*
X159880000Y-66555000D02*
X159500000Y-66555000D01*
X159880000Y-60135000D02*
X159880000Y-66555000D01*
X178120000Y-60135000D02*
X178120000Y-66555000D01*
X159880000Y-60135000D02*
X178120000Y-60135000D01*
X178120000Y-85880000D02*
X177120000Y-85880000D01*
X178120000Y-85100000D02*
X178120000Y-85880000D01*
X159880000Y-85880000D02*
X160880000Y-85880000D01*
X159880000Y-85100000D02*
X159880000Y-85880000D01*
X168100000Y-87190000D02*
X174110000Y-87190000D01*
X170350000Y-94010000D02*
X174110000Y-94010000D01*
X174110000Y-87190000D02*
X174110000Y-88450000D01*
X174110000Y-94010000D02*
X174110000Y-92750000D01*
X186362779Y-68890000D02*
X186037221Y-68890000D01*
X186362779Y-69910000D02*
X186037221Y-69910000D01*
X193437221Y-69910000D02*
X193762779Y-69910000D01*
X193437221Y-68890000D02*
X193762779Y-68890000D01*
X181710000Y-89162779D02*
X181710000Y-88837221D01*
X180690000Y-89162779D02*
X180690000Y-88837221D01*
X186490000Y-97837221D02*
X186490000Y-98162779D01*
X187510000Y-97837221D02*
X187510000Y-98162779D01*
X187510000Y-95162779D02*
X187510000Y-94837221D01*
X186490000Y-95162779D02*
X186490000Y-94837221D01*
X185110000Y-89162779D02*
X185110000Y-88837221D01*
X184090000Y-89162779D02*
X184090000Y-88837221D01*
X179910000Y-92362779D02*
X179910000Y-92037221D01*
X178890000Y-92362779D02*
X178890000Y-92037221D01*
X157412779Y-71990000D02*
X157087221Y-71990000D01*
X157412779Y-73010000D02*
X157087221Y-73010000D01*
X164112779Y-98000000D02*
X163787221Y-98000000D01*
X164112779Y-99020000D02*
X163787221Y-99020000D01*
X163807221Y-97340000D02*
X164132779Y-97340000D01*
X163807221Y-96320000D02*
X164132779Y-96320000D01*
X190360000Y-70080000D02*
X188900000Y-70080000D01*
X190360000Y-66920000D02*
X188200000Y-66920000D01*
X190360000Y-66920000D02*
X190360000Y-67850000D01*
X190360000Y-70080000D02*
X190360000Y-69150000D01*
X187990000Y-62413748D02*
X187990000Y-65186252D01*
X191410000Y-62413748D02*
X191410000Y-65186252D01*
X161360000Y-88640000D02*
X162575000Y-88640000D01*
X157400000Y-88700000D02*
X155140000Y-88700000D01*
X157400000Y-89200000D02*
X155140000Y-89200000D01*
X159000000Y-91800000D02*
X159000000Y-92800000D01*
X157400000Y-91800000D02*
X159000000Y-91800000D01*
X157400000Y-92800000D02*
X157400000Y-91800000D01*
X159000000Y-92800000D02*
X157400000Y-92800000D01*
X159000000Y-89200000D02*
X159000000Y-88200000D01*
X157400000Y-89200000D02*
X159000000Y-89200000D01*
X157400000Y-88200000D02*
X157400000Y-89200000D01*
X159000000Y-88200000D02*
X157400000Y-88200000D01*
X161360000Y-93560000D02*
X161360000Y-92640000D01*
X161360000Y-87440000D02*
X161360000Y-88360000D01*
X159500000Y-91000000D02*
X155140000Y-91000000D01*
X159500000Y-90000000D02*
X159500000Y-91000000D01*
X155140000Y-90000000D02*
X159500000Y-90000000D01*
X161360000Y-92640000D02*
X161360000Y-92360000D01*
X162960000Y-92640000D02*
X161360000Y-92640000D01*
X162960000Y-93560000D02*
X162960000Y-92640000D01*
X155140000Y-93560000D02*
X162960000Y-93560000D01*
X155140000Y-87440000D02*
X155140000Y-93560000D01*
X162960000Y-87440000D02*
X155140000Y-87440000D01*
X162960000Y-88360000D02*
X162960000Y-87440000D01*
X161360000Y-88360000D02*
X162960000Y-88360000D01*
X161360000Y-88640000D02*
X161360000Y-88360000D01*
X168690000Y-99060000D02*
X168690000Y-95440000D01*
X174810000Y-99060000D02*
X168690000Y-99060000D01*
X174810000Y-95440000D02*
X174810000Y-99060000D01*
X168690000Y-95440000D02*
X174810000Y-95440000D01*
X195085000Y-66665000D02*
X192800000Y-66665000D01*
X195085000Y-68135000D02*
X195085000Y-66665000D01*
X192800000Y-68135000D02*
X195085000Y-68135000D01*
X192115000Y-66335000D02*
X194400000Y-66335000D01*
X192115000Y-64865000D02*
X192115000Y-66335000D01*
X194400000Y-64865000D02*
X192115000Y-64865000D01*
X187685000Y-65065000D02*
X185400000Y-65065000D01*
X187685000Y-66535000D02*
X187685000Y-65065000D01*
X185400000Y-66535000D02*
X187685000Y-66535000D01*
X189935000Y-99485000D02*
X189935000Y-97200000D01*
X188465000Y-99485000D02*
X189935000Y-99485000D01*
X188465000Y-97200000D02*
X188465000Y-99485000D01*
X188465000Y-93515000D02*
X188465000Y-95800000D01*
X189935000Y-93515000D02*
X188465000Y-93515000D01*
X189935000Y-95800000D02*
X189935000Y-93515000D01*
X182262779Y-81890000D02*
X181937221Y-81890000D01*
X182262779Y-82910000D02*
X181937221Y-82910000D01*
X182262779Y-72290000D02*
X181937221Y-72290000D01*
X182262779Y-73310000D02*
X181937221Y-73310000D01*
X182262779Y-70740000D02*
X181937221Y-70740000D01*
X182262779Y-71760000D02*
X181937221Y-71760000D01*
X182262779Y-80290000D02*
X181937221Y-80290000D01*
X182262779Y-81310000D02*
X181937221Y-81310000D01*
X182262779Y-78690000D02*
X181937221Y-78690000D01*
X182262779Y-79710000D02*
X181937221Y-79710000D01*
X182262779Y-77090000D02*
X181937221Y-77090000D01*
X182262779Y-78110000D02*
X181937221Y-78110000D01*
X182262779Y-85090000D02*
X181937221Y-85090000D01*
X182262779Y-86110000D02*
X181937221Y-86110000D01*
X182262779Y-83490000D02*
X181937221Y-83490000D01*
X182262779Y-84510000D02*
X181937221Y-84510000D01*
X182262779Y-75490000D02*
X181937221Y-75490000D01*
X182262779Y-76510000D02*
X181937221Y-76510000D01*
X182262779Y-73890000D02*
X181937221Y-73890000D01*
X182262779Y-74910000D02*
X181937221Y-74910000D01*
X186037221Y-68110000D02*
X186362779Y-68110000D01*
X186037221Y-67090000D02*
X186362779Y-67090000D01*
X179910000Y-89162779D02*
X179910000Y-88837221D01*
X178890000Y-89162779D02*
X178890000Y-88837221D01*
X187310000Y-62662779D02*
X187310000Y-62337221D01*
X186290000Y-62662779D02*
X186290000Y-62337221D01*
X183510000Y-89162779D02*
X183510000Y-88837221D01*
X182490000Y-89162779D02*
X182490000Y-88837221D01*
X157412779Y-70240000D02*
X157087221Y-70240000D01*
X157412779Y-71260000D02*
X157087221Y-71260000D01*
X167485000Y-87465000D02*
X165200000Y-87465000D01*
X167485000Y-88935000D02*
X167485000Y-87465000D01*
X165200000Y-88935000D02*
X167485000Y-88935000D01*
X167485000Y-89865000D02*
X165200000Y-89865000D01*
X167485000Y-91335000D02*
X167485000Y-89865000D01*
X165200000Y-91335000D02*
X167485000Y-91335000D01*
X167485000Y-92265000D02*
X165200000Y-92265000D01*
X167485000Y-93735000D02*
X167485000Y-92265000D01*
X165200000Y-93735000D02*
X167485000Y-93735000D01*
X157412779Y-68490000D02*
X157087221Y-68490000D01*
X157412779Y-69510000D02*
X157087221Y-69510000D01*
D10*
X194952380Y-96838095D02*
X195761904Y-96838095D01*
X195857142Y-96790476D01*
X195904761Y-96742857D01*
X195952380Y-96647619D01*
X195952380Y-96457142D01*
X195904761Y-96361904D01*
X195857142Y-96314285D01*
X195761904Y-96266666D01*
X194952380Y-96266666D01*
X195904761Y-95838095D02*
X195952380Y-95695238D01*
X195952380Y-95457142D01*
X195904761Y-95361904D01*
X195857142Y-95314285D01*
X195761904Y-95266666D01*
X195666666Y-95266666D01*
X195571428Y-95314285D01*
X195523809Y-95361904D01*
X195476190Y-95457142D01*
X195428571Y-95647619D01*
X195380952Y-95742857D01*
X195333333Y-95790476D01*
X195238095Y-95838095D01*
X195142857Y-95838095D01*
X195047619Y-95790476D01*
X195000000Y-95742857D01*
X194952380Y-95647619D01*
X194952380Y-95409523D01*
X195000000Y-95266666D01*
X195428571Y-94504761D02*
X195476190Y-94361904D01*
X195523809Y-94314285D01*
X195619047Y-94266666D01*
X195761904Y-94266666D01*
X195857142Y-94314285D01*
X195904761Y-94361904D01*
X195952380Y-94457142D01*
X195952380Y-94838095D01*
X194952380Y-94838095D01*
X194952380Y-94504761D01*
X195000000Y-94409523D01*
X195047619Y-94361904D01*
X195142857Y-94314285D01*
X195238095Y-94314285D01*
X195333333Y-94361904D01*
X195380952Y-94409523D01*
X195428571Y-94504761D01*
X195428571Y-94838095D01*
X195857142Y-93266666D02*
X195904761Y-93314285D01*
X195952380Y-93457142D01*
X195952380Y-93552380D01*
X195904761Y-93695238D01*
X195809523Y-93790476D01*
X195714285Y-93838095D01*
X195523809Y-93885714D01*
X195380952Y-93885714D01*
X195190476Y-93838095D01*
X195095238Y-93790476D01*
X195000000Y-93695238D01*
X194952380Y-93552380D01*
X194952380Y-93457142D01*
X195000000Y-93314285D01*
X195047619Y-93266666D01*
X195952380Y-92314285D02*
X195952380Y-92885714D01*
X195952380Y-92600000D02*
X194952380Y-92600000D01*
X195095238Y-92695238D01*
X195190476Y-92790476D01*
X195238095Y-92885714D01*
X189452380Y-80333333D02*
X190166666Y-80333333D01*
X190309523Y-80380952D01*
X190404761Y-80476190D01*
X190452380Y-80619047D01*
X190452380Y-80714285D01*
X189452380Y-79952380D02*
X189452380Y-79333333D01*
X189833333Y-79666666D01*
X189833333Y-79523809D01*
X189880952Y-79428571D01*
X189928571Y-79380952D01*
X190023809Y-79333333D01*
X190261904Y-79333333D01*
X190357142Y-79380952D01*
X190404761Y-79428571D01*
X190452380Y-79523809D01*
X190452380Y-79809523D01*
X190404761Y-79904761D01*
X190357142Y-79952380D01*
D12*
X155686190Y-74183333D02*
X155448095Y-74350000D01*
X155686190Y-74469047D02*
X155186190Y-74469047D01*
X155186190Y-74278571D01*
X155210000Y-74230952D01*
X155233809Y-74207142D01*
X155281428Y-74183333D01*
X155352857Y-74183333D01*
X155400476Y-74207142D01*
X155424285Y-74230952D01*
X155448095Y-74278571D01*
X155448095Y-74469047D01*
X155186190Y-73873809D02*
X155186190Y-73826190D01*
X155210000Y-73778571D01*
X155233809Y-73754761D01*
X155281428Y-73730952D01*
X155376666Y-73707142D01*
X155495714Y-73707142D01*
X155590952Y-73730952D01*
X155638571Y-73754761D01*
X155662380Y-73778571D01*
X155686190Y-73826190D01*
X155686190Y-73873809D01*
X155662380Y-73921428D01*
X155638571Y-73945238D01*
X155590952Y-73969047D01*
X155495714Y-73992857D01*
X155376666Y-73992857D01*
X155281428Y-73969047D01*
X155233809Y-73945238D01*
X155210000Y-73921428D01*
X155186190Y-73873809D01*
X182219047Y-91926190D02*
X182219047Y-92330952D01*
X182242857Y-92378571D01*
X182266666Y-92402380D01*
X182314285Y-92426190D01*
X182409523Y-92426190D01*
X182457142Y-92402380D01*
X182480952Y-92378571D01*
X182504761Y-92330952D01*
X182504761Y-91926190D01*
X182957142Y-91926190D02*
X182861904Y-91926190D01*
X182814285Y-91950000D01*
X182790476Y-91973809D01*
X182742857Y-92045238D01*
X182719047Y-92140476D01*
X182719047Y-92330952D01*
X182742857Y-92378571D01*
X182766666Y-92402380D01*
X182814285Y-92426190D01*
X182909523Y-92426190D01*
X182957142Y-92402380D01*
X182980952Y-92378571D01*
X183004761Y-92330952D01*
X183004761Y-92211904D01*
X182980952Y-92164285D01*
X182957142Y-92140476D01*
X182909523Y-92116666D01*
X182814285Y-92116666D01*
X182766666Y-92140476D01*
X182742857Y-92164285D01*
X182719047Y-92211904D01*
D10*
X181038095Y-96052380D02*
X181038095Y-96861904D01*
X181085714Y-96957142D01*
X181133333Y-97004761D01*
X181228571Y-97052380D01*
X181419047Y-97052380D01*
X181514285Y-97004761D01*
X181561904Y-96957142D01*
X181609523Y-96861904D01*
X181609523Y-96052380D01*
X182561904Y-96052380D02*
X182085714Y-96052380D01*
X182038095Y-96528571D01*
X182085714Y-96480952D01*
X182180952Y-96433333D01*
X182419047Y-96433333D01*
X182514285Y-96480952D01*
X182561904Y-96528571D01*
X182609523Y-96623809D01*
X182609523Y-96861904D01*
X182561904Y-96957142D01*
X182514285Y-97004761D01*
X182419047Y-97052380D01*
X182180952Y-97052380D01*
X182085714Y-97004761D01*
X182038095Y-96957142D01*
D12*
X187819047Y-91326190D02*
X187819047Y-91730952D01*
X187842857Y-91778571D01*
X187866666Y-91802380D01*
X187914285Y-91826190D01*
X188009523Y-91826190D01*
X188057142Y-91802380D01*
X188080952Y-91778571D01*
X188104761Y-91730952D01*
X188104761Y-91326190D01*
X188557142Y-91492857D02*
X188557142Y-91826190D01*
X188438095Y-91302380D02*
X188319047Y-91659523D01*
X188628571Y-91659523D01*
D10*
X197988095Y-84202380D02*
X197988095Y-85011904D01*
X198035714Y-85107142D01*
X198083333Y-85154761D01*
X198178571Y-85202380D01*
X198369047Y-85202380D01*
X198464285Y-85154761D01*
X198511904Y-85107142D01*
X198559523Y-85011904D01*
X198559523Y-84202380D01*
X198940476Y-84202380D02*
X199559523Y-84202380D01*
X199226190Y-84583333D01*
X199369047Y-84583333D01*
X199464285Y-84630952D01*
X199511904Y-84678571D01*
X199559523Y-84773809D01*
X199559523Y-85011904D01*
X199511904Y-85107142D01*
X199464285Y-85154761D01*
X199369047Y-85202380D01*
X199083333Y-85202380D01*
X198988095Y-85154761D01*
X198940476Y-85107142D01*
X157842380Y-85191904D02*
X158651904Y-85191904D01*
X158747142Y-85144285D01*
X158794761Y-85096666D01*
X158842380Y-85001428D01*
X158842380Y-84810952D01*
X158794761Y-84715714D01*
X158747142Y-84668095D01*
X158651904Y-84620476D01*
X157842380Y-84620476D01*
X157937619Y-84191904D02*
X157890000Y-84144285D01*
X157842380Y-84049047D01*
X157842380Y-83810952D01*
X157890000Y-83715714D01*
X157937619Y-83668095D01*
X158032857Y-83620476D01*
X158128095Y-83620476D01*
X158270952Y-83668095D01*
X158842380Y-84239523D01*
X158842380Y-83620476D01*
X171438095Y-89942380D02*
X171438095Y-90751904D01*
X171485714Y-90847142D01*
X171533333Y-90894761D01*
X171628571Y-90942380D01*
X171819047Y-90942380D01*
X171914285Y-90894761D01*
X171961904Y-90847142D01*
X172009523Y-90751904D01*
X172009523Y-89942380D01*
X173009523Y-90942380D02*
X172438095Y-90942380D01*
X172723809Y-90942380D02*
X172723809Y-89942380D01*
X172628571Y-90085238D01*
X172533333Y-90180476D01*
X172438095Y-90228095D01*
D12*
X184526190Y-69721428D02*
X184288095Y-69888095D01*
X184526190Y-70007142D02*
X184026190Y-70007142D01*
X184026190Y-69816666D01*
X184050000Y-69769047D01*
X184073809Y-69745238D01*
X184121428Y-69721428D01*
X184192857Y-69721428D01*
X184240476Y-69745238D01*
X184264285Y-69769047D01*
X184288095Y-69816666D01*
X184288095Y-70007142D01*
X184526190Y-69245238D02*
X184526190Y-69530952D01*
X184526190Y-69388095D02*
X184026190Y-69388095D01*
X184097619Y-69435714D01*
X184145238Y-69483333D01*
X184169047Y-69530952D01*
X184073809Y-69054761D02*
X184050000Y-69030952D01*
X184026190Y-68983333D01*
X184026190Y-68864285D01*
X184050000Y-68816666D01*
X184073809Y-68792857D01*
X184121428Y-68769047D01*
X184169047Y-68769047D01*
X184240476Y-68792857D01*
X184526190Y-69078571D01*
X184526190Y-68769047D01*
X192026190Y-69721428D02*
X191788095Y-69888095D01*
X192026190Y-70007142D02*
X191526190Y-70007142D01*
X191526190Y-69816666D01*
X191550000Y-69769047D01*
X191573809Y-69745238D01*
X191621428Y-69721428D01*
X191692857Y-69721428D01*
X191740476Y-69745238D01*
X191764285Y-69769047D01*
X191788095Y-69816666D01*
X191788095Y-70007142D01*
X192026190Y-69245238D02*
X192026190Y-69530952D01*
X192026190Y-69388095D02*
X191526190Y-69388095D01*
X191597619Y-69435714D01*
X191645238Y-69483333D01*
X191669047Y-69530952D01*
X192026190Y-68769047D02*
X192026190Y-69054761D01*
X192026190Y-68911904D02*
X191526190Y-68911904D01*
X191597619Y-68959523D01*
X191645238Y-69007142D01*
X191669047Y-69054761D01*
X180878571Y-87426190D02*
X180711904Y-87188095D01*
X180592857Y-87426190D02*
X180592857Y-86926190D01*
X180783333Y-86926190D01*
X180830952Y-86950000D01*
X180854761Y-86973809D01*
X180878571Y-87021428D01*
X180878571Y-87092857D01*
X180854761Y-87140476D01*
X180830952Y-87164285D01*
X180783333Y-87188095D01*
X180592857Y-87188095D01*
X181354761Y-87426190D02*
X181069047Y-87426190D01*
X181211904Y-87426190D02*
X181211904Y-86926190D01*
X181164285Y-86997619D01*
X181116666Y-87045238D01*
X181069047Y-87069047D01*
X181664285Y-86926190D02*
X181711904Y-86926190D01*
X181759523Y-86950000D01*
X181783333Y-86973809D01*
X181807142Y-87021428D01*
X181830952Y-87116666D01*
X181830952Y-87235714D01*
X181807142Y-87330952D01*
X181783333Y-87378571D01*
X181759523Y-87402380D01*
X181711904Y-87426190D01*
X181664285Y-87426190D01*
X181616666Y-87402380D01*
X181592857Y-87378571D01*
X181569047Y-87330952D01*
X181545238Y-87235714D01*
X181545238Y-87116666D01*
X181569047Y-87021428D01*
X181592857Y-86973809D01*
X181616666Y-86950000D01*
X181664285Y-86926190D01*
X186226190Y-97883333D02*
X185988095Y-98050000D01*
X186226190Y-98169047D02*
X185726190Y-98169047D01*
X185726190Y-97978571D01*
X185750000Y-97930952D01*
X185773809Y-97907142D01*
X185821428Y-97883333D01*
X185892857Y-97883333D01*
X185940476Y-97907142D01*
X185964285Y-97930952D01*
X185988095Y-97978571D01*
X185988095Y-98169047D01*
X186226190Y-97645238D02*
X186226190Y-97550000D01*
X186202380Y-97502380D01*
X186178571Y-97478571D01*
X186107142Y-97430952D01*
X186011904Y-97407142D01*
X185821428Y-97407142D01*
X185773809Y-97430952D01*
X185750000Y-97454761D01*
X185726190Y-97502380D01*
X185726190Y-97597619D01*
X185750000Y-97645238D01*
X185773809Y-97669047D01*
X185821428Y-97692857D01*
X185940476Y-97692857D01*
X185988095Y-97669047D01*
X186011904Y-97645238D01*
X186035714Y-97597619D01*
X186035714Y-97502380D01*
X186011904Y-97454761D01*
X185988095Y-97430952D01*
X185940476Y-97407142D01*
X186226190Y-95083333D02*
X185988095Y-95250000D01*
X186226190Y-95369047D02*
X185726190Y-95369047D01*
X185726190Y-95178571D01*
X185750000Y-95130952D01*
X185773809Y-95107142D01*
X185821428Y-95083333D01*
X185892857Y-95083333D01*
X185940476Y-95107142D01*
X185964285Y-95130952D01*
X185988095Y-95178571D01*
X185988095Y-95369047D01*
X185940476Y-94797619D02*
X185916666Y-94845238D01*
X185892857Y-94869047D01*
X185845238Y-94892857D01*
X185821428Y-94892857D01*
X185773809Y-94869047D01*
X185750000Y-94845238D01*
X185726190Y-94797619D01*
X185726190Y-94702380D01*
X185750000Y-94654761D01*
X185773809Y-94630952D01*
X185821428Y-94607142D01*
X185845238Y-94607142D01*
X185892857Y-94630952D01*
X185916666Y-94654761D01*
X185940476Y-94702380D01*
X185940476Y-94797619D01*
X185964285Y-94845238D01*
X185988095Y-94869047D01*
X186035714Y-94892857D01*
X186130952Y-94892857D01*
X186178571Y-94869047D01*
X186202380Y-94845238D01*
X186226190Y-94797619D01*
X186226190Y-94702380D01*
X186202380Y-94654761D01*
X186178571Y-94630952D01*
X186130952Y-94607142D01*
X186035714Y-94607142D01*
X185988095Y-94630952D01*
X185964285Y-94654761D01*
X185940476Y-94702380D01*
X184516666Y-87426190D02*
X184350000Y-87188095D01*
X184230952Y-87426190D02*
X184230952Y-86926190D01*
X184421428Y-86926190D01*
X184469047Y-86950000D01*
X184492857Y-86973809D01*
X184516666Y-87021428D01*
X184516666Y-87092857D01*
X184492857Y-87140476D01*
X184469047Y-87164285D01*
X184421428Y-87188095D01*
X184230952Y-87188095D01*
X184683333Y-86926190D02*
X185016666Y-86926190D01*
X184802380Y-87426190D01*
X178626190Y-92283333D02*
X178388095Y-92450000D01*
X178626190Y-92569047D02*
X178126190Y-92569047D01*
X178126190Y-92378571D01*
X178150000Y-92330952D01*
X178173809Y-92307142D01*
X178221428Y-92283333D01*
X178292857Y-92283333D01*
X178340476Y-92307142D01*
X178364285Y-92330952D01*
X178388095Y-92378571D01*
X178388095Y-92569047D01*
X178126190Y-91854761D02*
X178126190Y-91950000D01*
X178150000Y-91997619D01*
X178173809Y-92021428D01*
X178245238Y-92069047D01*
X178340476Y-92092857D01*
X178530952Y-92092857D01*
X178578571Y-92069047D01*
X178602380Y-92045238D01*
X178626190Y-91997619D01*
X178626190Y-91902380D01*
X178602380Y-91854761D01*
X178578571Y-91830952D01*
X178530952Y-91807142D01*
X178411904Y-91807142D01*
X178364285Y-91830952D01*
X178340476Y-91854761D01*
X178316666Y-91902380D01*
X178316666Y-91997619D01*
X178340476Y-92045238D01*
X178364285Y-92069047D01*
X178411904Y-92092857D01*
X155626190Y-72583333D02*
X155388095Y-72750000D01*
X155626190Y-72869047D02*
X155126190Y-72869047D01*
X155126190Y-72678571D01*
X155150000Y-72630952D01*
X155173809Y-72607142D01*
X155221428Y-72583333D01*
X155292857Y-72583333D01*
X155340476Y-72607142D01*
X155364285Y-72630952D01*
X155388095Y-72678571D01*
X155388095Y-72869047D01*
X155126190Y-72416666D02*
X155126190Y-72107142D01*
X155316666Y-72273809D01*
X155316666Y-72202380D01*
X155340476Y-72154761D01*
X155364285Y-72130952D01*
X155411904Y-72107142D01*
X155530952Y-72107142D01*
X155578571Y-72130952D01*
X155602380Y-72154761D01*
X155626190Y-72202380D01*
X155626190Y-72345238D01*
X155602380Y-72392857D01*
X155578571Y-72416666D01*
X163916666Y-99826190D02*
X163750000Y-99588095D01*
X163630952Y-99826190D02*
X163630952Y-99326190D01*
X163821428Y-99326190D01*
X163869047Y-99350000D01*
X163892857Y-99373809D01*
X163916666Y-99421428D01*
X163916666Y-99492857D01*
X163892857Y-99540476D01*
X163869047Y-99564285D01*
X163821428Y-99588095D01*
X163630952Y-99588095D01*
X164107142Y-99373809D02*
X164130952Y-99350000D01*
X164178571Y-99326190D01*
X164297619Y-99326190D01*
X164345238Y-99350000D01*
X164369047Y-99373809D01*
X164392857Y-99421428D01*
X164392857Y-99469047D01*
X164369047Y-99540476D01*
X164083333Y-99826190D01*
X164392857Y-99826190D01*
X163886666Y-95856190D02*
X163720000Y-95618095D01*
X163600952Y-95856190D02*
X163600952Y-95356190D01*
X163791428Y-95356190D01*
X163839047Y-95380000D01*
X163862857Y-95403809D01*
X163886666Y-95451428D01*
X163886666Y-95522857D01*
X163862857Y-95570476D01*
X163839047Y-95594285D01*
X163791428Y-95618095D01*
X163600952Y-95618095D01*
X164362857Y-95856190D02*
X164077142Y-95856190D01*
X164220000Y-95856190D02*
X164220000Y-95356190D01*
X164172380Y-95427619D01*
X164124761Y-95475238D01*
X164077142Y-95499047D01*
X189352380Y-68773809D02*
X189304761Y-68750000D01*
X189257142Y-68702380D01*
X189185714Y-68630952D01*
X189138095Y-68607142D01*
X189090476Y-68607142D01*
X189114285Y-68726190D02*
X189066666Y-68702380D01*
X189019047Y-68654761D01*
X188995238Y-68559523D01*
X188995238Y-68392857D01*
X189019047Y-68297619D01*
X189066666Y-68250000D01*
X189114285Y-68226190D01*
X189209523Y-68226190D01*
X189257142Y-68250000D01*
X189304761Y-68297619D01*
X189328571Y-68392857D01*
X189328571Y-68559523D01*
X189304761Y-68654761D01*
X189257142Y-68702380D01*
X189209523Y-68726190D01*
X189114285Y-68726190D01*
X189804761Y-68726190D02*
X189519047Y-68726190D01*
X189661904Y-68726190D02*
X189661904Y-68226190D01*
X189614285Y-68297619D01*
X189566666Y-68345238D01*
X189519047Y-68369047D01*
D10*
X190052380Y-63966666D02*
X190052380Y-64442857D01*
X189052380Y-64442857D01*
X190052380Y-63109523D02*
X190052380Y-63680952D01*
X190052380Y-63395238D02*
X189052380Y-63395238D01*
X189195238Y-63490476D01*
X189290476Y-63585714D01*
X189338095Y-63680952D01*
X101738095Y-94752380D02*
X101738095Y-93752380D01*
X101738095Y-94228571D02*
X102309523Y-94228571D01*
X102309523Y-94752380D02*
X102309523Y-93752380D01*
X103309523Y-94752380D02*
X102738095Y-94752380D01*
X103023809Y-94752380D02*
X103023809Y-93752380D01*
X102928571Y-93895238D01*
X102833333Y-93990476D01*
X102738095Y-94038095D01*
X169583333Y-97178571D02*
X169250000Y-97178571D01*
X169250000Y-97702380D02*
X169250000Y-96702380D01*
X169726190Y-96702380D01*
X170583333Y-97702380D02*
X170107142Y-97702380D01*
X170107142Y-96702380D01*
X170869047Y-97416666D02*
X171345238Y-97416666D01*
X170773809Y-97702380D02*
X171107142Y-96702380D01*
X171440476Y-97702380D01*
X171726190Y-97654761D02*
X171869047Y-97702380D01*
X172107142Y-97702380D01*
X172202380Y-97654761D01*
X172250000Y-97607142D01*
X172297619Y-97511904D01*
X172297619Y-97416666D01*
X172250000Y-97321428D01*
X172202380Y-97273809D01*
X172107142Y-97226190D01*
X171916666Y-97178571D01*
X171821428Y-97130952D01*
X171773809Y-97083333D01*
X171726190Y-96988095D01*
X171726190Y-96892857D01*
X171773809Y-96797619D01*
X171821428Y-96750000D01*
X171916666Y-96702380D01*
X172154761Y-96702380D01*
X172297619Y-96750000D01*
X172726190Y-97702380D02*
X172726190Y-96702380D01*
X172726190Y-97178571D02*
X173297619Y-97178571D01*
X173297619Y-97702380D02*
X173297619Y-96702380D01*
X174297619Y-97702380D02*
X173726190Y-97702380D01*
X174011904Y-97702380D02*
X174011904Y-96702380D01*
X173916666Y-96845238D01*
X173821428Y-96940476D01*
X173726190Y-96988095D01*
D12*
X192026190Y-67769047D02*
X191526190Y-67769047D01*
X191526190Y-67650000D01*
X191550000Y-67578571D01*
X191597619Y-67530952D01*
X191645238Y-67507142D01*
X191740476Y-67483333D01*
X191811904Y-67483333D01*
X191907142Y-67507142D01*
X191954761Y-67530952D01*
X192002380Y-67578571D01*
X192026190Y-67650000D01*
X192026190Y-67769047D01*
X191526190Y-67030952D02*
X191526190Y-67269047D01*
X191764285Y-67292857D01*
X191740476Y-67269047D01*
X191716666Y-67221428D01*
X191716666Y-67102380D01*
X191740476Y-67054761D01*
X191764285Y-67030952D01*
X191811904Y-67007142D01*
X191930952Y-67007142D01*
X191978571Y-67030952D01*
X192002380Y-67054761D01*
X192026190Y-67102380D01*
X192026190Y-67221428D01*
X192002380Y-67269047D01*
X191978571Y-67292857D01*
X192026190Y-65969047D02*
X191526190Y-65969047D01*
X191526190Y-65850000D01*
X191550000Y-65778571D01*
X191597619Y-65730952D01*
X191645238Y-65707142D01*
X191740476Y-65683333D01*
X191811904Y-65683333D01*
X191907142Y-65707142D01*
X191954761Y-65730952D01*
X192002380Y-65778571D01*
X192026190Y-65850000D01*
X192026190Y-65969047D01*
X191692857Y-65254761D02*
X192026190Y-65254761D01*
X191502380Y-65373809D02*
X191859523Y-65492857D01*
X191859523Y-65183333D01*
X184626190Y-66169047D02*
X184126190Y-66169047D01*
X184126190Y-66050000D01*
X184150000Y-65978571D01*
X184197619Y-65930952D01*
X184245238Y-65907142D01*
X184340476Y-65883333D01*
X184411904Y-65883333D01*
X184507142Y-65907142D01*
X184554761Y-65930952D01*
X184602380Y-65978571D01*
X184626190Y-66050000D01*
X184626190Y-66169047D01*
X184126190Y-65716666D02*
X184126190Y-65407142D01*
X184316666Y-65573809D01*
X184316666Y-65502380D01*
X184340476Y-65454761D01*
X184364285Y-65430952D01*
X184411904Y-65407142D01*
X184530952Y-65407142D01*
X184578571Y-65430952D01*
X184602380Y-65454761D01*
X184626190Y-65502380D01*
X184626190Y-65645238D01*
X184602380Y-65692857D01*
X184578571Y-65716666D01*
X188426190Y-98369047D02*
X187926190Y-98369047D01*
X187926190Y-98250000D01*
X187950000Y-98178571D01*
X187997619Y-98130952D01*
X188045238Y-98107142D01*
X188140476Y-98083333D01*
X188211904Y-98083333D01*
X188307142Y-98107142D01*
X188354761Y-98130952D01*
X188402380Y-98178571D01*
X188426190Y-98250000D01*
X188426190Y-98369047D01*
X187973809Y-97892857D02*
X187950000Y-97869047D01*
X187926190Y-97821428D01*
X187926190Y-97702380D01*
X187950000Y-97654761D01*
X187973809Y-97630952D01*
X188021428Y-97607142D01*
X188069047Y-97607142D01*
X188140476Y-97630952D01*
X188426190Y-97916666D01*
X188426190Y-97607142D01*
X188426190Y-95369047D02*
X187926190Y-95369047D01*
X187926190Y-95250000D01*
X187950000Y-95178571D01*
X187997619Y-95130952D01*
X188045238Y-95107142D01*
X188140476Y-95083333D01*
X188211904Y-95083333D01*
X188307142Y-95107142D01*
X188354761Y-95130952D01*
X188402380Y-95178571D01*
X188426190Y-95250000D01*
X188426190Y-95369047D01*
X188426190Y-94607142D02*
X188426190Y-94892857D01*
X188426190Y-94750000D02*
X187926190Y-94750000D01*
X187997619Y-94797619D01*
X188045238Y-94845238D01*
X188069047Y-94892857D01*
X180478571Y-82721428D02*
X180502380Y-82745238D01*
X180526190Y-82816666D01*
X180526190Y-82864285D01*
X180502380Y-82935714D01*
X180454761Y-82983333D01*
X180407142Y-83007142D01*
X180311904Y-83030952D01*
X180240476Y-83030952D01*
X180145238Y-83007142D01*
X180097619Y-82983333D01*
X180050000Y-82935714D01*
X180026190Y-82864285D01*
X180026190Y-82816666D01*
X180050000Y-82745238D01*
X180073809Y-82721428D01*
X180526190Y-82245238D02*
X180526190Y-82530952D01*
X180526190Y-82388095D02*
X180026190Y-82388095D01*
X180097619Y-82435714D01*
X180145238Y-82483333D01*
X180169047Y-82530952D01*
X180526190Y-82007142D02*
X180526190Y-81911904D01*
X180502380Y-81864285D01*
X180478571Y-81840476D01*
X180407142Y-81792857D01*
X180311904Y-81769047D01*
X180121428Y-81769047D01*
X180073809Y-81792857D01*
X180050000Y-81816666D01*
X180026190Y-81864285D01*
X180026190Y-81959523D01*
X180050000Y-82007142D01*
X180073809Y-82030952D01*
X180121428Y-82054761D01*
X180240476Y-82054761D01*
X180288095Y-82030952D01*
X180311904Y-82007142D01*
X180335714Y-81959523D01*
X180335714Y-81864285D01*
X180311904Y-81816666D01*
X180288095Y-81792857D01*
X180240476Y-81769047D01*
X180478571Y-73121428D02*
X180502380Y-73145238D01*
X180526190Y-73216666D01*
X180526190Y-73264285D01*
X180502380Y-73335714D01*
X180454761Y-73383333D01*
X180407142Y-73407142D01*
X180311904Y-73430952D01*
X180240476Y-73430952D01*
X180145238Y-73407142D01*
X180097619Y-73383333D01*
X180050000Y-73335714D01*
X180026190Y-73264285D01*
X180026190Y-73216666D01*
X180050000Y-73145238D01*
X180073809Y-73121428D01*
X180526190Y-72645238D02*
X180526190Y-72930952D01*
X180526190Y-72788095D02*
X180026190Y-72788095D01*
X180097619Y-72835714D01*
X180145238Y-72883333D01*
X180169047Y-72930952D01*
X180240476Y-72359523D02*
X180216666Y-72407142D01*
X180192857Y-72430952D01*
X180145238Y-72454761D01*
X180121428Y-72454761D01*
X180073809Y-72430952D01*
X180050000Y-72407142D01*
X180026190Y-72359523D01*
X180026190Y-72264285D01*
X180050000Y-72216666D01*
X180073809Y-72192857D01*
X180121428Y-72169047D01*
X180145238Y-72169047D01*
X180192857Y-72192857D01*
X180216666Y-72216666D01*
X180240476Y-72264285D01*
X180240476Y-72359523D01*
X180264285Y-72407142D01*
X180288095Y-72430952D01*
X180335714Y-72454761D01*
X180430952Y-72454761D01*
X180478571Y-72430952D01*
X180502380Y-72407142D01*
X180526190Y-72359523D01*
X180526190Y-72264285D01*
X180502380Y-72216666D01*
X180478571Y-72192857D01*
X180430952Y-72169047D01*
X180335714Y-72169047D01*
X180288095Y-72192857D01*
X180264285Y-72216666D01*
X180240476Y-72264285D01*
X180478571Y-71521428D02*
X180502380Y-71545238D01*
X180526190Y-71616666D01*
X180526190Y-71664285D01*
X180502380Y-71735714D01*
X180454761Y-71783333D01*
X180407142Y-71807142D01*
X180311904Y-71830952D01*
X180240476Y-71830952D01*
X180145238Y-71807142D01*
X180097619Y-71783333D01*
X180050000Y-71735714D01*
X180026190Y-71664285D01*
X180026190Y-71616666D01*
X180050000Y-71545238D01*
X180073809Y-71521428D01*
X180526190Y-71045238D02*
X180526190Y-71330952D01*
X180526190Y-71188095D02*
X180026190Y-71188095D01*
X180097619Y-71235714D01*
X180145238Y-71283333D01*
X180169047Y-71330952D01*
X180026190Y-70878571D02*
X180026190Y-70545238D01*
X180526190Y-70759523D01*
X180478571Y-81121428D02*
X180502380Y-81145238D01*
X180526190Y-81216666D01*
X180526190Y-81264285D01*
X180502380Y-81335714D01*
X180454761Y-81383333D01*
X180407142Y-81407142D01*
X180311904Y-81430952D01*
X180240476Y-81430952D01*
X180145238Y-81407142D01*
X180097619Y-81383333D01*
X180050000Y-81335714D01*
X180026190Y-81264285D01*
X180026190Y-81216666D01*
X180050000Y-81145238D01*
X180073809Y-81121428D01*
X180526190Y-80645238D02*
X180526190Y-80930952D01*
X180526190Y-80788095D02*
X180026190Y-80788095D01*
X180097619Y-80835714D01*
X180145238Y-80883333D01*
X180169047Y-80930952D01*
X180026190Y-80216666D02*
X180026190Y-80311904D01*
X180050000Y-80359523D01*
X180073809Y-80383333D01*
X180145238Y-80430952D01*
X180240476Y-80454761D01*
X180430952Y-80454761D01*
X180478571Y-80430952D01*
X180502380Y-80407142D01*
X180526190Y-80359523D01*
X180526190Y-80264285D01*
X180502380Y-80216666D01*
X180478571Y-80192857D01*
X180430952Y-80169047D01*
X180311904Y-80169047D01*
X180264285Y-80192857D01*
X180240476Y-80216666D01*
X180216666Y-80264285D01*
X180216666Y-80359523D01*
X180240476Y-80407142D01*
X180264285Y-80430952D01*
X180311904Y-80454761D01*
X180478571Y-79521428D02*
X180502380Y-79545238D01*
X180526190Y-79616666D01*
X180526190Y-79664285D01*
X180502380Y-79735714D01*
X180454761Y-79783333D01*
X180407142Y-79807142D01*
X180311904Y-79830952D01*
X180240476Y-79830952D01*
X180145238Y-79807142D01*
X180097619Y-79783333D01*
X180050000Y-79735714D01*
X180026190Y-79664285D01*
X180026190Y-79616666D01*
X180050000Y-79545238D01*
X180073809Y-79521428D01*
X180526190Y-79045238D02*
X180526190Y-79330952D01*
X180526190Y-79188095D02*
X180026190Y-79188095D01*
X180097619Y-79235714D01*
X180145238Y-79283333D01*
X180169047Y-79330952D01*
X180026190Y-78592857D02*
X180026190Y-78830952D01*
X180264285Y-78854761D01*
X180240476Y-78830952D01*
X180216666Y-78783333D01*
X180216666Y-78664285D01*
X180240476Y-78616666D01*
X180264285Y-78592857D01*
X180311904Y-78569047D01*
X180430952Y-78569047D01*
X180478571Y-78592857D01*
X180502380Y-78616666D01*
X180526190Y-78664285D01*
X180526190Y-78783333D01*
X180502380Y-78830952D01*
X180478571Y-78854761D01*
X180478571Y-77921428D02*
X180502380Y-77945238D01*
X180526190Y-78016666D01*
X180526190Y-78064285D01*
X180502380Y-78135714D01*
X180454761Y-78183333D01*
X180407142Y-78207142D01*
X180311904Y-78230952D01*
X180240476Y-78230952D01*
X180145238Y-78207142D01*
X180097619Y-78183333D01*
X180050000Y-78135714D01*
X180026190Y-78064285D01*
X180026190Y-78016666D01*
X180050000Y-77945238D01*
X180073809Y-77921428D01*
X180526190Y-77445238D02*
X180526190Y-77730952D01*
X180526190Y-77588095D02*
X180026190Y-77588095D01*
X180097619Y-77635714D01*
X180145238Y-77683333D01*
X180169047Y-77730952D01*
X180192857Y-77016666D02*
X180526190Y-77016666D01*
X180002380Y-77135714D02*
X180359523Y-77254761D01*
X180359523Y-76945238D01*
X180478571Y-85921428D02*
X180502380Y-85945238D01*
X180526190Y-86016666D01*
X180526190Y-86064285D01*
X180502380Y-86135714D01*
X180454761Y-86183333D01*
X180407142Y-86207142D01*
X180311904Y-86230952D01*
X180240476Y-86230952D01*
X180145238Y-86207142D01*
X180097619Y-86183333D01*
X180050000Y-86135714D01*
X180026190Y-86064285D01*
X180026190Y-86016666D01*
X180050000Y-85945238D01*
X180073809Y-85921428D01*
X180526190Y-85445238D02*
X180526190Y-85730952D01*
X180526190Y-85588095D02*
X180026190Y-85588095D01*
X180097619Y-85635714D01*
X180145238Y-85683333D01*
X180169047Y-85730952D01*
X180026190Y-85278571D02*
X180026190Y-84969047D01*
X180216666Y-85135714D01*
X180216666Y-85064285D01*
X180240476Y-85016666D01*
X180264285Y-84992857D01*
X180311904Y-84969047D01*
X180430952Y-84969047D01*
X180478571Y-84992857D01*
X180502380Y-85016666D01*
X180526190Y-85064285D01*
X180526190Y-85207142D01*
X180502380Y-85254761D01*
X180478571Y-85278571D01*
X180478571Y-84321428D02*
X180502380Y-84345238D01*
X180526190Y-84416666D01*
X180526190Y-84464285D01*
X180502380Y-84535714D01*
X180454761Y-84583333D01*
X180407142Y-84607142D01*
X180311904Y-84630952D01*
X180240476Y-84630952D01*
X180145238Y-84607142D01*
X180097619Y-84583333D01*
X180050000Y-84535714D01*
X180026190Y-84464285D01*
X180026190Y-84416666D01*
X180050000Y-84345238D01*
X180073809Y-84321428D01*
X180526190Y-83845238D02*
X180526190Y-84130952D01*
X180526190Y-83988095D02*
X180026190Y-83988095D01*
X180097619Y-84035714D01*
X180145238Y-84083333D01*
X180169047Y-84130952D01*
X180073809Y-83654761D02*
X180050000Y-83630952D01*
X180026190Y-83583333D01*
X180026190Y-83464285D01*
X180050000Y-83416666D01*
X180073809Y-83392857D01*
X180121428Y-83369047D01*
X180169047Y-83369047D01*
X180240476Y-83392857D01*
X180526190Y-83678571D01*
X180526190Y-83369047D01*
X180478571Y-76321428D02*
X180502380Y-76345238D01*
X180526190Y-76416666D01*
X180526190Y-76464285D01*
X180502380Y-76535714D01*
X180454761Y-76583333D01*
X180407142Y-76607142D01*
X180311904Y-76630952D01*
X180240476Y-76630952D01*
X180145238Y-76607142D01*
X180097619Y-76583333D01*
X180050000Y-76535714D01*
X180026190Y-76464285D01*
X180026190Y-76416666D01*
X180050000Y-76345238D01*
X180073809Y-76321428D01*
X180526190Y-75845238D02*
X180526190Y-76130952D01*
X180526190Y-75988095D02*
X180026190Y-75988095D01*
X180097619Y-76035714D01*
X180145238Y-76083333D01*
X180169047Y-76130952D01*
X180526190Y-75369047D02*
X180526190Y-75654761D01*
X180526190Y-75511904D02*
X180026190Y-75511904D01*
X180097619Y-75559523D01*
X180145238Y-75607142D01*
X180169047Y-75654761D01*
X180478571Y-74721428D02*
X180502380Y-74745238D01*
X180526190Y-74816666D01*
X180526190Y-74864285D01*
X180502380Y-74935714D01*
X180454761Y-74983333D01*
X180407142Y-75007142D01*
X180311904Y-75030952D01*
X180240476Y-75030952D01*
X180145238Y-75007142D01*
X180097619Y-74983333D01*
X180050000Y-74935714D01*
X180026190Y-74864285D01*
X180026190Y-74816666D01*
X180050000Y-74745238D01*
X180073809Y-74721428D01*
X180526190Y-74245238D02*
X180526190Y-74530952D01*
X180526190Y-74388095D02*
X180026190Y-74388095D01*
X180097619Y-74435714D01*
X180145238Y-74483333D01*
X180169047Y-74530952D01*
X180026190Y-73935714D02*
X180026190Y-73888095D01*
X180050000Y-73840476D01*
X180073809Y-73816666D01*
X180121428Y-73792857D01*
X180216666Y-73769047D01*
X180335714Y-73769047D01*
X180430952Y-73792857D01*
X180478571Y-73816666D01*
X180502380Y-73840476D01*
X180526190Y-73888095D01*
X180526190Y-73935714D01*
X180502380Y-73983333D01*
X180478571Y-74007142D01*
X180430952Y-74030952D01*
X180335714Y-74054761D01*
X180216666Y-74054761D01*
X180121428Y-74030952D01*
X180073809Y-74007142D01*
X180050000Y-73983333D01*
X180026190Y-73935714D01*
X184578571Y-67683333D02*
X184602380Y-67707142D01*
X184626190Y-67778571D01*
X184626190Y-67826190D01*
X184602380Y-67897619D01*
X184554761Y-67945238D01*
X184507142Y-67969047D01*
X184411904Y-67992857D01*
X184340476Y-67992857D01*
X184245238Y-67969047D01*
X184197619Y-67945238D01*
X184150000Y-67897619D01*
X184126190Y-67826190D01*
X184126190Y-67778571D01*
X184150000Y-67707142D01*
X184173809Y-67683333D01*
X184626190Y-67445238D02*
X184626190Y-67350000D01*
X184602380Y-67302380D01*
X184578571Y-67278571D01*
X184507142Y-67230952D01*
X184411904Y-67207142D01*
X184221428Y-67207142D01*
X184173809Y-67230952D01*
X184150000Y-67254761D01*
X184126190Y-67302380D01*
X184126190Y-67397619D01*
X184150000Y-67445238D01*
X184173809Y-67469047D01*
X184221428Y-67492857D01*
X184340476Y-67492857D01*
X184388095Y-67469047D01*
X184411904Y-67445238D01*
X184435714Y-67397619D01*
X184435714Y-67302380D01*
X184411904Y-67254761D01*
X184388095Y-67230952D01*
X184340476Y-67207142D01*
X179316666Y-87378571D02*
X179292857Y-87402380D01*
X179221428Y-87426190D01*
X179173809Y-87426190D01*
X179102380Y-87402380D01*
X179054761Y-87354761D01*
X179030952Y-87307142D01*
X179007142Y-87211904D01*
X179007142Y-87140476D01*
X179030952Y-87045238D01*
X179054761Y-86997619D01*
X179102380Y-86950000D01*
X179173809Y-86926190D01*
X179221428Y-86926190D01*
X179292857Y-86950000D01*
X179316666Y-86973809D01*
X179602380Y-87140476D02*
X179554761Y-87116666D01*
X179530952Y-87092857D01*
X179507142Y-87045238D01*
X179507142Y-87021428D01*
X179530952Y-86973809D01*
X179554761Y-86950000D01*
X179602380Y-86926190D01*
X179697619Y-86926190D01*
X179745238Y-86950000D01*
X179769047Y-86973809D01*
X179792857Y-87021428D01*
X179792857Y-87045238D01*
X179769047Y-87092857D01*
X179745238Y-87116666D01*
X179697619Y-87140476D01*
X179602380Y-87140476D01*
X179554761Y-87164285D01*
X179530952Y-87188095D01*
X179507142Y-87235714D01*
X179507142Y-87330952D01*
X179530952Y-87378571D01*
X179554761Y-87402380D01*
X179602380Y-87426190D01*
X179697619Y-87426190D01*
X179745238Y-87402380D01*
X179769047Y-87378571D01*
X179792857Y-87330952D01*
X179792857Y-87235714D01*
X179769047Y-87188095D01*
X179745238Y-87164285D01*
X179697619Y-87140476D01*
X186716666Y-60878571D02*
X186692857Y-60902380D01*
X186621428Y-60926190D01*
X186573809Y-60926190D01*
X186502380Y-60902380D01*
X186454761Y-60854761D01*
X186430952Y-60807142D01*
X186407142Y-60711904D01*
X186407142Y-60640476D01*
X186430952Y-60545238D01*
X186454761Y-60497619D01*
X186502380Y-60450000D01*
X186573809Y-60426190D01*
X186621428Y-60426190D01*
X186692857Y-60450000D01*
X186716666Y-60473809D01*
X186883333Y-60426190D02*
X187216666Y-60426190D01*
X187002380Y-60926190D01*
X182916666Y-87378571D02*
X182892857Y-87402380D01*
X182821428Y-87426190D01*
X182773809Y-87426190D01*
X182702380Y-87402380D01*
X182654761Y-87354761D01*
X182630952Y-87307142D01*
X182607142Y-87211904D01*
X182607142Y-87140476D01*
X182630952Y-87045238D01*
X182654761Y-86997619D01*
X182702380Y-86950000D01*
X182773809Y-86926190D01*
X182821428Y-86926190D01*
X182892857Y-86950000D01*
X182916666Y-86973809D01*
X183345238Y-86926190D02*
X183250000Y-86926190D01*
X183202380Y-86950000D01*
X183178571Y-86973809D01*
X183130952Y-87045238D01*
X183107142Y-87140476D01*
X183107142Y-87330952D01*
X183130952Y-87378571D01*
X183154761Y-87402380D01*
X183202380Y-87426190D01*
X183297619Y-87426190D01*
X183345238Y-87402380D01*
X183369047Y-87378571D01*
X183392857Y-87330952D01*
X183392857Y-87211904D01*
X183369047Y-87164285D01*
X183345238Y-87140476D01*
X183297619Y-87116666D01*
X183202380Y-87116666D01*
X183154761Y-87140476D01*
X183130952Y-87164285D01*
X183107142Y-87211904D01*
X155578571Y-70883333D02*
X155602380Y-70907142D01*
X155626190Y-70978571D01*
X155626190Y-71026190D01*
X155602380Y-71097619D01*
X155554761Y-71145238D01*
X155507142Y-71169047D01*
X155411904Y-71192857D01*
X155340476Y-71192857D01*
X155245238Y-71169047D01*
X155197619Y-71145238D01*
X155150000Y-71097619D01*
X155126190Y-71026190D01*
X155126190Y-70978571D01*
X155150000Y-70907142D01*
X155173809Y-70883333D01*
X155126190Y-70430952D02*
X155126190Y-70669047D01*
X155364285Y-70692857D01*
X155340476Y-70669047D01*
X155316666Y-70621428D01*
X155316666Y-70502380D01*
X155340476Y-70454761D01*
X155364285Y-70430952D01*
X155411904Y-70407142D01*
X155530952Y-70407142D01*
X155578571Y-70430952D01*
X155602380Y-70454761D01*
X155626190Y-70502380D01*
X155626190Y-70621428D01*
X155602380Y-70669047D01*
X155578571Y-70692857D01*
X164378571Y-88283333D02*
X164402380Y-88307142D01*
X164426190Y-88378571D01*
X164426190Y-88426190D01*
X164402380Y-88497619D01*
X164354761Y-88545238D01*
X164307142Y-88569047D01*
X164211904Y-88592857D01*
X164140476Y-88592857D01*
X164045238Y-88569047D01*
X163997619Y-88545238D01*
X163950000Y-88497619D01*
X163926190Y-88426190D01*
X163926190Y-88378571D01*
X163950000Y-88307142D01*
X163973809Y-88283333D01*
X164092857Y-87854761D02*
X164426190Y-87854761D01*
X163902380Y-87973809D02*
X164259523Y-88092857D01*
X164259523Y-87783333D01*
X164378571Y-90683333D02*
X164402380Y-90707142D01*
X164426190Y-90778571D01*
X164426190Y-90826190D01*
X164402380Y-90897619D01*
X164354761Y-90945238D01*
X164307142Y-90969047D01*
X164211904Y-90992857D01*
X164140476Y-90992857D01*
X164045238Y-90969047D01*
X163997619Y-90945238D01*
X163950000Y-90897619D01*
X163926190Y-90826190D01*
X163926190Y-90778571D01*
X163950000Y-90707142D01*
X163973809Y-90683333D01*
X163926190Y-90516666D02*
X163926190Y-90207142D01*
X164116666Y-90373809D01*
X164116666Y-90302380D01*
X164140476Y-90254761D01*
X164164285Y-90230952D01*
X164211904Y-90207142D01*
X164330952Y-90207142D01*
X164378571Y-90230952D01*
X164402380Y-90254761D01*
X164426190Y-90302380D01*
X164426190Y-90445238D01*
X164402380Y-90492857D01*
X164378571Y-90516666D01*
X164378571Y-93083333D02*
X164402380Y-93107142D01*
X164426190Y-93178571D01*
X164426190Y-93226190D01*
X164402380Y-93297619D01*
X164354761Y-93345238D01*
X164307142Y-93369047D01*
X164211904Y-93392857D01*
X164140476Y-93392857D01*
X164045238Y-93369047D01*
X163997619Y-93345238D01*
X163950000Y-93297619D01*
X163926190Y-93226190D01*
X163926190Y-93178571D01*
X163950000Y-93107142D01*
X163973809Y-93083333D01*
X163973809Y-92892857D02*
X163950000Y-92869047D01*
X163926190Y-92821428D01*
X163926190Y-92702380D01*
X163950000Y-92654761D01*
X163973809Y-92630952D01*
X164021428Y-92607142D01*
X164069047Y-92607142D01*
X164140476Y-92630952D01*
X164426190Y-92916666D01*
X164426190Y-92607142D01*
X155578571Y-69083333D02*
X155602380Y-69107142D01*
X155626190Y-69178571D01*
X155626190Y-69226190D01*
X155602380Y-69297619D01*
X155554761Y-69345238D01*
X155507142Y-69369047D01*
X155411904Y-69392857D01*
X155340476Y-69392857D01*
X155245238Y-69369047D01*
X155197619Y-69345238D01*
X155150000Y-69297619D01*
X155126190Y-69226190D01*
X155126190Y-69178571D01*
X155150000Y-69107142D01*
X155173809Y-69083333D01*
X155626190Y-68607142D02*
X155626190Y-68892857D01*
X155626190Y-68750000D02*
X155126190Y-68750000D01*
X155197619Y-68797619D01*
X155245238Y-68845238D01*
X155269047Y-68892857D01*
D10*
X196738095Y-59752380D02*
X196738095Y-58752380D01*
X196738095Y-59228571D02*
X197309523Y-59228571D01*
X197309523Y-59752380D02*
X197309523Y-58752380D01*
X197738095Y-58847619D02*
X197785714Y-58800000D01*
X197880952Y-58752380D01*
X198119047Y-58752380D01*
X198214285Y-58800000D01*
X198261904Y-58847619D01*
X198309523Y-58942857D01*
X198309523Y-59038095D01*
X198261904Y-59180952D01*
X197690476Y-59752380D01*
X198309523Y-59752380D01*
M02*
