M48
; DRILL file {KiCad (5.1.5)-3} date 2020/2/29 22:05:29
; FORMAT={-:-/ absolute / inch / decimal}
; #@! TF.CreationDate,2020-02-29T22:05:29+08:00
; #@! TF.GenerationSoftware,Kicad,Pcbnew,(5.1.5)-3
; #@! TF.FileFunction,Plated,1,2,PTH
FMAT,2
INCH
T1C0.0118
T2C0.0157
T3C0.0197
T4C0.0295
T5C0.0315
T6C0.0394
%
G90
G05
T1
X6.4528Y-3.7205
X6.5492Y-3.7215
X6.7933Y-3.1594
X6.8484Y-3.1476
X6.8937Y-2.7264
X6.8957Y-3.7303
X6.9173Y-2.9488
X6.9173Y-3.2343
X6.9803Y-3.7539
X7.0079Y-3.4783
X7.0098Y-3.5984
X7.0571Y-3.2106
X7.0965Y-2.6929
X7.0965Y-3.6988
X7.1181Y-3.811
X7.1634Y-3.8878
X7.185Y-3.7362
X7.1924Y-2.7323
X7.1929Y-3.6752
X7.2441Y-2.939
X7.2697Y-3.061
X7.2697Y-3.0925
X7.2717Y-3.0276
X7.2776Y-3.1378
X7.2874Y-3.6339
X7.2894Y-3.5945
X7.2914Y-3.1829
X7.2975Y-3.2123
X7.3012Y-3.6634
X7.315Y-2.8189
X7.3189Y-3.7776
X7.3189Y-3.8858
X7.3209Y-3.5531
X7.3937Y-3.5217
X7.3976Y-3.1594
X7.3976Y-3.4744
X7.4028Y-3.6988
X7.4179Y-3.6694
X7.4193Y-3.2244
X7.4606Y-3.311
X7.5098Y-2.7402
X7.5669Y-2.7815
X7.6791Y-2.6949
X7.7283Y-2.7854
X7.7303Y-2.6713
T2
X6.0157Y-3.7067
X6.0551Y-2.8543
X6.0827Y-2.9232
X6.1417Y-3.4488
X6.1594Y-3.5256
X6.1988Y-3.5256
X6.4387Y-3.2201
X6.4528Y-3.6693
X6.4567Y-3.5197
X6.4589Y-3.2467
X6.5591Y-3.5197
X6.5709Y-3.7657
X6.7323Y-3.5669
X6.7815Y-3.685
X6.7953Y-3.0709
X6.9843Y-3.3622
X7.3012Y-2.5394
X7.5906Y-2.5394
X7.5724Y-3.6161
X7.5724Y-3.6791
X7.5724Y-3.7106
X7.5724Y-3.7421
X7.5724Y-3.7736
X7.5724Y-3.8366
X7.6Y-3.6319
X7.6Y-3.6634
X7.6Y-3.6949
X7.6Y-3.7579
X7.6Y-3.7894
X7.6Y-3.8209
T4
X6.3583Y-3.5236
X6.3583Y-3.6024
T5
X7.7854Y-2.8988
X7.7854Y-2.9988
X7.7854Y-3.0988
X7.7854Y-3.1988
T6
X5.8661Y-3.8386
X6.0161Y-3.8386
X6.1661Y-3.8386
X6.3161Y-3.8386
T3
G00X7.5843Y-3.5638
M15
G01X7.6079Y-3.5638
M16
G05
G00X7.5843Y-3.889
M15
G01X7.6079Y-3.889
M16
G05
G00X7.8185Y-3.5496
M15
G01X7.8421Y-3.5496
M16
G05
G00X7.8185Y-3.9031
M15
G01X7.8421Y-3.9031
M16
G05
T0
M30
