G04 #@! TF.GenerationSoftware,KiCad,Pcbnew,(5.1.5)-3*
G04 #@! TF.CreationDate,2020-02-29T22:05:21+08:00*
G04 #@! TF.ProjectId,smartdisplay,736d6172-7464-4697-9370-6c61792e6b69,rev?*
G04 #@! TF.SameCoordinates,Original*
G04 #@! TF.FileFunction,Legend,Bot*
G04 #@! TF.FilePolarity,Positive*
%FSLAX46Y46*%
G04 Gerber Fmt 4.6, Leading zero omitted, Abs format (unit mm)*
G04 Created by KiCad (PCBNEW (5.1.5)-3) date 2020-02-29 22:05:21*
%MOMM*%
%LPD*%
G04 APERTURE LIST*
%ADD10C,0.150000*%
G04 APERTURE END LIST*
D10*
X156500000Y-79928571D02*
X156357142Y-79976190D01*
X156309523Y-80023809D01*
X156261904Y-80119047D01*
X156261904Y-80261904D01*
X156309523Y-80357142D01*
X156357142Y-80404761D01*
X156452380Y-80452380D01*
X156833333Y-80452380D01*
X156833333Y-79452380D01*
X156500000Y-79452380D01*
X156404761Y-79500000D01*
X156357142Y-79547619D01*
X156309523Y-79642857D01*
X156309523Y-79738095D01*
X156357142Y-79833333D01*
X156404761Y-79880952D01*
X156500000Y-79928571D01*
X156833333Y-79928571D01*
X155357142Y-80452380D02*
X155833333Y-80452380D01*
X155833333Y-79452380D01*
X154595238Y-80452380D02*
X154595238Y-79928571D01*
X154642857Y-79833333D01*
X154738095Y-79785714D01*
X154928571Y-79785714D01*
X155023809Y-79833333D01*
X154595238Y-80404761D02*
X154690476Y-80452380D01*
X154928571Y-80452380D01*
X155023809Y-80404761D01*
X155071428Y-80309523D01*
X155071428Y-80214285D01*
X155023809Y-80119047D01*
X154928571Y-80071428D01*
X154690476Y-80071428D01*
X154595238Y-80023809D01*
X154119047Y-80452380D02*
X154119047Y-79452380D01*
X154119047Y-79833333D02*
X154023809Y-79785714D01*
X153833333Y-79785714D01*
X153738095Y-79833333D01*
X153690476Y-79880952D01*
X153642857Y-79976190D01*
X153642857Y-80261904D01*
X153690476Y-80357142D01*
X153738095Y-80404761D01*
X153833333Y-80452380D01*
X154023809Y-80452380D01*
X154119047Y-80404761D01*
X153452380Y-80547619D02*
X152690476Y-80547619D01*
X152500000Y-80404761D02*
X152357142Y-80452380D01*
X152119047Y-80452380D01*
X152023809Y-80404761D01*
X151976190Y-80357142D01*
X151928571Y-80261904D01*
X151928571Y-80166666D01*
X151976190Y-80071428D01*
X152023809Y-80023809D01*
X152119047Y-79976190D01*
X152309523Y-79928571D01*
X152404761Y-79880952D01*
X152452380Y-79833333D01*
X152500000Y-79738095D01*
X152500000Y-79642857D01*
X152452380Y-79547619D01*
X152404761Y-79500000D01*
X152309523Y-79452380D01*
X152071428Y-79452380D01*
X151928571Y-79500000D01*
X151500000Y-80452380D02*
X151500000Y-79785714D01*
X151500000Y-79880952D02*
X151452380Y-79833333D01*
X151357142Y-79785714D01*
X151214285Y-79785714D01*
X151119047Y-79833333D01*
X151071428Y-79928571D01*
X151071428Y-80452380D01*
X151071428Y-79928571D02*
X151023809Y-79833333D01*
X150928571Y-79785714D01*
X150785714Y-79785714D01*
X150690476Y-79833333D01*
X150642857Y-79928571D01*
X150642857Y-80452380D01*
X149738095Y-80452380D02*
X149738095Y-79928571D01*
X149785714Y-79833333D01*
X149880952Y-79785714D01*
X150071428Y-79785714D01*
X150166666Y-79833333D01*
X149738095Y-80404761D02*
X149833333Y-80452380D01*
X150071428Y-80452380D01*
X150166666Y-80404761D01*
X150214285Y-80309523D01*
X150214285Y-80214285D01*
X150166666Y-80119047D01*
X150071428Y-80071428D01*
X149833333Y-80071428D01*
X149738095Y-80023809D01*
X149261904Y-80452380D02*
X149261904Y-79785714D01*
X149261904Y-79976190D02*
X149214285Y-79880952D01*
X149166666Y-79833333D01*
X149071428Y-79785714D01*
X148976190Y-79785714D01*
X148785714Y-79785714D02*
X148404761Y-79785714D01*
X148642857Y-79452380D02*
X148642857Y-80309523D01*
X148595238Y-80404761D01*
X148500000Y-80452380D01*
X148404761Y-80452380D01*
X148071428Y-80452380D02*
X148071428Y-79452380D01*
X147833333Y-79452380D01*
X147690476Y-79500000D01*
X147595238Y-79595238D01*
X147547619Y-79690476D01*
X147500000Y-79880952D01*
X147500000Y-80023809D01*
X147547619Y-80214285D01*
X147595238Y-80309523D01*
X147690476Y-80404761D01*
X147833333Y-80452380D01*
X148071428Y-80452380D01*
X147071428Y-80452380D02*
X147071428Y-79785714D01*
X147071428Y-79452380D02*
X147119047Y-79500000D01*
X147071428Y-79547619D01*
X147023809Y-79500000D01*
X147071428Y-79452380D01*
X147071428Y-79547619D01*
X146642857Y-80404761D02*
X146547619Y-80452380D01*
X146357142Y-80452380D01*
X146261904Y-80404761D01*
X146214285Y-80309523D01*
X146214285Y-80261904D01*
X146261904Y-80166666D01*
X146357142Y-80119047D01*
X146500000Y-80119047D01*
X146595238Y-80071428D01*
X146642857Y-79976190D01*
X146642857Y-79928571D01*
X146595238Y-79833333D01*
X146500000Y-79785714D01*
X146357142Y-79785714D01*
X146261904Y-79833333D01*
X145785714Y-79785714D02*
X145785714Y-80785714D01*
X145785714Y-79833333D02*
X145690476Y-79785714D01*
X145500000Y-79785714D01*
X145404761Y-79833333D01*
X145357142Y-79880952D01*
X145309523Y-79976190D01*
X145309523Y-80261904D01*
X145357142Y-80357142D01*
X145404761Y-80404761D01*
X145500000Y-80452380D01*
X145690476Y-80452380D01*
X145785714Y-80404761D01*
X144738095Y-80452380D02*
X144833333Y-80404761D01*
X144880952Y-80309523D01*
X144880952Y-79452380D01*
X143928571Y-80452380D02*
X143928571Y-79928571D01*
X143976190Y-79833333D01*
X144071428Y-79785714D01*
X144261904Y-79785714D01*
X144357142Y-79833333D01*
X143928571Y-80404761D02*
X144023809Y-80452380D01*
X144261904Y-80452380D01*
X144357142Y-80404761D01*
X144404761Y-80309523D01*
X144404761Y-80214285D01*
X144357142Y-80119047D01*
X144261904Y-80071428D01*
X144023809Y-80071428D01*
X143928571Y-80023809D01*
X143547619Y-79785714D02*
X143309523Y-80452380D01*
X143071428Y-79785714D02*
X143309523Y-80452380D01*
X143404761Y-80690476D01*
X143452380Y-80738095D01*
X143547619Y-80785714D01*
X110000000Y-98400000D02*
X110000000Y-61600000D01*
X190000000Y-98400000D02*
X110000000Y-98400000D01*
X190000000Y-61600000D02*
X190000000Y-98400000D01*
X110000000Y-61600000D02*
X190000000Y-61600000D01*
M02*
