G04 #@! TF.GenerationSoftware,KiCad,Pcbnew,(5.1.5)-3*
G04 #@! TF.CreationDate,2020-02-29T22:05:21+08:00*
G04 #@! TF.ProjectId,smartdisplay,736d6172-7464-4697-9370-6c61792e6b69,rev?*
G04 #@! TF.SameCoordinates,Original*
G04 #@! TF.FileFunction,Soldermask,Bot*
G04 #@! TF.FilePolarity,Negative*
%FSLAX46Y46*%
G04 Gerber Fmt 4.6, Leading zero omitted, Abs format (unit mm)*
G04 Created by KiCad (PCBNEW (5.1.5)-3) date 2020-02-29 22:05:21*
%MOMM*%
%LPD*%
G04 APERTURE LIST*
%ADD10C,0.100000*%
G04 APERTURE END LIST*
D10*
G36*
X199278215Y-98696511D02*
G01*
X199363040Y-98722242D01*
X199399429Y-98741693D01*
X199441216Y-98764029D01*
X199509737Y-98820263D01*
X199565971Y-98888784D01*
X199588307Y-98930571D01*
X199607758Y-98966960D01*
X199633489Y-99051785D01*
X199642177Y-99140000D01*
X199633489Y-99228215D01*
X199607758Y-99313040D01*
X199607757Y-99313041D01*
X199565971Y-99391216D01*
X199509737Y-99459737D01*
X199441216Y-99515971D01*
X199399429Y-99538307D01*
X199363040Y-99557758D01*
X199278215Y-99583489D01*
X199212106Y-99590000D01*
X198567894Y-99590000D01*
X198501785Y-99583489D01*
X198416960Y-99557758D01*
X198380571Y-99538307D01*
X198338784Y-99515971D01*
X198270263Y-99459737D01*
X198214029Y-99391216D01*
X198172243Y-99313041D01*
X198172242Y-99313040D01*
X198146511Y-99228215D01*
X198137823Y-99140000D01*
X198146511Y-99051785D01*
X198172242Y-98966960D01*
X198191693Y-98930571D01*
X198214029Y-98888784D01*
X198270263Y-98820263D01*
X198338784Y-98764029D01*
X198380571Y-98741693D01*
X198416960Y-98722242D01*
X198501785Y-98696511D01*
X198567894Y-98690000D01*
X199212106Y-98690000D01*
X199278215Y-98696511D01*
G37*
G36*
X193328215Y-98336511D02*
G01*
X193413040Y-98362242D01*
X193449429Y-98381693D01*
X193491216Y-98404029D01*
X193559737Y-98460263D01*
X193615971Y-98528784D01*
X193622651Y-98541281D01*
X193657758Y-98606960D01*
X193683489Y-98691785D01*
X193692177Y-98780000D01*
X193683489Y-98868215D01*
X193657758Y-98953040D01*
X193657757Y-98953041D01*
X193615971Y-99031216D01*
X193559737Y-99099737D01*
X193491216Y-99155971D01*
X193449429Y-99178307D01*
X193413040Y-99197758D01*
X193328215Y-99223489D01*
X193262106Y-99230000D01*
X192617894Y-99230000D01*
X192551785Y-99223489D01*
X192466960Y-99197758D01*
X192430571Y-99178307D01*
X192388784Y-99155971D01*
X192320263Y-99099737D01*
X192264029Y-99031216D01*
X192222243Y-98953041D01*
X192222242Y-98953040D01*
X192196511Y-98868215D01*
X192187823Y-98780000D01*
X192196511Y-98691785D01*
X192222242Y-98606960D01*
X192257349Y-98541281D01*
X192264029Y-98528784D01*
X192320263Y-98460263D01*
X192388784Y-98404029D01*
X192430571Y-98381693D01*
X192466960Y-98362242D01*
X192551785Y-98336511D01*
X192617894Y-98330000D01*
X193262106Y-98330000D01*
X193328215Y-98336511D01*
G37*
G36*
X150299680Y-98799680D02*
G01*
X147700320Y-98799680D01*
X147700320Y-96200320D01*
X150299680Y-96200320D01*
X150299680Y-98799680D01*
G37*
G36*
X153189101Y-96250265D02*
G01*
X153189104Y-96250266D01*
X153189103Y-96250266D01*
X153425630Y-96348238D01*
X153596155Y-96462179D01*
X153638497Y-96490471D01*
X153819529Y-96671503D01*
X153832939Y-96691573D01*
X153961762Y-96884370D01*
X153991130Y-96955272D01*
X154059735Y-97120899D01*
X154109680Y-97371991D01*
X154109680Y-97628009D01*
X154059735Y-97879101D01*
X154059734Y-97879103D01*
X153961762Y-98115630D01*
X153883283Y-98233082D01*
X153819529Y-98328497D01*
X153638497Y-98509529D01*
X153609678Y-98528785D01*
X153425630Y-98651762D01*
X153229684Y-98732925D01*
X153189101Y-98749735D01*
X152938009Y-98799680D01*
X152681991Y-98799680D01*
X152430899Y-98749735D01*
X152390316Y-98732925D01*
X152194370Y-98651762D01*
X152010322Y-98528785D01*
X151981503Y-98509529D01*
X151800471Y-98328497D01*
X151736717Y-98233082D01*
X151658238Y-98115630D01*
X151560266Y-97879103D01*
X151560265Y-97879101D01*
X151510320Y-97628009D01*
X151510320Y-97371991D01*
X151560265Y-97120899D01*
X151628870Y-96955272D01*
X151658238Y-96884370D01*
X151787061Y-96691573D01*
X151800471Y-96671503D01*
X151981503Y-96490471D01*
X152023845Y-96462179D01*
X152194370Y-96348238D01*
X152430897Y-96250266D01*
X152430896Y-96250266D01*
X152430899Y-96250265D01*
X152681991Y-96200320D01*
X152938009Y-96200320D01*
X153189101Y-96250265D01*
G37*
G36*
X156999101Y-96250265D02*
G01*
X156999104Y-96250266D01*
X156999103Y-96250266D01*
X157235630Y-96348238D01*
X157406155Y-96462179D01*
X157448497Y-96490471D01*
X157629529Y-96671503D01*
X157642939Y-96691573D01*
X157771762Y-96884370D01*
X157801130Y-96955272D01*
X157869735Y-97120899D01*
X157919680Y-97371991D01*
X157919680Y-97628009D01*
X157869735Y-97879101D01*
X157869734Y-97879103D01*
X157771762Y-98115630D01*
X157693283Y-98233082D01*
X157629529Y-98328497D01*
X157448497Y-98509529D01*
X157419678Y-98528785D01*
X157235630Y-98651762D01*
X157039684Y-98732925D01*
X156999101Y-98749735D01*
X156748009Y-98799680D01*
X156491991Y-98799680D01*
X156240899Y-98749735D01*
X156200316Y-98732925D01*
X156004370Y-98651762D01*
X155820322Y-98528785D01*
X155791503Y-98509529D01*
X155610471Y-98328497D01*
X155546717Y-98233082D01*
X155468238Y-98115630D01*
X155370266Y-97879103D01*
X155370265Y-97879101D01*
X155320320Y-97628009D01*
X155320320Y-97371991D01*
X155370265Y-97120899D01*
X155438870Y-96955272D01*
X155468238Y-96884370D01*
X155597061Y-96691573D01*
X155610471Y-96671503D01*
X155791503Y-96490471D01*
X155833845Y-96462179D01*
X156004370Y-96348238D01*
X156240897Y-96250266D01*
X156240896Y-96250266D01*
X156240899Y-96250265D01*
X156491991Y-96200320D01*
X156748009Y-96200320D01*
X156999101Y-96250265D01*
G37*
G36*
X160809101Y-96250265D02*
G01*
X160809104Y-96250266D01*
X160809103Y-96250266D01*
X161045630Y-96348238D01*
X161216155Y-96462179D01*
X161258497Y-96490471D01*
X161439529Y-96671503D01*
X161452939Y-96691573D01*
X161581762Y-96884370D01*
X161611130Y-96955272D01*
X161679735Y-97120899D01*
X161729680Y-97371991D01*
X161729680Y-97628009D01*
X161679735Y-97879101D01*
X161679734Y-97879103D01*
X161581762Y-98115630D01*
X161503283Y-98233082D01*
X161439529Y-98328497D01*
X161258497Y-98509529D01*
X161229678Y-98528785D01*
X161045630Y-98651762D01*
X160849684Y-98732925D01*
X160809101Y-98749735D01*
X160558009Y-98799680D01*
X160301991Y-98799680D01*
X160050899Y-98749735D01*
X160010316Y-98732925D01*
X159814370Y-98651762D01*
X159630322Y-98528785D01*
X159601503Y-98509529D01*
X159420471Y-98328497D01*
X159356717Y-98233082D01*
X159278238Y-98115630D01*
X159180266Y-97879103D01*
X159180265Y-97879101D01*
X159130320Y-97628009D01*
X159130320Y-97371991D01*
X159180265Y-97120899D01*
X159248870Y-96955272D01*
X159278238Y-96884370D01*
X159407061Y-96691573D01*
X159420471Y-96671503D01*
X159601503Y-96490471D01*
X159643845Y-96462179D01*
X159814370Y-96348238D01*
X160050897Y-96250266D01*
X160050896Y-96250266D01*
X160050899Y-96250265D01*
X160301991Y-96200320D01*
X160558009Y-96200320D01*
X160809101Y-96250265D01*
G37*
G36*
X102724354Y-96372097D02*
G01*
X102835443Y-96394194D01*
X102916161Y-96427629D01*
X103044728Y-96480883D01*
X103233081Y-96606736D01*
X103393264Y-96766919D01*
X103519117Y-96955272D01*
X103543056Y-97013066D01*
X103605806Y-97164557D01*
X103615035Y-97210953D01*
X103650000Y-97386733D01*
X103650000Y-97613267D01*
X103634926Y-97689047D01*
X103605806Y-97835443D01*
X103587722Y-97879101D01*
X103519117Y-98044728D01*
X103393264Y-98233081D01*
X103233081Y-98393264D01*
X103044728Y-98519117D01*
X102958039Y-98555024D01*
X102835443Y-98605806D01*
X102738948Y-98625000D01*
X102613267Y-98650000D01*
X102386733Y-98650000D01*
X102261052Y-98625000D01*
X102164557Y-98605806D01*
X102041961Y-98555024D01*
X101955272Y-98519117D01*
X101766919Y-98393264D01*
X101606736Y-98233081D01*
X101480883Y-98044728D01*
X101412278Y-97879101D01*
X101394194Y-97835443D01*
X101365074Y-97689047D01*
X101350000Y-97613267D01*
X101350000Y-97386733D01*
X101384965Y-97210953D01*
X101394194Y-97164557D01*
X101456944Y-97013066D01*
X101480883Y-96955272D01*
X101606736Y-96766919D01*
X101766919Y-96606736D01*
X101955272Y-96480883D01*
X102083839Y-96427629D01*
X102164557Y-96394194D01*
X102275646Y-96372097D01*
X102386733Y-96350000D01*
X102613267Y-96350000D01*
X102724354Y-96372097D01*
G37*
G36*
X191799383Y-97889411D02*
G01*
X191867629Y-97917680D01*
X191929048Y-97958719D01*
X191981281Y-98010952D01*
X192022320Y-98072371D01*
X192050589Y-98140617D01*
X192065000Y-98213066D01*
X192065000Y-98286934D01*
X192050589Y-98359383D01*
X192022320Y-98427629D01*
X191981281Y-98489048D01*
X191929048Y-98541281D01*
X191867629Y-98582320D01*
X191867628Y-98582321D01*
X191867627Y-98582321D01*
X191799383Y-98610589D01*
X191726935Y-98625000D01*
X191653065Y-98625000D01*
X191580617Y-98610589D01*
X191512373Y-98582321D01*
X191512372Y-98582321D01*
X191512371Y-98582320D01*
X191450952Y-98541281D01*
X191398719Y-98489048D01*
X191357680Y-98427629D01*
X191329411Y-98359383D01*
X191315000Y-98286934D01*
X191315000Y-98213066D01*
X191329411Y-98140617D01*
X191357680Y-98072371D01*
X191398719Y-98010952D01*
X191450952Y-97958719D01*
X191512371Y-97917680D01*
X191580617Y-97889411D01*
X191653065Y-97875000D01*
X191726935Y-97875000D01*
X191799383Y-97889411D01*
G37*
G36*
X192449383Y-91489411D02*
G01*
X192517629Y-91517680D01*
X192548546Y-91538338D01*
X192579047Y-91558718D01*
X192631282Y-91610953D01*
X192672321Y-91672373D01*
X192700589Y-91740617D01*
X192715000Y-91813065D01*
X192715000Y-91886935D01*
X192707989Y-91922179D01*
X192707028Y-91931933D01*
X192707989Y-91941688D01*
X192710834Y-91951067D01*
X192715454Y-91959711D01*
X192721672Y-91967288D01*
X192729248Y-91973506D01*
X192737893Y-91978127D01*
X192747272Y-91980972D01*
X192757026Y-91981933D01*
X192766781Y-91980972D01*
X192776160Y-91978127D01*
X192784804Y-91973507D01*
X192792382Y-91967289D01*
X192800953Y-91958718D01*
X192855638Y-91922179D01*
X192862371Y-91917680D01*
X192930617Y-91889411D01*
X192943070Y-91886934D01*
X193003065Y-91875000D01*
X193076935Y-91875000D01*
X193136930Y-91886934D01*
X193149383Y-91889411D01*
X193217629Y-91917680D01*
X193224362Y-91922179D01*
X193279047Y-91958718D01*
X193331282Y-92010953D01*
X193372321Y-92072373D01*
X193400589Y-92140617D01*
X193408885Y-92182321D01*
X193415000Y-92213066D01*
X193415000Y-92286934D01*
X193400589Y-92359383D01*
X193372320Y-92427629D01*
X193331281Y-92489048D01*
X193279048Y-92541281D01*
X193217629Y-92582320D01*
X193217628Y-92582321D01*
X193217627Y-92582321D01*
X193165756Y-92603807D01*
X193157112Y-92608427D01*
X193149535Y-92614645D01*
X193143317Y-92622222D01*
X193138697Y-92630866D01*
X193135852Y-92640246D01*
X193134891Y-92650000D01*
X193135852Y-92659755D01*
X193138697Y-92669134D01*
X193143317Y-92677778D01*
X193149535Y-92685355D01*
X193157112Y-92691573D01*
X193165756Y-92696193D01*
X193217629Y-92717680D01*
X193248546Y-92738338D01*
X193279047Y-92758718D01*
X193331282Y-92810953D01*
X193372321Y-92872373D01*
X193400589Y-92940617D01*
X193415000Y-93013065D01*
X193415000Y-93086935D01*
X193408884Y-93117680D01*
X193400589Y-93159383D01*
X193372320Y-93227629D01*
X193331281Y-93289048D01*
X193279048Y-93341281D01*
X193217629Y-93382320D01*
X193217628Y-93382321D01*
X193217627Y-93382321D01*
X193165756Y-93403807D01*
X193157112Y-93408427D01*
X193149535Y-93414645D01*
X193143317Y-93422222D01*
X193138697Y-93430866D01*
X193135852Y-93440246D01*
X193134891Y-93450000D01*
X193135852Y-93459755D01*
X193138697Y-93469134D01*
X193143317Y-93477778D01*
X193149535Y-93485355D01*
X193157112Y-93491573D01*
X193165756Y-93496193D01*
X193217629Y-93517680D01*
X193224362Y-93522179D01*
X193279047Y-93558718D01*
X193331282Y-93610953D01*
X193372321Y-93672373D01*
X193400589Y-93740617D01*
X193415000Y-93813065D01*
X193415000Y-93886935D01*
X193408884Y-93917680D01*
X193400589Y-93959383D01*
X193372320Y-94027629D01*
X193331281Y-94089048D01*
X193279048Y-94141281D01*
X193217629Y-94182320D01*
X193217628Y-94182321D01*
X193217627Y-94182321D01*
X193149383Y-94210589D01*
X193076935Y-94225000D01*
X193003065Y-94225000D01*
X192930617Y-94210589D01*
X192862373Y-94182321D01*
X192862372Y-94182321D01*
X192862371Y-94182320D01*
X192800952Y-94141281D01*
X192792382Y-94132711D01*
X192784805Y-94126493D01*
X192776161Y-94121873D01*
X192766781Y-94119028D01*
X192757027Y-94118067D01*
X192747273Y-94119028D01*
X192737893Y-94121873D01*
X192729249Y-94126493D01*
X192721672Y-94132711D01*
X192715454Y-94140288D01*
X192710834Y-94148932D01*
X192707989Y-94158312D01*
X192707028Y-94168066D01*
X192707989Y-94177818D01*
X192715000Y-94213066D01*
X192715000Y-94286934D01*
X192700589Y-94359383D01*
X192672320Y-94427629D01*
X192631281Y-94489048D01*
X192579048Y-94541281D01*
X192517629Y-94582320D01*
X192517628Y-94582321D01*
X192517627Y-94582321D01*
X192465756Y-94603807D01*
X192457112Y-94608427D01*
X192449535Y-94614645D01*
X192443317Y-94622222D01*
X192438697Y-94630866D01*
X192435852Y-94640246D01*
X192434891Y-94650000D01*
X192435852Y-94659755D01*
X192438697Y-94669134D01*
X192443317Y-94677778D01*
X192449535Y-94685355D01*
X192457112Y-94691573D01*
X192465756Y-94696193D01*
X192517629Y-94717680D01*
X192548546Y-94738338D01*
X192579047Y-94758718D01*
X192631282Y-94810953D01*
X192672321Y-94872373D01*
X192700589Y-94940617D01*
X192715000Y-95013065D01*
X192715000Y-95086935D01*
X192707989Y-95122179D01*
X192707028Y-95131933D01*
X192707989Y-95141688D01*
X192710834Y-95151067D01*
X192715454Y-95159711D01*
X192721672Y-95167288D01*
X192729248Y-95173506D01*
X192737893Y-95178127D01*
X192747272Y-95180972D01*
X192757026Y-95181933D01*
X192766781Y-95180972D01*
X192776160Y-95178127D01*
X192784804Y-95173507D01*
X192792382Y-95167289D01*
X192800953Y-95158718D01*
X192855638Y-95122179D01*
X192862371Y-95117680D01*
X192930617Y-95089411D01*
X192943070Y-95086934D01*
X193003065Y-95075000D01*
X193076935Y-95075000D01*
X193136930Y-95086934D01*
X193149383Y-95089411D01*
X193217629Y-95117680D01*
X193224362Y-95122179D01*
X193279047Y-95158718D01*
X193331282Y-95210953D01*
X193372321Y-95272373D01*
X193400589Y-95340617D01*
X193415000Y-95413065D01*
X193415000Y-95486935D01*
X193408884Y-95517680D01*
X193400589Y-95559383D01*
X193372320Y-95627629D01*
X193331281Y-95689048D01*
X193279048Y-95741281D01*
X193217629Y-95782320D01*
X193217628Y-95782321D01*
X193217627Y-95782321D01*
X193165756Y-95803807D01*
X193157112Y-95808427D01*
X193149535Y-95814645D01*
X193143317Y-95822222D01*
X193138697Y-95830866D01*
X193135852Y-95840246D01*
X193134891Y-95850000D01*
X193135852Y-95859755D01*
X193138697Y-95869134D01*
X193143317Y-95877778D01*
X193149535Y-95885355D01*
X193157112Y-95891573D01*
X193165756Y-95896193D01*
X193217629Y-95917680D01*
X193224362Y-95922179D01*
X193279047Y-95958718D01*
X193331282Y-96010953D01*
X193372321Y-96072373D01*
X193400589Y-96140617D01*
X193408885Y-96182321D01*
X193415000Y-96213066D01*
X193415000Y-96286934D01*
X193400589Y-96359383D01*
X193372320Y-96427629D01*
X193331281Y-96489048D01*
X193279048Y-96541281D01*
X193217629Y-96582320D01*
X193217628Y-96582321D01*
X193217627Y-96582321D01*
X193165756Y-96603807D01*
X193157112Y-96608427D01*
X193149535Y-96614645D01*
X193143317Y-96622222D01*
X193138697Y-96630866D01*
X193135852Y-96640246D01*
X193134891Y-96650000D01*
X193135852Y-96659755D01*
X193138697Y-96669134D01*
X193143317Y-96677778D01*
X193149535Y-96685355D01*
X193157112Y-96691573D01*
X193165756Y-96696193D01*
X193217629Y-96717680D01*
X193248546Y-96738338D01*
X193279047Y-96758718D01*
X193331282Y-96810953D01*
X193372321Y-96872373D01*
X193400589Y-96940617D01*
X193415000Y-97013065D01*
X193415000Y-97086935D01*
X193408884Y-97117680D01*
X193400589Y-97159383D01*
X193372320Y-97227629D01*
X193331281Y-97289048D01*
X193279048Y-97341281D01*
X193217629Y-97382320D01*
X193217628Y-97382321D01*
X193217627Y-97382321D01*
X193149383Y-97410589D01*
X193076935Y-97425000D01*
X193003065Y-97425000D01*
X192930617Y-97410589D01*
X192862373Y-97382321D01*
X192862372Y-97382321D01*
X192862371Y-97382320D01*
X192800952Y-97341281D01*
X192792382Y-97332711D01*
X192784805Y-97326493D01*
X192776161Y-97321873D01*
X192766781Y-97319028D01*
X192757027Y-97318067D01*
X192747273Y-97319028D01*
X192737893Y-97321873D01*
X192729249Y-97326493D01*
X192721672Y-97332711D01*
X192715454Y-97340288D01*
X192710834Y-97348932D01*
X192707989Y-97358312D01*
X192707028Y-97368066D01*
X192707989Y-97377818D01*
X192715000Y-97413066D01*
X192715000Y-97486934D01*
X192700589Y-97559383D01*
X192672320Y-97627629D01*
X192631281Y-97689048D01*
X192579048Y-97741281D01*
X192517629Y-97782320D01*
X192517628Y-97782321D01*
X192517627Y-97782321D01*
X192449383Y-97810589D01*
X192376935Y-97825000D01*
X192303065Y-97825000D01*
X192230617Y-97810589D01*
X192162373Y-97782321D01*
X192162372Y-97782321D01*
X192162371Y-97782320D01*
X192100952Y-97741281D01*
X192048719Y-97689048D01*
X192007680Y-97627629D01*
X191979411Y-97559383D01*
X191965000Y-97486934D01*
X191965000Y-97413066D01*
X191970238Y-97386735D01*
X191979411Y-97340617D01*
X192007679Y-97272373D01*
X192048718Y-97210953D01*
X192100953Y-97158718D01*
X192131454Y-97138338D01*
X192162371Y-97117680D01*
X192230617Y-97089411D01*
X192243070Y-97086934D01*
X192303065Y-97075000D01*
X192376935Y-97075000D01*
X192436930Y-97086934D01*
X192449383Y-97089411D01*
X192517629Y-97117680D01*
X192548546Y-97138338D01*
X192579047Y-97158718D01*
X192587618Y-97167289D01*
X192595195Y-97173507D01*
X192603839Y-97178127D01*
X192613219Y-97180972D01*
X192622973Y-97181933D01*
X192632727Y-97180972D01*
X192642107Y-97178127D01*
X192650751Y-97173507D01*
X192658328Y-97167289D01*
X192664546Y-97159712D01*
X192669166Y-97151068D01*
X192672011Y-97141688D01*
X192672972Y-97131934D01*
X192672011Y-97122179D01*
X192665000Y-97086935D01*
X192665000Y-97013065D01*
X192679411Y-96940617D01*
X192707679Y-96872373D01*
X192748718Y-96810953D01*
X192800953Y-96758718D01*
X192831454Y-96738338D01*
X192862371Y-96717680D01*
X192914244Y-96696193D01*
X192922888Y-96691573D01*
X192930465Y-96685355D01*
X192936683Y-96677778D01*
X192941303Y-96669134D01*
X192944148Y-96659754D01*
X192945109Y-96650000D01*
X192944148Y-96640245D01*
X192941303Y-96630866D01*
X192936683Y-96622222D01*
X192930465Y-96614645D01*
X192922888Y-96608427D01*
X192914244Y-96603807D01*
X192862373Y-96582321D01*
X192862372Y-96582321D01*
X192862371Y-96582320D01*
X192800952Y-96541281D01*
X192748719Y-96489048D01*
X192707680Y-96427629D01*
X192679411Y-96359383D01*
X192665000Y-96286934D01*
X192665000Y-96213066D01*
X192672011Y-96177818D01*
X192672972Y-96168067D01*
X192672011Y-96158312D01*
X192669166Y-96148933D01*
X192664546Y-96140289D01*
X192658328Y-96132712D01*
X192650752Y-96126494D01*
X192642107Y-96121873D01*
X192632728Y-96119028D01*
X192622974Y-96118067D01*
X192613219Y-96119028D01*
X192603840Y-96121873D01*
X192595196Y-96126493D01*
X192587618Y-96132711D01*
X192579048Y-96141281D01*
X192517629Y-96182320D01*
X192517628Y-96182321D01*
X192517627Y-96182321D01*
X192449383Y-96210589D01*
X192376935Y-96225000D01*
X192303065Y-96225000D01*
X192230617Y-96210589D01*
X192162373Y-96182321D01*
X192162372Y-96182321D01*
X192162371Y-96182320D01*
X192100952Y-96141281D01*
X192048719Y-96089048D01*
X192007680Y-96027629D01*
X191979411Y-95959383D01*
X191971116Y-95917680D01*
X191965000Y-95886935D01*
X191965000Y-95813065D01*
X191973950Y-95768066D01*
X192707028Y-95768066D01*
X192707989Y-95777821D01*
X192715000Y-95813065D01*
X192715000Y-95886935D01*
X192707989Y-95922179D01*
X192707028Y-95931933D01*
X192707989Y-95941688D01*
X192710834Y-95951067D01*
X192715454Y-95959711D01*
X192721672Y-95967288D01*
X192729248Y-95973506D01*
X192737893Y-95978127D01*
X192747272Y-95980972D01*
X192757026Y-95981933D01*
X192766781Y-95980972D01*
X192776160Y-95978127D01*
X192784804Y-95973507D01*
X192792382Y-95967289D01*
X192800953Y-95958718D01*
X192855638Y-95922179D01*
X192862371Y-95917680D01*
X192914244Y-95896193D01*
X192922888Y-95891573D01*
X192930465Y-95885355D01*
X192936683Y-95877778D01*
X192941303Y-95869134D01*
X192944148Y-95859754D01*
X192945109Y-95850000D01*
X192944148Y-95840245D01*
X192941303Y-95830866D01*
X192936683Y-95822222D01*
X192930465Y-95814645D01*
X192922888Y-95808427D01*
X192914244Y-95803807D01*
X192862373Y-95782321D01*
X192862372Y-95782321D01*
X192862371Y-95782320D01*
X192800952Y-95741281D01*
X192792382Y-95732711D01*
X192784805Y-95726493D01*
X192776161Y-95721873D01*
X192766781Y-95719028D01*
X192757027Y-95718067D01*
X192747273Y-95719028D01*
X192737893Y-95721873D01*
X192729249Y-95726493D01*
X192721672Y-95732711D01*
X192715454Y-95740288D01*
X192710834Y-95748932D01*
X192707989Y-95758312D01*
X192707028Y-95768066D01*
X191973950Y-95768066D01*
X191979411Y-95740617D01*
X192007679Y-95672373D01*
X192048718Y-95610953D01*
X192100953Y-95558718D01*
X192131454Y-95538338D01*
X192162371Y-95517680D01*
X192214244Y-95496193D01*
X192222888Y-95491573D01*
X192230465Y-95485355D01*
X192236683Y-95477778D01*
X192241303Y-95469134D01*
X192244148Y-95459754D01*
X192245109Y-95450000D01*
X192434891Y-95450000D01*
X192435852Y-95459755D01*
X192438697Y-95469134D01*
X192443317Y-95477778D01*
X192449535Y-95485355D01*
X192457112Y-95491573D01*
X192465756Y-95496193D01*
X192517629Y-95517680D01*
X192548546Y-95538338D01*
X192579047Y-95558718D01*
X192587618Y-95567289D01*
X192595195Y-95573507D01*
X192603839Y-95578127D01*
X192613219Y-95580972D01*
X192622973Y-95581933D01*
X192632727Y-95580972D01*
X192642107Y-95578127D01*
X192650751Y-95573507D01*
X192658328Y-95567289D01*
X192664546Y-95559712D01*
X192669166Y-95551068D01*
X192672011Y-95541688D01*
X192672972Y-95531934D01*
X192672011Y-95522179D01*
X192665000Y-95486935D01*
X192665000Y-95413065D01*
X192672011Y-95377821D01*
X192672972Y-95368067D01*
X192672011Y-95358312D01*
X192669166Y-95348933D01*
X192664546Y-95340289D01*
X192658328Y-95332712D01*
X192650752Y-95326494D01*
X192642107Y-95321873D01*
X192632728Y-95319028D01*
X192622974Y-95318067D01*
X192613219Y-95319028D01*
X192603840Y-95321873D01*
X192595196Y-95326493D01*
X192587618Y-95332711D01*
X192579048Y-95341281D01*
X192517629Y-95382320D01*
X192517628Y-95382321D01*
X192517627Y-95382321D01*
X192465756Y-95403807D01*
X192457112Y-95408427D01*
X192449535Y-95414645D01*
X192443317Y-95422222D01*
X192438697Y-95430866D01*
X192435852Y-95440246D01*
X192434891Y-95450000D01*
X192245109Y-95450000D01*
X192244148Y-95440245D01*
X192241303Y-95430866D01*
X192236683Y-95422222D01*
X192230465Y-95414645D01*
X192222888Y-95408427D01*
X192214244Y-95403807D01*
X192162373Y-95382321D01*
X192162372Y-95382321D01*
X192162371Y-95382320D01*
X192100952Y-95341281D01*
X192048719Y-95289048D01*
X192007680Y-95227629D01*
X191979411Y-95159383D01*
X191971116Y-95117680D01*
X191965000Y-95086935D01*
X191965000Y-95013065D01*
X191979411Y-94940617D01*
X192007679Y-94872373D01*
X192048718Y-94810953D01*
X192100953Y-94758718D01*
X192131454Y-94738338D01*
X192162371Y-94717680D01*
X192214244Y-94696193D01*
X192222888Y-94691573D01*
X192230465Y-94685355D01*
X192236683Y-94677778D01*
X192241303Y-94669134D01*
X192244148Y-94659754D01*
X192245109Y-94650000D01*
X192244148Y-94640245D01*
X192241303Y-94630866D01*
X192236683Y-94622222D01*
X192230465Y-94614645D01*
X192222888Y-94608427D01*
X192214244Y-94603807D01*
X192162373Y-94582321D01*
X192162372Y-94582321D01*
X192162371Y-94582320D01*
X192100952Y-94541281D01*
X192048719Y-94489048D01*
X192007680Y-94427629D01*
X191979411Y-94359383D01*
X191965000Y-94286934D01*
X191965000Y-94213066D01*
X191971116Y-94182321D01*
X191979411Y-94140617D01*
X192007679Y-94072373D01*
X192048718Y-94010953D01*
X192100953Y-93958718D01*
X192131454Y-93938338D01*
X192162371Y-93917680D01*
X192214244Y-93896193D01*
X192222888Y-93891573D01*
X192230465Y-93885355D01*
X192236683Y-93877778D01*
X192241303Y-93869134D01*
X192244148Y-93859754D01*
X192245109Y-93850000D01*
X192434891Y-93850000D01*
X192435852Y-93859755D01*
X192438697Y-93869134D01*
X192443317Y-93877778D01*
X192449535Y-93885355D01*
X192457112Y-93891573D01*
X192465756Y-93896193D01*
X192517629Y-93917680D01*
X192548546Y-93938338D01*
X192579047Y-93958718D01*
X192587618Y-93967289D01*
X192595195Y-93973507D01*
X192603839Y-93978127D01*
X192613219Y-93980972D01*
X192622973Y-93981933D01*
X192632727Y-93980972D01*
X192642107Y-93978127D01*
X192650751Y-93973507D01*
X192658328Y-93967289D01*
X192664546Y-93959712D01*
X192669166Y-93951068D01*
X192672011Y-93941688D01*
X192672972Y-93931934D01*
X192672011Y-93922179D01*
X192665000Y-93886935D01*
X192665000Y-93813065D01*
X192672011Y-93777821D01*
X192672972Y-93768067D01*
X192672011Y-93758312D01*
X192669166Y-93748933D01*
X192664546Y-93740289D01*
X192658328Y-93732712D01*
X192650752Y-93726494D01*
X192642107Y-93721873D01*
X192632728Y-93719028D01*
X192622974Y-93718067D01*
X192613219Y-93719028D01*
X192603840Y-93721873D01*
X192595196Y-93726493D01*
X192587618Y-93732711D01*
X192579048Y-93741281D01*
X192517629Y-93782320D01*
X192517628Y-93782321D01*
X192517627Y-93782321D01*
X192465756Y-93803807D01*
X192457112Y-93808427D01*
X192449535Y-93814645D01*
X192443317Y-93822222D01*
X192438697Y-93830866D01*
X192435852Y-93840246D01*
X192434891Y-93850000D01*
X192245109Y-93850000D01*
X192244148Y-93840245D01*
X192241303Y-93830866D01*
X192236683Y-93822222D01*
X192230465Y-93814645D01*
X192222888Y-93808427D01*
X192214244Y-93803807D01*
X192162373Y-93782321D01*
X192162372Y-93782321D01*
X192162371Y-93782320D01*
X192100952Y-93741281D01*
X192048719Y-93689048D01*
X192007680Y-93627629D01*
X191979411Y-93559383D01*
X191971116Y-93517680D01*
X191965000Y-93486935D01*
X191965000Y-93413065D01*
X191973950Y-93368066D01*
X192707028Y-93368066D01*
X192707989Y-93377821D01*
X192715000Y-93413065D01*
X192715000Y-93486935D01*
X192707989Y-93522179D01*
X192707028Y-93531933D01*
X192707989Y-93541688D01*
X192710834Y-93551067D01*
X192715454Y-93559711D01*
X192721672Y-93567288D01*
X192729248Y-93573506D01*
X192737893Y-93578127D01*
X192747272Y-93580972D01*
X192757026Y-93581933D01*
X192766781Y-93580972D01*
X192776160Y-93578127D01*
X192784804Y-93573507D01*
X192792382Y-93567289D01*
X192800953Y-93558718D01*
X192855638Y-93522179D01*
X192862371Y-93517680D01*
X192914244Y-93496193D01*
X192922888Y-93491573D01*
X192930465Y-93485355D01*
X192936683Y-93477778D01*
X192941303Y-93469134D01*
X192944148Y-93459754D01*
X192945109Y-93450000D01*
X192944148Y-93440245D01*
X192941303Y-93430866D01*
X192936683Y-93422222D01*
X192930465Y-93414645D01*
X192922888Y-93408427D01*
X192914244Y-93403807D01*
X192862373Y-93382321D01*
X192862372Y-93382321D01*
X192862371Y-93382320D01*
X192800952Y-93341281D01*
X192792382Y-93332711D01*
X192784805Y-93326493D01*
X192776161Y-93321873D01*
X192766781Y-93319028D01*
X192757027Y-93318067D01*
X192747273Y-93319028D01*
X192737893Y-93321873D01*
X192729249Y-93326493D01*
X192721672Y-93332711D01*
X192715454Y-93340288D01*
X192710834Y-93348932D01*
X192707989Y-93358312D01*
X192707028Y-93368066D01*
X191973950Y-93368066D01*
X191979411Y-93340617D01*
X192007679Y-93272373D01*
X192048718Y-93210953D01*
X192100953Y-93158718D01*
X192131454Y-93138338D01*
X192162371Y-93117680D01*
X192230617Y-93089411D01*
X192243070Y-93086934D01*
X192303065Y-93075000D01*
X192376935Y-93075000D01*
X192436930Y-93086934D01*
X192449383Y-93089411D01*
X192517629Y-93117680D01*
X192548546Y-93138338D01*
X192579047Y-93158718D01*
X192587618Y-93167289D01*
X192595195Y-93173507D01*
X192603839Y-93178127D01*
X192613219Y-93180972D01*
X192622973Y-93181933D01*
X192632727Y-93180972D01*
X192642107Y-93178127D01*
X192650751Y-93173507D01*
X192658328Y-93167289D01*
X192664546Y-93159712D01*
X192669166Y-93151068D01*
X192672011Y-93141688D01*
X192672972Y-93131934D01*
X192672011Y-93122179D01*
X192665000Y-93086935D01*
X192665000Y-93013065D01*
X192679411Y-92940617D01*
X192707679Y-92872373D01*
X192748718Y-92810953D01*
X192800953Y-92758718D01*
X192831454Y-92738338D01*
X192862371Y-92717680D01*
X192914244Y-92696193D01*
X192922888Y-92691573D01*
X192930465Y-92685355D01*
X192936683Y-92677778D01*
X192941303Y-92669134D01*
X192944148Y-92659754D01*
X192945109Y-92650000D01*
X192944148Y-92640245D01*
X192941303Y-92630866D01*
X192936683Y-92622222D01*
X192930465Y-92614645D01*
X192922888Y-92608427D01*
X192914244Y-92603807D01*
X192862373Y-92582321D01*
X192862372Y-92582321D01*
X192862371Y-92582320D01*
X192800952Y-92541281D01*
X192748719Y-92489048D01*
X192707680Y-92427629D01*
X192679411Y-92359383D01*
X192665000Y-92286934D01*
X192665000Y-92213066D01*
X192672011Y-92177818D01*
X192672972Y-92168067D01*
X192672011Y-92158312D01*
X192669166Y-92148933D01*
X192664546Y-92140289D01*
X192658328Y-92132712D01*
X192650752Y-92126494D01*
X192642107Y-92121873D01*
X192632728Y-92119028D01*
X192622974Y-92118067D01*
X192613219Y-92119028D01*
X192603840Y-92121873D01*
X192595196Y-92126493D01*
X192587618Y-92132711D01*
X192579048Y-92141281D01*
X192517629Y-92182320D01*
X192517628Y-92182321D01*
X192517627Y-92182321D01*
X192449383Y-92210589D01*
X192376935Y-92225000D01*
X192303065Y-92225000D01*
X192230617Y-92210589D01*
X192162373Y-92182321D01*
X192162372Y-92182321D01*
X192162371Y-92182320D01*
X192100952Y-92141281D01*
X192048719Y-92089048D01*
X192007680Y-92027629D01*
X191979411Y-91959383D01*
X191971116Y-91917680D01*
X191965000Y-91886935D01*
X191965000Y-91813065D01*
X191979411Y-91740617D01*
X192007679Y-91672373D01*
X192048718Y-91610953D01*
X192100953Y-91558718D01*
X192131454Y-91538338D01*
X192162371Y-91517680D01*
X192230617Y-91489411D01*
X192303065Y-91475000D01*
X192376935Y-91475000D01*
X192449383Y-91489411D01*
G37*
G36*
X161902422Y-90859405D02*
G01*
X162024948Y-90896573D01*
X162137868Y-90956930D01*
X162236843Y-91038157D01*
X162318070Y-91137132D01*
X162378427Y-91250052D01*
X162415595Y-91372578D01*
X162428145Y-91500000D01*
X162415595Y-91627422D01*
X162378427Y-91749948D01*
X162318070Y-91862868D01*
X162236843Y-91961843D01*
X162137868Y-92043070D01*
X162024948Y-92103427D01*
X161902422Y-92140595D01*
X161806932Y-92150000D01*
X161193068Y-92150000D01*
X161097578Y-92140595D01*
X160975052Y-92103427D01*
X160862132Y-92043070D01*
X160763157Y-91961843D01*
X160681930Y-91862868D01*
X160621573Y-91749948D01*
X160584405Y-91627422D01*
X160571855Y-91500000D01*
X160584405Y-91372578D01*
X160621573Y-91250052D01*
X160681930Y-91137132D01*
X160763157Y-91038157D01*
X160862132Y-90956930D01*
X160975052Y-90896573D01*
X161097578Y-90859405D01*
X161193068Y-90850000D01*
X161806932Y-90850000D01*
X161902422Y-90859405D01*
G37*
G36*
X191763512Y-90530426D02*
G01*
X191834199Y-90551869D01*
X191834201Y-90551870D01*
X191899344Y-90586689D01*
X191899346Y-90586691D01*
X191956448Y-90633552D01*
X192003309Y-90690653D01*
X192003310Y-90690655D01*
X192003311Y-90690656D01*
X192038130Y-90755798D01*
X192038131Y-90755800D01*
X192059574Y-90826487D01*
X192065000Y-90881581D01*
X192065000Y-91218419D01*
X192059574Y-91273513D01*
X192038131Y-91344200D01*
X192003309Y-91409347D01*
X191956448Y-91466448D01*
X191899347Y-91513309D01*
X191899345Y-91513310D01*
X191899344Y-91513311D01*
X191834202Y-91548130D01*
X191834200Y-91548131D01*
X191763513Y-91569574D01*
X191690000Y-91576814D01*
X191616488Y-91569574D01*
X191545801Y-91548131D01*
X191545799Y-91548130D01*
X191480657Y-91513311D01*
X191480656Y-91513310D01*
X191480654Y-91513309D01*
X191423553Y-91466448D01*
X191376692Y-91409347D01*
X191341869Y-91344200D01*
X191320426Y-91273513D01*
X191315000Y-91218419D01*
X191315000Y-90881582D01*
X191320426Y-90826488D01*
X191341869Y-90755801D01*
X191341871Y-90755798D01*
X191376689Y-90690656D01*
X191384402Y-90681258D01*
X191423552Y-90633552D01*
X191480653Y-90586691D01*
X191480655Y-90586690D01*
X191480656Y-90586689D01*
X191545798Y-90551870D01*
X191545800Y-90551869D01*
X191616487Y-90530426D01*
X191690000Y-90523186D01*
X191763512Y-90530426D01*
G37*
G36*
X193328215Y-90076511D02*
G01*
X193413040Y-90102242D01*
X193449429Y-90121693D01*
X193491216Y-90144029D01*
X193559737Y-90200263D01*
X193615971Y-90268784D01*
X193638307Y-90310571D01*
X193657758Y-90346960D01*
X193683489Y-90431785D01*
X193692177Y-90520000D01*
X193683489Y-90608215D01*
X193657758Y-90693040D01*
X193657757Y-90693041D01*
X193615971Y-90771216D01*
X193559737Y-90839737D01*
X193491216Y-90895971D01*
X193449429Y-90918307D01*
X193413040Y-90937758D01*
X193328215Y-90963489D01*
X193262106Y-90970000D01*
X192617894Y-90970000D01*
X192551785Y-90963489D01*
X192466960Y-90937758D01*
X192430571Y-90918307D01*
X192388784Y-90895971D01*
X192320263Y-90839737D01*
X192264029Y-90771216D01*
X192222243Y-90693041D01*
X192222242Y-90693040D01*
X192196511Y-90608215D01*
X192187823Y-90520000D01*
X192196511Y-90431785D01*
X192222242Y-90346960D01*
X192241693Y-90310571D01*
X192264029Y-90268784D01*
X192320263Y-90200263D01*
X192388784Y-90144029D01*
X192430571Y-90121693D01*
X192466960Y-90102242D01*
X192551785Y-90076511D01*
X192617894Y-90070000D01*
X193262106Y-90070000D01*
X193328215Y-90076511D01*
G37*
G36*
X199278215Y-89716511D02*
G01*
X199363040Y-89742242D01*
X199399429Y-89761693D01*
X199441216Y-89784029D01*
X199509737Y-89840263D01*
X199565971Y-89908784D01*
X199578383Y-89932005D01*
X199607758Y-89986960D01*
X199633489Y-90071785D01*
X199642177Y-90160000D01*
X199633489Y-90248215D01*
X199607758Y-90333040D01*
X199607757Y-90333041D01*
X199565971Y-90411216D01*
X199509737Y-90479737D01*
X199441216Y-90535971D01*
X199411473Y-90551869D01*
X199363040Y-90577758D01*
X199278215Y-90603489D01*
X199212106Y-90610000D01*
X198567894Y-90610000D01*
X198501785Y-90603489D01*
X198416960Y-90577758D01*
X198368527Y-90551869D01*
X198338784Y-90535971D01*
X198270263Y-90479737D01*
X198214029Y-90411216D01*
X198172243Y-90333041D01*
X198172242Y-90333040D01*
X198146511Y-90248215D01*
X198137823Y-90160000D01*
X198146511Y-90071785D01*
X198172242Y-89986960D01*
X198201617Y-89932005D01*
X198214029Y-89908784D01*
X198270263Y-89840263D01*
X198338784Y-89784029D01*
X198380571Y-89761693D01*
X198416960Y-89742242D01*
X198501785Y-89716511D01*
X198567894Y-89710000D01*
X199212106Y-89710000D01*
X199278215Y-89716511D01*
G37*
G36*
X162230432Y-88854880D02*
G01*
X162275724Y-88868620D01*
X162317463Y-88890929D01*
X162354047Y-88920953D01*
X162384071Y-88957537D01*
X162406380Y-88999276D01*
X162420120Y-89044568D01*
X162425000Y-89094120D01*
X162425000Y-89905880D01*
X162420120Y-89955432D01*
X162406380Y-90000724D01*
X162384071Y-90042463D01*
X162354047Y-90079047D01*
X162317463Y-90109071D01*
X162275724Y-90131380D01*
X162230432Y-90145120D01*
X162180880Y-90150000D01*
X160819120Y-90150000D01*
X160769568Y-90145120D01*
X160724276Y-90131380D01*
X160682537Y-90109071D01*
X160645953Y-90079047D01*
X160615929Y-90042463D01*
X160593620Y-90000724D01*
X160579880Y-89955432D01*
X160575000Y-89905880D01*
X160575000Y-89094120D01*
X160579880Y-89044568D01*
X160593620Y-88999276D01*
X160615929Y-88957537D01*
X160645953Y-88920953D01*
X160682537Y-88890929D01*
X160724276Y-88868620D01*
X160769568Y-88854880D01*
X160819120Y-88850000D01*
X162180880Y-88850000D01*
X162230432Y-88854880D01*
G37*
G36*
X198550000Y-82050000D02*
G01*
X196950000Y-82050000D01*
X196950000Y-80450000D01*
X198550000Y-80450000D01*
X198550000Y-82050000D01*
G37*
G36*
X197931832Y-77930495D02*
G01*
X197983351Y-77940743D01*
X198043656Y-77965722D01*
X198128941Y-78001048D01*
X198259969Y-78088598D01*
X198371402Y-78200031D01*
X198458952Y-78331059D01*
X198519257Y-78476650D01*
X198550000Y-78631205D01*
X198550000Y-78788795D01*
X198519257Y-78943350D01*
X198458952Y-79088941D01*
X198371402Y-79219969D01*
X198259969Y-79331402D01*
X198128941Y-79418952D01*
X198043656Y-79454278D01*
X197983351Y-79479257D01*
X197931832Y-79489505D01*
X197828795Y-79510000D01*
X197671205Y-79510000D01*
X197568168Y-79489505D01*
X197516649Y-79479257D01*
X197456344Y-79454278D01*
X197371059Y-79418952D01*
X197240031Y-79331402D01*
X197128598Y-79219969D01*
X197041048Y-79088941D01*
X196980743Y-78943350D01*
X196950000Y-78788795D01*
X196950000Y-78631205D01*
X196980743Y-78476650D01*
X197041048Y-78331059D01*
X197128598Y-78200031D01*
X197240031Y-78088598D01*
X197371059Y-78001048D01*
X197456344Y-77965722D01*
X197516649Y-77940743D01*
X197568168Y-77930495D01*
X197671205Y-77910000D01*
X197828795Y-77910000D01*
X197931832Y-77930495D01*
G37*
G36*
X197931832Y-75390495D02*
G01*
X197983351Y-75400743D01*
X198043656Y-75425722D01*
X198128941Y-75461048D01*
X198259969Y-75548598D01*
X198371402Y-75660031D01*
X198458952Y-75791059D01*
X198519257Y-75936650D01*
X198550000Y-76091205D01*
X198550000Y-76248795D01*
X198519257Y-76403350D01*
X198458952Y-76548941D01*
X198371402Y-76679969D01*
X198259969Y-76791402D01*
X198128941Y-76878952D01*
X198043656Y-76914278D01*
X197983351Y-76939257D01*
X197931832Y-76949505D01*
X197828795Y-76970000D01*
X197671205Y-76970000D01*
X197568168Y-76949505D01*
X197516649Y-76939257D01*
X197456344Y-76914278D01*
X197371059Y-76878952D01*
X197240031Y-76791402D01*
X197128598Y-76679969D01*
X197041048Y-76548941D01*
X196980743Y-76403350D01*
X196950000Y-76248795D01*
X196950000Y-76091205D01*
X196980743Y-75936650D01*
X197041048Y-75791059D01*
X197128598Y-75660031D01*
X197240031Y-75548598D01*
X197371059Y-75461048D01*
X197456344Y-75425722D01*
X197516649Y-75400743D01*
X197568168Y-75390495D01*
X197671205Y-75370000D01*
X197828795Y-75370000D01*
X197931832Y-75390495D01*
G37*
G36*
X197931832Y-72850495D02*
G01*
X197983351Y-72860743D01*
X198043656Y-72885722D01*
X198128941Y-72921048D01*
X198259969Y-73008598D01*
X198371402Y-73120031D01*
X198458952Y-73251059D01*
X198519257Y-73396650D01*
X198550000Y-73551205D01*
X198550000Y-73708795D01*
X198519257Y-73863350D01*
X198458952Y-74008941D01*
X198371402Y-74139969D01*
X198259969Y-74251402D01*
X198128941Y-74338952D01*
X198043656Y-74374278D01*
X197983351Y-74399257D01*
X197931832Y-74409505D01*
X197828795Y-74430000D01*
X197671205Y-74430000D01*
X197568168Y-74409505D01*
X197516649Y-74399257D01*
X197456344Y-74374278D01*
X197371059Y-74338952D01*
X197240031Y-74251402D01*
X197128598Y-74139969D01*
X197041048Y-74008941D01*
X196980743Y-73863350D01*
X196950000Y-73708795D01*
X196950000Y-73551205D01*
X196980743Y-73396650D01*
X197041048Y-73251059D01*
X197128598Y-73120031D01*
X197240031Y-73008598D01*
X197371059Y-72921048D01*
X197456344Y-72885722D01*
X197516649Y-72860743D01*
X197568168Y-72850495D01*
X197671205Y-72830000D01*
X197828795Y-72830000D01*
X197931832Y-72850495D01*
G37*
G36*
X197724354Y-61372097D02*
G01*
X197835443Y-61394194D01*
X197958039Y-61444976D01*
X198044728Y-61480883D01*
X198233081Y-61606736D01*
X198393264Y-61766919D01*
X198519117Y-61955272D01*
X198555024Y-62041961D01*
X198605806Y-62164557D01*
X198650000Y-62386735D01*
X198650000Y-62613265D01*
X198605806Y-62835443D01*
X198555024Y-62958039D01*
X198519117Y-63044728D01*
X198393264Y-63233081D01*
X198233081Y-63393264D01*
X198044728Y-63519117D01*
X197958039Y-63555024D01*
X197835443Y-63605806D01*
X197724354Y-63627903D01*
X197613267Y-63650000D01*
X197386733Y-63650000D01*
X197275646Y-63627903D01*
X197164557Y-63605806D01*
X197041961Y-63555024D01*
X196955272Y-63519117D01*
X196766919Y-63393264D01*
X196606736Y-63233081D01*
X196480883Y-63044728D01*
X196444976Y-62958039D01*
X196394194Y-62835443D01*
X196350000Y-62613265D01*
X196350000Y-62386735D01*
X196394194Y-62164557D01*
X196444976Y-62041961D01*
X196480883Y-61955272D01*
X196606736Y-61766919D01*
X196766919Y-61606736D01*
X196955272Y-61480883D01*
X197041961Y-61444976D01*
X197164557Y-61394194D01*
X197275646Y-61372097D01*
X197386733Y-61350000D01*
X197613267Y-61350000D01*
X197724354Y-61372097D01*
G37*
M02*
