G04 #@! TF.GenerationSoftware,KiCad,Pcbnew,(5.1.5)-3*
G04 #@! TF.CreationDate,2020-02-29T22:05:21+08:00*
G04 #@! TF.ProjectId,smartdisplay,736d6172-7464-4697-9370-6c61792e6b69,rev?*
G04 #@! TF.SameCoordinates,Original*
G04 #@! TF.FileFunction,Paste,Top*
G04 #@! TF.FilePolarity,Positive*
%FSLAX46Y46*%
G04 Gerber Fmt 4.6, Leading zero omitted, Abs format (unit mm)*
G04 Created by KiCad (PCBNEW (5.1.5)-3) date 2020-02-29 22:05:21*
%MOMM*%
%LPD*%
G04 APERTURE LIST*
%ADD10R,0.700000X0.300000*%
%ADD11R,2.200000X1.800000*%
%ADD12R,1.300000X0.300000*%
%ADD13C,0.100000*%
%ADD14R,1.220000X0.650000*%
%ADD15R,1.060000X0.650000*%
%ADD16R,2.000000X0.900000*%
%ADD17R,0.900000X2.000000*%
%ADD18R,5.000000X5.000000*%
%ADD19R,2.000000X1.500000*%
%ADD20R,2.000000X3.800000*%
%ADD21R,0.900000X0.800000*%
%ADD22R,2.180000X1.600000*%
G04 APERTURE END LIST*
D10*
X191030000Y-92400000D03*
X191030000Y-93900000D03*
X191030000Y-93400000D03*
X191030000Y-92900000D03*
X191030000Y-91900000D03*
X191030000Y-94400000D03*
X191030000Y-94900000D03*
X191030000Y-95400000D03*
X191030000Y-95900000D03*
X191030000Y-96400000D03*
X191030000Y-96900000D03*
X191030000Y-97400000D03*
D11*
X189900000Y-72350000D03*
X189900000Y-87650000D03*
D12*
X186650000Y-85750000D03*
X186650000Y-85250000D03*
X186650000Y-84750000D03*
X186650000Y-84250000D03*
X186650000Y-83750000D03*
X186650000Y-83250000D03*
X186650000Y-82750000D03*
X186650000Y-82250000D03*
X186650000Y-81750000D03*
X186650000Y-81250000D03*
X186650000Y-80750000D03*
X186650000Y-80250000D03*
X186650000Y-79750000D03*
X186650000Y-79250000D03*
X186650000Y-78750000D03*
X186650000Y-78250000D03*
X186650000Y-77750000D03*
X186650000Y-77250000D03*
X186650000Y-76750000D03*
X186650000Y-76250000D03*
X186650000Y-75750000D03*
X186650000Y-75250000D03*
X186650000Y-74750000D03*
X186650000Y-74250000D03*
D13*
G36*
X156712691Y-73726053D02*
G01*
X156733926Y-73729203D01*
X156754750Y-73734419D01*
X156774962Y-73741651D01*
X156794368Y-73750830D01*
X156812781Y-73761866D01*
X156830024Y-73774654D01*
X156845930Y-73789070D01*
X156860346Y-73804976D01*
X156873134Y-73822219D01*
X156884170Y-73840632D01*
X156893349Y-73860038D01*
X156900581Y-73880250D01*
X156905797Y-73901074D01*
X156908947Y-73922309D01*
X156910000Y-73943750D01*
X156910000Y-74456250D01*
X156908947Y-74477691D01*
X156905797Y-74498926D01*
X156900581Y-74519750D01*
X156893349Y-74539962D01*
X156884170Y-74559368D01*
X156873134Y-74577781D01*
X156860346Y-74595024D01*
X156845930Y-74610930D01*
X156830024Y-74625346D01*
X156812781Y-74638134D01*
X156794368Y-74649170D01*
X156774962Y-74658349D01*
X156754750Y-74665581D01*
X156733926Y-74670797D01*
X156712691Y-74673947D01*
X156691250Y-74675000D01*
X156253750Y-74675000D01*
X156232309Y-74673947D01*
X156211074Y-74670797D01*
X156190250Y-74665581D01*
X156170038Y-74658349D01*
X156150632Y-74649170D01*
X156132219Y-74638134D01*
X156114976Y-74625346D01*
X156099070Y-74610930D01*
X156084654Y-74595024D01*
X156071866Y-74577781D01*
X156060830Y-74559368D01*
X156051651Y-74539962D01*
X156044419Y-74519750D01*
X156039203Y-74498926D01*
X156036053Y-74477691D01*
X156035000Y-74456250D01*
X156035000Y-73943750D01*
X156036053Y-73922309D01*
X156039203Y-73901074D01*
X156044419Y-73880250D01*
X156051651Y-73860038D01*
X156060830Y-73840632D01*
X156071866Y-73822219D01*
X156084654Y-73804976D01*
X156099070Y-73789070D01*
X156114976Y-73774654D01*
X156132219Y-73761866D01*
X156150632Y-73750830D01*
X156170038Y-73741651D01*
X156190250Y-73734419D01*
X156211074Y-73729203D01*
X156232309Y-73726053D01*
X156253750Y-73725000D01*
X156691250Y-73725000D01*
X156712691Y-73726053D01*
G37*
G36*
X158287691Y-73726053D02*
G01*
X158308926Y-73729203D01*
X158329750Y-73734419D01*
X158349962Y-73741651D01*
X158369368Y-73750830D01*
X158387781Y-73761866D01*
X158405024Y-73774654D01*
X158420930Y-73789070D01*
X158435346Y-73804976D01*
X158448134Y-73822219D01*
X158459170Y-73840632D01*
X158468349Y-73860038D01*
X158475581Y-73880250D01*
X158480797Y-73901074D01*
X158483947Y-73922309D01*
X158485000Y-73943750D01*
X158485000Y-74456250D01*
X158483947Y-74477691D01*
X158480797Y-74498926D01*
X158475581Y-74519750D01*
X158468349Y-74539962D01*
X158459170Y-74559368D01*
X158448134Y-74577781D01*
X158435346Y-74595024D01*
X158420930Y-74610930D01*
X158405024Y-74625346D01*
X158387781Y-74638134D01*
X158369368Y-74649170D01*
X158349962Y-74658349D01*
X158329750Y-74665581D01*
X158308926Y-74670797D01*
X158287691Y-74673947D01*
X158266250Y-74675000D01*
X157828750Y-74675000D01*
X157807309Y-74673947D01*
X157786074Y-74670797D01*
X157765250Y-74665581D01*
X157745038Y-74658349D01*
X157725632Y-74649170D01*
X157707219Y-74638134D01*
X157689976Y-74625346D01*
X157674070Y-74610930D01*
X157659654Y-74595024D01*
X157646866Y-74577781D01*
X157635830Y-74559368D01*
X157626651Y-74539962D01*
X157619419Y-74519750D01*
X157614203Y-74498926D01*
X157611053Y-74477691D01*
X157610000Y-74456250D01*
X157610000Y-73943750D01*
X157611053Y-73922309D01*
X157614203Y-73901074D01*
X157619419Y-73880250D01*
X157626651Y-73860038D01*
X157635830Y-73840632D01*
X157646866Y-73822219D01*
X157659654Y-73804976D01*
X157674070Y-73789070D01*
X157689976Y-73774654D01*
X157707219Y-73761866D01*
X157725632Y-73750830D01*
X157745038Y-73741651D01*
X157765250Y-73734419D01*
X157786074Y-73729203D01*
X157807309Y-73726053D01*
X157828750Y-73725000D01*
X158266250Y-73725000D01*
X158287691Y-73726053D01*
G37*
D14*
X181290000Y-93150000D03*
X181290000Y-92200000D03*
X181290000Y-91250000D03*
X183910000Y-91250000D03*
X183910000Y-92200000D03*
X183910000Y-93150000D03*
D13*
G36*
X179864703Y-98205722D02*
G01*
X179879264Y-98207882D01*
X179893543Y-98211459D01*
X179907403Y-98216418D01*
X179920710Y-98222712D01*
X179933336Y-98230280D01*
X179945159Y-98239048D01*
X179956066Y-98248934D01*
X179965952Y-98259841D01*
X179974720Y-98271664D01*
X179982288Y-98284290D01*
X179988582Y-98297597D01*
X179993541Y-98311457D01*
X179997118Y-98325736D01*
X179999278Y-98340297D01*
X180000000Y-98355000D01*
X180000000Y-98655000D01*
X179999278Y-98669703D01*
X179997118Y-98684264D01*
X179993541Y-98698543D01*
X179988582Y-98712403D01*
X179982288Y-98725710D01*
X179974720Y-98738336D01*
X179965952Y-98750159D01*
X179956066Y-98761066D01*
X179945159Y-98770952D01*
X179933336Y-98779720D01*
X179920710Y-98787288D01*
X179907403Y-98793582D01*
X179893543Y-98798541D01*
X179879264Y-98802118D01*
X179864703Y-98804278D01*
X179850000Y-98805000D01*
X178500000Y-98805000D01*
X178485297Y-98804278D01*
X178470736Y-98802118D01*
X178456457Y-98798541D01*
X178442597Y-98793582D01*
X178429290Y-98787288D01*
X178416664Y-98779720D01*
X178404841Y-98770952D01*
X178393934Y-98761066D01*
X178384048Y-98750159D01*
X178375280Y-98738336D01*
X178367712Y-98725710D01*
X178361418Y-98712403D01*
X178356459Y-98698543D01*
X178352882Y-98684264D01*
X178350722Y-98669703D01*
X178350000Y-98655000D01*
X178350000Y-98355000D01*
X178350722Y-98340297D01*
X178352882Y-98325736D01*
X178356459Y-98311457D01*
X178361418Y-98297597D01*
X178367712Y-98284290D01*
X178375280Y-98271664D01*
X178384048Y-98259841D01*
X178393934Y-98248934D01*
X178404841Y-98239048D01*
X178416664Y-98230280D01*
X178429290Y-98222712D01*
X178442597Y-98216418D01*
X178456457Y-98211459D01*
X178470736Y-98207882D01*
X178485297Y-98205722D01*
X178500000Y-98205000D01*
X179850000Y-98205000D01*
X179864703Y-98205722D01*
G37*
G36*
X179864703Y-96935722D02*
G01*
X179879264Y-96937882D01*
X179893543Y-96941459D01*
X179907403Y-96946418D01*
X179920710Y-96952712D01*
X179933336Y-96960280D01*
X179945159Y-96969048D01*
X179956066Y-96978934D01*
X179965952Y-96989841D01*
X179974720Y-97001664D01*
X179982288Y-97014290D01*
X179988582Y-97027597D01*
X179993541Y-97041457D01*
X179997118Y-97055736D01*
X179999278Y-97070297D01*
X180000000Y-97085000D01*
X180000000Y-97385000D01*
X179999278Y-97399703D01*
X179997118Y-97414264D01*
X179993541Y-97428543D01*
X179988582Y-97442403D01*
X179982288Y-97455710D01*
X179974720Y-97468336D01*
X179965952Y-97480159D01*
X179956066Y-97491066D01*
X179945159Y-97500952D01*
X179933336Y-97509720D01*
X179920710Y-97517288D01*
X179907403Y-97523582D01*
X179893543Y-97528541D01*
X179879264Y-97532118D01*
X179864703Y-97534278D01*
X179850000Y-97535000D01*
X178500000Y-97535000D01*
X178485297Y-97534278D01*
X178470736Y-97532118D01*
X178456457Y-97528541D01*
X178442597Y-97523582D01*
X178429290Y-97517288D01*
X178416664Y-97509720D01*
X178404841Y-97500952D01*
X178393934Y-97491066D01*
X178384048Y-97480159D01*
X178375280Y-97468336D01*
X178367712Y-97455710D01*
X178361418Y-97442403D01*
X178356459Y-97428543D01*
X178352882Y-97414264D01*
X178350722Y-97399703D01*
X178350000Y-97385000D01*
X178350000Y-97085000D01*
X178350722Y-97070297D01*
X178352882Y-97055736D01*
X178356459Y-97041457D01*
X178361418Y-97027597D01*
X178367712Y-97014290D01*
X178375280Y-97001664D01*
X178384048Y-96989841D01*
X178393934Y-96978934D01*
X178404841Y-96969048D01*
X178416664Y-96960280D01*
X178429290Y-96952712D01*
X178442597Y-96946418D01*
X178456457Y-96941459D01*
X178470736Y-96937882D01*
X178485297Y-96935722D01*
X178500000Y-96935000D01*
X179850000Y-96935000D01*
X179864703Y-96935722D01*
G37*
G36*
X179864703Y-95665722D02*
G01*
X179879264Y-95667882D01*
X179893543Y-95671459D01*
X179907403Y-95676418D01*
X179920710Y-95682712D01*
X179933336Y-95690280D01*
X179945159Y-95699048D01*
X179956066Y-95708934D01*
X179965952Y-95719841D01*
X179974720Y-95731664D01*
X179982288Y-95744290D01*
X179988582Y-95757597D01*
X179993541Y-95771457D01*
X179997118Y-95785736D01*
X179999278Y-95800297D01*
X180000000Y-95815000D01*
X180000000Y-96115000D01*
X179999278Y-96129703D01*
X179997118Y-96144264D01*
X179993541Y-96158543D01*
X179988582Y-96172403D01*
X179982288Y-96185710D01*
X179974720Y-96198336D01*
X179965952Y-96210159D01*
X179956066Y-96221066D01*
X179945159Y-96230952D01*
X179933336Y-96239720D01*
X179920710Y-96247288D01*
X179907403Y-96253582D01*
X179893543Y-96258541D01*
X179879264Y-96262118D01*
X179864703Y-96264278D01*
X179850000Y-96265000D01*
X178500000Y-96265000D01*
X178485297Y-96264278D01*
X178470736Y-96262118D01*
X178456457Y-96258541D01*
X178442597Y-96253582D01*
X178429290Y-96247288D01*
X178416664Y-96239720D01*
X178404841Y-96230952D01*
X178393934Y-96221066D01*
X178384048Y-96210159D01*
X178375280Y-96198336D01*
X178367712Y-96185710D01*
X178361418Y-96172403D01*
X178356459Y-96158543D01*
X178352882Y-96144264D01*
X178350722Y-96129703D01*
X178350000Y-96115000D01*
X178350000Y-95815000D01*
X178350722Y-95800297D01*
X178352882Y-95785736D01*
X178356459Y-95771457D01*
X178361418Y-95757597D01*
X178367712Y-95744290D01*
X178375280Y-95731664D01*
X178384048Y-95719841D01*
X178393934Y-95708934D01*
X178404841Y-95699048D01*
X178416664Y-95690280D01*
X178429290Y-95682712D01*
X178442597Y-95676418D01*
X178456457Y-95671459D01*
X178470736Y-95667882D01*
X178485297Y-95665722D01*
X178500000Y-95665000D01*
X179850000Y-95665000D01*
X179864703Y-95665722D01*
G37*
G36*
X179864703Y-94395722D02*
G01*
X179879264Y-94397882D01*
X179893543Y-94401459D01*
X179907403Y-94406418D01*
X179920710Y-94412712D01*
X179933336Y-94420280D01*
X179945159Y-94429048D01*
X179956066Y-94438934D01*
X179965952Y-94449841D01*
X179974720Y-94461664D01*
X179982288Y-94474290D01*
X179988582Y-94487597D01*
X179993541Y-94501457D01*
X179997118Y-94515736D01*
X179999278Y-94530297D01*
X180000000Y-94545000D01*
X180000000Y-94845000D01*
X179999278Y-94859703D01*
X179997118Y-94874264D01*
X179993541Y-94888543D01*
X179988582Y-94902403D01*
X179982288Y-94915710D01*
X179974720Y-94928336D01*
X179965952Y-94940159D01*
X179956066Y-94951066D01*
X179945159Y-94960952D01*
X179933336Y-94969720D01*
X179920710Y-94977288D01*
X179907403Y-94983582D01*
X179893543Y-94988541D01*
X179879264Y-94992118D01*
X179864703Y-94994278D01*
X179850000Y-94995000D01*
X178500000Y-94995000D01*
X178485297Y-94994278D01*
X178470736Y-94992118D01*
X178456457Y-94988541D01*
X178442597Y-94983582D01*
X178429290Y-94977288D01*
X178416664Y-94969720D01*
X178404841Y-94960952D01*
X178393934Y-94951066D01*
X178384048Y-94940159D01*
X178375280Y-94928336D01*
X178367712Y-94915710D01*
X178361418Y-94902403D01*
X178356459Y-94888543D01*
X178352882Y-94874264D01*
X178350722Y-94859703D01*
X178350000Y-94845000D01*
X178350000Y-94545000D01*
X178350722Y-94530297D01*
X178352882Y-94515736D01*
X178356459Y-94501457D01*
X178361418Y-94487597D01*
X178367712Y-94474290D01*
X178375280Y-94461664D01*
X178384048Y-94449841D01*
X178393934Y-94438934D01*
X178404841Y-94429048D01*
X178416664Y-94420280D01*
X178429290Y-94412712D01*
X178442597Y-94406418D01*
X178456457Y-94401459D01*
X178470736Y-94397882D01*
X178485297Y-94395722D01*
X178500000Y-94395000D01*
X179850000Y-94395000D01*
X179864703Y-94395722D01*
G37*
G36*
X185114703Y-94395722D02*
G01*
X185129264Y-94397882D01*
X185143543Y-94401459D01*
X185157403Y-94406418D01*
X185170710Y-94412712D01*
X185183336Y-94420280D01*
X185195159Y-94429048D01*
X185206066Y-94438934D01*
X185215952Y-94449841D01*
X185224720Y-94461664D01*
X185232288Y-94474290D01*
X185238582Y-94487597D01*
X185243541Y-94501457D01*
X185247118Y-94515736D01*
X185249278Y-94530297D01*
X185250000Y-94545000D01*
X185250000Y-94845000D01*
X185249278Y-94859703D01*
X185247118Y-94874264D01*
X185243541Y-94888543D01*
X185238582Y-94902403D01*
X185232288Y-94915710D01*
X185224720Y-94928336D01*
X185215952Y-94940159D01*
X185206066Y-94951066D01*
X185195159Y-94960952D01*
X185183336Y-94969720D01*
X185170710Y-94977288D01*
X185157403Y-94983582D01*
X185143543Y-94988541D01*
X185129264Y-94992118D01*
X185114703Y-94994278D01*
X185100000Y-94995000D01*
X183750000Y-94995000D01*
X183735297Y-94994278D01*
X183720736Y-94992118D01*
X183706457Y-94988541D01*
X183692597Y-94983582D01*
X183679290Y-94977288D01*
X183666664Y-94969720D01*
X183654841Y-94960952D01*
X183643934Y-94951066D01*
X183634048Y-94940159D01*
X183625280Y-94928336D01*
X183617712Y-94915710D01*
X183611418Y-94902403D01*
X183606459Y-94888543D01*
X183602882Y-94874264D01*
X183600722Y-94859703D01*
X183600000Y-94845000D01*
X183600000Y-94545000D01*
X183600722Y-94530297D01*
X183602882Y-94515736D01*
X183606459Y-94501457D01*
X183611418Y-94487597D01*
X183617712Y-94474290D01*
X183625280Y-94461664D01*
X183634048Y-94449841D01*
X183643934Y-94438934D01*
X183654841Y-94429048D01*
X183666664Y-94420280D01*
X183679290Y-94412712D01*
X183692597Y-94406418D01*
X183706457Y-94401459D01*
X183720736Y-94397882D01*
X183735297Y-94395722D01*
X183750000Y-94395000D01*
X185100000Y-94395000D01*
X185114703Y-94395722D01*
G37*
G36*
X185114703Y-95665722D02*
G01*
X185129264Y-95667882D01*
X185143543Y-95671459D01*
X185157403Y-95676418D01*
X185170710Y-95682712D01*
X185183336Y-95690280D01*
X185195159Y-95699048D01*
X185206066Y-95708934D01*
X185215952Y-95719841D01*
X185224720Y-95731664D01*
X185232288Y-95744290D01*
X185238582Y-95757597D01*
X185243541Y-95771457D01*
X185247118Y-95785736D01*
X185249278Y-95800297D01*
X185250000Y-95815000D01*
X185250000Y-96115000D01*
X185249278Y-96129703D01*
X185247118Y-96144264D01*
X185243541Y-96158543D01*
X185238582Y-96172403D01*
X185232288Y-96185710D01*
X185224720Y-96198336D01*
X185215952Y-96210159D01*
X185206066Y-96221066D01*
X185195159Y-96230952D01*
X185183336Y-96239720D01*
X185170710Y-96247288D01*
X185157403Y-96253582D01*
X185143543Y-96258541D01*
X185129264Y-96262118D01*
X185114703Y-96264278D01*
X185100000Y-96265000D01*
X183750000Y-96265000D01*
X183735297Y-96264278D01*
X183720736Y-96262118D01*
X183706457Y-96258541D01*
X183692597Y-96253582D01*
X183679290Y-96247288D01*
X183666664Y-96239720D01*
X183654841Y-96230952D01*
X183643934Y-96221066D01*
X183634048Y-96210159D01*
X183625280Y-96198336D01*
X183617712Y-96185710D01*
X183611418Y-96172403D01*
X183606459Y-96158543D01*
X183602882Y-96144264D01*
X183600722Y-96129703D01*
X183600000Y-96115000D01*
X183600000Y-95815000D01*
X183600722Y-95800297D01*
X183602882Y-95785736D01*
X183606459Y-95771457D01*
X183611418Y-95757597D01*
X183617712Y-95744290D01*
X183625280Y-95731664D01*
X183634048Y-95719841D01*
X183643934Y-95708934D01*
X183654841Y-95699048D01*
X183666664Y-95690280D01*
X183679290Y-95682712D01*
X183692597Y-95676418D01*
X183706457Y-95671459D01*
X183720736Y-95667882D01*
X183735297Y-95665722D01*
X183750000Y-95665000D01*
X185100000Y-95665000D01*
X185114703Y-95665722D01*
G37*
G36*
X185114703Y-96935722D02*
G01*
X185129264Y-96937882D01*
X185143543Y-96941459D01*
X185157403Y-96946418D01*
X185170710Y-96952712D01*
X185183336Y-96960280D01*
X185195159Y-96969048D01*
X185206066Y-96978934D01*
X185215952Y-96989841D01*
X185224720Y-97001664D01*
X185232288Y-97014290D01*
X185238582Y-97027597D01*
X185243541Y-97041457D01*
X185247118Y-97055736D01*
X185249278Y-97070297D01*
X185250000Y-97085000D01*
X185250000Y-97385000D01*
X185249278Y-97399703D01*
X185247118Y-97414264D01*
X185243541Y-97428543D01*
X185238582Y-97442403D01*
X185232288Y-97455710D01*
X185224720Y-97468336D01*
X185215952Y-97480159D01*
X185206066Y-97491066D01*
X185195159Y-97500952D01*
X185183336Y-97509720D01*
X185170710Y-97517288D01*
X185157403Y-97523582D01*
X185143543Y-97528541D01*
X185129264Y-97532118D01*
X185114703Y-97534278D01*
X185100000Y-97535000D01*
X183750000Y-97535000D01*
X183735297Y-97534278D01*
X183720736Y-97532118D01*
X183706457Y-97528541D01*
X183692597Y-97523582D01*
X183679290Y-97517288D01*
X183666664Y-97509720D01*
X183654841Y-97500952D01*
X183643934Y-97491066D01*
X183634048Y-97480159D01*
X183625280Y-97468336D01*
X183617712Y-97455710D01*
X183611418Y-97442403D01*
X183606459Y-97428543D01*
X183602882Y-97414264D01*
X183600722Y-97399703D01*
X183600000Y-97385000D01*
X183600000Y-97085000D01*
X183600722Y-97070297D01*
X183602882Y-97055736D01*
X183606459Y-97041457D01*
X183611418Y-97027597D01*
X183617712Y-97014290D01*
X183625280Y-97001664D01*
X183634048Y-96989841D01*
X183643934Y-96978934D01*
X183654841Y-96969048D01*
X183666664Y-96960280D01*
X183679290Y-96952712D01*
X183692597Y-96946418D01*
X183706457Y-96941459D01*
X183720736Y-96937882D01*
X183735297Y-96935722D01*
X183750000Y-96935000D01*
X185100000Y-96935000D01*
X185114703Y-96935722D01*
G37*
G36*
X185114703Y-98205722D02*
G01*
X185129264Y-98207882D01*
X185143543Y-98211459D01*
X185157403Y-98216418D01*
X185170710Y-98222712D01*
X185183336Y-98230280D01*
X185195159Y-98239048D01*
X185206066Y-98248934D01*
X185215952Y-98259841D01*
X185224720Y-98271664D01*
X185232288Y-98284290D01*
X185238582Y-98297597D01*
X185243541Y-98311457D01*
X185247118Y-98325736D01*
X185249278Y-98340297D01*
X185250000Y-98355000D01*
X185250000Y-98655000D01*
X185249278Y-98669703D01*
X185247118Y-98684264D01*
X185243541Y-98698543D01*
X185238582Y-98712403D01*
X185232288Y-98725710D01*
X185224720Y-98738336D01*
X185215952Y-98750159D01*
X185206066Y-98761066D01*
X185195159Y-98770952D01*
X185183336Y-98779720D01*
X185170710Y-98787288D01*
X185157403Y-98793582D01*
X185143543Y-98798541D01*
X185129264Y-98802118D01*
X185114703Y-98804278D01*
X185100000Y-98805000D01*
X183750000Y-98805000D01*
X183735297Y-98804278D01*
X183720736Y-98802118D01*
X183706457Y-98798541D01*
X183692597Y-98793582D01*
X183679290Y-98787288D01*
X183666664Y-98779720D01*
X183654841Y-98770952D01*
X183643934Y-98761066D01*
X183634048Y-98750159D01*
X183625280Y-98738336D01*
X183617712Y-98725710D01*
X183611418Y-98712403D01*
X183606459Y-98698543D01*
X183602882Y-98684264D01*
X183600722Y-98669703D01*
X183600000Y-98655000D01*
X183600000Y-98355000D01*
X183600722Y-98340297D01*
X183602882Y-98325736D01*
X183606459Y-98311457D01*
X183611418Y-98297597D01*
X183617712Y-98284290D01*
X183625280Y-98271664D01*
X183634048Y-98259841D01*
X183643934Y-98248934D01*
X183654841Y-98239048D01*
X183666664Y-98230280D01*
X183679290Y-98222712D01*
X183692597Y-98216418D01*
X183706457Y-98211459D01*
X183720736Y-98207882D01*
X183735297Y-98205722D01*
X183750000Y-98205000D01*
X185100000Y-98205000D01*
X185114703Y-98205722D01*
G37*
D15*
X189300000Y-91600000D03*
X189300000Y-90650000D03*
X189300000Y-92550000D03*
X187100000Y-92550000D03*
X187100000Y-91600000D03*
X187100000Y-90650000D03*
D16*
X177500000Y-67745000D03*
X177500000Y-69015000D03*
X177500000Y-70285000D03*
X177500000Y-71555000D03*
X177500000Y-72825000D03*
X177500000Y-74095000D03*
X177500000Y-75365000D03*
X177500000Y-76635000D03*
X177500000Y-77905000D03*
X177500000Y-79175000D03*
X177500000Y-80445000D03*
X177500000Y-81715000D03*
X177500000Y-82985000D03*
X177500000Y-84255000D03*
D17*
X174715000Y-85255000D03*
X173445000Y-85255000D03*
X172175000Y-85255000D03*
X170905000Y-85255000D03*
X169635000Y-85255000D03*
X168365000Y-85255000D03*
X167095000Y-85255000D03*
X165825000Y-85255000D03*
X164555000Y-85255000D03*
X163285000Y-85255000D03*
D16*
X160500000Y-84255000D03*
X160500000Y-82985000D03*
X160500000Y-81715000D03*
X160500000Y-80445000D03*
X160500000Y-79175000D03*
X160500000Y-77905000D03*
X160500000Y-76635000D03*
X160500000Y-75365000D03*
X160500000Y-74095000D03*
X160500000Y-72825000D03*
X160500000Y-71555000D03*
X160500000Y-70285000D03*
X160500000Y-69015000D03*
X160500000Y-67745000D03*
D18*
X168000000Y-75245000D03*
D19*
X169050000Y-88300000D03*
X169050000Y-92900000D03*
X169050000Y-90600000D03*
D20*
X175350000Y-90600000D03*
D13*
G36*
X185652691Y-68926053D02*
G01*
X185673926Y-68929203D01*
X185694750Y-68934419D01*
X185714962Y-68941651D01*
X185734368Y-68950830D01*
X185752781Y-68961866D01*
X185770024Y-68974654D01*
X185785930Y-68989070D01*
X185800346Y-69004976D01*
X185813134Y-69022219D01*
X185824170Y-69040632D01*
X185833349Y-69060038D01*
X185840581Y-69080250D01*
X185845797Y-69101074D01*
X185848947Y-69122309D01*
X185850000Y-69143750D01*
X185850000Y-69656250D01*
X185848947Y-69677691D01*
X185845797Y-69698926D01*
X185840581Y-69719750D01*
X185833349Y-69739962D01*
X185824170Y-69759368D01*
X185813134Y-69777781D01*
X185800346Y-69795024D01*
X185785930Y-69810930D01*
X185770024Y-69825346D01*
X185752781Y-69838134D01*
X185734368Y-69849170D01*
X185714962Y-69858349D01*
X185694750Y-69865581D01*
X185673926Y-69870797D01*
X185652691Y-69873947D01*
X185631250Y-69875000D01*
X185193750Y-69875000D01*
X185172309Y-69873947D01*
X185151074Y-69870797D01*
X185130250Y-69865581D01*
X185110038Y-69858349D01*
X185090632Y-69849170D01*
X185072219Y-69838134D01*
X185054976Y-69825346D01*
X185039070Y-69810930D01*
X185024654Y-69795024D01*
X185011866Y-69777781D01*
X185000830Y-69759368D01*
X184991651Y-69739962D01*
X184984419Y-69719750D01*
X184979203Y-69698926D01*
X184976053Y-69677691D01*
X184975000Y-69656250D01*
X184975000Y-69143750D01*
X184976053Y-69122309D01*
X184979203Y-69101074D01*
X184984419Y-69080250D01*
X184991651Y-69060038D01*
X185000830Y-69040632D01*
X185011866Y-69022219D01*
X185024654Y-69004976D01*
X185039070Y-68989070D01*
X185054976Y-68974654D01*
X185072219Y-68961866D01*
X185090632Y-68950830D01*
X185110038Y-68941651D01*
X185130250Y-68934419D01*
X185151074Y-68929203D01*
X185172309Y-68926053D01*
X185193750Y-68925000D01*
X185631250Y-68925000D01*
X185652691Y-68926053D01*
G37*
G36*
X187227691Y-68926053D02*
G01*
X187248926Y-68929203D01*
X187269750Y-68934419D01*
X187289962Y-68941651D01*
X187309368Y-68950830D01*
X187327781Y-68961866D01*
X187345024Y-68974654D01*
X187360930Y-68989070D01*
X187375346Y-69004976D01*
X187388134Y-69022219D01*
X187399170Y-69040632D01*
X187408349Y-69060038D01*
X187415581Y-69080250D01*
X187420797Y-69101074D01*
X187423947Y-69122309D01*
X187425000Y-69143750D01*
X187425000Y-69656250D01*
X187423947Y-69677691D01*
X187420797Y-69698926D01*
X187415581Y-69719750D01*
X187408349Y-69739962D01*
X187399170Y-69759368D01*
X187388134Y-69777781D01*
X187375346Y-69795024D01*
X187360930Y-69810930D01*
X187345024Y-69825346D01*
X187327781Y-69838134D01*
X187309368Y-69849170D01*
X187289962Y-69858349D01*
X187269750Y-69865581D01*
X187248926Y-69870797D01*
X187227691Y-69873947D01*
X187206250Y-69875000D01*
X186768750Y-69875000D01*
X186747309Y-69873947D01*
X186726074Y-69870797D01*
X186705250Y-69865581D01*
X186685038Y-69858349D01*
X186665632Y-69849170D01*
X186647219Y-69838134D01*
X186629976Y-69825346D01*
X186614070Y-69810930D01*
X186599654Y-69795024D01*
X186586866Y-69777781D01*
X186575830Y-69759368D01*
X186566651Y-69739962D01*
X186559419Y-69719750D01*
X186554203Y-69698926D01*
X186551053Y-69677691D01*
X186550000Y-69656250D01*
X186550000Y-69143750D01*
X186551053Y-69122309D01*
X186554203Y-69101074D01*
X186559419Y-69080250D01*
X186566651Y-69060038D01*
X186575830Y-69040632D01*
X186586866Y-69022219D01*
X186599654Y-69004976D01*
X186614070Y-68989070D01*
X186629976Y-68974654D01*
X186647219Y-68961866D01*
X186665632Y-68950830D01*
X186685038Y-68941651D01*
X186705250Y-68934419D01*
X186726074Y-68929203D01*
X186747309Y-68926053D01*
X186768750Y-68925000D01*
X187206250Y-68925000D01*
X187227691Y-68926053D01*
G37*
G36*
X194627691Y-68926053D02*
G01*
X194648926Y-68929203D01*
X194669750Y-68934419D01*
X194689962Y-68941651D01*
X194709368Y-68950830D01*
X194727781Y-68961866D01*
X194745024Y-68974654D01*
X194760930Y-68989070D01*
X194775346Y-69004976D01*
X194788134Y-69022219D01*
X194799170Y-69040632D01*
X194808349Y-69060038D01*
X194815581Y-69080250D01*
X194820797Y-69101074D01*
X194823947Y-69122309D01*
X194825000Y-69143750D01*
X194825000Y-69656250D01*
X194823947Y-69677691D01*
X194820797Y-69698926D01*
X194815581Y-69719750D01*
X194808349Y-69739962D01*
X194799170Y-69759368D01*
X194788134Y-69777781D01*
X194775346Y-69795024D01*
X194760930Y-69810930D01*
X194745024Y-69825346D01*
X194727781Y-69838134D01*
X194709368Y-69849170D01*
X194689962Y-69858349D01*
X194669750Y-69865581D01*
X194648926Y-69870797D01*
X194627691Y-69873947D01*
X194606250Y-69875000D01*
X194168750Y-69875000D01*
X194147309Y-69873947D01*
X194126074Y-69870797D01*
X194105250Y-69865581D01*
X194085038Y-69858349D01*
X194065632Y-69849170D01*
X194047219Y-69838134D01*
X194029976Y-69825346D01*
X194014070Y-69810930D01*
X193999654Y-69795024D01*
X193986866Y-69777781D01*
X193975830Y-69759368D01*
X193966651Y-69739962D01*
X193959419Y-69719750D01*
X193954203Y-69698926D01*
X193951053Y-69677691D01*
X193950000Y-69656250D01*
X193950000Y-69143750D01*
X193951053Y-69122309D01*
X193954203Y-69101074D01*
X193959419Y-69080250D01*
X193966651Y-69060038D01*
X193975830Y-69040632D01*
X193986866Y-69022219D01*
X193999654Y-69004976D01*
X194014070Y-68989070D01*
X194029976Y-68974654D01*
X194047219Y-68961866D01*
X194065632Y-68950830D01*
X194085038Y-68941651D01*
X194105250Y-68934419D01*
X194126074Y-68929203D01*
X194147309Y-68926053D01*
X194168750Y-68925000D01*
X194606250Y-68925000D01*
X194627691Y-68926053D01*
G37*
G36*
X193052691Y-68926053D02*
G01*
X193073926Y-68929203D01*
X193094750Y-68934419D01*
X193114962Y-68941651D01*
X193134368Y-68950830D01*
X193152781Y-68961866D01*
X193170024Y-68974654D01*
X193185930Y-68989070D01*
X193200346Y-69004976D01*
X193213134Y-69022219D01*
X193224170Y-69040632D01*
X193233349Y-69060038D01*
X193240581Y-69080250D01*
X193245797Y-69101074D01*
X193248947Y-69122309D01*
X193250000Y-69143750D01*
X193250000Y-69656250D01*
X193248947Y-69677691D01*
X193245797Y-69698926D01*
X193240581Y-69719750D01*
X193233349Y-69739962D01*
X193224170Y-69759368D01*
X193213134Y-69777781D01*
X193200346Y-69795024D01*
X193185930Y-69810930D01*
X193170024Y-69825346D01*
X193152781Y-69838134D01*
X193134368Y-69849170D01*
X193114962Y-69858349D01*
X193094750Y-69865581D01*
X193073926Y-69870797D01*
X193052691Y-69873947D01*
X193031250Y-69875000D01*
X192593750Y-69875000D01*
X192572309Y-69873947D01*
X192551074Y-69870797D01*
X192530250Y-69865581D01*
X192510038Y-69858349D01*
X192490632Y-69849170D01*
X192472219Y-69838134D01*
X192454976Y-69825346D01*
X192439070Y-69810930D01*
X192424654Y-69795024D01*
X192411866Y-69777781D01*
X192400830Y-69759368D01*
X192391651Y-69739962D01*
X192384419Y-69719750D01*
X192379203Y-69698926D01*
X192376053Y-69677691D01*
X192375000Y-69656250D01*
X192375000Y-69143750D01*
X192376053Y-69122309D01*
X192379203Y-69101074D01*
X192384419Y-69080250D01*
X192391651Y-69060038D01*
X192400830Y-69040632D01*
X192411866Y-69022219D01*
X192424654Y-69004976D01*
X192439070Y-68989070D01*
X192454976Y-68974654D01*
X192472219Y-68961866D01*
X192490632Y-68950830D01*
X192510038Y-68941651D01*
X192530250Y-68934419D01*
X192551074Y-68929203D01*
X192572309Y-68926053D01*
X192593750Y-68925000D01*
X193031250Y-68925000D01*
X193052691Y-68926053D01*
G37*
G36*
X181477691Y-87776053D02*
G01*
X181498926Y-87779203D01*
X181519750Y-87784419D01*
X181539962Y-87791651D01*
X181559368Y-87800830D01*
X181577781Y-87811866D01*
X181595024Y-87824654D01*
X181610930Y-87839070D01*
X181625346Y-87854976D01*
X181638134Y-87872219D01*
X181649170Y-87890632D01*
X181658349Y-87910038D01*
X181665581Y-87930250D01*
X181670797Y-87951074D01*
X181673947Y-87972309D01*
X181675000Y-87993750D01*
X181675000Y-88431250D01*
X181673947Y-88452691D01*
X181670797Y-88473926D01*
X181665581Y-88494750D01*
X181658349Y-88514962D01*
X181649170Y-88534368D01*
X181638134Y-88552781D01*
X181625346Y-88570024D01*
X181610930Y-88585930D01*
X181595024Y-88600346D01*
X181577781Y-88613134D01*
X181559368Y-88624170D01*
X181539962Y-88633349D01*
X181519750Y-88640581D01*
X181498926Y-88645797D01*
X181477691Y-88648947D01*
X181456250Y-88650000D01*
X180943750Y-88650000D01*
X180922309Y-88648947D01*
X180901074Y-88645797D01*
X180880250Y-88640581D01*
X180860038Y-88633349D01*
X180840632Y-88624170D01*
X180822219Y-88613134D01*
X180804976Y-88600346D01*
X180789070Y-88585930D01*
X180774654Y-88570024D01*
X180761866Y-88552781D01*
X180750830Y-88534368D01*
X180741651Y-88514962D01*
X180734419Y-88494750D01*
X180729203Y-88473926D01*
X180726053Y-88452691D01*
X180725000Y-88431250D01*
X180725000Y-87993750D01*
X180726053Y-87972309D01*
X180729203Y-87951074D01*
X180734419Y-87930250D01*
X180741651Y-87910038D01*
X180750830Y-87890632D01*
X180761866Y-87872219D01*
X180774654Y-87854976D01*
X180789070Y-87839070D01*
X180804976Y-87824654D01*
X180822219Y-87811866D01*
X180840632Y-87800830D01*
X180860038Y-87791651D01*
X180880250Y-87784419D01*
X180901074Y-87779203D01*
X180922309Y-87776053D01*
X180943750Y-87775000D01*
X181456250Y-87775000D01*
X181477691Y-87776053D01*
G37*
G36*
X181477691Y-89351053D02*
G01*
X181498926Y-89354203D01*
X181519750Y-89359419D01*
X181539962Y-89366651D01*
X181559368Y-89375830D01*
X181577781Y-89386866D01*
X181595024Y-89399654D01*
X181610930Y-89414070D01*
X181625346Y-89429976D01*
X181638134Y-89447219D01*
X181649170Y-89465632D01*
X181658349Y-89485038D01*
X181665581Y-89505250D01*
X181670797Y-89526074D01*
X181673947Y-89547309D01*
X181675000Y-89568750D01*
X181675000Y-90006250D01*
X181673947Y-90027691D01*
X181670797Y-90048926D01*
X181665581Y-90069750D01*
X181658349Y-90089962D01*
X181649170Y-90109368D01*
X181638134Y-90127781D01*
X181625346Y-90145024D01*
X181610930Y-90160930D01*
X181595024Y-90175346D01*
X181577781Y-90188134D01*
X181559368Y-90199170D01*
X181539962Y-90208349D01*
X181519750Y-90215581D01*
X181498926Y-90220797D01*
X181477691Y-90223947D01*
X181456250Y-90225000D01*
X180943750Y-90225000D01*
X180922309Y-90223947D01*
X180901074Y-90220797D01*
X180880250Y-90215581D01*
X180860038Y-90208349D01*
X180840632Y-90199170D01*
X180822219Y-90188134D01*
X180804976Y-90175346D01*
X180789070Y-90160930D01*
X180774654Y-90145024D01*
X180761866Y-90127781D01*
X180750830Y-90109368D01*
X180741651Y-90089962D01*
X180734419Y-90069750D01*
X180729203Y-90048926D01*
X180726053Y-90027691D01*
X180725000Y-90006250D01*
X180725000Y-89568750D01*
X180726053Y-89547309D01*
X180729203Y-89526074D01*
X180734419Y-89505250D01*
X180741651Y-89485038D01*
X180750830Y-89465632D01*
X180761866Y-89447219D01*
X180774654Y-89429976D01*
X180789070Y-89414070D01*
X180804976Y-89399654D01*
X180822219Y-89386866D01*
X180840632Y-89375830D01*
X180860038Y-89366651D01*
X180880250Y-89359419D01*
X180901074Y-89354203D01*
X180922309Y-89351053D01*
X180943750Y-89350000D01*
X181456250Y-89350000D01*
X181477691Y-89351053D01*
G37*
G36*
X187277691Y-98351053D02*
G01*
X187298926Y-98354203D01*
X187319750Y-98359419D01*
X187339962Y-98366651D01*
X187359368Y-98375830D01*
X187377781Y-98386866D01*
X187395024Y-98399654D01*
X187410930Y-98414070D01*
X187425346Y-98429976D01*
X187438134Y-98447219D01*
X187449170Y-98465632D01*
X187458349Y-98485038D01*
X187465581Y-98505250D01*
X187470797Y-98526074D01*
X187473947Y-98547309D01*
X187475000Y-98568750D01*
X187475000Y-99006250D01*
X187473947Y-99027691D01*
X187470797Y-99048926D01*
X187465581Y-99069750D01*
X187458349Y-99089962D01*
X187449170Y-99109368D01*
X187438134Y-99127781D01*
X187425346Y-99145024D01*
X187410930Y-99160930D01*
X187395024Y-99175346D01*
X187377781Y-99188134D01*
X187359368Y-99199170D01*
X187339962Y-99208349D01*
X187319750Y-99215581D01*
X187298926Y-99220797D01*
X187277691Y-99223947D01*
X187256250Y-99225000D01*
X186743750Y-99225000D01*
X186722309Y-99223947D01*
X186701074Y-99220797D01*
X186680250Y-99215581D01*
X186660038Y-99208349D01*
X186640632Y-99199170D01*
X186622219Y-99188134D01*
X186604976Y-99175346D01*
X186589070Y-99160930D01*
X186574654Y-99145024D01*
X186561866Y-99127781D01*
X186550830Y-99109368D01*
X186541651Y-99089962D01*
X186534419Y-99069750D01*
X186529203Y-99048926D01*
X186526053Y-99027691D01*
X186525000Y-99006250D01*
X186525000Y-98568750D01*
X186526053Y-98547309D01*
X186529203Y-98526074D01*
X186534419Y-98505250D01*
X186541651Y-98485038D01*
X186550830Y-98465632D01*
X186561866Y-98447219D01*
X186574654Y-98429976D01*
X186589070Y-98414070D01*
X186604976Y-98399654D01*
X186622219Y-98386866D01*
X186640632Y-98375830D01*
X186660038Y-98366651D01*
X186680250Y-98359419D01*
X186701074Y-98354203D01*
X186722309Y-98351053D01*
X186743750Y-98350000D01*
X187256250Y-98350000D01*
X187277691Y-98351053D01*
G37*
G36*
X187277691Y-96776053D02*
G01*
X187298926Y-96779203D01*
X187319750Y-96784419D01*
X187339962Y-96791651D01*
X187359368Y-96800830D01*
X187377781Y-96811866D01*
X187395024Y-96824654D01*
X187410930Y-96839070D01*
X187425346Y-96854976D01*
X187438134Y-96872219D01*
X187449170Y-96890632D01*
X187458349Y-96910038D01*
X187465581Y-96930250D01*
X187470797Y-96951074D01*
X187473947Y-96972309D01*
X187475000Y-96993750D01*
X187475000Y-97431250D01*
X187473947Y-97452691D01*
X187470797Y-97473926D01*
X187465581Y-97494750D01*
X187458349Y-97514962D01*
X187449170Y-97534368D01*
X187438134Y-97552781D01*
X187425346Y-97570024D01*
X187410930Y-97585930D01*
X187395024Y-97600346D01*
X187377781Y-97613134D01*
X187359368Y-97624170D01*
X187339962Y-97633349D01*
X187319750Y-97640581D01*
X187298926Y-97645797D01*
X187277691Y-97648947D01*
X187256250Y-97650000D01*
X186743750Y-97650000D01*
X186722309Y-97648947D01*
X186701074Y-97645797D01*
X186680250Y-97640581D01*
X186660038Y-97633349D01*
X186640632Y-97624170D01*
X186622219Y-97613134D01*
X186604976Y-97600346D01*
X186589070Y-97585930D01*
X186574654Y-97570024D01*
X186561866Y-97552781D01*
X186550830Y-97534368D01*
X186541651Y-97514962D01*
X186534419Y-97494750D01*
X186529203Y-97473926D01*
X186526053Y-97452691D01*
X186525000Y-97431250D01*
X186525000Y-96993750D01*
X186526053Y-96972309D01*
X186529203Y-96951074D01*
X186534419Y-96930250D01*
X186541651Y-96910038D01*
X186550830Y-96890632D01*
X186561866Y-96872219D01*
X186574654Y-96854976D01*
X186589070Y-96839070D01*
X186604976Y-96824654D01*
X186622219Y-96811866D01*
X186640632Y-96800830D01*
X186660038Y-96791651D01*
X186680250Y-96784419D01*
X186701074Y-96779203D01*
X186722309Y-96776053D01*
X186743750Y-96775000D01*
X187256250Y-96775000D01*
X187277691Y-96776053D01*
G37*
G36*
X187277691Y-93776053D02*
G01*
X187298926Y-93779203D01*
X187319750Y-93784419D01*
X187339962Y-93791651D01*
X187359368Y-93800830D01*
X187377781Y-93811866D01*
X187395024Y-93824654D01*
X187410930Y-93839070D01*
X187425346Y-93854976D01*
X187438134Y-93872219D01*
X187449170Y-93890632D01*
X187458349Y-93910038D01*
X187465581Y-93930250D01*
X187470797Y-93951074D01*
X187473947Y-93972309D01*
X187475000Y-93993750D01*
X187475000Y-94431250D01*
X187473947Y-94452691D01*
X187470797Y-94473926D01*
X187465581Y-94494750D01*
X187458349Y-94514962D01*
X187449170Y-94534368D01*
X187438134Y-94552781D01*
X187425346Y-94570024D01*
X187410930Y-94585930D01*
X187395024Y-94600346D01*
X187377781Y-94613134D01*
X187359368Y-94624170D01*
X187339962Y-94633349D01*
X187319750Y-94640581D01*
X187298926Y-94645797D01*
X187277691Y-94648947D01*
X187256250Y-94650000D01*
X186743750Y-94650000D01*
X186722309Y-94648947D01*
X186701074Y-94645797D01*
X186680250Y-94640581D01*
X186660038Y-94633349D01*
X186640632Y-94624170D01*
X186622219Y-94613134D01*
X186604976Y-94600346D01*
X186589070Y-94585930D01*
X186574654Y-94570024D01*
X186561866Y-94552781D01*
X186550830Y-94534368D01*
X186541651Y-94514962D01*
X186534419Y-94494750D01*
X186529203Y-94473926D01*
X186526053Y-94452691D01*
X186525000Y-94431250D01*
X186525000Y-93993750D01*
X186526053Y-93972309D01*
X186529203Y-93951074D01*
X186534419Y-93930250D01*
X186541651Y-93910038D01*
X186550830Y-93890632D01*
X186561866Y-93872219D01*
X186574654Y-93854976D01*
X186589070Y-93839070D01*
X186604976Y-93824654D01*
X186622219Y-93811866D01*
X186640632Y-93800830D01*
X186660038Y-93791651D01*
X186680250Y-93784419D01*
X186701074Y-93779203D01*
X186722309Y-93776053D01*
X186743750Y-93775000D01*
X187256250Y-93775000D01*
X187277691Y-93776053D01*
G37*
G36*
X187277691Y-95351053D02*
G01*
X187298926Y-95354203D01*
X187319750Y-95359419D01*
X187339962Y-95366651D01*
X187359368Y-95375830D01*
X187377781Y-95386866D01*
X187395024Y-95399654D01*
X187410930Y-95414070D01*
X187425346Y-95429976D01*
X187438134Y-95447219D01*
X187449170Y-95465632D01*
X187458349Y-95485038D01*
X187465581Y-95505250D01*
X187470797Y-95526074D01*
X187473947Y-95547309D01*
X187475000Y-95568750D01*
X187475000Y-96006250D01*
X187473947Y-96027691D01*
X187470797Y-96048926D01*
X187465581Y-96069750D01*
X187458349Y-96089962D01*
X187449170Y-96109368D01*
X187438134Y-96127781D01*
X187425346Y-96145024D01*
X187410930Y-96160930D01*
X187395024Y-96175346D01*
X187377781Y-96188134D01*
X187359368Y-96199170D01*
X187339962Y-96208349D01*
X187319750Y-96215581D01*
X187298926Y-96220797D01*
X187277691Y-96223947D01*
X187256250Y-96225000D01*
X186743750Y-96225000D01*
X186722309Y-96223947D01*
X186701074Y-96220797D01*
X186680250Y-96215581D01*
X186660038Y-96208349D01*
X186640632Y-96199170D01*
X186622219Y-96188134D01*
X186604976Y-96175346D01*
X186589070Y-96160930D01*
X186574654Y-96145024D01*
X186561866Y-96127781D01*
X186550830Y-96109368D01*
X186541651Y-96089962D01*
X186534419Y-96069750D01*
X186529203Y-96048926D01*
X186526053Y-96027691D01*
X186525000Y-96006250D01*
X186525000Y-95568750D01*
X186526053Y-95547309D01*
X186529203Y-95526074D01*
X186534419Y-95505250D01*
X186541651Y-95485038D01*
X186550830Y-95465632D01*
X186561866Y-95447219D01*
X186574654Y-95429976D01*
X186589070Y-95414070D01*
X186604976Y-95399654D01*
X186622219Y-95386866D01*
X186640632Y-95375830D01*
X186660038Y-95366651D01*
X186680250Y-95359419D01*
X186701074Y-95354203D01*
X186722309Y-95351053D01*
X186743750Y-95350000D01*
X187256250Y-95350000D01*
X187277691Y-95351053D01*
G37*
G36*
X184877691Y-87776053D02*
G01*
X184898926Y-87779203D01*
X184919750Y-87784419D01*
X184939962Y-87791651D01*
X184959368Y-87800830D01*
X184977781Y-87811866D01*
X184995024Y-87824654D01*
X185010930Y-87839070D01*
X185025346Y-87854976D01*
X185038134Y-87872219D01*
X185049170Y-87890632D01*
X185058349Y-87910038D01*
X185065581Y-87930250D01*
X185070797Y-87951074D01*
X185073947Y-87972309D01*
X185075000Y-87993750D01*
X185075000Y-88431250D01*
X185073947Y-88452691D01*
X185070797Y-88473926D01*
X185065581Y-88494750D01*
X185058349Y-88514962D01*
X185049170Y-88534368D01*
X185038134Y-88552781D01*
X185025346Y-88570024D01*
X185010930Y-88585930D01*
X184995024Y-88600346D01*
X184977781Y-88613134D01*
X184959368Y-88624170D01*
X184939962Y-88633349D01*
X184919750Y-88640581D01*
X184898926Y-88645797D01*
X184877691Y-88648947D01*
X184856250Y-88650000D01*
X184343750Y-88650000D01*
X184322309Y-88648947D01*
X184301074Y-88645797D01*
X184280250Y-88640581D01*
X184260038Y-88633349D01*
X184240632Y-88624170D01*
X184222219Y-88613134D01*
X184204976Y-88600346D01*
X184189070Y-88585930D01*
X184174654Y-88570024D01*
X184161866Y-88552781D01*
X184150830Y-88534368D01*
X184141651Y-88514962D01*
X184134419Y-88494750D01*
X184129203Y-88473926D01*
X184126053Y-88452691D01*
X184125000Y-88431250D01*
X184125000Y-87993750D01*
X184126053Y-87972309D01*
X184129203Y-87951074D01*
X184134419Y-87930250D01*
X184141651Y-87910038D01*
X184150830Y-87890632D01*
X184161866Y-87872219D01*
X184174654Y-87854976D01*
X184189070Y-87839070D01*
X184204976Y-87824654D01*
X184222219Y-87811866D01*
X184240632Y-87800830D01*
X184260038Y-87791651D01*
X184280250Y-87784419D01*
X184301074Y-87779203D01*
X184322309Y-87776053D01*
X184343750Y-87775000D01*
X184856250Y-87775000D01*
X184877691Y-87776053D01*
G37*
G36*
X184877691Y-89351053D02*
G01*
X184898926Y-89354203D01*
X184919750Y-89359419D01*
X184939962Y-89366651D01*
X184959368Y-89375830D01*
X184977781Y-89386866D01*
X184995024Y-89399654D01*
X185010930Y-89414070D01*
X185025346Y-89429976D01*
X185038134Y-89447219D01*
X185049170Y-89465632D01*
X185058349Y-89485038D01*
X185065581Y-89505250D01*
X185070797Y-89526074D01*
X185073947Y-89547309D01*
X185075000Y-89568750D01*
X185075000Y-90006250D01*
X185073947Y-90027691D01*
X185070797Y-90048926D01*
X185065581Y-90069750D01*
X185058349Y-90089962D01*
X185049170Y-90109368D01*
X185038134Y-90127781D01*
X185025346Y-90145024D01*
X185010930Y-90160930D01*
X184995024Y-90175346D01*
X184977781Y-90188134D01*
X184959368Y-90199170D01*
X184939962Y-90208349D01*
X184919750Y-90215581D01*
X184898926Y-90220797D01*
X184877691Y-90223947D01*
X184856250Y-90225000D01*
X184343750Y-90225000D01*
X184322309Y-90223947D01*
X184301074Y-90220797D01*
X184280250Y-90215581D01*
X184260038Y-90208349D01*
X184240632Y-90199170D01*
X184222219Y-90188134D01*
X184204976Y-90175346D01*
X184189070Y-90160930D01*
X184174654Y-90145024D01*
X184161866Y-90127781D01*
X184150830Y-90109368D01*
X184141651Y-90089962D01*
X184134419Y-90069750D01*
X184129203Y-90048926D01*
X184126053Y-90027691D01*
X184125000Y-90006250D01*
X184125000Y-89568750D01*
X184126053Y-89547309D01*
X184129203Y-89526074D01*
X184134419Y-89505250D01*
X184141651Y-89485038D01*
X184150830Y-89465632D01*
X184161866Y-89447219D01*
X184174654Y-89429976D01*
X184189070Y-89414070D01*
X184204976Y-89399654D01*
X184222219Y-89386866D01*
X184240632Y-89375830D01*
X184260038Y-89366651D01*
X184280250Y-89359419D01*
X184301074Y-89354203D01*
X184322309Y-89351053D01*
X184343750Y-89350000D01*
X184856250Y-89350000D01*
X184877691Y-89351053D01*
G37*
G36*
X179677691Y-90976053D02*
G01*
X179698926Y-90979203D01*
X179719750Y-90984419D01*
X179739962Y-90991651D01*
X179759368Y-91000830D01*
X179777781Y-91011866D01*
X179795024Y-91024654D01*
X179810930Y-91039070D01*
X179825346Y-91054976D01*
X179838134Y-91072219D01*
X179849170Y-91090632D01*
X179858349Y-91110038D01*
X179865581Y-91130250D01*
X179870797Y-91151074D01*
X179873947Y-91172309D01*
X179875000Y-91193750D01*
X179875000Y-91631250D01*
X179873947Y-91652691D01*
X179870797Y-91673926D01*
X179865581Y-91694750D01*
X179858349Y-91714962D01*
X179849170Y-91734368D01*
X179838134Y-91752781D01*
X179825346Y-91770024D01*
X179810930Y-91785930D01*
X179795024Y-91800346D01*
X179777781Y-91813134D01*
X179759368Y-91824170D01*
X179739962Y-91833349D01*
X179719750Y-91840581D01*
X179698926Y-91845797D01*
X179677691Y-91848947D01*
X179656250Y-91850000D01*
X179143750Y-91850000D01*
X179122309Y-91848947D01*
X179101074Y-91845797D01*
X179080250Y-91840581D01*
X179060038Y-91833349D01*
X179040632Y-91824170D01*
X179022219Y-91813134D01*
X179004976Y-91800346D01*
X178989070Y-91785930D01*
X178974654Y-91770024D01*
X178961866Y-91752781D01*
X178950830Y-91734368D01*
X178941651Y-91714962D01*
X178934419Y-91694750D01*
X178929203Y-91673926D01*
X178926053Y-91652691D01*
X178925000Y-91631250D01*
X178925000Y-91193750D01*
X178926053Y-91172309D01*
X178929203Y-91151074D01*
X178934419Y-91130250D01*
X178941651Y-91110038D01*
X178950830Y-91090632D01*
X178961866Y-91072219D01*
X178974654Y-91054976D01*
X178989070Y-91039070D01*
X179004976Y-91024654D01*
X179022219Y-91011866D01*
X179040632Y-91000830D01*
X179060038Y-90991651D01*
X179080250Y-90984419D01*
X179101074Y-90979203D01*
X179122309Y-90976053D01*
X179143750Y-90975000D01*
X179656250Y-90975000D01*
X179677691Y-90976053D01*
G37*
G36*
X179677691Y-92551053D02*
G01*
X179698926Y-92554203D01*
X179719750Y-92559419D01*
X179739962Y-92566651D01*
X179759368Y-92575830D01*
X179777781Y-92586866D01*
X179795024Y-92599654D01*
X179810930Y-92614070D01*
X179825346Y-92629976D01*
X179838134Y-92647219D01*
X179849170Y-92665632D01*
X179858349Y-92685038D01*
X179865581Y-92705250D01*
X179870797Y-92726074D01*
X179873947Y-92747309D01*
X179875000Y-92768750D01*
X179875000Y-93206250D01*
X179873947Y-93227691D01*
X179870797Y-93248926D01*
X179865581Y-93269750D01*
X179858349Y-93289962D01*
X179849170Y-93309368D01*
X179838134Y-93327781D01*
X179825346Y-93345024D01*
X179810930Y-93360930D01*
X179795024Y-93375346D01*
X179777781Y-93388134D01*
X179759368Y-93399170D01*
X179739962Y-93408349D01*
X179719750Y-93415581D01*
X179698926Y-93420797D01*
X179677691Y-93423947D01*
X179656250Y-93425000D01*
X179143750Y-93425000D01*
X179122309Y-93423947D01*
X179101074Y-93420797D01*
X179080250Y-93415581D01*
X179060038Y-93408349D01*
X179040632Y-93399170D01*
X179022219Y-93388134D01*
X179004976Y-93375346D01*
X178989070Y-93360930D01*
X178974654Y-93345024D01*
X178961866Y-93327781D01*
X178950830Y-93309368D01*
X178941651Y-93289962D01*
X178934419Y-93269750D01*
X178929203Y-93248926D01*
X178926053Y-93227691D01*
X178925000Y-93206250D01*
X178925000Y-92768750D01*
X178926053Y-92747309D01*
X178929203Y-92726074D01*
X178934419Y-92705250D01*
X178941651Y-92685038D01*
X178950830Y-92665632D01*
X178961866Y-92647219D01*
X178974654Y-92629976D01*
X178989070Y-92614070D01*
X179004976Y-92599654D01*
X179022219Y-92586866D01*
X179040632Y-92575830D01*
X179060038Y-92566651D01*
X179080250Y-92559419D01*
X179101074Y-92554203D01*
X179122309Y-92551053D01*
X179143750Y-92550000D01*
X179656250Y-92550000D01*
X179677691Y-92551053D01*
G37*
G36*
X156702691Y-72026053D02*
G01*
X156723926Y-72029203D01*
X156744750Y-72034419D01*
X156764962Y-72041651D01*
X156784368Y-72050830D01*
X156802781Y-72061866D01*
X156820024Y-72074654D01*
X156835930Y-72089070D01*
X156850346Y-72104976D01*
X156863134Y-72122219D01*
X156874170Y-72140632D01*
X156883349Y-72160038D01*
X156890581Y-72180250D01*
X156895797Y-72201074D01*
X156898947Y-72222309D01*
X156900000Y-72243750D01*
X156900000Y-72756250D01*
X156898947Y-72777691D01*
X156895797Y-72798926D01*
X156890581Y-72819750D01*
X156883349Y-72839962D01*
X156874170Y-72859368D01*
X156863134Y-72877781D01*
X156850346Y-72895024D01*
X156835930Y-72910930D01*
X156820024Y-72925346D01*
X156802781Y-72938134D01*
X156784368Y-72949170D01*
X156764962Y-72958349D01*
X156744750Y-72965581D01*
X156723926Y-72970797D01*
X156702691Y-72973947D01*
X156681250Y-72975000D01*
X156243750Y-72975000D01*
X156222309Y-72973947D01*
X156201074Y-72970797D01*
X156180250Y-72965581D01*
X156160038Y-72958349D01*
X156140632Y-72949170D01*
X156122219Y-72938134D01*
X156104976Y-72925346D01*
X156089070Y-72910930D01*
X156074654Y-72895024D01*
X156061866Y-72877781D01*
X156050830Y-72859368D01*
X156041651Y-72839962D01*
X156034419Y-72819750D01*
X156029203Y-72798926D01*
X156026053Y-72777691D01*
X156025000Y-72756250D01*
X156025000Y-72243750D01*
X156026053Y-72222309D01*
X156029203Y-72201074D01*
X156034419Y-72180250D01*
X156041651Y-72160038D01*
X156050830Y-72140632D01*
X156061866Y-72122219D01*
X156074654Y-72104976D01*
X156089070Y-72089070D01*
X156104976Y-72074654D01*
X156122219Y-72061866D01*
X156140632Y-72050830D01*
X156160038Y-72041651D01*
X156180250Y-72034419D01*
X156201074Y-72029203D01*
X156222309Y-72026053D01*
X156243750Y-72025000D01*
X156681250Y-72025000D01*
X156702691Y-72026053D01*
G37*
G36*
X158277691Y-72026053D02*
G01*
X158298926Y-72029203D01*
X158319750Y-72034419D01*
X158339962Y-72041651D01*
X158359368Y-72050830D01*
X158377781Y-72061866D01*
X158395024Y-72074654D01*
X158410930Y-72089070D01*
X158425346Y-72104976D01*
X158438134Y-72122219D01*
X158449170Y-72140632D01*
X158458349Y-72160038D01*
X158465581Y-72180250D01*
X158470797Y-72201074D01*
X158473947Y-72222309D01*
X158475000Y-72243750D01*
X158475000Y-72756250D01*
X158473947Y-72777691D01*
X158470797Y-72798926D01*
X158465581Y-72819750D01*
X158458349Y-72839962D01*
X158449170Y-72859368D01*
X158438134Y-72877781D01*
X158425346Y-72895024D01*
X158410930Y-72910930D01*
X158395024Y-72925346D01*
X158377781Y-72938134D01*
X158359368Y-72949170D01*
X158339962Y-72958349D01*
X158319750Y-72965581D01*
X158298926Y-72970797D01*
X158277691Y-72973947D01*
X158256250Y-72975000D01*
X157818750Y-72975000D01*
X157797309Y-72973947D01*
X157776074Y-72970797D01*
X157755250Y-72965581D01*
X157735038Y-72958349D01*
X157715632Y-72949170D01*
X157697219Y-72938134D01*
X157679976Y-72925346D01*
X157664070Y-72910930D01*
X157649654Y-72895024D01*
X157636866Y-72877781D01*
X157625830Y-72859368D01*
X157616651Y-72839962D01*
X157609419Y-72819750D01*
X157604203Y-72798926D01*
X157601053Y-72777691D01*
X157600000Y-72756250D01*
X157600000Y-72243750D01*
X157601053Y-72222309D01*
X157604203Y-72201074D01*
X157609419Y-72180250D01*
X157616651Y-72160038D01*
X157625830Y-72140632D01*
X157636866Y-72122219D01*
X157649654Y-72104976D01*
X157664070Y-72089070D01*
X157679976Y-72074654D01*
X157697219Y-72061866D01*
X157715632Y-72050830D01*
X157735038Y-72041651D01*
X157755250Y-72034419D01*
X157776074Y-72029203D01*
X157797309Y-72026053D01*
X157818750Y-72025000D01*
X158256250Y-72025000D01*
X158277691Y-72026053D01*
G37*
G36*
X163402691Y-98036053D02*
G01*
X163423926Y-98039203D01*
X163444750Y-98044419D01*
X163464962Y-98051651D01*
X163484368Y-98060830D01*
X163502781Y-98071866D01*
X163520024Y-98084654D01*
X163535930Y-98099070D01*
X163550346Y-98114976D01*
X163563134Y-98132219D01*
X163574170Y-98150632D01*
X163583349Y-98170038D01*
X163590581Y-98190250D01*
X163595797Y-98211074D01*
X163598947Y-98232309D01*
X163600000Y-98253750D01*
X163600000Y-98766250D01*
X163598947Y-98787691D01*
X163595797Y-98808926D01*
X163590581Y-98829750D01*
X163583349Y-98849962D01*
X163574170Y-98869368D01*
X163563134Y-98887781D01*
X163550346Y-98905024D01*
X163535930Y-98920930D01*
X163520024Y-98935346D01*
X163502781Y-98948134D01*
X163484368Y-98959170D01*
X163464962Y-98968349D01*
X163444750Y-98975581D01*
X163423926Y-98980797D01*
X163402691Y-98983947D01*
X163381250Y-98985000D01*
X162943750Y-98985000D01*
X162922309Y-98983947D01*
X162901074Y-98980797D01*
X162880250Y-98975581D01*
X162860038Y-98968349D01*
X162840632Y-98959170D01*
X162822219Y-98948134D01*
X162804976Y-98935346D01*
X162789070Y-98920930D01*
X162774654Y-98905024D01*
X162761866Y-98887781D01*
X162750830Y-98869368D01*
X162741651Y-98849962D01*
X162734419Y-98829750D01*
X162729203Y-98808926D01*
X162726053Y-98787691D01*
X162725000Y-98766250D01*
X162725000Y-98253750D01*
X162726053Y-98232309D01*
X162729203Y-98211074D01*
X162734419Y-98190250D01*
X162741651Y-98170038D01*
X162750830Y-98150632D01*
X162761866Y-98132219D01*
X162774654Y-98114976D01*
X162789070Y-98099070D01*
X162804976Y-98084654D01*
X162822219Y-98071866D01*
X162840632Y-98060830D01*
X162860038Y-98051651D01*
X162880250Y-98044419D01*
X162901074Y-98039203D01*
X162922309Y-98036053D01*
X162943750Y-98035000D01*
X163381250Y-98035000D01*
X163402691Y-98036053D01*
G37*
G36*
X164977691Y-98036053D02*
G01*
X164998926Y-98039203D01*
X165019750Y-98044419D01*
X165039962Y-98051651D01*
X165059368Y-98060830D01*
X165077781Y-98071866D01*
X165095024Y-98084654D01*
X165110930Y-98099070D01*
X165125346Y-98114976D01*
X165138134Y-98132219D01*
X165149170Y-98150632D01*
X165158349Y-98170038D01*
X165165581Y-98190250D01*
X165170797Y-98211074D01*
X165173947Y-98232309D01*
X165175000Y-98253750D01*
X165175000Y-98766250D01*
X165173947Y-98787691D01*
X165170797Y-98808926D01*
X165165581Y-98829750D01*
X165158349Y-98849962D01*
X165149170Y-98869368D01*
X165138134Y-98887781D01*
X165125346Y-98905024D01*
X165110930Y-98920930D01*
X165095024Y-98935346D01*
X165077781Y-98948134D01*
X165059368Y-98959170D01*
X165039962Y-98968349D01*
X165019750Y-98975581D01*
X164998926Y-98980797D01*
X164977691Y-98983947D01*
X164956250Y-98985000D01*
X164518750Y-98985000D01*
X164497309Y-98983947D01*
X164476074Y-98980797D01*
X164455250Y-98975581D01*
X164435038Y-98968349D01*
X164415632Y-98959170D01*
X164397219Y-98948134D01*
X164379976Y-98935346D01*
X164364070Y-98920930D01*
X164349654Y-98905024D01*
X164336866Y-98887781D01*
X164325830Y-98869368D01*
X164316651Y-98849962D01*
X164309419Y-98829750D01*
X164304203Y-98808926D01*
X164301053Y-98787691D01*
X164300000Y-98766250D01*
X164300000Y-98253750D01*
X164301053Y-98232309D01*
X164304203Y-98211074D01*
X164309419Y-98190250D01*
X164316651Y-98170038D01*
X164325830Y-98150632D01*
X164336866Y-98132219D01*
X164349654Y-98114976D01*
X164364070Y-98099070D01*
X164379976Y-98084654D01*
X164397219Y-98071866D01*
X164415632Y-98060830D01*
X164435038Y-98051651D01*
X164455250Y-98044419D01*
X164476074Y-98039203D01*
X164497309Y-98036053D01*
X164518750Y-98035000D01*
X164956250Y-98035000D01*
X164977691Y-98036053D01*
G37*
G36*
X164997691Y-96356053D02*
G01*
X165018926Y-96359203D01*
X165039750Y-96364419D01*
X165059962Y-96371651D01*
X165079368Y-96380830D01*
X165097781Y-96391866D01*
X165115024Y-96404654D01*
X165130930Y-96419070D01*
X165145346Y-96434976D01*
X165158134Y-96452219D01*
X165169170Y-96470632D01*
X165178349Y-96490038D01*
X165185581Y-96510250D01*
X165190797Y-96531074D01*
X165193947Y-96552309D01*
X165195000Y-96573750D01*
X165195000Y-97086250D01*
X165193947Y-97107691D01*
X165190797Y-97128926D01*
X165185581Y-97149750D01*
X165178349Y-97169962D01*
X165169170Y-97189368D01*
X165158134Y-97207781D01*
X165145346Y-97225024D01*
X165130930Y-97240930D01*
X165115024Y-97255346D01*
X165097781Y-97268134D01*
X165079368Y-97279170D01*
X165059962Y-97288349D01*
X165039750Y-97295581D01*
X165018926Y-97300797D01*
X164997691Y-97303947D01*
X164976250Y-97305000D01*
X164538750Y-97305000D01*
X164517309Y-97303947D01*
X164496074Y-97300797D01*
X164475250Y-97295581D01*
X164455038Y-97288349D01*
X164435632Y-97279170D01*
X164417219Y-97268134D01*
X164399976Y-97255346D01*
X164384070Y-97240930D01*
X164369654Y-97225024D01*
X164356866Y-97207781D01*
X164345830Y-97189368D01*
X164336651Y-97169962D01*
X164329419Y-97149750D01*
X164324203Y-97128926D01*
X164321053Y-97107691D01*
X164320000Y-97086250D01*
X164320000Y-96573750D01*
X164321053Y-96552309D01*
X164324203Y-96531074D01*
X164329419Y-96510250D01*
X164336651Y-96490038D01*
X164345830Y-96470632D01*
X164356866Y-96452219D01*
X164369654Y-96434976D01*
X164384070Y-96419070D01*
X164399976Y-96404654D01*
X164417219Y-96391866D01*
X164435632Y-96380830D01*
X164455038Y-96371651D01*
X164475250Y-96364419D01*
X164496074Y-96359203D01*
X164517309Y-96356053D01*
X164538750Y-96355000D01*
X164976250Y-96355000D01*
X164997691Y-96356053D01*
G37*
G36*
X163422691Y-96356053D02*
G01*
X163443926Y-96359203D01*
X163464750Y-96364419D01*
X163484962Y-96371651D01*
X163504368Y-96380830D01*
X163522781Y-96391866D01*
X163540024Y-96404654D01*
X163555930Y-96419070D01*
X163570346Y-96434976D01*
X163583134Y-96452219D01*
X163594170Y-96470632D01*
X163603349Y-96490038D01*
X163610581Y-96510250D01*
X163615797Y-96531074D01*
X163618947Y-96552309D01*
X163620000Y-96573750D01*
X163620000Y-97086250D01*
X163618947Y-97107691D01*
X163615797Y-97128926D01*
X163610581Y-97149750D01*
X163603349Y-97169962D01*
X163594170Y-97189368D01*
X163583134Y-97207781D01*
X163570346Y-97225024D01*
X163555930Y-97240930D01*
X163540024Y-97255346D01*
X163522781Y-97268134D01*
X163504368Y-97279170D01*
X163484962Y-97288349D01*
X163464750Y-97295581D01*
X163443926Y-97300797D01*
X163422691Y-97303947D01*
X163401250Y-97305000D01*
X162963750Y-97305000D01*
X162942309Y-97303947D01*
X162921074Y-97300797D01*
X162900250Y-97295581D01*
X162880038Y-97288349D01*
X162860632Y-97279170D01*
X162842219Y-97268134D01*
X162824976Y-97255346D01*
X162809070Y-97240930D01*
X162794654Y-97225024D01*
X162781866Y-97207781D01*
X162770830Y-97189368D01*
X162761651Y-97169962D01*
X162754419Y-97149750D01*
X162749203Y-97128926D01*
X162746053Y-97107691D01*
X162745000Y-97086250D01*
X162745000Y-96573750D01*
X162746053Y-96552309D01*
X162749203Y-96531074D01*
X162754419Y-96510250D01*
X162761651Y-96490038D01*
X162770830Y-96470632D01*
X162781866Y-96452219D01*
X162794654Y-96434976D01*
X162809070Y-96419070D01*
X162824976Y-96404654D01*
X162842219Y-96391866D01*
X162860632Y-96380830D01*
X162880038Y-96371651D01*
X162900250Y-96364419D01*
X162921074Y-96359203D01*
X162942309Y-96356053D01*
X162963750Y-96355000D01*
X163401250Y-96355000D01*
X163422691Y-96356053D01*
G37*
D21*
X190600000Y-68500000D03*
X188600000Y-69450000D03*
X188600000Y-67550000D03*
D13*
G36*
X191174505Y-65376204D02*
G01*
X191198773Y-65379804D01*
X191222572Y-65385765D01*
X191245671Y-65394030D01*
X191267850Y-65404520D01*
X191288893Y-65417132D01*
X191308599Y-65431747D01*
X191326777Y-65448223D01*
X191343253Y-65466401D01*
X191357868Y-65486107D01*
X191370480Y-65507150D01*
X191380970Y-65529329D01*
X191389235Y-65552428D01*
X191395196Y-65576227D01*
X191398796Y-65600495D01*
X191400000Y-65624999D01*
X191400000Y-66250001D01*
X191398796Y-66274505D01*
X191395196Y-66298773D01*
X191389235Y-66322572D01*
X191380970Y-66345671D01*
X191370480Y-66367850D01*
X191357868Y-66388893D01*
X191343253Y-66408599D01*
X191326777Y-66426777D01*
X191308599Y-66443253D01*
X191288893Y-66457868D01*
X191267850Y-66470480D01*
X191245671Y-66480970D01*
X191222572Y-66489235D01*
X191198773Y-66495196D01*
X191174505Y-66498796D01*
X191150001Y-66500000D01*
X188249999Y-66500000D01*
X188225495Y-66498796D01*
X188201227Y-66495196D01*
X188177428Y-66489235D01*
X188154329Y-66480970D01*
X188132150Y-66470480D01*
X188111107Y-66457868D01*
X188091401Y-66443253D01*
X188073223Y-66426777D01*
X188056747Y-66408599D01*
X188042132Y-66388893D01*
X188029520Y-66367850D01*
X188019030Y-66345671D01*
X188010765Y-66322572D01*
X188004804Y-66298773D01*
X188001204Y-66274505D01*
X188000000Y-66250001D01*
X188000000Y-65624999D01*
X188001204Y-65600495D01*
X188004804Y-65576227D01*
X188010765Y-65552428D01*
X188019030Y-65529329D01*
X188029520Y-65507150D01*
X188042132Y-65486107D01*
X188056747Y-65466401D01*
X188073223Y-65448223D01*
X188091401Y-65431747D01*
X188111107Y-65417132D01*
X188132150Y-65404520D01*
X188154329Y-65394030D01*
X188177428Y-65385765D01*
X188201227Y-65379804D01*
X188225495Y-65376204D01*
X188249999Y-65375000D01*
X191150001Y-65375000D01*
X191174505Y-65376204D01*
G37*
G36*
X191174505Y-61101204D02*
G01*
X191198773Y-61104804D01*
X191222572Y-61110765D01*
X191245671Y-61119030D01*
X191267850Y-61129520D01*
X191288893Y-61142132D01*
X191308599Y-61156747D01*
X191326777Y-61173223D01*
X191343253Y-61191401D01*
X191357868Y-61211107D01*
X191370480Y-61232150D01*
X191380970Y-61254329D01*
X191389235Y-61277428D01*
X191395196Y-61301227D01*
X191398796Y-61325495D01*
X191400000Y-61349999D01*
X191400000Y-61975001D01*
X191398796Y-61999505D01*
X191395196Y-62023773D01*
X191389235Y-62047572D01*
X191380970Y-62070671D01*
X191370480Y-62092850D01*
X191357868Y-62113893D01*
X191343253Y-62133599D01*
X191326777Y-62151777D01*
X191308599Y-62168253D01*
X191288893Y-62182868D01*
X191267850Y-62195480D01*
X191245671Y-62205970D01*
X191222572Y-62214235D01*
X191198773Y-62220196D01*
X191174505Y-62223796D01*
X191150001Y-62225000D01*
X188249999Y-62225000D01*
X188225495Y-62223796D01*
X188201227Y-62220196D01*
X188177428Y-62214235D01*
X188154329Y-62205970D01*
X188132150Y-62195480D01*
X188111107Y-62182868D01*
X188091401Y-62168253D01*
X188073223Y-62151777D01*
X188056747Y-62133599D01*
X188042132Y-62113893D01*
X188029520Y-62092850D01*
X188019030Y-62070671D01*
X188010765Y-62047572D01*
X188004804Y-62023773D01*
X188001204Y-61999505D01*
X188000000Y-61975001D01*
X188000000Y-61349999D01*
X188001204Y-61325495D01*
X188004804Y-61301227D01*
X188010765Y-61277428D01*
X188019030Y-61254329D01*
X188029520Y-61232150D01*
X188042132Y-61211107D01*
X188056747Y-61191401D01*
X188073223Y-61173223D01*
X188091401Y-61156747D01*
X188111107Y-61142132D01*
X188132150Y-61129520D01*
X188154329Y-61119030D01*
X188177428Y-61110765D01*
X188201227Y-61104804D01*
X188225495Y-61101204D01*
X188249999Y-61100000D01*
X191150001Y-61100000D01*
X191174505Y-61101204D01*
G37*
D22*
X176340000Y-97250000D03*
X167160000Y-97250000D03*
D13*
G36*
X193052691Y-66926053D02*
G01*
X193073926Y-66929203D01*
X193094750Y-66934419D01*
X193114962Y-66941651D01*
X193134368Y-66950830D01*
X193152781Y-66961866D01*
X193170024Y-66974654D01*
X193185930Y-66989070D01*
X193200346Y-67004976D01*
X193213134Y-67022219D01*
X193224170Y-67040632D01*
X193233349Y-67060038D01*
X193240581Y-67080250D01*
X193245797Y-67101074D01*
X193248947Y-67122309D01*
X193250000Y-67143750D01*
X193250000Y-67656250D01*
X193248947Y-67677691D01*
X193245797Y-67698926D01*
X193240581Y-67719750D01*
X193233349Y-67739962D01*
X193224170Y-67759368D01*
X193213134Y-67777781D01*
X193200346Y-67795024D01*
X193185930Y-67810930D01*
X193170024Y-67825346D01*
X193152781Y-67838134D01*
X193134368Y-67849170D01*
X193114962Y-67858349D01*
X193094750Y-67865581D01*
X193073926Y-67870797D01*
X193052691Y-67873947D01*
X193031250Y-67875000D01*
X192593750Y-67875000D01*
X192572309Y-67873947D01*
X192551074Y-67870797D01*
X192530250Y-67865581D01*
X192510038Y-67858349D01*
X192490632Y-67849170D01*
X192472219Y-67838134D01*
X192454976Y-67825346D01*
X192439070Y-67810930D01*
X192424654Y-67795024D01*
X192411866Y-67777781D01*
X192400830Y-67759368D01*
X192391651Y-67739962D01*
X192384419Y-67719750D01*
X192379203Y-67698926D01*
X192376053Y-67677691D01*
X192375000Y-67656250D01*
X192375000Y-67143750D01*
X192376053Y-67122309D01*
X192379203Y-67101074D01*
X192384419Y-67080250D01*
X192391651Y-67060038D01*
X192400830Y-67040632D01*
X192411866Y-67022219D01*
X192424654Y-67004976D01*
X192439070Y-66989070D01*
X192454976Y-66974654D01*
X192472219Y-66961866D01*
X192490632Y-66950830D01*
X192510038Y-66941651D01*
X192530250Y-66934419D01*
X192551074Y-66929203D01*
X192572309Y-66926053D01*
X192593750Y-66925000D01*
X193031250Y-66925000D01*
X193052691Y-66926053D01*
G37*
G36*
X194627691Y-66926053D02*
G01*
X194648926Y-66929203D01*
X194669750Y-66934419D01*
X194689962Y-66941651D01*
X194709368Y-66950830D01*
X194727781Y-66961866D01*
X194745024Y-66974654D01*
X194760930Y-66989070D01*
X194775346Y-67004976D01*
X194788134Y-67022219D01*
X194799170Y-67040632D01*
X194808349Y-67060038D01*
X194815581Y-67080250D01*
X194820797Y-67101074D01*
X194823947Y-67122309D01*
X194825000Y-67143750D01*
X194825000Y-67656250D01*
X194823947Y-67677691D01*
X194820797Y-67698926D01*
X194815581Y-67719750D01*
X194808349Y-67739962D01*
X194799170Y-67759368D01*
X194788134Y-67777781D01*
X194775346Y-67795024D01*
X194760930Y-67810930D01*
X194745024Y-67825346D01*
X194727781Y-67838134D01*
X194709368Y-67849170D01*
X194689962Y-67858349D01*
X194669750Y-67865581D01*
X194648926Y-67870797D01*
X194627691Y-67873947D01*
X194606250Y-67875000D01*
X194168750Y-67875000D01*
X194147309Y-67873947D01*
X194126074Y-67870797D01*
X194105250Y-67865581D01*
X194085038Y-67858349D01*
X194065632Y-67849170D01*
X194047219Y-67838134D01*
X194029976Y-67825346D01*
X194014070Y-67810930D01*
X193999654Y-67795024D01*
X193986866Y-67777781D01*
X193975830Y-67759368D01*
X193966651Y-67739962D01*
X193959419Y-67719750D01*
X193954203Y-67698926D01*
X193951053Y-67677691D01*
X193950000Y-67656250D01*
X193950000Y-67143750D01*
X193951053Y-67122309D01*
X193954203Y-67101074D01*
X193959419Y-67080250D01*
X193966651Y-67060038D01*
X193975830Y-67040632D01*
X193986866Y-67022219D01*
X193999654Y-67004976D01*
X194014070Y-66989070D01*
X194029976Y-66974654D01*
X194047219Y-66961866D01*
X194065632Y-66950830D01*
X194085038Y-66941651D01*
X194105250Y-66934419D01*
X194126074Y-66929203D01*
X194147309Y-66926053D01*
X194168750Y-66925000D01*
X194606250Y-66925000D01*
X194627691Y-66926053D01*
G37*
G36*
X194627691Y-65126053D02*
G01*
X194648926Y-65129203D01*
X194669750Y-65134419D01*
X194689962Y-65141651D01*
X194709368Y-65150830D01*
X194727781Y-65161866D01*
X194745024Y-65174654D01*
X194760930Y-65189070D01*
X194775346Y-65204976D01*
X194788134Y-65222219D01*
X194799170Y-65240632D01*
X194808349Y-65260038D01*
X194815581Y-65280250D01*
X194820797Y-65301074D01*
X194823947Y-65322309D01*
X194825000Y-65343750D01*
X194825000Y-65856250D01*
X194823947Y-65877691D01*
X194820797Y-65898926D01*
X194815581Y-65919750D01*
X194808349Y-65939962D01*
X194799170Y-65959368D01*
X194788134Y-65977781D01*
X194775346Y-65995024D01*
X194760930Y-66010930D01*
X194745024Y-66025346D01*
X194727781Y-66038134D01*
X194709368Y-66049170D01*
X194689962Y-66058349D01*
X194669750Y-66065581D01*
X194648926Y-66070797D01*
X194627691Y-66073947D01*
X194606250Y-66075000D01*
X194168750Y-66075000D01*
X194147309Y-66073947D01*
X194126074Y-66070797D01*
X194105250Y-66065581D01*
X194085038Y-66058349D01*
X194065632Y-66049170D01*
X194047219Y-66038134D01*
X194029976Y-66025346D01*
X194014070Y-66010930D01*
X193999654Y-65995024D01*
X193986866Y-65977781D01*
X193975830Y-65959368D01*
X193966651Y-65939962D01*
X193959419Y-65919750D01*
X193954203Y-65898926D01*
X193951053Y-65877691D01*
X193950000Y-65856250D01*
X193950000Y-65343750D01*
X193951053Y-65322309D01*
X193954203Y-65301074D01*
X193959419Y-65280250D01*
X193966651Y-65260038D01*
X193975830Y-65240632D01*
X193986866Y-65222219D01*
X193999654Y-65204976D01*
X194014070Y-65189070D01*
X194029976Y-65174654D01*
X194047219Y-65161866D01*
X194065632Y-65150830D01*
X194085038Y-65141651D01*
X194105250Y-65134419D01*
X194126074Y-65129203D01*
X194147309Y-65126053D01*
X194168750Y-65125000D01*
X194606250Y-65125000D01*
X194627691Y-65126053D01*
G37*
G36*
X193052691Y-65126053D02*
G01*
X193073926Y-65129203D01*
X193094750Y-65134419D01*
X193114962Y-65141651D01*
X193134368Y-65150830D01*
X193152781Y-65161866D01*
X193170024Y-65174654D01*
X193185930Y-65189070D01*
X193200346Y-65204976D01*
X193213134Y-65222219D01*
X193224170Y-65240632D01*
X193233349Y-65260038D01*
X193240581Y-65280250D01*
X193245797Y-65301074D01*
X193248947Y-65322309D01*
X193250000Y-65343750D01*
X193250000Y-65856250D01*
X193248947Y-65877691D01*
X193245797Y-65898926D01*
X193240581Y-65919750D01*
X193233349Y-65939962D01*
X193224170Y-65959368D01*
X193213134Y-65977781D01*
X193200346Y-65995024D01*
X193185930Y-66010930D01*
X193170024Y-66025346D01*
X193152781Y-66038134D01*
X193134368Y-66049170D01*
X193114962Y-66058349D01*
X193094750Y-66065581D01*
X193073926Y-66070797D01*
X193052691Y-66073947D01*
X193031250Y-66075000D01*
X192593750Y-66075000D01*
X192572309Y-66073947D01*
X192551074Y-66070797D01*
X192530250Y-66065581D01*
X192510038Y-66058349D01*
X192490632Y-66049170D01*
X192472219Y-66038134D01*
X192454976Y-66025346D01*
X192439070Y-66010930D01*
X192424654Y-65995024D01*
X192411866Y-65977781D01*
X192400830Y-65959368D01*
X192391651Y-65939962D01*
X192384419Y-65919750D01*
X192379203Y-65898926D01*
X192376053Y-65877691D01*
X192375000Y-65856250D01*
X192375000Y-65343750D01*
X192376053Y-65322309D01*
X192379203Y-65301074D01*
X192384419Y-65280250D01*
X192391651Y-65260038D01*
X192400830Y-65240632D01*
X192411866Y-65222219D01*
X192424654Y-65204976D01*
X192439070Y-65189070D01*
X192454976Y-65174654D01*
X192472219Y-65161866D01*
X192490632Y-65150830D01*
X192510038Y-65141651D01*
X192530250Y-65134419D01*
X192551074Y-65129203D01*
X192572309Y-65126053D01*
X192593750Y-65125000D01*
X193031250Y-65125000D01*
X193052691Y-65126053D01*
G37*
G36*
X185652691Y-65326053D02*
G01*
X185673926Y-65329203D01*
X185694750Y-65334419D01*
X185714962Y-65341651D01*
X185734368Y-65350830D01*
X185752781Y-65361866D01*
X185770024Y-65374654D01*
X185785930Y-65389070D01*
X185800346Y-65404976D01*
X185813134Y-65422219D01*
X185824170Y-65440632D01*
X185833349Y-65460038D01*
X185840581Y-65480250D01*
X185845797Y-65501074D01*
X185848947Y-65522309D01*
X185850000Y-65543750D01*
X185850000Y-66056250D01*
X185848947Y-66077691D01*
X185845797Y-66098926D01*
X185840581Y-66119750D01*
X185833349Y-66139962D01*
X185824170Y-66159368D01*
X185813134Y-66177781D01*
X185800346Y-66195024D01*
X185785930Y-66210930D01*
X185770024Y-66225346D01*
X185752781Y-66238134D01*
X185734368Y-66249170D01*
X185714962Y-66258349D01*
X185694750Y-66265581D01*
X185673926Y-66270797D01*
X185652691Y-66273947D01*
X185631250Y-66275000D01*
X185193750Y-66275000D01*
X185172309Y-66273947D01*
X185151074Y-66270797D01*
X185130250Y-66265581D01*
X185110038Y-66258349D01*
X185090632Y-66249170D01*
X185072219Y-66238134D01*
X185054976Y-66225346D01*
X185039070Y-66210930D01*
X185024654Y-66195024D01*
X185011866Y-66177781D01*
X185000830Y-66159368D01*
X184991651Y-66139962D01*
X184984419Y-66119750D01*
X184979203Y-66098926D01*
X184976053Y-66077691D01*
X184975000Y-66056250D01*
X184975000Y-65543750D01*
X184976053Y-65522309D01*
X184979203Y-65501074D01*
X184984419Y-65480250D01*
X184991651Y-65460038D01*
X185000830Y-65440632D01*
X185011866Y-65422219D01*
X185024654Y-65404976D01*
X185039070Y-65389070D01*
X185054976Y-65374654D01*
X185072219Y-65361866D01*
X185090632Y-65350830D01*
X185110038Y-65341651D01*
X185130250Y-65334419D01*
X185151074Y-65329203D01*
X185172309Y-65326053D01*
X185193750Y-65325000D01*
X185631250Y-65325000D01*
X185652691Y-65326053D01*
G37*
G36*
X187227691Y-65326053D02*
G01*
X187248926Y-65329203D01*
X187269750Y-65334419D01*
X187289962Y-65341651D01*
X187309368Y-65350830D01*
X187327781Y-65361866D01*
X187345024Y-65374654D01*
X187360930Y-65389070D01*
X187375346Y-65404976D01*
X187388134Y-65422219D01*
X187399170Y-65440632D01*
X187408349Y-65460038D01*
X187415581Y-65480250D01*
X187420797Y-65501074D01*
X187423947Y-65522309D01*
X187425000Y-65543750D01*
X187425000Y-66056250D01*
X187423947Y-66077691D01*
X187420797Y-66098926D01*
X187415581Y-66119750D01*
X187408349Y-66139962D01*
X187399170Y-66159368D01*
X187388134Y-66177781D01*
X187375346Y-66195024D01*
X187360930Y-66210930D01*
X187345024Y-66225346D01*
X187327781Y-66238134D01*
X187309368Y-66249170D01*
X187289962Y-66258349D01*
X187269750Y-66265581D01*
X187248926Y-66270797D01*
X187227691Y-66273947D01*
X187206250Y-66275000D01*
X186768750Y-66275000D01*
X186747309Y-66273947D01*
X186726074Y-66270797D01*
X186705250Y-66265581D01*
X186685038Y-66258349D01*
X186665632Y-66249170D01*
X186647219Y-66238134D01*
X186629976Y-66225346D01*
X186614070Y-66210930D01*
X186599654Y-66195024D01*
X186586866Y-66177781D01*
X186575830Y-66159368D01*
X186566651Y-66139962D01*
X186559419Y-66119750D01*
X186554203Y-66098926D01*
X186551053Y-66077691D01*
X186550000Y-66056250D01*
X186550000Y-65543750D01*
X186551053Y-65522309D01*
X186554203Y-65501074D01*
X186559419Y-65480250D01*
X186566651Y-65460038D01*
X186575830Y-65440632D01*
X186586866Y-65422219D01*
X186599654Y-65404976D01*
X186614070Y-65389070D01*
X186629976Y-65374654D01*
X186647219Y-65361866D01*
X186665632Y-65350830D01*
X186685038Y-65341651D01*
X186705250Y-65334419D01*
X186726074Y-65329203D01*
X186747309Y-65326053D01*
X186768750Y-65325000D01*
X187206250Y-65325000D01*
X187227691Y-65326053D01*
G37*
G36*
X189477691Y-96776053D02*
G01*
X189498926Y-96779203D01*
X189519750Y-96784419D01*
X189539962Y-96791651D01*
X189559368Y-96800830D01*
X189577781Y-96811866D01*
X189595024Y-96824654D01*
X189610930Y-96839070D01*
X189625346Y-96854976D01*
X189638134Y-96872219D01*
X189649170Y-96890632D01*
X189658349Y-96910038D01*
X189665581Y-96930250D01*
X189670797Y-96951074D01*
X189673947Y-96972309D01*
X189675000Y-96993750D01*
X189675000Y-97431250D01*
X189673947Y-97452691D01*
X189670797Y-97473926D01*
X189665581Y-97494750D01*
X189658349Y-97514962D01*
X189649170Y-97534368D01*
X189638134Y-97552781D01*
X189625346Y-97570024D01*
X189610930Y-97585930D01*
X189595024Y-97600346D01*
X189577781Y-97613134D01*
X189559368Y-97624170D01*
X189539962Y-97633349D01*
X189519750Y-97640581D01*
X189498926Y-97645797D01*
X189477691Y-97648947D01*
X189456250Y-97650000D01*
X188943750Y-97650000D01*
X188922309Y-97648947D01*
X188901074Y-97645797D01*
X188880250Y-97640581D01*
X188860038Y-97633349D01*
X188840632Y-97624170D01*
X188822219Y-97613134D01*
X188804976Y-97600346D01*
X188789070Y-97585930D01*
X188774654Y-97570024D01*
X188761866Y-97552781D01*
X188750830Y-97534368D01*
X188741651Y-97514962D01*
X188734419Y-97494750D01*
X188729203Y-97473926D01*
X188726053Y-97452691D01*
X188725000Y-97431250D01*
X188725000Y-96993750D01*
X188726053Y-96972309D01*
X188729203Y-96951074D01*
X188734419Y-96930250D01*
X188741651Y-96910038D01*
X188750830Y-96890632D01*
X188761866Y-96872219D01*
X188774654Y-96854976D01*
X188789070Y-96839070D01*
X188804976Y-96824654D01*
X188822219Y-96811866D01*
X188840632Y-96800830D01*
X188860038Y-96791651D01*
X188880250Y-96784419D01*
X188901074Y-96779203D01*
X188922309Y-96776053D01*
X188943750Y-96775000D01*
X189456250Y-96775000D01*
X189477691Y-96776053D01*
G37*
G36*
X189477691Y-98351053D02*
G01*
X189498926Y-98354203D01*
X189519750Y-98359419D01*
X189539962Y-98366651D01*
X189559368Y-98375830D01*
X189577781Y-98386866D01*
X189595024Y-98399654D01*
X189610930Y-98414070D01*
X189625346Y-98429976D01*
X189638134Y-98447219D01*
X189649170Y-98465632D01*
X189658349Y-98485038D01*
X189665581Y-98505250D01*
X189670797Y-98526074D01*
X189673947Y-98547309D01*
X189675000Y-98568750D01*
X189675000Y-99006250D01*
X189673947Y-99027691D01*
X189670797Y-99048926D01*
X189665581Y-99069750D01*
X189658349Y-99089962D01*
X189649170Y-99109368D01*
X189638134Y-99127781D01*
X189625346Y-99145024D01*
X189610930Y-99160930D01*
X189595024Y-99175346D01*
X189577781Y-99188134D01*
X189559368Y-99199170D01*
X189539962Y-99208349D01*
X189519750Y-99215581D01*
X189498926Y-99220797D01*
X189477691Y-99223947D01*
X189456250Y-99225000D01*
X188943750Y-99225000D01*
X188922309Y-99223947D01*
X188901074Y-99220797D01*
X188880250Y-99215581D01*
X188860038Y-99208349D01*
X188840632Y-99199170D01*
X188822219Y-99188134D01*
X188804976Y-99175346D01*
X188789070Y-99160930D01*
X188774654Y-99145024D01*
X188761866Y-99127781D01*
X188750830Y-99109368D01*
X188741651Y-99089962D01*
X188734419Y-99069750D01*
X188729203Y-99048926D01*
X188726053Y-99027691D01*
X188725000Y-99006250D01*
X188725000Y-98568750D01*
X188726053Y-98547309D01*
X188729203Y-98526074D01*
X188734419Y-98505250D01*
X188741651Y-98485038D01*
X188750830Y-98465632D01*
X188761866Y-98447219D01*
X188774654Y-98429976D01*
X188789070Y-98414070D01*
X188804976Y-98399654D01*
X188822219Y-98386866D01*
X188840632Y-98375830D01*
X188860038Y-98366651D01*
X188880250Y-98359419D01*
X188901074Y-98354203D01*
X188922309Y-98351053D01*
X188943750Y-98350000D01*
X189456250Y-98350000D01*
X189477691Y-98351053D01*
G37*
G36*
X189477691Y-95351053D02*
G01*
X189498926Y-95354203D01*
X189519750Y-95359419D01*
X189539962Y-95366651D01*
X189559368Y-95375830D01*
X189577781Y-95386866D01*
X189595024Y-95399654D01*
X189610930Y-95414070D01*
X189625346Y-95429976D01*
X189638134Y-95447219D01*
X189649170Y-95465632D01*
X189658349Y-95485038D01*
X189665581Y-95505250D01*
X189670797Y-95526074D01*
X189673947Y-95547309D01*
X189675000Y-95568750D01*
X189675000Y-96006250D01*
X189673947Y-96027691D01*
X189670797Y-96048926D01*
X189665581Y-96069750D01*
X189658349Y-96089962D01*
X189649170Y-96109368D01*
X189638134Y-96127781D01*
X189625346Y-96145024D01*
X189610930Y-96160930D01*
X189595024Y-96175346D01*
X189577781Y-96188134D01*
X189559368Y-96199170D01*
X189539962Y-96208349D01*
X189519750Y-96215581D01*
X189498926Y-96220797D01*
X189477691Y-96223947D01*
X189456250Y-96225000D01*
X188943750Y-96225000D01*
X188922309Y-96223947D01*
X188901074Y-96220797D01*
X188880250Y-96215581D01*
X188860038Y-96208349D01*
X188840632Y-96199170D01*
X188822219Y-96188134D01*
X188804976Y-96175346D01*
X188789070Y-96160930D01*
X188774654Y-96145024D01*
X188761866Y-96127781D01*
X188750830Y-96109368D01*
X188741651Y-96089962D01*
X188734419Y-96069750D01*
X188729203Y-96048926D01*
X188726053Y-96027691D01*
X188725000Y-96006250D01*
X188725000Y-95568750D01*
X188726053Y-95547309D01*
X188729203Y-95526074D01*
X188734419Y-95505250D01*
X188741651Y-95485038D01*
X188750830Y-95465632D01*
X188761866Y-95447219D01*
X188774654Y-95429976D01*
X188789070Y-95414070D01*
X188804976Y-95399654D01*
X188822219Y-95386866D01*
X188840632Y-95375830D01*
X188860038Y-95366651D01*
X188880250Y-95359419D01*
X188901074Y-95354203D01*
X188922309Y-95351053D01*
X188943750Y-95350000D01*
X189456250Y-95350000D01*
X189477691Y-95351053D01*
G37*
G36*
X189477691Y-93776053D02*
G01*
X189498926Y-93779203D01*
X189519750Y-93784419D01*
X189539962Y-93791651D01*
X189559368Y-93800830D01*
X189577781Y-93811866D01*
X189595024Y-93824654D01*
X189610930Y-93839070D01*
X189625346Y-93854976D01*
X189638134Y-93872219D01*
X189649170Y-93890632D01*
X189658349Y-93910038D01*
X189665581Y-93930250D01*
X189670797Y-93951074D01*
X189673947Y-93972309D01*
X189675000Y-93993750D01*
X189675000Y-94431250D01*
X189673947Y-94452691D01*
X189670797Y-94473926D01*
X189665581Y-94494750D01*
X189658349Y-94514962D01*
X189649170Y-94534368D01*
X189638134Y-94552781D01*
X189625346Y-94570024D01*
X189610930Y-94585930D01*
X189595024Y-94600346D01*
X189577781Y-94613134D01*
X189559368Y-94624170D01*
X189539962Y-94633349D01*
X189519750Y-94640581D01*
X189498926Y-94645797D01*
X189477691Y-94648947D01*
X189456250Y-94650000D01*
X188943750Y-94650000D01*
X188922309Y-94648947D01*
X188901074Y-94645797D01*
X188880250Y-94640581D01*
X188860038Y-94633349D01*
X188840632Y-94624170D01*
X188822219Y-94613134D01*
X188804976Y-94600346D01*
X188789070Y-94585930D01*
X188774654Y-94570024D01*
X188761866Y-94552781D01*
X188750830Y-94534368D01*
X188741651Y-94514962D01*
X188734419Y-94494750D01*
X188729203Y-94473926D01*
X188726053Y-94452691D01*
X188725000Y-94431250D01*
X188725000Y-93993750D01*
X188726053Y-93972309D01*
X188729203Y-93951074D01*
X188734419Y-93930250D01*
X188741651Y-93910038D01*
X188750830Y-93890632D01*
X188761866Y-93872219D01*
X188774654Y-93854976D01*
X188789070Y-93839070D01*
X188804976Y-93824654D01*
X188822219Y-93811866D01*
X188840632Y-93800830D01*
X188860038Y-93791651D01*
X188880250Y-93784419D01*
X188901074Y-93779203D01*
X188922309Y-93776053D01*
X188943750Y-93775000D01*
X189456250Y-93775000D01*
X189477691Y-93776053D01*
G37*
G36*
X181552691Y-81926053D02*
G01*
X181573926Y-81929203D01*
X181594750Y-81934419D01*
X181614962Y-81941651D01*
X181634368Y-81950830D01*
X181652781Y-81961866D01*
X181670024Y-81974654D01*
X181685930Y-81989070D01*
X181700346Y-82004976D01*
X181713134Y-82022219D01*
X181724170Y-82040632D01*
X181733349Y-82060038D01*
X181740581Y-82080250D01*
X181745797Y-82101074D01*
X181748947Y-82122309D01*
X181750000Y-82143750D01*
X181750000Y-82656250D01*
X181748947Y-82677691D01*
X181745797Y-82698926D01*
X181740581Y-82719750D01*
X181733349Y-82739962D01*
X181724170Y-82759368D01*
X181713134Y-82777781D01*
X181700346Y-82795024D01*
X181685930Y-82810930D01*
X181670024Y-82825346D01*
X181652781Y-82838134D01*
X181634368Y-82849170D01*
X181614962Y-82858349D01*
X181594750Y-82865581D01*
X181573926Y-82870797D01*
X181552691Y-82873947D01*
X181531250Y-82875000D01*
X181093750Y-82875000D01*
X181072309Y-82873947D01*
X181051074Y-82870797D01*
X181030250Y-82865581D01*
X181010038Y-82858349D01*
X180990632Y-82849170D01*
X180972219Y-82838134D01*
X180954976Y-82825346D01*
X180939070Y-82810930D01*
X180924654Y-82795024D01*
X180911866Y-82777781D01*
X180900830Y-82759368D01*
X180891651Y-82739962D01*
X180884419Y-82719750D01*
X180879203Y-82698926D01*
X180876053Y-82677691D01*
X180875000Y-82656250D01*
X180875000Y-82143750D01*
X180876053Y-82122309D01*
X180879203Y-82101074D01*
X180884419Y-82080250D01*
X180891651Y-82060038D01*
X180900830Y-82040632D01*
X180911866Y-82022219D01*
X180924654Y-82004976D01*
X180939070Y-81989070D01*
X180954976Y-81974654D01*
X180972219Y-81961866D01*
X180990632Y-81950830D01*
X181010038Y-81941651D01*
X181030250Y-81934419D01*
X181051074Y-81929203D01*
X181072309Y-81926053D01*
X181093750Y-81925000D01*
X181531250Y-81925000D01*
X181552691Y-81926053D01*
G37*
G36*
X183127691Y-81926053D02*
G01*
X183148926Y-81929203D01*
X183169750Y-81934419D01*
X183189962Y-81941651D01*
X183209368Y-81950830D01*
X183227781Y-81961866D01*
X183245024Y-81974654D01*
X183260930Y-81989070D01*
X183275346Y-82004976D01*
X183288134Y-82022219D01*
X183299170Y-82040632D01*
X183308349Y-82060038D01*
X183315581Y-82080250D01*
X183320797Y-82101074D01*
X183323947Y-82122309D01*
X183325000Y-82143750D01*
X183325000Y-82656250D01*
X183323947Y-82677691D01*
X183320797Y-82698926D01*
X183315581Y-82719750D01*
X183308349Y-82739962D01*
X183299170Y-82759368D01*
X183288134Y-82777781D01*
X183275346Y-82795024D01*
X183260930Y-82810930D01*
X183245024Y-82825346D01*
X183227781Y-82838134D01*
X183209368Y-82849170D01*
X183189962Y-82858349D01*
X183169750Y-82865581D01*
X183148926Y-82870797D01*
X183127691Y-82873947D01*
X183106250Y-82875000D01*
X182668750Y-82875000D01*
X182647309Y-82873947D01*
X182626074Y-82870797D01*
X182605250Y-82865581D01*
X182585038Y-82858349D01*
X182565632Y-82849170D01*
X182547219Y-82838134D01*
X182529976Y-82825346D01*
X182514070Y-82810930D01*
X182499654Y-82795024D01*
X182486866Y-82777781D01*
X182475830Y-82759368D01*
X182466651Y-82739962D01*
X182459419Y-82719750D01*
X182454203Y-82698926D01*
X182451053Y-82677691D01*
X182450000Y-82656250D01*
X182450000Y-82143750D01*
X182451053Y-82122309D01*
X182454203Y-82101074D01*
X182459419Y-82080250D01*
X182466651Y-82060038D01*
X182475830Y-82040632D01*
X182486866Y-82022219D01*
X182499654Y-82004976D01*
X182514070Y-81989070D01*
X182529976Y-81974654D01*
X182547219Y-81961866D01*
X182565632Y-81950830D01*
X182585038Y-81941651D01*
X182605250Y-81934419D01*
X182626074Y-81929203D01*
X182647309Y-81926053D01*
X182668750Y-81925000D01*
X183106250Y-81925000D01*
X183127691Y-81926053D01*
G37*
G36*
X181552691Y-72326053D02*
G01*
X181573926Y-72329203D01*
X181594750Y-72334419D01*
X181614962Y-72341651D01*
X181634368Y-72350830D01*
X181652781Y-72361866D01*
X181670024Y-72374654D01*
X181685930Y-72389070D01*
X181700346Y-72404976D01*
X181713134Y-72422219D01*
X181724170Y-72440632D01*
X181733349Y-72460038D01*
X181740581Y-72480250D01*
X181745797Y-72501074D01*
X181748947Y-72522309D01*
X181750000Y-72543750D01*
X181750000Y-73056250D01*
X181748947Y-73077691D01*
X181745797Y-73098926D01*
X181740581Y-73119750D01*
X181733349Y-73139962D01*
X181724170Y-73159368D01*
X181713134Y-73177781D01*
X181700346Y-73195024D01*
X181685930Y-73210930D01*
X181670024Y-73225346D01*
X181652781Y-73238134D01*
X181634368Y-73249170D01*
X181614962Y-73258349D01*
X181594750Y-73265581D01*
X181573926Y-73270797D01*
X181552691Y-73273947D01*
X181531250Y-73275000D01*
X181093750Y-73275000D01*
X181072309Y-73273947D01*
X181051074Y-73270797D01*
X181030250Y-73265581D01*
X181010038Y-73258349D01*
X180990632Y-73249170D01*
X180972219Y-73238134D01*
X180954976Y-73225346D01*
X180939070Y-73210930D01*
X180924654Y-73195024D01*
X180911866Y-73177781D01*
X180900830Y-73159368D01*
X180891651Y-73139962D01*
X180884419Y-73119750D01*
X180879203Y-73098926D01*
X180876053Y-73077691D01*
X180875000Y-73056250D01*
X180875000Y-72543750D01*
X180876053Y-72522309D01*
X180879203Y-72501074D01*
X180884419Y-72480250D01*
X180891651Y-72460038D01*
X180900830Y-72440632D01*
X180911866Y-72422219D01*
X180924654Y-72404976D01*
X180939070Y-72389070D01*
X180954976Y-72374654D01*
X180972219Y-72361866D01*
X180990632Y-72350830D01*
X181010038Y-72341651D01*
X181030250Y-72334419D01*
X181051074Y-72329203D01*
X181072309Y-72326053D01*
X181093750Y-72325000D01*
X181531250Y-72325000D01*
X181552691Y-72326053D01*
G37*
G36*
X183127691Y-72326053D02*
G01*
X183148926Y-72329203D01*
X183169750Y-72334419D01*
X183189962Y-72341651D01*
X183209368Y-72350830D01*
X183227781Y-72361866D01*
X183245024Y-72374654D01*
X183260930Y-72389070D01*
X183275346Y-72404976D01*
X183288134Y-72422219D01*
X183299170Y-72440632D01*
X183308349Y-72460038D01*
X183315581Y-72480250D01*
X183320797Y-72501074D01*
X183323947Y-72522309D01*
X183325000Y-72543750D01*
X183325000Y-73056250D01*
X183323947Y-73077691D01*
X183320797Y-73098926D01*
X183315581Y-73119750D01*
X183308349Y-73139962D01*
X183299170Y-73159368D01*
X183288134Y-73177781D01*
X183275346Y-73195024D01*
X183260930Y-73210930D01*
X183245024Y-73225346D01*
X183227781Y-73238134D01*
X183209368Y-73249170D01*
X183189962Y-73258349D01*
X183169750Y-73265581D01*
X183148926Y-73270797D01*
X183127691Y-73273947D01*
X183106250Y-73275000D01*
X182668750Y-73275000D01*
X182647309Y-73273947D01*
X182626074Y-73270797D01*
X182605250Y-73265581D01*
X182585038Y-73258349D01*
X182565632Y-73249170D01*
X182547219Y-73238134D01*
X182529976Y-73225346D01*
X182514070Y-73210930D01*
X182499654Y-73195024D01*
X182486866Y-73177781D01*
X182475830Y-73159368D01*
X182466651Y-73139962D01*
X182459419Y-73119750D01*
X182454203Y-73098926D01*
X182451053Y-73077691D01*
X182450000Y-73056250D01*
X182450000Y-72543750D01*
X182451053Y-72522309D01*
X182454203Y-72501074D01*
X182459419Y-72480250D01*
X182466651Y-72460038D01*
X182475830Y-72440632D01*
X182486866Y-72422219D01*
X182499654Y-72404976D01*
X182514070Y-72389070D01*
X182529976Y-72374654D01*
X182547219Y-72361866D01*
X182565632Y-72350830D01*
X182585038Y-72341651D01*
X182605250Y-72334419D01*
X182626074Y-72329203D01*
X182647309Y-72326053D01*
X182668750Y-72325000D01*
X183106250Y-72325000D01*
X183127691Y-72326053D01*
G37*
G36*
X181552691Y-70776053D02*
G01*
X181573926Y-70779203D01*
X181594750Y-70784419D01*
X181614962Y-70791651D01*
X181634368Y-70800830D01*
X181652781Y-70811866D01*
X181670024Y-70824654D01*
X181685930Y-70839070D01*
X181700346Y-70854976D01*
X181713134Y-70872219D01*
X181724170Y-70890632D01*
X181733349Y-70910038D01*
X181740581Y-70930250D01*
X181745797Y-70951074D01*
X181748947Y-70972309D01*
X181750000Y-70993750D01*
X181750000Y-71506250D01*
X181748947Y-71527691D01*
X181745797Y-71548926D01*
X181740581Y-71569750D01*
X181733349Y-71589962D01*
X181724170Y-71609368D01*
X181713134Y-71627781D01*
X181700346Y-71645024D01*
X181685930Y-71660930D01*
X181670024Y-71675346D01*
X181652781Y-71688134D01*
X181634368Y-71699170D01*
X181614962Y-71708349D01*
X181594750Y-71715581D01*
X181573926Y-71720797D01*
X181552691Y-71723947D01*
X181531250Y-71725000D01*
X181093750Y-71725000D01*
X181072309Y-71723947D01*
X181051074Y-71720797D01*
X181030250Y-71715581D01*
X181010038Y-71708349D01*
X180990632Y-71699170D01*
X180972219Y-71688134D01*
X180954976Y-71675346D01*
X180939070Y-71660930D01*
X180924654Y-71645024D01*
X180911866Y-71627781D01*
X180900830Y-71609368D01*
X180891651Y-71589962D01*
X180884419Y-71569750D01*
X180879203Y-71548926D01*
X180876053Y-71527691D01*
X180875000Y-71506250D01*
X180875000Y-70993750D01*
X180876053Y-70972309D01*
X180879203Y-70951074D01*
X180884419Y-70930250D01*
X180891651Y-70910038D01*
X180900830Y-70890632D01*
X180911866Y-70872219D01*
X180924654Y-70854976D01*
X180939070Y-70839070D01*
X180954976Y-70824654D01*
X180972219Y-70811866D01*
X180990632Y-70800830D01*
X181010038Y-70791651D01*
X181030250Y-70784419D01*
X181051074Y-70779203D01*
X181072309Y-70776053D01*
X181093750Y-70775000D01*
X181531250Y-70775000D01*
X181552691Y-70776053D01*
G37*
G36*
X183127691Y-70776053D02*
G01*
X183148926Y-70779203D01*
X183169750Y-70784419D01*
X183189962Y-70791651D01*
X183209368Y-70800830D01*
X183227781Y-70811866D01*
X183245024Y-70824654D01*
X183260930Y-70839070D01*
X183275346Y-70854976D01*
X183288134Y-70872219D01*
X183299170Y-70890632D01*
X183308349Y-70910038D01*
X183315581Y-70930250D01*
X183320797Y-70951074D01*
X183323947Y-70972309D01*
X183325000Y-70993750D01*
X183325000Y-71506250D01*
X183323947Y-71527691D01*
X183320797Y-71548926D01*
X183315581Y-71569750D01*
X183308349Y-71589962D01*
X183299170Y-71609368D01*
X183288134Y-71627781D01*
X183275346Y-71645024D01*
X183260930Y-71660930D01*
X183245024Y-71675346D01*
X183227781Y-71688134D01*
X183209368Y-71699170D01*
X183189962Y-71708349D01*
X183169750Y-71715581D01*
X183148926Y-71720797D01*
X183127691Y-71723947D01*
X183106250Y-71725000D01*
X182668750Y-71725000D01*
X182647309Y-71723947D01*
X182626074Y-71720797D01*
X182605250Y-71715581D01*
X182585038Y-71708349D01*
X182565632Y-71699170D01*
X182547219Y-71688134D01*
X182529976Y-71675346D01*
X182514070Y-71660930D01*
X182499654Y-71645024D01*
X182486866Y-71627781D01*
X182475830Y-71609368D01*
X182466651Y-71589962D01*
X182459419Y-71569750D01*
X182454203Y-71548926D01*
X182451053Y-71527691D01*
X182450000Y-71506250D01*
X182450000Y-70993750D01*
X182451053Y-70972309D01*
X182454203Y-70951074D01*
X182459419Y-70930250D01*
X182466651Y-70910038D01*
X182475830Y-70890632D01*
X182486866Y-70872219D01*
X182499654Y-70854976D01*
X182514070Y-70839070D01*
X182529976Y-70824654D01*
X182547219Y-70811866D01*
X182565632Y-70800830D01*
X182585038Y-70791651D01*
X182605250Y-70784419D01*
X182626074Y-70779203D01*
X182647309Y-70776053D01*
X182668750Y-70775000D01*
X183106250Y-70775000D01*
X183127691Y-70776053D01*
G37*
G36*
X181552691Y-80326053D02*
G01*
X181573926Y-80329203D01*
X181594750Y-80334419D01*
X181614962Y-80341651D01*
X181634368Y-80350830D01*
X181652781Y-80361866D01*
X181670024Y-80374654D01*
X181685930Y-80389070D01*
X181700346Y-80404976D01*
X181713134Y-80422219D01*
X181724170Y-80440632D01*
X181733349Y-80460038D01*
X181740581Y-80480250D01*
X181745797Y-80501074D01*
X181748947Y-80522309D01*
X181750000Y-80543750D01*
X181750000Y-81056250D01*
X181748947Y-81077691D01*
X181745797Y-81098926D01*
X181740581Y-81119750D01*
X181733349Y-81139962D01*
X181724170Y-81159368D01*
X181713134Y-81177781D01*
X181700346Y-81195024D01*
X181685930Y-81210930D01*
X181670024Y-81225346D01*
X181652781Y-81238134D01*
X181634368Y-81249170D01*
X181614962Y-81258349D01*
X181594750Y-81265581D01*
X181573926Y-81270797D01*
X181552691Y-81273947D01*
X181531250Y-81275000D01*
X181093750Y-81275000D01*
X181072309Y-81273947D01*
X181051074Y-81270797D01*
X181030250Y-81265581D01*
X181010038Y-81258349D01*
X180990632Y-81249170D01*
X180972219Y-81238134D01*
X180954976Y-81225346D01*
X180939070Y-81210930D01*
X180924654Y-81195024D01*
X180911866Y-81177781D01*
X180900830Y-81159368D01*
X180891651Y-81139962D01*
X180884419Y-81119750D01*
X180879203Y-81098926D01*
X180876053Y-81077691D01*
X180875000Y-81056250D01*
X180875000Y-80543750D01*
X180876053Y-80522309D01*
X180879203Y-80501074D01*
X180884419Y-80480250D01*
X180891651Y-80460038D01*
X180900830Y-80440632D01*
X180911866Y-80422219D01*
X180924654Y-80404976D01*
X180939070Y-80389070D01*
X180954976Y-80374654D01*
X180972219Y-80361866D01*
X180990632Y-80350830D01*
X181010038Y-80341651D01*
X181030250Y-80334419D01*
X181051074Y-80329203D01*
X181072309Y-80326053D01*
X181093750Y-80325000D01*
X181531250Y-80325000D01*
X181552691Y-80326053D01*
G37*
G36*
X183127691Y-80326053D02*
G01*
X183148926Y-80329203D01*
X183169750Y-80334419D01*
X183189962Y-80341651D01*
X183209368Y-80350830D01*
X183227781Y-80361866D01*
X183245024Y-80374654D01*
X183260930Y-80389070D01*
X183275346Y-80404976D01*
X183288134Y-80422219D01*
X183299170Y-80440632D01*
X183308349Y-80460038D01*
X183315581Y-80480250D01*
X183320797Y-80501074D01*
X183323947Y-80522309D01*
X183325000Y-80543750D01*
X183325000Y-81056250D01*
X183323947Y-81077691D01*
X183320797Y-81098926D01*
X183315581Y-81119750D01*
X183308349Y-81139962D01*
X183299170Y-81159368D01*
X183288134Y-81177781D01*
X183275346Y-81195024D01*
X183260930Y-81210930D01*
X183245024Y-81225346D01*
X183227781Y-81238134D01*
X183209368Y-81249170D01*
X183189962Y-81258349D01*
X183169750Y-81265581D01*
X183148926Y-81270797D01*
X183127691Y-81273947D01*
X183106250Y-81275000D01*
X182668750Y-81275000D01*
X182647309Y-81273947D01*
X182626074Y-81270797D01*
X182605250Y-81265581D01*
X182585038Y-81258349D01*
X182565632Y-81249170D01*
X182547219Y-81238134D01*
X182529976Y-81225346D01*
X182514070Y-81210930D01*
X182499654Y-81195024D01*
X182486866Y-81177781D01*
X182475830Y-81159368D01*
X182466651Y-81139962D01*
X182459419Y-81119750D01*
X182454203Y-81098926D01*
X182451053Y-81077691D01*
X182450000Y-81056250D01*
X182450000Y-80543750D01*
X182451053Y-80522309D01*
X182454203Y-80501074D01*
X182459419Y-80480250D01*
X182466651Y-80460038D01*
X182475830Y-80440632D01*
X182486866Y-80422219D01*
X182499654Y-80404976D01*
X182514070Y-80389070D01*
X182529976Y-80374654D01*
X182547219Y-80361866D01*
X182565632Y-80350830D01*
X182585038Y-80341651D01*
X182605250Y-80334419D01*
X182626074Y-80329203D01*
X182647309Y-80326053D01*
X182668750Y-80325000D01*
X183106250Y-80325000D01*
X183127691Y-80326053D01*
G37*
G36*
X181552691Y-78726053D02*
G01*
X181573926Y-78729203D01*
X181594750Y-78734419D01*
X181614962Y-78741651D01*
X181634368Y-78750830D01*
X181652781Y-78761866D01*
X181670024Y-78774654D01*
X181685930Y-78789070D01*
X181700346Y-78804976D01*
X181713134Y-78822219D01*
X181724170Y-78840632D01*
X181733349Y-78860038D01*
X181740581Y-78880250D01*
X181745797Y-78901074D01*
X181748947Y-78922309D01*
X181750000Y-78943750D01*
X181750000Y-79456250D01*
X181748947Y-79477691D01*
X181745797Y-79498926D01*
X181740581Y-79519750D01*
X181733349Y-79539962D01*
X181724170Y-79559368D01*
X181713134Y-79577781D01*
X181700346Y-79595024D01*
X181685930Y-79610930D01*
X181670024Y-79625346D01*
X181652781Y-79638134D01*
X181634368Y-79649170D01*
X181614962Y-79658349D01*
X181594750Y-79665581D01*
X181573926Y-79670797D01*
X181552691Y-79673947D01*
X181531250Y-79675000D01*
X181093750Y-79675000D01*
X181072309Y-79673947D01*
X181051074Y-79670797D01*
X181030250Y-79665581D01*
X181010038Y-79658349D01*
X180990632Y-79649170D01*
X180972219Y-79638134D01*
X180954976Y-79625346D01*
X180939070Y-79610930D01*
X180924654Y-79595024D01*
X180911866Y-79577781D01*
X180900830Y-79559368D01*
X180891651Y-79539962D01*
X180884419Y-79519750D01*
X180879203Y-79498926D01*
X180876053Y-79477691D01*
X180875000Y-79456250D01*
X180875000Y-78943750D01*
X180876053Y-78922309D01*
X180879203Y-78901074D01*
X180884419Y-78880250D01*
X180891651Y-78860038D01*
X180900830Y-78840632D01*
X180911866Y-78822219D01*
X180924654Y-78804976D01*
X180939070Y-78789070D01*
X180954976Y-78774654D01*
X180972219Y-78761866D01*
X180990632Y-78750830D01*
X181010038Y-78741651D01*
X181030250Y-78734419D01*
X181051074Y-78729203D01*
X181072309Y-78726053D01*
X181093750Y-78725000D01*
X181531250Y-78725000D01*
X181552691Y-78726053D01*
G37*
G36*
X183127691Y-78726053D02*
G01*
X183148926Y-78729203D01*
X183169750Y-78734419D01*
X183189962Y-78741651D01*
X183209368Y-78750830D01*
X183227781Y-78761866D01*
X183245024Y-78774654D01*
X183260930Y-78789070D01*
X183275346Y-78804976D01*
X183288134Y-78822219D01*
X183299170Y-78840632D01*
X183308349Y-78860038D01*
X183315581Y-78880250D01*
X183320797Y-78901074D01*
X183323947Y-78922309D01*
X183325000Y-78943750D01*
X183325000Y-79456250D01*
X183323947Y-79477691D01*
X183320797Y-79498926D01*
X183315581Y-79519750D01*
X183308349Y-79539962D01*
X183299170Y-79559368D01*
X183288134Y-79577781D01*
X183275346Y-79595024D01*
X183260930Y-79610930D01*
X183245024Y-79625346D01*
X183227781Y-79638134D01*
X183209368Y-79649170D01*
X183189962Y-79658349D01*
X183169750Y-79665581D01*
X183148926Y-79670797D01*
X183127691Y-79673947D01*
X183106250Y-79675000D01*
X182668750Y-79675000D01*
X182647309Y-79673947D01*
X182626074Y-79670797D01*
X182605250Y-79665581D01*
X182585038Y-79658349D01*
X182565632Y-79649170D01*
X182547219Y-79638134D01*
X182529976Y-79625346D01*
X182514070Y-79610930D01*
X182499654Y-79595024D01*
X182486866Y-79577781D01*
X182475830Y-79559368D01*
X182466651Y-79539962D01*
X182459419Y-79519750D01*
X182454203Y-79498926D01*
X182451053Y-79477691D01*
X182450000Y-79456250D01*
X182450000Y-78943750D01*
X182451053Y-78922309D01*
X182454203Y-78901074D01*
X182459419Y-78880250D01*
X182466651Y-78860038D01*
X182475830Y-78840632D01*
X182486866Y-78822219D01*
X182499654Y-78804976D01*
X182514070Y-78789070D01*
X182529976Y-78774654D01*
X182547219Y-78761866D01*
X182565632Y-78750830D01*
X182585038Y-78741651D01*
X182605250Y-78734419D01*
X182626074Y-78729203D01*
X182647309Y-78726053D01*
X182668750Y-78725000D01*
X183106250Y-78725000D01*
X183127691Y-78726053D01*
G37*
G36*
X181552691Y-77126053D02*
G01*
X181573926Y-77129203D01*
X181594750Y-77134419D01*
X181614962Y-77141651D01*
X181634368Y-77150830D01*
X181652781Y-77161866D01*
X181670024Y-77174654D01*
X181685930Y-77189070D01*
X181700346Y-77204976D01*
X181713134Y-77222219D01*
X181724170Y-77240632D01*
X181733349Y-77260038D01*
X181740581Y-77280250D01*
X181745797Y-77301074D01*
X181748947Y-77322309D01*
X181750000Y-77343750D01*
X181750000Y-77856250D01*
X181748947Y-77877691D01*
X181745797Y-77898926D01*
X181740581Y-77919750D01*
X181733349Y-77939962D01*
X181724170Y-77959368D01*
X181713134Y-77977781D01*
X181700346Y-77995024D01*
X181685930Y-78010930D01*
X181670024Y-78025346D01*
X181652781Y-78038134D01*
X181634368Y-78049170D01*
X181614962Y-78058349D01*
X181594750Y-78065581D01*
X181573926Y-78070797D01*
X181552691Y-78073947D01*
X181531250Y-78075000D01*
X181093750Y-78075000D01*
X181072309Y-78073947D01*
X181051074Y-78070797D01*
X181030250Y-78065581D01*
X181010038Y-78058349D01*
X180990632Y-78049170D01*
X180972219Y-78038134D01*
X180954976Y-78025346D01*
X180939070Y-78010930D01*
X180924654Y-77995024D01*
X180911866Y-77977781D01*
X180900830Y-77959368D01*
X180891651Y-77939962D01*
X180884419Y-77919750D01*
X180879203Y-77898926D01*
X180876053Y-77877691D01*
X180875000Y-77856250D01*
X180875000Y-77343750D01*
X180876053Y-77322309D01*
X180879203Y-77301074D01*
X180884419Y-77280250D01*
X180891651Y-77260038D01*
X180900830Y-77240632D01*
X180911866Y-77222219D01*
X180924654Y-77204976D01*
X180939070Y-77189070D01*
X180954976Y-77174654D01*
X180972219Y-77161866D01*
X180990632Y-77150830D01*
X181010038Y-77141651D01*
X181030250Y-77134419D01*
X181051074Y-77129203D01*
X181072309Y-77126053D01*
X181093750Y-77125000D01*
X181531250Y-77125000D01*
X181552691Y-77126053D01*
G37*
G36*
X183127691Y-77126053D02*
G01*
X183148926Y-77129203D01*
X183169750Y-77134419D01*
X183189962Y-77141651D01*
X183209368Y-77150830D01*
X183227781Y-77161866D01*
X183245024Y-77174654D01*
X183260930Y-77189070D01*
X183275346Y-77204976D01*
X183288134Y-77222219D01*
X183299170Y-77240632D01*
X183308349Y-77260038D01*
X183315581Y-77280250D01*
X183320797Y-77301074D01*
X183323947Y-77322309D01*
X183325000Y-77343750D01*
X183325000Y-77856250D01*
X183323947Y-77877691D01*
X183320797Y-77898926D01*
X183315581Y-77919750D01*
X183308349Y-77939962D01*
X183299170Y-77959368D01*
X183288134Y-77977781D01*
X183275346Y-77995024D01*
X183260930Y-78010930D01*
X183245024Y-78025346D01*
X183227781Y-78038134D01*
X183209368Y-78049170D01*
X183189962Y-78058349D01*
X183169750Y-78065581D01*
X183148926Y-78070797D01*
X183127691Y-78073947D01*
X183106250Y-78075000D01*
X182668750Y-78075000D01*
X182647309Y-78073947D01*
X182626074Y-78070797D01*
X182605250Y-78065581D01*
X182585038Y-78058349D01*
X182565632Y-78049170D01*
X182547219Y-78038134D01*
X182529976Y-78025346D01*
X182514070Y-78010930D01*
X182499654Y-77995024D01*
X182486866Y-77977781D01*
X182475830Y-77959368D01*
X182466651Y-77939962D01*
X182459419Y-77919750D01*
X182454203Y-77898926D01*
X182451053Y-77877691D01*
X182450000Y-77856250D01*
X182450000Y-77343750D01*
X182451053Y-77322309D01*
X182454203Y-77301074D01*
X182459419Y-77280250D01*
X182466651Y-77260038D01*
X182475830Y-77240632D01*
X182486866Y-77222219D01*
X182499654Y-77204976D01*
X182514070Y-77189070D01*
X182529976Y-77174654D01*
X182547219Y-77161866D01*
X182565632Y-77150830D01*
X182585038Y-77141651D01*
X182605250Y-77134419D01*
X182626074Y-77129203D01*
X182647309Y-77126053D01*
X182668750Y-77125000D01*
X183106250Y-77125000D01*
X183127691Y-77126053D01*
G37*
G36*
X181552691Y-85126053D02*
G01*
X181573926Y-85129203D01*
X181594750Y-85134419D01*
X181614962Y-85141651D01*
X181634368Y-85150830D01*
X181652781Y-85161866D01*
X181670024Y-85174654D01*
X181685930Y-85189070D01*
X181700346Y-85204976D01*
X181713134Y-85222219D01*
X181724170Y-85240632D01*
X181733349Y-85260038D01*
X181740581Y-85280250D01*
X181745797Y-85301074D01*
X181748947Y-85322309D01*
X181750000Y-85343750D01*
X181750000Y-85856250D01*
X181748947Y-85877691D01*
X181745797Y-85898926D01*
X181740581Y-85919750D01*
X181733349Y-85939962D01*
X181724170Y-85959368D01*
X181713134Y-85977781D01*
X181700346Y-85995024D01*
X181685930Y-86010930D01*
X181670024Y-86025346D01*
X181652781Y-86038134D01*
X181634368Y-86049170D01*
X181614962Y-86058349D01*
X181594750Y-86065581D01*
X181573926Y-86070797D01*
X181552691Y-86073947D01*
X181531250Y-86075000D01*
X181093750Y-86075000D01*
X181072309Y-86073947D01*
X181051074Y-86070797D01*
X181030250Y-86065581D01*
X181010038Y-86058349D01*
X180990632Y-86049170D01*
X180972219Y-86038134D01*
X180954976Y-86025346D01*
X180939070Y-86010930D01*
X180924654Y-85995024D01*
X180911866Y-85977781D01*
X180900830Y-85959368D01*
X180891651Y-85939962D01*
X180884419Y-85919750D01*
X180879203Y-85898926D01*
X180876053Y-85877691D01*
X180875000Y-85856250D01*
X180875000Y-85343750D01*
X180876053Y-85322309D01*
X180879203Y-85301074D01*
X180884419Y-85280250D01*
X180891651Y-85260038D01*
X180900830Y-85240632D01*
X180911866Y-85222219D01*
X180924654Y-85204976D01*
X180939070Y-85189070D01*
X180954976Y-85174654D01*
X180972219Y-85161866D01*
X180990632Y-85150830D01*
X181010038Y-85141651D01*
X181030250Y-85134419D01*
X181051074Y-85129203D01*
X181072309Y-85126053D01*
X181093750Y-85125000D01*
X181531250Y-85125000D01*
X181552691Y-85126053D01*
G37*
G36*
X183127691Y-85126053D02*
G01*
X183148926Y-85129203D01*
X183169750Y-85134419D01*
X183189962Y-85141651D01*
X183209368Y-85150830D01*
X183227781Y-85161866D01*
X183245024Y-85174654D01*
X183260930Y-85189070D01*
X183275346Y-85204976D01*
X183288134Y-85222219D01*
X183299170Y-85240632D01*
X183308349Y-85260038D01*
X183315581Y-85280250D01*
X183320797Y-85301074D01*
X183323947Y-85322309D01*
X183325000Y-85343750D01*
X183325000Y-85856250D01*
X183323947Y-85877691D01*
X183320797Y-85898926D01*
X183315581Y-85919750D01*
X183308349Y-85939962D01*
X183299170Y-85959368D01*
X183288134Y-85977781D01*
X183275346Y-85995024D01*
X183260930Y-86010930D01*
X183245024Y-86025346D01*
X183227781Y-86038134D01*
X183209368Y-86049170D01*
X183189962Y-86058349D01*
X183169750Y-86065581D01*
X183148926Y-86070797D01*
X183127691Y-86073947D01*
X183106250Y-86075000D01*
X182668750Y-86075000D01*
X182647309Y-86073947D01*
X182626074Y-86070797D01*
X182605250Y-86065581D01*
X182585038Y-86058349D01*
X182565632Y-86049170D01*
X182547219Y-86038134D01*
X182529976Y-86025346D01*
X182514070Y-86010930D01*
X182499654Y-85995024D01*
X182486866Y-85977781D01*
X182475830Y-85959368D01*
X182466651Y-85939962D01*
X182459419Y-85919750D01*
X182454203Y-85898926D01*
X182451053Y-85877691D01*
X182450000Y-85856250D01*
X182450000Y-85343750D01*
X182451053Y-85322309D01*
X182454203Y-85301074D01*
X182459419Y-85280250D01*
X182466651Y-85260038D01*
X182475830Y-85240632D01*
X182486866Y-85222219D01*
X182499654Y-85204976D01*
X182514070Y-85189070D01*
X182529976Y-85174654D01*
X182547219Y-85161866D01*
X182565632Y-85150830D01*
X182585038Y-85141651D01*
X182605250Y-85134419D01*
X182626074Y-85129203D01*
X182647309Y-85126053D01*
X182668750Y-85125000D01*
X183106250Y-85125000D01*
X183127691Y-85126053D01*
G37*
G36*
X181552691Y-83526053D02*
G01*
X181573926Y-83529203D01*
X181594750Y-83534419D01*
X181614962Y-83541651D01*
X181634368Y-83550830D01*
X181652781Y-83561866D01*
X181670024Y-83574654D01*
X181685930Y-83589070D01*
X181700346Y-83604976D01*
X181713134Y-83622219D01*
X181724170Y-83640632D01*
X181733349Y-83660038D01*
X181740581Y-83680250D01*
X181745797Y-83701074D01*
X181748947Y-83722309D01*
X181750000Y-83743750D01*
X181750000Y-84256250D01*
X181748947Y-84277691D01*
X181745797Y-84298926D01*
X181740581Y-84319750D01*
X181733349Y-84339962D01*
X181724170Y-84359368D01*
X181713134Y-84377781D01*
X181700346Y-84395024D01*
X181685930Y-84410930D01*
X181670024Y-84425346D01*
X181652781Y-84438134D01*
X181634368Y-84449170D01*
X181614962Y-84458349D01*
X181594750Y-84465581D01*
X181573926Y-84470797D01*
X181552691Y-84473947D01*
X181531250Y-84475000D01*
X181093750Y-84475000D01*
X181072309Y-84473947D01*
X181051074Y-84470797D01*
X181030250Y-84465581D01*
X181010038Y-84458349D01*
X180990632Y-84449170D01*
X180972219Y-84438134D01*
X180954976Y-84425346D01*
X180939070Y-84410930D01*
X180924654Y-84395024D01*
X180911866Y-84377781D01*
X180900830Y-84359368D01*
X180891651Y-84339962D01*
X180884419Y-84319750D01*
X180879203Y-84298926D01*
X180876053Y-84277691D01*
X180875000Y-84256250D01*
X180875000Y-83743750D01*
X180876053Y-83722309D01*
X180879203Y-83701074D01*
X180884419Y-83680250D01*
X180891651Y-83660038D01*
X180900830Y-83640632D01*
X180911866Y-83622219D01*
X180924654Y-83604976D01*
X180939070Y-83589070D01*
X180954976Y-83574654D01*
X180972219Y-83561866D01*
X180990632Y-83550830D01*
X181010038Y-83541651D01*
X181030250Y-83534419D01*
X181051074Y-83529203D01*
X181072309Y-83526053D01*
X181093750Y-83525000D01*
X181531250Y-83525000D01*
X181552691Y-83526053D01*
G37*
G36*
X183127691Y-83526053D02*
G01*
X183148926Y-83529203D01*
X183169750Y-83534419D01*
X183189962Y-83541651D01*
X183209368Y-83550830D01*
X183227781Y-83561866D01*
X183245024Y-83574654D01*
X183260930Y-83589070D01*
X183275346Y-83604976D01*
X183288134Y-83622219D01*
X183299170Y-83640632D01*
X183308349Y-83660038D01*
X183315581Y-83680250D01*
X183320797Y-83701074D01*
X183323947Y-83722309D01*
X183325000Y-83743750D01*
X183325000Y-84256250D01*
X183323947Y-84277691D01*
X183320797Y-84298926D01*
X183315581Y-84319750D01*
X183308349Y-84339962D01*
X183299170Y-84359368D01*
X183288134Y-84377781D01*
X183275346Y-84395024D01*
X183260930Y-84410930D01*
X183245024Y-84425346D01*
X183227781Y-84438134D01*
X183209368Y-84449170D01*
X183189962Y-84458349D01*
X183169750Y-84465581D01*
X183148926Y-84470797D01*
X183127691Y-84473947D01*
X183106250Y-84475000D01*
X182668750Y-84475000D01*
X182647309Y-84473947D01*
X182626074Y-84470797D01*
X182605250Y-84465581D01*
X182585038Y-84458349D01*
X182565632Y-84449170D01*
X182547219Y-84438134D01*
X182529976Y-84425346D01*
X182514070Y-84410930D01*
X182499654Y-84395024D01*
X182486866Y-84377781D01*
X182475830Y-84359368D01*
X182466651Y-84339962D01*
X182459419Y-84319750D01*
X182454203Y-84298926D01*
X182451053Y-84277691D01*
X182450000Y-84256250D01*
X182450000Y-83743750D01*
X182451053Y-83722309D01*
X182454203Y-83701074D01*
X182459419Y-83680250D01*
X182466651Y-83660038D01*
X182475830Y-83640632D01*
X182486866Y-83622219D01*
X182499654Y-83604976D01*
X182514070Y-83589070D01*
X182529976Y-83574654D01*
X182547219Y-83561866D01*
X182565632Y-83550830D01*
X182585038Y-83541651D01*
X182605250Y-83534419D01*
X182626074Y-83529203D01*
X182647309Y-83526053D01*
X182668750Y-83525000D01*
X183106250Y-83525000D01*
X183127691Y-83526053D01*
G37*
G36*
X181552691Y-75526053D02*
G01*
X181573926Y-75529203D01*
X181594750Y-75534419D01*
X181614962Y-75541651D01*
X181634368Y-75550830D01*
X181652781Y-75561866D01*
X181670024Y-75574654D01*
X181685930Y-75589070D01*
X181700346Y-75604976D01*
X181713134Y-75622219D01*
X181724170Y-75640632D01*
X181733349Y-75660038D01*
X181740581Y-75680250D01*
X181745797Y-75701074D01*
X181748947Y-75722309D01*
X181750000Y-75743750D01*
X181750000Y-76256250D01*
X181748947Y-76277691D01*
X181745797Y-76298926D01*
X181740581Y-76319750D01*
X181733349Y-76339962D01*
X181724170Y-76359368D01*
X181713134Y-76377781D01*
X181700346Y-76395024D01*
X181685930Y-76410930D01*
X181670024Y-76425346D01*
X181652781Y-76438134D01*
X181634368Y-76449170D01*
X181614962Y-76458349D01*
X181594750Y-76465581D01*
X181573926Y-76470797D01*
X181552691Y-76473947D01*
X181531250Y-76475000D01*
X181093750Y-76475000D01*
X181072309Y-76473947D01*
X181051074Y-76470797D01*
X181030250Y-76465581D01*
X181010038Y-76458349D01*
X180990632Y-76449170D01*
X180972219Y-76438134D01*
X180954976Y-76425346D01*
X180939070Y-76410930D01*
X180924654Y-76395024D01*
X180911866Y-76377781D01*
X180900830Y-76359368D01*
X180891651Y-76339962D01*
X180884419Y-76319750D01*
X180879203Y-76298926D01*
X180876053Y-76277691D01*
X180875000Y-76256250D01*
X180875000Y-75743750D01*
X180876053Y-75722309D01*
X180879203Y-75701074D01*
X180884419Y-75680250D01*
X180891651Y-75660038D01*
X180900830Y-75640632D01*
X180911866Y-75622219D01*
X180924654Y-75604976D01*
X180939070Y-75589070D01*
X180954976Y-75574654D01*
X180972219Y-75561866D01*
X180990632Y-75550830D01*
X181010038Y-75541651D01*
X181030250Y-75534419D01*
X181051074Y-75529203D01*
X181072309Y-75526053D01*
X181093750Y-75525000D01*
X181531250Y-75525000D01*
X181552691Y-75526053D01*
G37*
G36*
X183127691Y-75526053D02*
G01*
X183148926Y-75529203D01*
X183169750Y-75534419D01*
X183189962Y-75541651D01*
X183209368Y-75550830D01*
X183227781Y-75561866D01*
X183245024Y-75574654D01*
X183260930Y-75589070D01*
X183275346Y-75604976D01*
X183288134Y-75622219D01*
X183299170Y-75640632D01*
X183308349Y-75660038D01*
X183315581Y-75680250D01*
X183320797Y-75701074D01*
X183323947Y-75722309D01*
X183325000Y-75743750D01*
X183325000Y-76256250D01*
X183323947Y-76277691D01*
X183320797Y-76298926D01*
X183315581Y-76319750D01*
X183308349Y-76339962D01*
X183299170Y-76359368D01*
X183288134Y-76377781D01*
X183275346Y-76395024D01*
X183260930Y-76410930D01*
X183245024Y-76425346D01*
X183227781Y-76438134D01*
X183209368Y-76449170D01*
X183189962Y-76458349D01*
X183169750Y-76465581D01*
X183148926Y-76470797D01*
X183127691Y-76473947D01*
X183106250Y-76475000D01*
X182668750Y-76475000D01*
X182647309Y-76473947D01*
X182626074Y-76470797D01*
X182605250Y-76465581D01*
X182585038Y-76458349D01*
X182565632Y-76449170D01*
X182547219Y-76438134D01*
X182529976Y-76425346D01*
X182514070Y-76410930D01*
X182499654Y-76395024D01*
X182486866Y-76377781D01*
X182475830Y-76359368D01*
X182466651Y-76339962D01*
X182459419Y-76319750D01*
X182454203Y-76298926D01*
X182451053Y-76277691D01*
X182450000Y-76256250D01*
X182450000Y-75743750D01*
X182451053Y-75722309D01*
X182454203Y-75701074D01*
X182459419Y-75680250D01*
X182466651Y-75660038D01*
X182475830Y-75640632D01*
X182486866Y-75622219D01*
X182499654Y-75604976D01*
X182514070Y-75589070D01*
X182529976Y-75574654D01*
X182547219Y-75561866D01*
X182565632Y-75550830D01*
X182585038Y-75541651D01*
X182605250Y-75534419D01*
X182626074Y-75529203D01*
X182647309Y-75526053D01*
X182668750Y-75525000D01*
X183106250Y-75525000D01*
X183127691Y-75526053D01*
G37*
G36*
X181552691Y-73926053D02*
G01*
X181573926Y-73929203D01*
X181594750Y-73934419D01*
X181614962Y-73941651D01*
X181634368Y-73950830D01*
X181652781Y-73961866D01*
X181670024Y-73974654D01*
X181685930Y-73989070D01*
X181700346Y-74004976D01*
X181713134Y-74022219D01*
X181724170Y-74040632D01*
X181733349Y-74060038D01*
X181740581Y-74080250D01*
X181745797Y-74101074D01*
X181748947Y-74122309D01*
X181750000Y-74143750D01*
X181750000Y-74656250D01*
X181748947Y-74677691D01*
X181745797Y-74698926D01*
X181740581Y-74719750D01*
X181733349Y-74739962D01*
X181724170Y-74759368D01*
X181713134Y-74777781D01*
X181700346Y-74795024D01*
X181685930Y-74810930D01*
X181670024Y-74825346D01*
X181652781Y-74838134D01*
X181634368Y-74849170D01*
X181614962Y-74858349D01*
X181594750Y-74865581D01*
X181573926Y-74870797D01*
X181552691Y-74873947D01*
X181531250Y-74875000D01*
X181093750Y-74875000D01*
X181072309Y-74873947D01*
X181051074Y-74870797D01*
X181030250Y-74865581D01*
X181010038Y-74858349D01*
X180990632Y-74849170D01*
X180972219Y-74838134D01*
X180954976Y-74825346D01*
X180939070Y-74810930D01*
X180924654Y-74795024D01*
X180911866Y-74777781D01*
X180900830Y-74759368D01*
X180891651Y-74739962D01*
X180884419Y-74719750D01*
X180879203Y-74698926D01*
X180876053Y-74677691D01*
X180875000Y-74656250D01*
X180875000Y-74143750D01*
X180876053Y-74122309D01*
X180879203Y-74101074D01*
X180884419Y-74080250D01*
X180891651Y-74060038D01*
X180900830Y-74040632D01*
X180911866Y-74022219D01*
X180924654Y-74004976D01*
X180939070Y-73989070D01*
X180954976Y-73974654D01*
X180972219Y-73961866D01*
X180990632Y-73950830D01*
X181010038Y-73941651D01*
X181030250Y-73934419D01*
X181051074Y-73929203D01*
X181072309Y-73926053D01*
X181093750Y-73925000D01*
X181531250Y-73925000D01*
X181552691Y-73926053D01*
G37*
G36*
X183127691Y-73926053D02*
G01*
X183148926Y-73929203D01*
X183169750Y-73934419D01*
X183189962Y-73941651D01*
X183209368Y-73950830D01*
X183227781Y-73961866D01*
X183245024Y-73974654D01*
X183260930Y-73989070D01*
X183275346Y-74004976D01*
X183288134Y-74022219D01*
X183299170Y-74040632D01*
X183308349Y-74060038D01*
X183315581Y-74080250D01*
X183320797Y-74101074D01*
X183323947Y-74122309D01*
X183325000Y-74143750D01*
X183325000Y-74656250D01*
X183323947Y-74677691D01*
X183320797Y-74698926D01*
X183315581Y-74719750D01*
X183308349Y-74739962D01*
X183299170Y-74759368D01*
X183288134Y-74777781D01*
X183275346Y-74795024D01*
X183260930Y-74810930D01*
X183245024Y-74825346D01*
X183227781Y-74838134D01*
X183209368Y-74849170D01*
X183189962Y-74858349D01*
X183169750Y-74865581D01*
X183148926Y-74870797D01*
X183127691Y-74873947D01*
X183106250Y-74875000D01*
X182668750Y-74875000D01*
X182647309Y-74873947D01*
X182626074Y-74870797D01*
X182605250Y-74865581D01*
X182585038Y-74858349D01*
X182565632Y-74849170D01*
X182547219Y-74838134D01*
X182529976Y-74825346D01*
X182514070Y-74810930D01*
X182499654Y-74795024D01*
X182486866Y-74777781D01*
X182475830Y-74759368D01*
X182466651Y-74739962D01*
X182459419Y-74719750D01*
X182454203Y-74698926D01*
X182451053Y-74677691D01*
X182450000Y-74656250D01*
X182450000Y-74143750D01*
X182451053Y-74122309D01*
X182454203Y-74101074D01*
X182459419Y-74080250D01*
X182466651Y-74060038D01*
X182475830Y-74040632D01*
X182486866Y-74022219D01*
X182499654Y-74004976D01*
X182514070Y-73989070D01*
X182529976Y-73974654D01*
X182547219Y-73961866D01*
X182565632Y-73950830D01*
X182585038Y-73941651D01*
X182605250Y-73934419D01*
X182626074Y-73929203D01*
X182647309Y-73926053D01*
X182668750Y-73925000D01*
X183106250Y-73925000D01*
X183127691Y-73926053D01*
G37*
G36*
X187227691Y-67126053D02*
G01*
X187248926Y-67129203D01*
X187269750Y-67134419D01*
X187289962Y-67141651D01*
X187309368Y-67150830D01*
X187327781Y-67161866D01*
X187345024Y-67174654D01*
X187360930Y-67189070D01*
X187375346Y-67204976D01*
X187388134Y-67222219D01*
X187399170Y-67240632D01*
X187408349Y-67260038D01*
X187415581Y-67280250D01*
X187420797Y-67301074D01*
X187423947Y-67322309D01*
X187425000Y-67343750D01*
X187425000Y-67856250D01*
X187423947Y-67877691D01*
X187420797Y-67898926D01*
X187415581Y-67919750D01*
X187408349Y-67939962D01*
X187399170Y-67959368D01*
X187388134Y-67977781D01*
X187375346Y-67995024D01*
X187360930Y-68010930D01*
X187345024Y-68025346D01*
X187327781Y-68038134D01*
X187309368Y-68049170D01*
X187289962Y-68058349D01*
X187269750Y-68065581D01*
X187248926Y-68070797D01*
X187227691Y-68073947D01*
X187206250Y-68075000D01*
X186768750Y-68075000D01*
X186747309Y-68073947D01*
X186726074Y-68070797D01*
X186705250Y-68065581D01*
X186685038Y-68058349D01*
X186665632Y-68049170D01*
X186647219Y-68038134D01*
X186629976Y-68025346D01*
X186614070Y-68010930D01*
X186599654Y-67995024D01*
X186586866Y-67977781D01*
X186575830Y-67959368D01*
X186566651Y-67939962D01*
X186559419Y-67919750D01*
X186554203Y-67898926D01*
X186551053Y-67877691D01*
X186550000Y-67856250D01*
X186550000Y-67343750D01*
X186551053Y-67322309D01*
X186554203Y-67301074D01*
X186559419Y-67280250D01*
X186566651Y-67260038D01*
X186575830Y-67240632D01*
X186586866Y-67222219D01*
X186599654Y-67204976D01*
X186614070Y-67189070D01*
X186629976Y-67174654D01*
X186647219Y-67161866D01*
X186665632Y-67150830D01*
X186685038Y-67141651D01*
X186705250Y-67134419D01*
X186726074Y-67129203D01*
X186747309Y-67126053D01*
X186768750Y-67125000D01*
X187206250Y-67125000D01*
X187227691Y-67126053D01*
G37*
G36*
X185652691Y-67126053D02*
G01*
X185673926Y-67129203D01*
X185694750Y-67134419D01*
X185714962Y-67141651D01*
X185734368Y-67150830D01*
X185752781Y-67161866D01*
X185770024Y-67174654D01*
X185785930Y-67189070D01*
X185800346Y-67204976D01*
X185813134Y-67222219D01*
X185824170Y-67240632D01*
X185833349Y-67260038D01*
X185840581Y-67280250D01*
X185845797Y-67301074D01*
X185848947Y-67322309D01*
X185850000Y-67343750D01*
X185850000Y-67856250D01*
X185848947Y-67877691D01*
X185845797Y-67898926D01*
X185840581Y-67919750D01*
X185833349Y-67939962D01*
X185824170Y-67959368D01*
X185813134Y-67977781D01*
X185800346Y-67995024D01*
X185785930Y-68010930D01*
X185770024Y-68025346D01*
X185752781Y-68038134D01*
X185734368Y-68049170D01*
X185714962Y-68058349D01*
X185694750Y-68065581D01*
X185673926Y-68070797D01*
X185652691Y-68073947D01*
X185631250Y-68075000D01*
X185193750Y-68075000D01*
X185172309Y-68073947D01*
X185151074Y-68070797D01*
X185130250Y-68065581D01*
X185110038Y-68058349D01*
X185090632Y-68049170D01*
X185072219Y-68038134D01*
X185054976Y-68025346D01*
X185039070Y-68010930D01*
X185024654Y-67995024D01*
X185011866Y-67977781D01*
X185000830Y-67959368D01*
X184991651Y-67939962D01*
X184984419Y-67919750D01*
X184979203Y-67898926D01*
X184976053Y-67877691D01*
X184975000Y-67856250D01*
X184975000Y-67343750D01*
X184976053Y-67322309D01*
X184979203Y-67301074D01*
X184984419Y-67280250D01*
X184991651Y-67260038D01*
X185000830Y-67240632D01*
X185011866Y-67222219D01*
X185024654Y-67204976D01*
X185039070Y-67189070D01*
X185054976Y-67174654D01*
X185072219Y-67161866D01*
X185090632Y-67150830D01*
X185110038Y-67141651D01*
X185130250Y-67134419D01*
X185151074Y-67129203D01*
X185172309Y-67126053D01*
X185193750Y-67125000D01*
X185631250Y-67125000D01*
X185652691Y-67126053D01*
G37*
G36*
X179677691Y-87776053D02*
G01*
X179698926Y-87779203D01*
X179719750Y-87784419D01*
X179739962Y-87791651D01*
X179759368Y-87800830D01*
X179777781Y-87811866D01*
X179795024Y-87824654D01*
X179810930Y-87839070D01*
X179825346Y-87854976D01*
X179838134Y-87872219D01*
X179849170Y-87890632D01*
X179858349Y-87910038D01*
X179865581Y-87930250D01*
X179870797Y-87951074D01*
X179873947Y-87972309D01*
X179875000Y-87993750D01*
X179875000Y-88431250D01*
X179873947Y-88452691D01*
X179870797Y-88473926D01*
X179865581Y-88494750D01*
X179858349Y-88514962D01*
X179849170Y-88534368D01*
X179838134Y-88552781D01*
X179825346Y-88570024D01*
X179810930Y-88585930D01*
X179795024Y-88600346D01*
X179777781Y-88613134D01*
X179759368Y-88624170D01*
X179739962Y-88633349D01*
X179719750Y-88640581D01*
X179698926Y-88645797D01*
X179677691Y-88648947D01*
X179656250Y-88650000D01*
X179143750Y-88650000D01*
X179122309Y-88648947D01*
X179101074Y-88645797D01*
X179080250Y-88640581D01*
X179060038Y-88633349D01*
X179040632Y-88624170D01*
X179022219Y-88613134D01*
X179004976Y-88600346D01*
X178989070Y-88585930D01*
X178974654Y-88570024D01*
X178961866Y-88552781D01*
X178950830Y-88534368D01*
X178941651Y-88514962D01*
X178934419Y-88494750D01*
X178929203Y-88473926D01*
X178926053Y-88452691D01*
X178925000Y-88431250D01*
X178925000Y-87993750D01*
X178926053Y-87972309D01*
X178929203Y-87951074D01*
X178934419Y-87930250D01*
X178941651Y-87910038D01*
X178950830Y-87890632D01*
X178961866Y-87872219D01*
X178974654Y-87854976D01*
X178989070Y-87839070D01*
X179004976Y-87824654D01*
X179022219Y-87811866D01*
X179040632Y-87800830D01*
X179060038Y-87791651D01*
X179080250Y-87784419D01*
X179101074Y-87779203D01*
X179122309Y-87776053D01*
X179143750Y-87775000D01*
X179656250Y-87775000D01*
X179677691Y-87776053D01*
G37*
G36*
X179677691Y-89351053D02*
G01*
X179698926Y-89354203D01*
X179719750Y-89359419D01*
X179739962Y-89366651D01*
X179759368Y-89375830D01*
X179777781Y-89386866D01*
X179795024Y-89399654D01*
X179810930Y-89414070D01*
X179825346Y-89429976D01*
X179838134Y-89447219D01*
X179849170Y-89465632D01*
X179858349Y-89485038D01*
X179865581Y-89505250D01*
X179870797Y-89526074D01*
X179873947Y-89547309D01*
X179875000Y-89568750D01*
X179875000Y-90006250D01*
X179873947Y-90027691D01*
X179870797Y-90048926D01*
X179865581Y-90069750D01*
X179858349Y-90089962D01*
X179849170Y-90109368D01*
X179838134Y-90127781D01*
X179825346Y-90145024D01*
X179810930Y-90160930D01*
X179795024Y-90175346D01*
X179777781Y-90188134D01*
X179759368Y-90199170D01*
X179739962Y-90208349D01*
X179719750Y-90215581D01*
X179698926Y-90220797D01*
X179677691Y-90223947D01*
X179656250Y-90225000D01*
X179143750Y-90225000D01*
X179122309Y-90223947D01*
X179101074Y-90220797D01*
X179080250Y-90215581D01*
X179060038Y-90208349D01*
X179040632Y-90199170D01*
X179022219Y-90188134D01*
X179004976Y-90175346D01*
X178989070Y-90160930D01*
X178974654Y-90145024D01*
X178961866Y-90127781D01*
X178950830Y-90109368D01*
X178941651Y-90089962D01*
X178934419Y-90069750D01*
X178929203Y-90048926D01*
X178926053Y-90027691D01*
X178925000Y-90006250D01*
X178925000Y-89568750D01*
X178926053Y-89547309D01*
X178929203Y-89526074D01*
X178934419Y-89505250D01*
X178941651Y-89485038D01*
X178950830Y-89465632D01*
X178961866Y-89447219D01*
X178974654Y-89429976D01*
X178989070Y-89414070D01*
X179004976Y-89399654D01*
X179022219Y-89386866D01*
X179040632Y-89375830D01*
X179060038Y-89366651D01*
X179080250Y-89359419D01*
X179101074Y-89354203D01*
X179122309Y-89351053D01*
X179143750Y-89350000D01*
X179656250Y-89350000D01*
X179677691Y-89351053D01*
G37*
G36*
X187077691Y-61276053D02*
G01*
X187098926Y-61279203D01*
X187119750Y-61284419D01*
X187139962Y-61291651D01*
X187159368Y-61300830D01*
X187177781Y-61311866D01*
X187195024Y-61324654D01*
X187210930Y-61339070D01*
X187225346Y-61354976D01*
X187238134Y-61372219D01*
X187249170Y-61390632D01*
X187258349Y-61410038D01*
X187265581Y-61430250D01*
X187270797Y-61451074D01*
X187273947Y-61472309D01*
X187275000Y-61493750D01*
X187275000Y-61931250D01*
X187273947Y-61952691D01*
X187270797Y-61973926D01*
X187265581Y-61994750D01*
X187258349Y-62014962D01*
X187249170Y-62034368D01*
X187238134Y-62052781D01*
X187225346Y-62070024D01*
X187210930Y-62085930D01*
X187195024Y-62100346D01*
X187177781Y-62113134D01*
X187159368Y-62124170D01*
X187139962Y-62133349D01*
X187119750Y-62140581D01*
X187098926Y-62145797D01*
X187077691Y-62148947D01*
X187056250Y-62150000D01*
X186543750Y-62150000D01*
X186522309Y-62148947D01*
X186501074Y-62145797D01*
X186480250Y-62140581D01*
X186460038Y-62133349D01*
X186440632Y-62124170D01*
X186422219Y-62113134D01*
X186404976Y-62100346D01*
X186389070Y-62085930D01*
X186374654Y-62070024D01*
X186361866Y-62052781D01*
X186350830Y-62034368D01*
X186341651Y-62014962D01*
X186334419Y-61994750D01*
X186329203Y-61973926D01*
X186326053Y-61952691D01*
X186325000Y-61931250D01*
X186325000Y-61493750D01*
X186326053Y-61472309D01*
X186329203Y-61451074D01*
X186334419Y-61430250D01*
X186341651Y-61410038D01*
X186350830Y-61390632D01*
X186361866Y-61372219D01*
X186374654Y-61354976D01*
X186389070Y-61339070D01*
X186404976Y-61324654D01*
X186422219Y-61311866D01*
X186440632Y-61300830D01*
X186460038Y-61291651D01*
X186480250Y-61284419D01*
X186501074Y-61279203D01*
X186522309Y-61276053D01*
X186543750Y-61275000D01*
X187056250Y-61275000D01*
X187077691Y-61276053D01*
G37*
G36*
X187077691Y-62851053D02*
G01*
X187098926Y-62854203D01*
X187119750Y-62859419D01*
X187139962Y-62866651D01*
X187159368Y-62875830D01*
X187177781Y-62886866D01*
X187195024Y-62899654D01*
X187210930Y-62914070D01*
X187225346Y-62929976D01*
X187238134Y-62947219D01*
X187249170Y-62965632D01*
X187258349Y-62985038D01*
X187265581Y-63005250D01*
X187270797Y-63026074D01*
X187273947Y-63047309D01*
X187275000Y-63068750D01*
X187275000Y-63506250D01*
X187273947Y-63527691D01*
X187270797Y-63548926D01*
X187265581Y-63569750D01*
X187258349Y-63589962D01*
X187249170Y-63609368D01*
X187238134Y-63627781D01*
X187225346Y-63645024D01*
X187210930Y-63660930D01*
X187195024Y-63675346D01*
X187177781Y-63688134D01*
X187159368Y-63699170D01*
X187139962Y-63708349D01*
X187119750Y-63715581D01*
X187098926Y-63720797D01*
X187077691Y-63723947D01*
X187056250Y-63725000D01*
X186543750Y-63725000D01*
X186522309Y-63723947D01*
X186501074Y-63720797D01*
X186480250Y-63715581D01*
X186460038Y-63708349D01*
X186440632Y-63699170D01*
X186422219Y-63688134D01*
X186404976Y-63675346D01*
X186389070Y-63660930D01*
X186374654Y-63645024D01*
X186361866Y-63627781D01*
X186350830Y-63609368D01*
X186341651Y-63589962D01*
X186334419Y-63569750D01*
X186329203Y-63548926D01*
X186326053Y-63527691D01*
X186325000Y-63506250D01*
X186325000Y-63068750D01*
X186326053Y-63047309D01*
X186329203Y-63026074D01*
X186334419Y-63005250D01*
X186341651Y-62985038D01*
X186350830Y-62965632D01*
X186361866Y-62947219D01*
X186374654Y-62929976D01*
X186389070Y-62914070D01*
X186404976Y-62899654D01*
X186422219Y-62886866D01*
X186440632Y-62875830D01*
X186460038Y-62866651D01*
X186480250Y-62859419D01*
X186501074Y-62854203D01*
X186522309Y-62851053D01*
X186543750Y-62850000D01*
X187056250Y-62850000D01*
X187077691Y-62851053D01*
G37*
G36*
X183277691Y-87776053D02*
G01*
X183298926Y-87779203D01*
X183319750Y-87784419D01*
X183339962Y-87791651D01*
X183359368Y-87800830D01*
X183377781Y-87811866D01*
X183395024Y-87824654D01*
X183410930Y-87839070D01*
X183425346Y-87854976D01*
X183438134Y-87872219D01*
X183449170Y-87890632D01*
X183458349Y-87910038D01*
X183465581Y-87930250D01*
X183470797Y-87951074D01*
X183473947Y-87972309D01*
X183475000Y-87993750D01*
X183475000Y-88431250D01*
X183473947Y-88452691D01*
X183470797Y-88473926D01*
X183465581Y-88494750D01*
X183458349Y-88514962D01*
X183449170Y-88534368D01*
X183438134Y-88552781D01*
X183425346Y-88570024D01*
X183410930Y-88585930D01*
X183395024Y-88600346D01*
X183377781Y-88613134D01*
X183359368Y-88624170D01*
X183339962Y-88633349D01*
X183319750Y-88640581D01*
X183298926Y-88645797D01*
X183277691Y-88648947D01*
X183256250Y-88650000D01*
X182743750Y-88650000D01*
X182722309Y-88648947D01*
X182701074Y-88645797D01*
X182680250Y-88640581D01*
X182660038Y-88633349D01*
X182640632Y-88624170D01*
X182622219Y-88613134D01*
X182604976Y-88600346D01*
X182589070Y-88585930D01*
X182574654Y-88570024D01*
X182561866Y-88552781D01*
X182550830Y-88534368D01*
X182541651Y-88514962D01*
X182534419Y-88494750D01*
X182529203Y-88473926D01*
X182526053Y-88452691D01*
X182525000Y-88431250D01*
X182525000Y-87993750D01*
X182526053Y-87972309D01*
X182529203Y-87951074D01*
X182534419Y-87930250D01*
X182541651Y-87910038D01*
X182550830Y-87890632D01*
X182561866Y-87872219D01*
X182574654Y-87854976D01*
X182589070Y-87839070D01*
X182604976Y-87824654D01*
X182622219Y-87811866D01*
X182640632Y-87800830D01*
X182660038Y-87791651D01*
X182680250Y-87784419D01*
X182701074Y-87779203D01*
X182722309Y-87776053D01*
X182743750Y-87775000D01*
X183256250Y-87775000D01*
X183277691Y-87776053D01*
G37*
G36*
X183277691Y-89351053D02*
G01*
X183298926Y-89354203D01*
X183319750Y-89359419D01*
X183339962Y-89366651D01*
X183359368Y-89375830D01*
X183377781Y-89386866D01*
X183395024Y-89399654D01*
X183410930Y-89414070D01*
X183425346Y-89429976D01*
X183438134Y-89447219D01*
X183449170Y-89465632D01*
X183458349Y-89485038D01*
X183465581Y-89505250D01*
X183470797Y-89526074D01*
X183473947Y-89547309D01*
X183475000Y-89568750D01*
X183475000Y-90006250D01*
X183473947Y-90027691D01*
X183470797Y-90048926D01*
X183465581Y-90069750D01*
X183458349Y-90089962D01*
X183449170Y-90109368D01*
X183438134Y-90127781D01*
X183425346Y-90145024D01*
X183410930Y-90160930D01*
X183395024Y-90175346D01*
X183377781Y-90188134D01*
X183359368Y-90199170D01*
X183339962Y-90208349D01*
X183319750Y-90215581D01*
X183298926Y-90220797D01*
X183277691Y-90223947D01*
X183256250Y-90225000D01*
X182743750Y-90225000D01*
X182722309Y-90223947D01*
X182701074Y-90220797D01*
X182680250Y-90215581D01*
X182660038Y-90208349D01*
X182640632Y-90199170D01*
X182622219Y-90188134D01*
X182604976Y-90175346D01*
X182589070Y-90160930D01*
X182574654Y-90145024D01*
X182561866Y-90127781D01*
X182550830Y-90109368D01*
X182541651Y-90089962D01*
X182534419Y-90069750D01*
X182529203Y-90048926D01*
X182526053Y-90027691D01*
X182525000Y-90006250D01*
X182525000Y-89568750D01*
X182526053Y-89547309D01*
X182529203Y-89526074D01*
X182534419Y-89505250D01*
X182541651Y-89485038D01*
X182550830Y-89465632D01*
X182561866Y-89447219D01*
X182574654Y-89429976D01*
X182589070Y-89414070D01*
X182604976Y-89399654D01*
X182622219Y-89386866D01*
X182640632Y-89375830D01*
X182660038Y-89366651D01*
X182680250Y-89359419D01*
X182701074Y-89354203D01*
X182722309Y-89351053D01*
X182743750Y-89350000D01*
X183256250Y-89350000D01*
X183277691Y-89351053D01*
G37*
G36*
X156702691Y-70276053D02*
G01*
X156723926Y-70279203D01*
X156744750Y-70284419D01*
X156764962Y-70291651D01*
X156784368Y-70300830D01*
X156802781Y-70311866D01*
X156820024Y-70324654D01*
X156835930Y-70339070D01*
X156850346Y-70354976D01*
X156863134Y-70372219D01*
X156874170Y-70390632D01*
X156883349Y-70410038D01*
X156890581Y-70430250D01*
X156895797Y-70451074D01*
X156898947Y-70472309D01*
X156900000Y-70493750D01*
X156900000Y-71006250D01*
X156898947Y-71027691D01*
X156895797Y-71048926D01*
X156890581Y-71069750D01*
X156883349Y-71089962D01*
X156874170Y-71109368D01*
X156863134Y-71127781D01*
X156850346Y-71145024D01*
X156835930Y-71160930D01*
X156820024Y-71175346D01*
X156802781Y-71188134D01*
X156784368Y-71199170D01*
X156764962Y-71208349D01*
X156744750Y-71215581D01*
X156723926Y-71220797D01*
X156702691Y-71223947D01*
X156681250Y-71225000D01*
X156243750Y-71225000D01*
X156222309Y-71223947D01*
X156201074Y-71220797D01*
X156180250Y-71215581D01*
X156160038Y-71208349D01*
X156140632Y-71199170D01*
X156122219Y-71188134D01*
X156104976Y-71175346D01*
X156089070Y-71160930D01*
X156074654Y-71145024D01*
X156061866Y-71127781D01*
X156050830Y-71109368D01*
X156041651Y-71089962D01*
X156034419Y-71069750D01*
X156029203Y-71048926D01*
X156026053Y-71027691D01*
X156025000Y-71006250D01*
X156025000Y-70493750D01*
X156026053Y-70472309D01*
X156029203Y-70451074D01*
X156034419Y-70430250D01*
X156041651Y-70410038D01*
X156050830Y-70390632D01*
X156061866Y-70372219D01*
X156074654Y-70354976D01*
X156089070Y-70339070D01*
X156104976Y-70324654D01*
X156122219Y-70311866D01*
X156140632Y-70300830D01*
X156160038Y-70291651D01*
X156180250Y-70284419D01*
X156201074Y-70279203D01*
X156222309Y-70276053D01*
X156243750Y-70275000D01*
X156681250Y-70275000D01*
X156702691Y-70276053D01*
G37*
G36*
X158277691Y-70276053D02*
G01*
X158298926Y-70279203D01*
X158319750Y-70284419D01*
X158339962Y-70291651D01*
X158359368Y-70300830D01*
X158377781Y-70311866D01*
X158395024Y-70324654D01*
X158410930Y-70339070D01*
X158425346Y-70354976D01*
X158438134Y-70372219D01*
X158449170Y-70390632D01*
X158458349Y-70410038D01*
X158465581Y-70430250D01*
X158470797Y-70451074D01*
X158473947Y-70472309D01*
X158475000Y-70493750D01*
X158475000Y-71006250D01*
X158473947Y-71027691D01*
X158470797Y-71048926D01*
X158465581Y-71069750D01*
X158458349Y-71089962D01*
X158449170Y-71109368D01*
X158438134Y-71127781D01*
X158425346Y-71145024D01*
X158410930Y-71160930D01*
X158395024Y-71175346D01*
X158377781Y-71188134D01*
X158359368Y-71199170D01*
X158339962Y-71208349D01*
X158319750Y-71215581D01*
X158298926Y-71220797D01*
X158277691Y-71223947D01*
X158256250Y-71225000D01*
X157818750Y-71225000D01*
X157797309Y-71223947D01*
X157776074Y-71220797D01*
X157755250Y-71215581D01*
X157735038Y-71208349D01*
X157715632Y-71199170D01*
X157697219Y-71188134D01*
X157679976Y-71175346D01*
X157664070Y-71160930D01*
X157649654Y-71145024D01*
X157636866Y-71127781D01*
X157625830Y-71109368D01*
X157616651Y-71089962D01*
X157609419Y-71069750D01*
X157604203Y-71048926D01*
X157601053Y-71027691D01*
X157600000Y-71006250D01*
X157600000Y-70493750D01*
X157601053Y-70472309D01*
X157604203Y-70451074D01*
X157609419Y-70430250D01*
X157616651Y-70410038D01*
X157625830Y-70390632D01*
X157636866Y-70372219D01*
X157649654Y-70354976D01*
X157664070Y-70339070D01*
X157679976Y-70324654D01*
X157697219Y-70311866D01*
X157715632Y-70300830D01*
X157735038Y-70291651D01*
X157755250Y-70284419D01*
X157776074Y-70279203D01*
X157797309Y-70276053D01*
X157818750Y-70275000D01*
X158256250Y-70275000D01*
X158277691Y-70276053D01*
G37*
G36*
X165452691Y-87726053D02*
G01*
X165473926Y-87729203D01*
X165494750Y-87734419D01*
X165514962Y-87741651D01*
X165534368Y-87750830D01*
X165552781Y-87761866D01*
X165570024Y-87774654D01*
X165585930Y-87789070D01*
X165600346Y-87804976D01*
X165613134Y-87822219D01*
X165624170Y-87840632D01*
X165633349Y-87860038D01*
X165640581Y-87880250D01*
X165645797Y-87901074D01*
X165648947Y-87922309D01*
X165650000Y-87943750D01*
X165650000Y-88456250D01*
X165648947Y-88477691D01*
X165645797Y-88498926D01*
X165640581Y-88519750D01*
X165633349Y-88539962D01*
X165624170Y-88559368D01*
X165613134Y-88577781D01*
X165600346Y-88595024D01*
X165585930Y-88610930D01*
X165570024Y-88625346D01*
X165552781Y-88638134D01*
X165534368Y-88649170D01*
X165514962Y-88658349D01*
X165494750Y-88665581D01*
X165473926Y-88670797D01*
X165452691Y-88673947D01*
X165431250Y-88675000D01*
X164993750Y-88675000D01*
X164972309Y-88673947D01*
X164951074Y-88670797D01*
X164930250Y-88665581D01*
X164910038Y-88658349D01*
X164890632Y-88649170D01*
X164872219Y-88638134D01*
X164854976Y-88625346D01*
X164839070Y-88610930D01*
X164824654Y-88595024D01*
X164811866Y-88577781D01*
X164800830Y-88559368D01*
X164791651Y-88539962D01*
X164784419Y-88519750D01*
X164779203Y-88498926D01*
X164776053Y-88477691D01*
X164775000Y-88456250D01*
X164775000Y-87943750D01*
X164776053Y-87922309D01*
X164779203Y-87901074D01*
X164784419Y-87880250D01*
X164791651Y-87860038D01*
X164800830Y-87840632D01*
X164811866Y-87822219D01*
X164824654Y-87804976D01*
X164839070Y-87789070D01*
X164854976Y-87774654D01*
X164872219Y-87761866D01*
X164890632Y-87750830D01*
X164910038Y-87741651D01*
X164930250Y-87734419D01*
X164951074Y-87729203D01*
X164972309Y-87726053D01*
X164993750Y-87725000D01*
X165431250Y-87725000D01*
X165452691Y-87726053D01*
G37*
G36*
X167027691Y-87726053D02*
G01*
X167048926Y-87729203D01*
X167069750Y-87734419D01*
X167089962Y-87741651D01*
X167109368Y-87750830D01*
X167127781Y-87761866D01*
X167145024Y-87774654D01*
X167160930Y-87789070D01*
X167175346Y-87804976D01*
X167188134Y-87822219D01*
X167199170Y-87840632D01*
X167208349Y-87860038D01*
X167215581Y-87880250D01*
X167220797Y-87901074D01*
X167223947Y-87922309D01*
X167225000Y-87943750D01*
X167225000Y-88456250D01*
X167223947Y-88477691D01*
X167220797Y-88498926D01*
X167215581Y-88519750D01*
X167208349Y-88539962D01*
X167199170Y-88559368D01*
X167188134Y-88577781D01*
X167175346Y-88595024D01*
X167160930Y-88610930D01*
X167145024Y-88625346D01*
X167127781Y-88638134D01*
X167109368Y-88649170D01*
X167089962Y-88658349D01*
X167069750Y-88665581D01*
X167048926Y-88670797D01*
X167027691Y-88673947D01*
X167006250Y-88675000D01*
X166568750Y-88675000D01*
X166547309Y-88673947D01*
X166526074Y-88670797D01*
X166505250Y-88665581D01*
X166485038Y-88658349D01*
X166465632Y-88649170D01*
X166447219Y-88638134D01*
X166429976Y-88625346D01*
X166414070Y-88610930D01*
X166399654Y-88595024D01*
X166386866Y-88577781D01*
X166375830Y-88559368D01*
X166366651Y-88539962D01*
X166359419Y-88519750D01*
X166354203Y-88498926D01*
X166351053Y-88477691D01*
X166350000Y-88456250D01*
X166350000Y-87943750D01*
X166351053Y-87922309D01*
X166354203Y-87901074D01*
X166359419Y-87880250D01*
X166366651Y-87860038D01*
X166375830Y-87840632D01*
X166386866Y-87822219D01*
X166399654Y-87804976D01*
X166414070Y-87789070D01*
X166429976Y-87774654D01*
X166447219Y-87761866D01*
X166465632Y-87750830D01*
X166485038Y-87741651D01*
X166505250Y-87734419D01*
X166526074Y-87729203D01*
X166547309Y-87726053D01*
X166568750Y-87725000D01*
X167006250Y-87725000D01*
X167027691Y-87726053D01*
G37*
G36*
X165452691Y-90126053D02*
G01*
X165473926Y-90129203D01*
X165494750Y-90134419D01*
X165514962Y-90141651D01*
X165534368Y-90150830D01*
X165552781Y-90161866D01*
X165570024Y-90174654D01*
X165585930Y-90189070D01*
X165600346Y-90204976D01*
X165613134Y-90222219D01*
X165624170Y-90240632D01*
X165633349Y-90260038D01*
X165640581Y-90280250D01*
X165645797Y-90301074D01*
X165648947Y-90322309D01*
X165650000Y-90343750D01*
X165650000Y-90856250D01*
X165648947Y-90877691D01*
X165645797Y-90898926D01*
X165640581Y-90919750D01*
X165633349Y-90939962D01*
X165624170Y-90959368D01*
X165613134Y-90977781D01*
X165600346Y-90995024D01*
X165585930Y-91010930D01*
X165570024Y-91025346D01*
X165552781Y-91038134D01*
X165534368Y-91049170D01*
X165514962Y-91058349D01*
X165494750Y-91065581D01*
X165473926Y-91070797D01*
X165452691Y-91073947D01*
X165431250Y-91075000D01*
X164993750Y-91075000D01*
X164972309Y-91073947D01*
X164951074Y-91070797D01*
X164930250Y-91065581D01*
X164910038Y-91058349D01*
X164890632Y-91049170D01*
X164872219Y-91038134D01*
X164854976Y-91025346D01*
X164839070Y-91010930D01*
X164824654Y-90995024D01*
X164811866Y-90977781D01*
X164800830Y-90959368D01*
X164791651Y-90939962D01*
X164784419Y-90919750D01*
X164779203Y-90898926D01*
X164776053Y-90877691D01*
X164775000Y-90856250D01*
X164775000Y-90343750D01*
X164776053Y-90322309D01*
X164779203Y-90301074D01*
X164784419Y-90280250D01*
X164791651Y-90260038D01*
X164800830Y-90240632D01*
X164811866Y-90222219D01*
X164824654Y-90204976D01*
X164839070Y-90189070D01*
X164854976Y-90174654D01*
X164872219Y-90161866D01*
X164890632Y-90150830D01*
X164910038Y-90141651D01*
X164930250Y-90134419D01*
X164951074Y-90129203D01*
X164972309Y-90126053D01*
X164993750Y-90125000D01*
X165431250Y-90125000D01*
X165452691Y-90126053D01*
G37*
G36*
X167027691Y-90126053D02*
G01*
X167048926Y-90129203D01*
X167069750Y-90134419D01*
X167089962Y-90141651D01*
X167109368Y-90150830D01*
X167127781Y-90161866D01*
X167145024Y-90174654D01*
X167160930Y-90189070D01*
X167175346Y-90204976D01*
X167188134Y-90222219D01*
X167199170Y-90240632D01*
X167208349Y-90260038D01*
X167215581Y-90280250D01*
X167220797Y-90301074D01*
X167223947Y-90322309D01*
X167225000Y-90343750D01*
X167225000Y-90856250D01*
X167223947Y-90877691D01*
X167220797Y-90898926D01*
X167215581Y-90919750D01*
X167208349Y-90939962D01*
X167199170Y-90959368D01*
X167188134Y-90977781D01*
X167175346Y-90995024D01*
X167160930Y-91010930D01*
X167145024Y-91025346D01*
X167127781Y-91038134D01*
X167109368Y-91049170D01*
X167089962Y-91058349D01*
X167069750Y-91065581D01*
X167048926Y-91070797D01*
X167027691Y-91073947D01*
X167006250Y-91075000D01*
X166568750Y-91075000D01*
X166547309Y-91073947D01*
X166526074Y-91070797D01*
X166505250Y-91065581D01*
X166485038Y-91058349D01*
X166465632Y-91049170D01*
X166447219Y-91038134D01*
X166429976Y-91025346D01*
X166414070Y-91010930D01*
X166399654Y-90995024D01*
X166386866Y-90977781D01*
X166375830Y-90959368D01*
X166366651Y-90939962D01*
X166359419Y-90919750D01*
X166354203Y-90898926D01*
X166351053Y-90877691D01*
X166350000Y-90856250D01*
X166350000Y-90343750D01*
X166351053Y-90322309D01*
X166354203Y-90301074D01*
X166359419Y-90280250D01*
X166366651Y-90260038D01*
X166375830Y-90240632D01*
X166386866Y-90222219D01*
X166399654Y-90204976D01*
X166414070Y-90189070D01*
X166429976Y-90174654D01*
X166447219Y-90161866D01*
X166465632Y-90150830D01*
X166485038Y-90141651D01*
X166505250Y-90134419D01*
X166526074Y-90129203D01*
X166547309Y-90126053D01*
X166568750Y-90125000D01*
X167006250Y-90125000D01*
X167027691Y-90126053D01*
G37*
G36*
X165452691Y-92526053D02*
G01*
X165473926Y-92529203D01*
X165494750Y-92534419D01*
X165514962Y-92541651D01*
X165534368Y-92550830D01*
X165552781Y-92561866D01*
X165570024Y-92574654D01*
X165585930Y-92589070D01*
X165600346Y-92604976D01*
X165613134Y-92622219D01*
X165624170Y-92640632D01*
X165633349Y-92660038D01*
X165640581Y-92680250D01*
X165645797Y-92701074D01*
X165648947Y-92722309D01*
X165650000Y-92743750D01*
X165650000Y-93256250D01*
X165648947Y-93277691D01*
X165645797Y-93298926D01*
X165640581Y-93319750D01*
X165633349Y-93339962D01*
X165624170Y-93359368D01*
X165613134Y-93377781D01*
X165600346Y-93395024D01*
X165585930Y-93410930D01*
X165570024Y-93425346D01*
X165552781Y-93438134D01*
X165534368Y-93449170D01*
X165514962Y-93458349D01*
X165494750Y-93465581D01*
X165473926Y-93470797D01*
X165452691Y-93473947D01*
X165431250Y-93475000D01*
X164993750Y-93475000D01*
X164972309Y-93473947D01*
X164951074Y-93470797D01*
X164930250Y-93465581D01*
X164910038Y-93458349D01*
X164890632Y-93449170D01*
X164872219Y-93438134D01*
X164854976Y-93425346D01*
X164839070Y-93410930D01*
X164824654Y-93395024D01*
X164811866Y-93377781D01*
X164800830Y-93359368D01*
X164791651Y-93339962D01*
X164784419Y-93319750D01*
X164779203Y-93298926D01*
X164776053Y-93277691D01*
X164775000Y-93256250D01*
X164775000Y-92743750D01*
X164776053Y-92722309D01*
X164779203Y-92701074D01*
X164784419Y-92680250D01*
X164791651Y-92660038D01*
X164800830Y-92640632D01*
X164811866Y-92622219D01*
X164824654Y-92604976D01*
X164839070Y-92589070D01*
X164854976Y-92574654D01*
X164872219Y-92561866D01*
X164890632Y-92550830D01*
X164910038Y-92541651D01*
X164930250Y-92534419D01*
X164951074Y-92529203D01*
X164972309Y-92526053D01*
X164993750Y-92525000D01*
X165431250Y-92525000D01*
X165452691Y-92526053D01*
G37*
G36*
X167027691Y-92526053D02*
G01*
X167048926Y-92529203D01*
X167069750Y-92534419D01*
X167089962Y-92541651D01*
X167109368Y-92550830D01*
X167127781Y-92561866D01*
X167145024Y-92574654D01*
X167160930Y-92589070D01*
X167175346Y-92604976D01*
X167188134Y-92622219D01*
X167199170Y-92640632D01*
X167208349Y-92660038D01*
X167215581Y-92680250D01*
X167220797Y-92701074D01*
X167223947Y-92722309D01*
X167225000Y-92743750D01*
X167225000Y-93256250D01*
X167223947Y-93277691D01*
X167220797Y-93298926D01*
X167215581Y-93319750D01*
X167208349Y-93339962D01*
X167199170Y-93359368D01*
X167188134Y-93377781D01*
X167175346Y-93395024D01*
X167160930Y-93410930D01*
X167145024Y-93425346D01*
X167127781Y-93438134D01*
X167109368Y-93449170D01*
X167089962Y-93458349D01*
X167069750Y-93465581D01*
X167048926Y-93470797D01*
X167027691Y-93473947D01*
X167006250Y-93475000D01*
X166568750Y-93475000D01*
X166547309Y-93473947D01*
X166526074Y-93470797D01*
X166505250Y-93465581D01*
X166485038Y-93458349D01*
X166465632Y-93449170D01*
X166447219Y-93438134D01*
X166429976Y-93425346D01*
X166414070Y-93410930D01*
X166399654Y-93395024D01*
X166386866Y-93377781D01*
X166375830Y-93359368D01*
X166366651Y-93339962D01*
X166359419Y-93319750D01*
X166354203Y-93298926D01*
X166351053Y-93277691D01*
X166350000Y-93256250D01*
X166350000Y-92743750D01*
X166351053Y-92722309D01*
X166354203Y-92701074D01*
X166359419Y-92680250D01*
X166366651Y-92660038D01*
X166375830Y-92640632D01*
X166386866Y-92622219D01*
X166399654Y-92604976D01*
X166414070Y-92589070D01*
X166429976Y-92574654D01*
X166447219Y-92561866D01*
X166465632Y-92550830D01*
X166485038Y-92541651D01*
X166505250Y-92534419D01*
X166526074Y-92529203D01*
X166547309Y-92526053D01*
X166568750Y-92525000D01*
X167006250Y-92525000D01*
X167027691Y-92526053D01*
G37*
G36*
X156702691Y-68526053D02*
G01*
X156723926Y-68529203D01*
X156744750Y-68534419D01*
X156764962Y-68541651D01*
X156784368Y-68550830D01*
X156802781Y-68561866D01*
X156820024Y-68574654D01*
X156835930Y-68589070D01*
X156850346Y-68604976D01*
X156863134Y-68622219D01*
X156874170Y-68640632D01*
X156883349Y-68660038D01*
X156890581Y-68680250D01*
X156895797Y-68701074D01*
X156898947Y-68722309D01*
X156900000Y-68743750D01*
X156900000Y-69256250D01*
X156898947Y-69277691D01*
X156895797Y-69298926D01*
X156890581Y-69319750D01*
X156883349Y-69339962D01*
X156874170Y-69359368D01*
X156863134Y-69377781D01*
X156850346Y-69395024D01*
X156835930Y-69410930D01*
X156820024Y-69425346D01*
X156802781Y-69438134D01*
X156784368Y-69449170D01*
X156764962Y-69458349D01*
X156744750Y-69465581D01*
X156723926Y-69470797D01*
X156702691Y-69473947D01*
X156681250Y-69475000D01*
X156243750Y-69475000D01*
X156222309Y-69473947D01*
X156201074Y-69470797D01*
X156180250Y-69465581D01*
X156160038Y-69458349D01*
X156140632Y-69449170D01*
X156122219Y-69438134D01*
X156104976Y-69425346D01*
X156089070Y-69410930D01*
X156074654Y-69395024D01*
X156061866Y-69377781D01*
X156050830Y-69359368D01*
X156041651Y-69339962D01*
X156034419Y-69319750D01*
X156029203Y-69298926D01*
X156026053Y-69277691D01*
X156025000Y-69256250D01*
X156025000Y-68743750D01*
X156026053Y-68722309D01*
X156029203Y-68701074D01*
X156034419Y-68680250D01*
X156041651Y-68660038D01*
X156050830Y-68640632D01*
X156061866Y-68622219D01*
X156074654Y-68604976D01*
X156089070Y-68589070D01*
X156104976Y-68574654D01*
X156122219Y-68561866D01*
X156140632Y-68550830D01*
X156160038Y-68541651D01*
X156180250Y-68534419D01*
X156201074Y-68529203D01*
X156222309Y-68526053D01*
X156243750Y-68525000D01*
X156681250Y-68525000D01*
X156702691Y-68526053D01*
G37*
G36*
X158277691Y-68526053D02*
G01*
X158298926Y-68529203D01*
X158319750Y-68534419D01*
X158339962Y-68541651D01*
X158359368Y-68550830D01*
X158377781Y-68561866D01*
X158395024Y-68574654D01*
X158410930Y-68589070D01*
X158425346Y-68604976D01*
X158438134Y-68622219D01*
X158449170Y-68640632D01*
X158458349Y-68660038D01*
X158465581Y-68680250D01*
X158470797Y-68701074D01*
X158473947Y-68722309D01*
X158475000Y-68743750D01*
X158475000Y-69256250D01*
X158473947Y-69277691D01*
X158470797Y-69298926D01*
X158465581Y-69319750D01*
X158458349Y-69339962D01*
X158449170Y-69359368D01*
X158438134Y-69377781D01*
X158425346Y-69395024D01*
X158410930Y-69410930D01*
X158395024Y-69425346D01*
X158377781Y-69438134D01*
X158359368Y-69449170D01*
X158339962Y-69458349D01*
X158319750Y-69465581D01*
X158298926Y-69470797D01*
X158277691Y-69473947D01*
X158256250Y-69475000D01*
X157818750Y-69475000D01*
X157797309Y-69473947D01*
X157776074Y-69470797D01*
X157755250Y-69465581D01*
X157735038Y-69458349D01*
X157715632Y-69449170D01*
X157697219Y-69438134D01*
X157679976Y-69425346D01*
X157664070Y-69410930D01*
X157649654Y-69395024D01*
X157636866Y-69377781D01*
X157625830Y-69359368D01*
X157616651Y-69339962D01*
X157609419Y-69319750D01*
X157604203Y-69298926D01*
X157601053Y-69277691D01*
X157600000Y-69256250D01*
X157600000Y-68743750D01*
X157601053Y-68722309D01*
X157604203Y-68701074D01*
X157609419Y-68680250D01*
X157616651Y-68660038D01*
X157625830Y-68640632D01*
X157636866Y-68622219D01*
X157649654Y-68604976D01*
X157664070Y-68589070D01*
X157679976Y-68574654D01*
X157697219Y-68561866D01*
X157715632Y-68550830D01*
X157735038Y-68541651D01*
X157755250Y-68534419D01*
X157776074Y-68529203D01*
X157797309Y-68526053D01*
X157818750Y-68525000D01*
X158256250Y-68525000D01*
X158277691Y-68526053D01*
G37*
M02*
