G04 #@! TF.GenerationSoftware,KiCad,Pcbnew,(5.1.5)-3*
G04 #@! TF.CreationDate,2020-02-29T22:05:21+08:00*
G04 #@! TF.ProjectId,smartdisplay,736d6172-7464-4697-9370-6c61792e6b69,rev?*
G04 #@! TF.SameCoordinates,Original*
G04 #@! TF.FileFunction,Soldermask,Top*
G04 #@! TF.FilePolarity,Negative*
%FSLAX46Y46*%
G04 Gerber Fmt 4.6, Leading zero omitted, Abs format (unit mm)*
G04 Created by KiCad (PCBNEW (5.1.5)-3) date 2020-02-29 22:05:21*
%MOMM*%
%LPD*%
G04 APERTURE LIST*
%ADD10C,0.150000*%
%ADD11C,0.100000*%
G04 APERTURE END LIST*
D10*
X105000000Y-61000000D02*
X106000000Y-61000000D01*
X105000000Y-99000000D02*
X105000000Y-61000000D01*
X195000000Y-99000000D02*
X105000000Y-99000000D01*
X195000000Y-61000000D02*
X195000000Y-99000000D01*
X106000000Y-61000000D02*
X195000000Y-61000000D01*
D11*
G36*
X199278215Y-98696511D02*
G01*
X199363040Y-98722242D01*
X199385441Y-98734216D01*
X199441216Y-98764029D01*
X199509737Y-98820263D01*
X199565971Y-98888784D01*
X199586222Y-98926670D01*
X199607758Y-98966960D01*
X199633489Y-99051785D01*
X199642177Y-99140000D01*
X199633489Y-99228215D01*
X199607758Y-99313040D01*
X199607757Y-99313041D01*
X199565971Y-99391216D01*
X199509737Y-99459737D01*
X199441216Y-99515971D01*
X199399429Y-99538307D01*
X199363040Y-99557758D01*
X199278215Y-99583489D01*
X199212106Y-99590000D01*
X198567894Y-99590000D01*
X198501785Y-99583489D01*
X198416960Y-99557758D01*
X198380571Y-99538307D01*
X198338784Y-99515971D01*
X198270263Y-99459737D01*
X198214029Y-99391216D01*
X198172243Y-99313041D01*
X198172242Y-99313040D01*
X198146511Y-99228215D01*
X198137823Y-99140000D01*
X198146511Y-99051785D01*
X198172242Y-98966960D01*
X198193778Y-98926670D01*
X198214029Y-98888784D01*
X198270263Y-98820263D01*
X198338784Y-98764029D01*
X198394559Y-98734216D01*
X198416960Y-98722242D01*
X198501785Y-98696511D01*
X198567894Y-98690000D01*
X199212106Y-98690000D01*
X199278215Y-98696511D01*
G37*
G36*
X189548879Y-98304440D02*
G01*
X189589870Y-98316874D01*
X189627645Y-98337065D01*
X189660758Y-98364242D01*
X189687935Y-98397355D01*
X189708126Y-98435130D01*
X189720560Y-98476121D01*
X189725000Y-98521204D01*
X189725000Y-99053796D01*
X189720560Y-99098879D01*
X189708126Y-99139870D01*
X189687935Y-99177645D01*
X189660758Y-99210758D01*
X189627645Y-99237935D01*
X189589870Y-99258126D01*
X189548879Y-99270560D01*
X189503796Y-99275000D01*
X188896204Y-99275000D01*
X188851121Y-99270560D01*
X188810130Y-99258126D01*
X188772355Y-99237935D01*
X188739242Y-99210758D01*
X188712065Y-99177645D01*
X188691874Y-99139870D01*
X188679440Y-99098879D01*
X188675000Y-99053796D01*
X188675000Y-98521204D01*
X188679440Y-98476121D01*
X188691874Y-98435130D01*
X188712065Y-98397355D01*
X188739242Y-98364242D01*
X188772355Y-98337065D01*
X188810130Y-98316874D01*
X188851121Y-98304440D01*
X188896204Y-98300000D01*
X189503796Y-98300000D01*
X189548879Y-98304440D01*
G37*
G36*
X187348879Y-98304440D02*
G01*
X187389870Y-98316874D01*
X187427645Y-98337065D01*
X187460758Y-98364242D01*
X187487935Y-98397355D01*
X187508126Y-98435130D01*
X187520560Y-98476121D01*
X187525000Y-98521204D01*
X187525000Y-99053796D01*
X187520560Y-99098879D01*
X187508126Y-99139870D01*
X187487935Y-99177645D01*
X187460758Y-99210758D01*
X187427645Y-99237935D01*
X187389870Y-99258126D01*
X187348879Y-99270560D01*
X187303796Y-99275000D01*
X186696204Y-99275000D01*
X186651121Y-99270560D01*
X186610130Y-99258126D01*
X186572355Y-99237935D01*
X186539242Y-99210758D01*
X186512065Y-99177645D01*
X186491874Y-99139870D01*
X186479440Y-99098879D01*
X186475000Y-99053796D01*
X186475000Y-98521204D01*
X186479440Y-98476121D01*
X186491874Y-98435130D01*
X186512065Y-98397355D01*
X186539242Y-98364242D01*
X186572355Y-98337065D01*
X186610130Y-98316874D01*
X186651121Y-98304440D01*
X186696204Y-98300000D01*
X187303796Y-98300000D01*
X187348879Y-98304440D01*
G37*
G36*
X193328215Y-98336511D02*
G01*
X193413040Y-98362242D01*
X193449429Y-98381693D01*
X193491216Y-98404029D01*
X193559737Y-98460263D01*
X193615971Y-98528784D01*
X193638307Y-98570571D01*
X193657758Y-98606960D01*
X193683489Y-98691785D01*
X193692177Y-98780000D01*
X193683489Y-98868215D01*
X193657758Y-98953040D01*
X193650318Y-98966959D01*
X193615971Y-99031216D01*
X193559737Y-99099737D01*
X193491216Y-99155971D01*
X193450667Y-99177645D01*
X193413040Y-99197758D01*
X193328215Y-99223489D01*
X193262106Y-99230000D01*
X192617894Y-99230000D01*
X192551785Y-99223489D01*
X192466960Y-99197758D01*
X192429333Y-99177645D01*
X192388784Y-99155971D01*
X192320263Y-99099737D01*
X192264029Y-99031216D01*
X192229682Y-98966959D01*
X192222242Y-98953040D01*
X192196511Y-98868215D01*
X192187823Y-98780000D01*
X192196511Y-98691785D01*
X192222242Y-98606960D01*
X192241693Y-98570571D01*
X192264029Y-98528784D01*
X192320263Y-98460263D01*
X192388784Y-98404029D01*
X192430571Y-98381693D01*
X192466960Y-98362242D01*
X192551785Y-98336511D01*
X192617894Y-98330000D01*
X193262106Y-98330000D01*
X193328215Y-98336511D01*
G37*
G36*
X163473879Y-97989440D02*
G01*
X163514870Y-98001874D01*
X163552645Y-98022065D01*
X163585758Y-98049242D01*
X163612935Y-98082355D01*
X163633126Y-98120130D01*
X163645560Y-98161121D01*
X163650000Y-98206204D01*
X163650000Y-98813796D01*
X163645560Y-98858879D01*
X163633126Y-98899870D01*
X163612935Y-98937645D01*
X163585758Y-98970758D01*
X163552645Y-98997935D01*
X163514870Y-99018126D01*
X163473879Y-99030560D01*
X163428796Y-99035000D01*
X162896204Y-99035000D01*
X162851121Y-99030560D01*
X162810130Y-99018126D01*
X162772355Y-98997935D01*
X162739242Y-98970758D01*
X162712065Y-98937645D01*
X162691874Y-98899870D01*
X162679440Y-98858879D01*
X162675000Y-98813796D01*
X162675000Y-98206204D01*
X162679440Y-98161121D01*
X162691874Y-98120130D01*
X162712065Y-98082355D01*
X162739242Y-98049242D01*
X162772355Y-98022065D01*
X162810130Y-98001874D01*
X162851121Y-97989440D01*
X162896204Y-97985000D01*
X163428796Y-97985000D01*
X163473879Y-97989440D01*
G37*
G36*
X165048879Y-97989440D02*
G01*
X165089870Y-98001874D01*
X165127645Y-98022065D01*
X165160758Y-98049242D01*
X165187935Y-98082355D01*
X165208126Y-98120130D01*
X165220560Y-98161121D01*
X165225000Y-98206204D01*
X165225000Y-98813796D01*
X165220560Y-98858879D01*
X165208126Y-98899870D01*
X165187935Y-98937645D01*
X165160758Y-98970758D01*
X165127645Y-98997935D01*
X165089870Y-99018126D01*
X165048879Y-99030560D01*
X165003796Y-99035000D01*
X164471204Y-99035000D01*
X164426121Y-99030560D01*
X164385130Y-99018126D01*
X164347355Y-98997935D01*
X164314242Y-98970758D01*
X164287065Y-98937645D01*
X164266874Y-98899870D01*
X164254440Y-98858879D01*
X164250000Y-98813796D01*
X164250000Y-98206204D01*
X164254440Y-98161121D01*
X164266874Y-98120130D01*
X164287065Y-98082355D01*
X164314242Y-98049242D01*
X164347355Y-98022065D01*
X164385130Y-98001874D01*
X164426121Y-97989440D01*
X164471204Y-97985000D01*
X165003796Y-97985000D01*
X165048879Y-97989440D01*
G37*
G36*
X185179216Y-98158119D02*
G01*
X185207309Y-98166641D01*
X185233204Y-98180483D01*
X185255896Y-98199104D01*
X185274517Y-98221796D01*
X185288359Y-98247691D01*
X185296881Y-98275784D01*
X185300000Y-98307454D01*
X185300000Y-98702546D01*
X185296881Y-98734216D01*
X185288359Y-98762309D01*
X185274517Y-98788204D01*
X185255896Y-98810896D01*
X185233204Y-98829517D01*
X185207309Y-98843359D01*
X185179216Y-98851881D01*
X185147546Y-98855000D01*
X183702454Y-98855000D01*
X183670784Y-98851881D01*
X183642691Y-98843359D01*
X183616796Y-98829517D01*
X183594104Y-98810896D01*
X183575483Y-98788204D01*
X183561641Y-98762309D01*
X183553119Y-98734216D01*
X183550000Y-98702546D01*
X183550000Y-98307454D01*
X183553119Y-98275784D01*
X183561641Y-98247691D01*
X183575483Y-98221796D01*
X183594104Y-98199104D01*
X183616796Y-98180483D01*
X183642691Y-98166641D01*
X183670784Y-98158119D01*
X183702454Y-98155000D01*
X185147546Y-98155000D01*
X185179216Y-98158119D01*
G37*
G36*
X179929216Y-98158119D02*
G01*
X179957309Y-98166641D01*
X179983204Y-98180483D01*
X180005896Y-98199104D01*
X180024517Y-98221796D01*
X180038359Y-98247691D01*
X180046881Y-98275784D01*
X180050000Y-98307454D01*
X180050000Y-98702546D01*
X180046881Y-98734216D01*
X180038359Y-98762309D01*
X180024517Y-98788204D01*
X180005896Y-98810896D01*
X179983204Y-98829517D01*
X179957309Y-98843359D01*
X179929216Y-98851881D01*
X179897546Y-98855000D01*
X178452454Y-98855000D01*
X178420784Y-98851881D01*
X178392691Y-98843359D01*
X178366796Y-98829517D01*
X178344104Y-98810896D01*
X178325483Y-98788204D01*
X178311641Y-98762309D01*
X178303119Y-98734216D01*
X178300000Y-98702546D01*
X178300000Y-98307454D01*
X178303119Y-98275784D01*
X178311641Y-98247691D01*
X178325483Y-98221796D01*
X178344104Y-98199104D01*
X178366796Y-98180483D01*
X178392691Y-98166641D01*
X178420784Y-98158119D01*
X178452454Y-98155000D01*
X179897546Y-98155000D01*
X179929216Y-98158119D01*
G37*
G36*
X160809101Y-96250265D02*
G01*
X160809104Y-96250266D01*
X160809103Y-96250266D01*
X161045630Y-96348238D01*
X161183156Y-96440130D01*
X161258497Y-96490471D01*
X161439529Y-96671503D01*
X161452939Y-96691573D01*
X161581762Y-96884370D01*
X161626770Y-96993030D01*
X161679735Y-97120899D01*
X161729680Y-97371991D01*
X161729680Y-97628009D01*
X161679735Y-97879101D01*
X161679734Y-97879103D01*
X161581762Y-98115630D01*
X161483272Y-98263030D01*
X161439529Y-98328497D01*
X161258497Y-98509529D01*
X161229678Y-98528785D01*
X161045630Y-98651762D01*
X160849684Y-98732925D01*
X160809101Y-98749735D01*
X160558009Y-98799680D01*
X160301991Y-98799680D01*
X160050899Y-98749735D01*
X160010316Y-98732925D01*
X159814370Y-98651762D01*
X159630322Y-98528785D01*
X159601503Y-98509529D01*
X159420471Y-98328497D01*
X159376728Y-98263030D01*
X159278238Y-98115630D01*
X159180266Y-97879103D01*
X159180265Y-97879101D01*
X159130320Y-97628009D01*
X159130320Y-97371991D01*
X159180265Y-97120899D01*
X159233230Y-96993030D01*
X159278238Y-96884370D01*
X159407061Y-96691573D01*
X159420471Y-96671503D01*
X159601503Y-96490471D01*
X159676844Y-96440130D01*
X159814370Y-96348238D01*
X160050897Y-96250266D01*
X160050896Y-96250266D01*
X160050899Y-96250265D01*
X160301991Y-96200320D01*
X160558009Y-96200320D01*
X160809101Y-96250265D01*
G37*
G36*
X156999101Y-96250265D02*
G01*
X156999104Y-96250266D01*
X156999103Y-96250266D01*
X157235630Y-96348238D01*
X157373156Y-96440130D01*
X157448497Y-96490471D01*
X157629529Y-96671503D01*
X157642939Y-96691573D01*
X157771762Y-96884370D01*
X157816770Y-96993030D01*
X157869735Y-97120899D01*
X157919680Y-97371991D01*
X157919680Y-97628009D01*
X157869735Y-97879101D01*
X157869734Y-97879103D01*
X157771762Y-98115630D01*
X157673272Y-98263030D01*
X157629529Y-98328497D01*
X157448497Y-98509529D01*
X157419678Y-98528785D01*
X157235630Y-98651762D01*
X157039684Y-98732925D01*
X156999101Y-98749735D01*
X156748009Y-98799680D01*
X156491991Y-98799680D01*
X156240899Y-98749735D01*
X156200316Y-98732925D01*
X156004370Y-98651762D01*
X155820322Y-98528785D01*
X155791503Y-98509529D01*
X155610471Y-98328497D01*
X155566728Y-98263030D01*
X155468238Y-98115630D01*
X155370266Y-97879103D01*
X155370265Y-97879101D01*
X155320320Y-97628009D01*
X155320320Y-97371991D01*
X155370265Y-97120899D01*
X155423230Y-96993030D01*
X155468238Y-96884370D01*
X155597061Y-96691573D01*
X155610471Y-96671503D01*
X155791503Y-96490471D01*
X155866844Y-96440130D01*
X156004370Y-96348238D01*
X156240897Y-96250266D01*
X156240896Y-96250266D01*
X156240899Y-96250265D01*
X156491991Y-96200320D01*
X156748009Y-96200320D01*
X156999101Y-96250265D01*
G37*
G36*
X153189101Y-96250265D02*
G01*
X153189104Y-96250266D01*
X153189103Y-96250266D01*
X153425630Y-96348238D01*
X153563156Y-96440130D01*
X153638497Y-96490471D01*
X153819529Y-96671503D01*
X153832939Y-96691573D01*
X153961762Y-96884370D01*
X154006770Y-96993030D01*
X154059735Y-97120899D01*
X154109680Y-97371991D01*
X154109680Y-97628009D01*
X154059735Y-97879101D01*
X154059734Y-97879103D01*
X153961762Y-98115630D01*
X153863272Y-98263030D01*
X153819529Y-98328497D01*
X153638497Y-98509529D01*
X153609678Y-98528785D01*
X153425630Y-98651762D01*
X153229684Y-98732925D01*
X153189101Y-98749735D01*
X152938009Y-98799680D01*
X152681991Y-98799680D01*
X152430899Y-98749735D01*
X152390316Y-98732925D01*
X152194370Y-98651762D01*
X152010322Y-98528785D01*
X151981503Y-98509529D01*
X151800471Y-98328497D01*
X151756728Y-98263030D01*
X151658238Y-98115630D01*
X151560266Y-97879103D01*
X151560265Y-97879101D01*
X151510320Y-97628009D01*
X151510320Y-97371991D01*
X151560265Y-97120899D01*
X151613230Y-96993030D01*
X151658238Y-96884370D01*
X151787061Y-96691573D01*
X151800471Y-96671503D01*
X151981503Y-96490471D01*
X152056844Y-96440130D01*
X152194370Y-96348238D01*
X152430897Y-96250266D01*
X152430896Y-96250266D01*
X152430899Y-96250265D01*
X152681991Y-96200320D01*
X152938009Y-96200320D01*
X153189101Y-96250265D01*
G37*
G36*
X150299680Y-98799680D02*
G01*
X147700320Y-98799680D01*
X147700320Y-96200320D01*
X150299680Y-96200320D01*
X150299680Y-98799680D01*
G37*
G36*
X102710001Y-96369242D02*
G01*
X102835443Y-96394194D01*
X102916161Y-96427629D01*
X103044728Y-96480883D01*
X103233081Y-96606736D01*
X103393264Y-96766919D01*
X103519117Y-96955272D01*
X103543056Y-97013066D01*
X103605806Y-97164557D01*
X103615035Y-97210953D01*
X103650000Y-97386733D01*
X103650000Y-97613267D01*
X103632747Y-97700000D01*
X103605806Y-97835443D01*
X103587722Y-97879101D01*
X103519117Y-98044728D01*
X103393264Y-98233081D01*
X103233081Y-98393264D01*
X103044728Y-98519117D01*
X102985258Y-98543750D01*
X102835443Y-98605806D01*
X102738948Y-98625000D01*
X102613267Y-98650000D01*
X102386733Y-98650000D01*
X102261052Y-98625000D01*
X102164557Y-98605806D01*
X102014742Y-98543750D01*
X101955272Y-98519117D01*
X101766919Y-98393264D01*
X101606736Y-98233081D01*
X101480883Y-98044728D01*
X101412278Y-97879101D01*
X101394194Y-97835443D01*
X101367253Y-97700000D01*
X101350000Y-97613267D01*
X101350000Y-97386733D01*
X101384965Y-97210953D01*
X101394194Y-97164557D01*
X101456944Y-97013066D01*
X101480883Y-96955272D01*
X101606736Y-96766919D01*
X101766919Y-96606736D01*
X101955272Y-96480883D01*
X102083839Y-96427629D01*
X102164557Y-96394194D01*
X102289999Y-96369242D01*
X102386733Y-96350000D01*
X102613267Y-96350000D01*
X102710001Y-96369242D01*
G37*
G36*
X191799383Y-97889411D02*
G01*
X191867629Y-97917680D01*
X191898546Y-97938338D01*
X191929047Y-97958718D01*
X191981282Y-98010953D01*
X192022321Y-98072373D01*
X192050589Y-98140617D01*
X192065000Y-98213065D01*
X192065000Y-98286935D01*
X192056733Y-98328497D01*
X192050589Y-98359383D01*
X192022320Y-98427629D01*
X191981281Y-98489048D01*
X191929048Y-98541281D01*
X191867629Y-98582320D01*
X191867628Y-98582321D01*
X191867627Y-98582321D01*
X191799383Y-98610589D01*
X191726935Y-98625000D01*
X191653065Y-98625000D01*
X191580617Y-98610589D01*
X191512373Y-98582321D01*
X191512372Y-98582321D01*
X191512371Y-98582320D01*
X191450952Y-98541281D01*
X191398719Y-98489048D01*
X191357680Y-98427629D01*
X191329411Y-98359383D01*
X191323267Y-98328497D01*
X191315000Y-98286935D01*
X191315000Y-98213065D01*
X191329411Y-98140617D01*
X191357679Y-98072373D01*
X191398718Y-98010953D01*
X191450953Y-97958718D01*
X191481454Y-97938338D01*
X191512371Y-97917680D01*
X191580617Y-97889411D01*
X191653065Y-97875000D01*
X191726935Y-97875000D01*
X191799383Y-97889411D01*
G37*
G36*
X168300000Y-98100000D02*
G01*
X166020000Y-98100000D01*
X166020000Y-96400000D01*
X168300000Y-96400000D01*
X168300000Y-98100000D01*
G37*
G36*
X177480000Y-98100000D02*
G01*
X175200000Y-98100000D01*
X175200000Y-96400000D01*
X177480000Y-96400000D01*
X177480000Y-98100000D01*
G37*
G36*
X192449383Y-91489411D02*
G01*
X192517629Y-91517680D01*
X192548546Y-91538338D01*
X192579047Y-91558718D01*
X192631282Y-91610953D01*
X192672321Y-91672373D01*
X192700589Y-91740617D01*
X192715000Y-91813065D01*
X192715000Y-91886935D01*
X192707989Y-91922179D01*
X192707028Y-91931933D01*
X192707989Y-91941688D01*
X192710834Y-91951067D01*
X192715454Y-91959711D01*
X192721672Y-91967288D01*
X192729248Y-91973506D01*
X192737893Y-91978127D01*
X192747272Y-91980972D01*
X192757026Y-91981933D01*
X192766781Y-91980972D01*
X192776160Y-91978127D01*
X192784804Y-91973507D01*
X192792382Y-91967289D01*
X192800953Y-91958718D01*
X192855638Y-91922179D01*
X192862371Y-91917680D01*
X192930617Y-91889411D01*
X192943070Y-91886934D01*
X193003065Y-91875000D01*
X193076935Y-91875000D01*
X193136930Y-91886934D01*
X193149383Y-91889411D01*
X193217629Y-91917680D01*
X193224362Y-91922179D01*
X193279047Y-91958718D01*
X193331282Y-92010953D01*
X193372321Y-92072373D01*
X193400589Y-92140617D01*
X193415000Y-92213065D01*
X193415000Y-92286935D01*
X193400589Y-92359383D01*
X193372321Y-92427627D01*
X193331282Y-92489047D01*
X193279047Y-92541282D01*
X193265999Y-92550000D01*
X193217629Y-92582320D01*
X193217628Y-92582321D01*
X193217627Y-92582321D01*
X193165756Y-92603807D01*
X193157112Y-92608427D01*
X193149535Y-92614645D01*
X193143317Y-92622222D01*
X193138697Y-92630866D01*
X193135852Y-92640246D01*
X193134891Y-92650000D01*
X193135852Y-92659755D01*
X193138697Y-92669134D01*
X193143317Y-92677778D01*
X193149535Y-92685355D01*
X193157112Y-92691573D01*
X193165756Y-92696193D01*
X193165783Y-92696204D01*
X193217629Y-92717680D01*
X193219230Y-92718750D01*
X193279047Y-92758718D01*
X193331282Y-92810953D01*
X193372321Y-92872373D01*
X193400589Y-92940617D01*
X193415000Y-93013065D01*
X193415000Y-93086935D01*
X193408884Y-93117680D01*
X193400589Y-93159383D01*
X193372320Y-93227629D01*
X193354836Y-93253796D01*
X193336492Y-93281250D01*
X193331281Y-93289048D01*
X193279048Y-93341281D01*
X193217629Y-93382320D01*
X193217628Y-93382321D01*
X193217627Y-93382321D01*
X193165756Y-93403807D01*
X193157112Y-93408427D01*
X193149535Y-93414645D01*
X193143317Y-93422222D01*
X193138697Y-93430866D01*
X193135852Y-93440246D01*
X193134891Y-93450000D01*
X193135852Y-93459755D01*
X193138697Y-93469134D01*
X193143317Y-93477778D01*
X193149535Y-93485355D01*
X193157112Y-93491573D01*
X193165756Y-93496193D01*
X193190509Y-93506446D01*
X193217629Y-93517680D01*
X193221574Y-93520316D01*
X193279047Y-93558718D01*
X193331282Y-93610953D01*
X193372321Y-93672373D01*
X193400589Y-93740617D01*
X193415000Y-93813065D01*
X193415000Y-93886935D01*
X193402243Y-93951068D01*
X193400589Y-93959383D01*
X193372320Y-94027629D01*
X193331281Y-94089048D01*
X193279048Y-94141281D01*
X193217629Y-94182320D01*
X193217628Y-94182321D01*
X193217627Y-94182321D01*
X193149383Y-94210589D01*
X193076935Y-94225000D01*
X193003065Y-94225000D01*
X192930617Y-94210589D01*
X192862373Y-94182321D01*
X192862372Y-94182321D01*
X192862371Y-94182320D01*
X192800952Y-94141281D01*
X192792382Y-94132711D01*
X192784805Y-94126493D01*
X192776161Y-94121873D01*
X192766781Y-94119028D01*
X192757027Y-94118067D01*
X192747273Y-94119028D01*
X192737893Y-94121873D01*
X192729249Y-94126493D01*
X192721672Y-94132711D01*
X192715454Y-94140288D01*
X192710834Y-94148932D01*
X192707989Y-94158312D01*
X192707028Y-94168066D01*
X192707989Y-94177821D01*
X192715000Y-94213065D01*
X192715000Y-94286935D01*
X192700589Y-94359383D01*
X192678879Y-94411796D01*
X192672320Y-94427629D01*
X192631281Y-94489048D01*
X192579048Y-94541281D01*
X192517629Y-94582320D01*
X192517628Y-94582321D01*
X192517627Y-94582321D01*
X192465756Y-94603807D01*
X192457112Y-94608427D01*
X192449535Y-94614645D01*
X192443317Y-94622222D01*
X192438697Y-94630866D01*
X192435852Y-94640246D01*
X192434891Y-94650000D01*
X192435852Y-94659755D01*
X192438697Y-94669134D01*
X192443317Y-94677778D01*
X192449535Y-94685355D01*
X192457112Y-94691573D01*
X192465756Y-94696193D01*
X192517629Y-94717680D01*
X192579048Y-94758719D01*
X192631281Y-94810952D01*
X192670736Y-94870000D01*
X192672321Y-94872373D01*
X192700589Y-94940617D01*
X192715000Y-95013065D01*
X192715000Y-95086935D01*
X192707989Y-95122179D01*
X192707028Y-95131933D01*
X192707989Y-95141688D01*
X192710834Y-95151067D01*
X192715454Y-95159711D01*
X192721672Y-95167288D01*
X192729248Y-95173506D01*
X192737893Y-95178127D01*
X192747272Y-95180972D01*
X192757026Y-95181933D01*
X192766781Y-95180972D01*
X192776160Y-95178127D01*
X192784804Y-95173507D01*
X192792382Y-95167289D01*
X192800953Y-95158718D01*
X192855638Y-95122179D01*
X192862371Y-95117680D01*
X192930617Y-95089411D01*
X192943070Y-95086934D01*
X193003065Y-95075000D01*
X193076935Y-95075000D01*
X193136930Y-95086934D01*
X193149383Y-95089411D01*
X193217629Y-95117680D01*
X193224362Y-95122179D01*
X193279047Y-95158718D01*
X193331282Y-95210953D01*
X193372321Y-95272373D01*
X193400589Y-95340617D01*
X193415000Y-95413065D01*
X193415000Y-95486935D01*
X193408884Y-95517680D01*
X193400589Y-95559383D01*
X193372320Y-95627629D01*
X193331281Y-95689048D01*
X193279048Y-95741281D01*
X193217629Y-95782320D01*
X193217628Y-95782321D01*
X193217627Y-95782321D01*
X193165756Y-95803807D01*
X193157112Y-95808427D01*
X193149535Y-95814645D01*
X193143317Y-95822222D01*
X193138697Y-95830866D01*
X193135852Y-95840246D01*
X193134891Y-95850000D01*
X193135852Y-95859755D01*
X193138697Y-95869134D01*
X193143317Y-95877778D01*
X193149535Y-95885355D01*
X193157112Y-95891573D01*
X193165756Y-95896193D01*
X193217629Y-95917680D01*
X193279048Y-95958719D01*
X193331281Y-96010952D01*
X193359909Y-96053796D01*
X193372321Y-96072373D01*
X193400589Y-96140617D01*
X193415000Y-96213065D01*
X193415000Y-96286935D01*
X193410523Y-96309440D01*
X193400589Y-96359383D01*
X193372320Y-96427629D01*
X193331281Y-96489048D01*
X193279048Y-96541281D01*
X193217629Y-96582320D01*
X193217628Y-96582321D01*
X193217627Y-96582321D01*
X193165756Y-96603807D01*
X193157112Y-96608427D01*
X193149535Y-96614645D01*
X193143317Y-96622222D01*
X193138697Y-96630866D01*
X193135852Y-96640246D01*
X193134891Y-96650000D01*
X193135852Y-96659755D01*
X193138697Y-96669134D01*
X193143317Y-96677778D01*
X193149535Y-96685355D01*
X193157112Y-96691573D01*
X193165756Y-96696193D01*
X193217629Y-96717680D01*
X193228584Y-96725000D01*
X193279047Y-96758718D01*
X193331282Y-96810953D01*
X193372321Y-96872373D01*
X193400589Y-96940617D01*
X193415000Y-97013065D01*
X193415000Y-97086935D01*
X193408884Y-97117680D01*
X193400589Y-97159383D01*
X193372320Y-97227629D01*
X193331281Y-97289048D01*
X193279048Y-97341281D01*
X193217629Y-97382320D01*
X193217628Y-97382321D01*
X193217627Y-97382321D01*
X193149383Y-97410589D01*
X193076935Y-97425000D01*
X193003065Y-97425000D01*
X192930617Y-97410589D01*
X192862373Y-97382321D01*
X192862372Y-97382321D01*
X192862371Y-97382320D01*
X192800952Y-97341281D01*
X192792382Y-97332711D01*
X192784805Y-97326493D01*
X192776161Y-97321873D01*
X192766781Y-97319028D01*
X192757027Y-97318067D01*
X192747273Y-97319028D01*
X192737893Y-97321873D01*
X192729249Y-97326493D01*
X192721672Y-97332711D01*
X192715454Y-97340288D01*
X192710834Y-97348932D01*
X192707989Y-97358312D01*
X192707028Y-97368066D01*
X192707989Y-97377818D01*
X192715000Y-97413066D01*
X192715000Y-97486934D01*
X192700589Y-97559383D01*
X192672320Y-97627629D01*
X192631281Y-97689048D01*
X192579048Y-97741281D01*
X192517629Y-97782320D01*
X192517628Y-97782321D01*
X192517627Y-97782321D01*
X192449383Y-97810589D01*
X192376935Y-97825000D01*
X192303065Y-97825000D01*
X192230617Y-97810589D01*
X192162373Y-97782321D01*
X192162372Y-97782321D01*
X192162371Y-97782320D01*
X192100952Y-97741281D01*
X192048719Y-97689048D01*
X192007680Y-97627629D01*
X191979411Y-97559383D01*
X191965000Y-97486934D01*
X191965000Y-97413066D01*
X191970238Y-97386735D01*
X191979411Y-97340617D01*
X192007679Y-97272373D01*
X192048718Y-97210953D01*
X192100953Y-97158718D01*
X192138252Y-97133796D01*
X192162371Y-97117680D01*
X192230617Y-97089411D01*
X192243070Y-97086934D01*
X192303065Y-97075000D01*
X192376935Y-97075000D01*
X192436930Y-97086934D01*
X192449383Y-97089411D01*
X192517629Y-97117680D01*
X192541748Y-97133796D01*
X192579047Y-97158718D01*
X192587618Y-97167289D01*
X192595195Y-97173507D01*
X192603839Y-97178127D01*
X192613219Y-97180972D01*
X192622973Y-97181933D01*
X192632727Y-97180972D01*
X192642107Y-97178127D01*
X192650751Y-97173507D01*
X192658328Y-97167289D01*
X192664546Y-97159712D01*
X192669166Y-97151068D01*
X192672011Y-97141688D01*
X192672972Y-97131934D01*
X192672011Y-97122179D01*
X192665000Y-97086935D01*
X192665000Y-97013065D01*
X192679411Y-96940617D01*
X192707679Y-96872373D01*
X192748718Y-96810953D01*
X192800953Y-96758718D01*
X192851416Y-96725000D01*
X192862371Y-96717680D01*
X192914244Y-96696193D01*
X192922888Y-96691573D01*
X192930465Y-96685355D01*
X192936683Y-96677778D01*
X192941303Y-96669134D01*
X192944148Y-96659754D01*
X192945109Y-96650000D01*
X192944148Y-96640245D01*
X192941303Y-96630866D01*
X192936683Y-96622222D01*
X192930465Y-96614645D01*
X192922888Y-96608427D01*
X192914244Y-96603807D01*
X192862373Y-96582321D01*
X192862372Y-96582321D01*
X192862371Y-96582320D01*
X192800952Y-96541281D01*
X192748719Y-96489048D01*
X192707680Y-96427629D01*
X192679411Y-96359383D01*
X192669477Y-96309440D01*
X192665000Y-96286935D01*
X192665000Y-96213065D01*
X192667614Y-96199926D01*
X192672011Y-96177818D01*
X192672972Y-96168067D01*
X192672011Y-96158312D01*
X192669166Y-96148933D01*
X192664546Y-96140289D01*
X192658328Y-96132712D01*
X192650752Y-96126494D01*
X192642107Y-96121873D01*
X192632728Y-96119028D01*
X192622974Y-96118067D01*
X192613219Y-96119028D01*
X192603840Y-96121873D01*
X192595196Y-96126493D01*
X192587618Y-96132711D01*
X192579048Y-96141281D01*
X192517629Y-96182320D01*
X192517628Y-96182321D01*
X192517627Y-96182321D01*
X192449383Y-96210589D01*
X192376935Y-96225000D01*
X192303065Y-96225000D01*
X192230617Y-96210589D01*
X192162373Y-96182321D01*
X192162372Y-96182321D01*
X192162371Y-96182320D01*
X192100952Y-96141281D01*
X192048719Y-96089048D01*
X192007680Y-96027629D01*
X191979411Y-95959383D01*
X191971116Y-95917680D01*
X191965000Y-95886935D01*
X191965000Y-95813065D01*
X191973950Y-95768066D01*
X192707028Y-95768066D01*
X192707989Y-95777821D01*
X192715000Y-95813065D01*
X192715000Y-95886935D01*
X192707989Y-95922179D01*
X192707028Y-95931933D01*
X192707989Y-95941688D01*
X192710834Y-95951067D01*
X192715454Y-95959711D01*
X192721672Y-95967288D01*
X192729248Y-95973506D01*
X192737893Y-95978127D01*
X192747272Y-95980972D01*
X192757026Y-95981933D01*
X192766781Y-95980972D01*
X192776160Y-95978127D01*
X192784804Y-95973507D01*
X192792382Y-95967289D01*
X192800953Y-95958718D01*
X192855638Y-95922179D01*
X192862371Y-95917680D01*
X192914244Y-95896193D01*
X192922888Y-95891573D01*
X192930465Y-95885355D01*
X192936683Y-95877778D01*
X192941303Y-95869134D01*
X192944148Y-95859754D01*
X192945109Y-95850000D01*
X192944148Y-95840245D01*
X192941303Y-95830866D01*
X192936683Y-95822222D01*
X192930465Y-95814645D01*
X192922888Y-95808427D01*
X192914244Y-95803807D01*
X192862373Y-95782321D01*
X192862372Y-95782321D01*
X192862371Y-95782320D01*
X192800952Y-95741281D01*
X192792382Y-95732711D01*
X192784805Y-95726493D01*
X192776161Y-95721873D01*
X192766781Y-95719028D01*
X192757027Y-95718067D01*
X192747273Y-95719028D01*
X192737893Y-95721873D01*
X192729249Y-95726493D01*
X192721672Y-95732711D01*
X192715454Y-95740288D01*
X192710834Y-95748932D01*
X192707989Y-95758312D01*
X192707028Y-95768066D01*
X191973950Y-95768066D01*
X191979411Y-95740617D01*
X192007679Y-95672373D01*
X192048718Y-95610953D01*
X192100953Y-95558718D01*
X192131454Y-95538338D01*
X192162371Y-95517680D01*
X192214244Y-95496193D01*
X192222888Y-95491573D01*
X192230465Y-95485355D01*
X192236683Y-95477778D01*
X192241303Y-95469134D01*
X192244148Y-95459754D01*
X192245109Y-95450000D01*
X192434891Y-95450000D01*
X192435852Y-95459755D01*
X192438697Y-95469134D01*
X192443317Y-95477778D01*
X192449535Y-95485355D01*
X192457112Y-95491573D01*
X192465756Y-95496193D01*
X192517629Y-95517680D01*
X192548546Y-95538338D01*
X192579047Y-95558718D01*
X192587618Y-95567289D01*
X192595195Y-95573507D01*
X192603839Y-95578127D01*
X192613219Y-95580972D01*
X192622973Y-95581933D01*
X192632727Y-95580972D01*
X192642107Y-95578127D01*
X192650751Y-95573507D01*
X192658328Y-95567289D01*
X192664546Y-95559712D01*
X192669166Y-95551068D01*
X192672011Y-95541688D01*
X192672972Y-95531934D01*
X192672011Y-95522179D01*
X192665000Y-95486935D01*
X192665000Y-95413065D01*
X192672011Y-95377821D01*
X192672972Y-95368067D01*
X192672011Y-95358312D01*
X192669166Y-95348933D01*
X192664546Y-95340289D01*
X192658328Y-95332712D01*
X192650752Y-95326494D01*
X192642107Y-95321873D01*
X192632728Y-95319028D01*
X192622974Y-95318067D01*
X192613219Y-95319028D01*
X192603840Y-95321873D01*
X192595196Y-95326493D01*
X192587618Y-95332711D01*
X192579048Y-95341281D01*
X192517629Y-95382320D01*
X192517628Y-95382321D01*
X192517627Y-95382321D01*
X192465756Y-95403807D01*
X192457112Y-95408427D01*
X192449535Y-95414645D01*
X192443317Y-95422222D01*
X192438697Y-95430866D01*
X192435852Y-95440246D01*
X192434891Y-95450000D01*
X192245109Y-95450000D01*
X192244148Y-95440245D01*
X192241303Y-95430866D01*
X192236683Y-95422222D01*
X192230465Y-95414645D01*
X192222888Y-95408427D01*
X192214244Y-95403807D01*
X192162373Y-95382321D01*
X192162372Y-95382321D01*
X192162371Y-95382320D01*
X192100952Y-95341281D01*
X192048719Y-95289048D01*
X192007680Y-95227629D01*
X191979411Y-95159383D01*
X191971116Y-95117680D01*
X191965000Y-95086935D01*
X191965000Y-95013065D01*
X191979411Y-94940617D01*
X192007679Y-94872373D01*
X192009265Y-94870000D01*
X192048719Y-94810952D01*
X192100952Y-94758719D01*
X192162371Y-94717680D01*
X192214244Y-94696193D01*
X192222888Y-94691573D01*
X192230465Y-94685355D01*
X192236683Y-94677778D01*
X192241303Y-94669134D01*
X192244148Y-94659754D01*
X192245109Y-94650000D01*
X192244148Y-94640245D01*
X192241303Y-94630866D01*
X192236683Y-94622222D01*
X192230465Y-94614645D01*
X192222888Y-94608427D01*
X192214244Y-94603807D01*
X192162373Y-94582321D01*
X192162372Y-94582321D01*
X192162371Y-94582320D01*
X192100952Y-94541281D01*
X192048719Y-94489048D01*
X192007680Y-94427629D01*
X192001122Y-94411796D01*
X191979411Y-94359383D01*
X191965000Y-94286935D01*
X191965000Y-94213065D01*
X191979411Y-94140617D01*
X192007679Y-94072373D01*
X192048718Y-94010953D01*
X192100953Y-93958718D01*
X192131454Y-93938338D01*
X192162371Y-93917680D01*
X192214244Y-93896193D01*
X192222888Y-93891573D01*
X192230465Y-93885355D01*
X192236683Y-93877778D01*
X192241303Y-93869134D01*
X192244148Y-93859754D01*
X192245109Y-93850000D01*
X192434891Y-93850000D01*
X192435852Y-93859755D01*
X192438697Y-93869134D01*
X192443317Y-93877778D01*
X192449535Y-93885355D01*
X192457112Y-93891573D01*
X192465756Y-93896193D01*
X192517629Y-93917680D01*
X192548546Y-93938338D01*
X192579047Y-93958718D01*
X192587618Y-93967289D01*
X192595195Y-93973507D01*
X192603839Y-93978127D01*
X192613219Y-93980972D01*
X192622973Y-93981933D01*
X192632727Y-93980972D01*
X192642107Y-93978127D01*
X192650751Y-93973507D01*
X192658328Y-93967289D01*
X192664546Y-93959712D01*
X192669166Y-93951068D01*
X192672011Y-93941688D01*
X192672972Y-93931934D01*
X192672011Y-93922179D01*
X192671816Y-93921197D01*
X192665000Y-93886934D01*
X192665000Y-93813066D01*
X192672011Y-93777818D01*
X192672972Y-93768067D01*
X192672011Y-93758312D01*
X192669166Y-93748933D01*
X192664546Y-93740289D01*
X192658328Y-93732712D01*
X192650752Y-93726494D01*
X192642107Y-93721873D01*
X192632728Y-93719028D01*
X192622974Y-93718067D01*
X192613219Y-93719028D01*
X192603840Y-93721873D01*
X192595196Y-93726493D01*
X192587618Y-93732711D01*
X192579047Y-93741282D01*
X192567596Y-93748933D01*
X192517629Y-93782320D01*
X192517628Y-93782321D01*
X192517627Y-93782321D01*
X192465756Y-93803807D01*
X192457112Y-93808427D01*
X192449535Y-93814645D01*
X192443317Y-93822222D01*
X192438697Y-93830866D01*
X192435852Y-93840246D01*
X192434891Y-93850000D01*
X192245109Y-93850000D01*
X192244148Y-93840245D01*
X192241303Y-93830866D01*
X192236683Y-93822222D01*
X192230465Y-93814645D01*
X192222888Y-93808427D01*
X192214244Y-93803807D01*
X192162373Y-93782321D01*
X192162372Y-93782321D01*
X192162371Y-93782320D01*
X192112404Y-93748933D01*
X192100953Y-93741282D01*
X192048718Y-93689047D01*
X192007679Y-93627627D01*
X191979411Y-93559383D01*
X191965000Y-93486935D01*
X191965000Y-93413065D01*
X191973950Y-93368066D01*
X192707028Y-93368066D01*
X192707989Y-93377821D01*
X192715000Y-93413065D01*
X192715000Y-93486935D01*
X192707989Y-93522179D01*
X192707028Y-93531933D01*
X192707989Y-93541688D01*
X192710834Y-93551067D01*
X192715454Y-93559711D01*
X192721672Y-93567288D01*
X192729248Y-93573506D01*
X192737893Y-93578127D01*
X192747272Y-93580972D01*
X192757026Y-93581933D01*
X192766781Y-93580972D01*
X192776160Y-93578127D01*
X192784804Y-93573507D01*
X192792382Y-93567289D01*
X192800953Y-93558718D01*
X192858426Y-93520316D01*
X192862371Y-93517680D01*
X192889492Y-93506446D01*
X192914244Y-93496193D01*
X192922888Y-93491573D01*
X192930465Y-93485355D01*
X192936683Y-93477778D01*
X192941303Y-93469134D01*
X192944148Y-93459754D01*
X192945109Y-93450000D01*
X192944148Y-93440245D01*
X192941303Y-93430866D01*
X192936683Y-93422222D01*
X192930465Y-93414645D01*
X192922888Y-93408427D01*
X192914244Y-93403807D01*
X192862373Y-93382321D01*
X192862372Y-93382321D01*
X192862371Y-93382320D01*
X192800952Y-93341281D01*
X192792382Y-93332711D01*
X192784805Y-93326493D01*
X192776161Y-93321873D01*
X192766781Y-93319028D01*
X192757027Y-93318067D01*
X192747273Y-93319028D01*
X192737893Y-93321873D01*
X192729249Y-93326493D01*
X192721672Y-93332711D01*
X192715454Y-93340288D01*
X192710834Y-93348932D01*
X192707989Y-93358312D01*
X192707028Y-93368066D01*
X191973950Y-93368066D01*
X191979411Y-93340617D01*
X192007679Y-93272373D01*
X192020092Y-93253796D01*
X192048719Y-93210952D01*
X192100952Y-93158719D01*
X192162371Y-93117680D01*
X192230617Y-93089411D01*
X192243070Y-93086934D01*
X192303065Y-93075000D01*
X192376935Y-93075000D01*
X192436930Y-93086934D01*
X192449383Y-93089411D01*
X192517629Y-93117680D01*
X192548546Y-93138338D01*
X192579047Y-93158718D01*
X192587618Y-93167289D01*
X192595195Y-93173507D01*
X192603839Y-93178127D01*
X192613219Y-93180972D01*
X192622973Y-93181933D01*
X192632727Y-93180972D01*
X192642107Y-93178127D01*
X192650751Y-93173507D01*
X192658328Y-93167289D01*
X192664546Y-93159712D01*
X192669166Y-93151068D01*
X192672011Y-93141688D01*
X192672972Y-93131934D01*
X192672011Y-93122179D01*
X192665000Y-93086935D01*
X192665000Y-93013065D01*
X192679411Y-92940617D01*
X192707679Y-92872373D01*
X192748718Y-92810953D01*
X192800953Y-92758718D01*
X192860770Y-92718750D01*
X192862371Y-92717680D01*
X192914218Y-92696204D01*
X192914244Y-92696193D01*
X192922888Y-92691573D01*
X192930465Y-92685355D01*
X192936683Y-92677778D01*
X192941303Y-92669134D01*
X192944148Y-92659754D01*
X192945109Y-92650000D01*
X192944148Y-92640245D01*
X192941303Y-92630866D01*
X192936683Y-92622222D01*
X192930465Y-92614645D01*
X192922888Y-92608427D01*
X192914244Y-92603807D01*
X192862373Y-92582321D01*
X192862372Y-92582321D01*
X192862371Y-92582320D01*
X192814001Y-92550000D01*
X192800953Y-92541282D01*
X192748718Y-92489047D01*
X192707679Y-92427627D01*
X192679411Y-92359383D01*
X192665000Y-92286935D01*
X192665000Y-92213065D01*
X192672011Y-92177821D01*
X192672972Y-92168067D01*
X192672011Y-92158312D01*
X192669166Y-92148933D01*
X192664546Y-92140289D01*
X192658328Y-92132712D01*
X192650752Y-92126494D01*
X192642107Y-92121873D01*
X192632728Y-92119028D01*
X192622974Y-92118067D01*
X192613219Y-92119028D01*
X192603840Y-92121873D01*
X192595196Y-92126493D01*
X192587618Y-92132711D01*
X192579048Y-92141281D01*
X192517629Y-92182320D01*
X192517628Y-92182321D01*
X192517627Y-92182321D01*
X192449383Y-92210589D01*
X192376935Y-92225000D01*
X192303065Y-92225000D01*
X192230617Y-92210589D01*
X192162373Y-92182321D01*
X192162372Y-92182321D01*
X192162371Y-92182320D01*
X192100952Y-92141281D01*
X192048719Y-92089048D01*
X192007680Y-92027629D01*
X191979411Y-91959383D01*
X191971116Y-91917680D01*
X191965000Y-91886935D01*
X191965000Y-91813065D01*
X191979411Y-91740617D01*
X192007679Y-91672373D01*
X192048718Y-91610953D01*
X192100953Y-91558718D01*
X192131454Y-91538338D01*
X192162371Y-91517680D01*
X192230617Y-91489411D01*
X192303065Y-91475000D01*
X192376935Y-91475000D01*
X192449383Y-91489411D01*
G37*
G36*
X187348879Y-96729440D02*
G01*
X187389870Y-96741874D01*
X187427645Y-96762065D01*
X187460758Y-96789242D01*
X187487935Y-96822355D01*
X187508126Y-96860130D01*
X187520560Y-96901121D01*
X187525000Y-96946204D01*
X187525000Y-97478796D01*
X187520560Y-97523879D01*
X187508126Y-97564870D01*
X187487935Y-97602645D01*
X187460758Y-97635758D01*
X187427645Y-97662935D01*
X187389870Y-97683126D01*
X187348879Y-97695560D01*
X187303796Y-97700000D01*
X186696204Y-97700000D01*
X186651121Y-97695560D01*
X186610130Y-97683126D01*
X186572355Y-97662935D01*
X186539242Y-97635758D01*
X186512065Y-97602645D01*
X186491874Y-97564870D01*
X186479440Y-97523879D01*
X186475000Y-97478796D01*
X186475000Y-96946204D01*
X186479440Y-96901121D01*
X186491874Y-96860130D01*
X186512065Y-96822355D01*
X186539242Y-96789242D01*
X186572355Y-96762065D01*
X186610130Y-96741874D01*
X186651121Y-96729440D01*
X186696204Y-96725000D01*
X187303796Y-96725000D01*
X187348879Y-96729440D01*
G37*
G36*
X189548879Y-96729440D02*
G01*
X189589870Y-96741874D01*
X189627645Y-96762065D01*
X189660758Y-96789242D01*
X189687935Y-96822355D01*
X189708126Y-96860130D01*
X189720560Y-96901121D01*
X189725000Y-96946204D01*
X189725000Y-97478796D01*
X189720560Y-97523879D01*
X189708126Y-97564870D01*
X189687935Y-97602645D01*
X189660758Y-97635758D01*
X189627645Y-97662935D01*
X189589870Y-97683126D01*
X189548879Y-97695560D01*
X189503796Y-97700000D01*
X188896204Y-97700000D01*
X188851121Y-97695560D01*
X188810130Y-97683126D01*
X188772355Y-97662935D01*
X188739242Y-97635758D01*
X188712065Y-97602645D01*
X188691874Y-97564870D01*
X188679440Y-97523879D01*
X188675000Y-97478796D01*
X188675000Y-96946204D01*
X188679440Y-96901121D01*
X188691874Y-96860130D01*
X188712065Y-96822355D01*
X188739242Y-96789242D01*
X188772355Y-96762065D01*
X188810130Y-96741874D01*
X188851121Y-96729440D01*
X188896204Y-96725000D01*
X189503796Y-96725000D01*
X189548879Y-96729440D01*
G37*
G36*
X191430000Y-97600000D02*
G01*
X190630000Y-97600000D01*
X190630000Y-97200000D01*
X191430000Y-97200000D01*
X191430000Y-97600000D01*
G37*
G36*
X185179216Y-96888119D02*
G01*
X185207309Y-96896641D01*
X185233204Y-96910483D01*
X185255896Y-96929104D01*
X185274517Y-96951796D01*
X185288359Y-96977691D01*
X185296881Y-97005784D01*
X185300000Y-97037454D01*
X185300000Y-97432546D01*
X185296881Y-97464216D01*
X185288359Y-97492309D01*
X185274517Y-97518204D01*
X185255896Y-97540896D01*
X185233204Y-97559517D01*
X185207309Y-97573359D01*
X185179216Y-97581881D01*
X185147546Y-97585000D01*
X183702454Y-97585000D01*
X183670784Y-97581881D01*
X183642691Y-97573359D01*
X183616796Y-97559517D01*
X183594104Y-97540896D01*
X183575483Y-97518204D01*
X183561641Y-97492309D01*
X183553119Y-97464216D01*
X183550000Y-97432546D01*
X183550000Y-97037454D01*
X183553119Y-97005784D01*
X183561641Y-96977691D01*
X183575483Y-96951796D01*
X183594104Y-96929104D01*
X183616796Y-96910483D01*
X183642691Y-96896641D01*
X183670784Y-96888119D01*
X183702454Y-96885000D01*
X185147546Y-96885000D01*
X185179216Y-96888119D01*
G37*
G36*
X179929216Y-96888119D02*
G01*
X179957309Y-96896641D01*
X179983204Y-96910483D01*
X180005896Y-96929104D01*
X180024517Y-96951796D01*
X180038359Y-96977691D01*
X180046881Y-97005784D01*
X180050000Y-97037454D01*
X180050000Y-97432546D01*
X180046881Y-97464216D01*
X180038359Y-97492309D01*
X180024517Y-97518204D01*
X180005896Y-97540896D01*
X179983204Y-97559517D01*
X179957309Y-97573359D01*
X179929216Y-97581881D01*
X179897546Y-97585000D01*
X178452454Y-97585000D01*
X178420784Y-97581881D01*
X178392691Y-97573359D01*
X178366796Y-97559517D01*
X178344104Y-97540896D01*
X178325483Y-97518204D01*
X178311641Y-97492309D01*
X178303119Y-97464216D01*
X178300000Y-97432546D01*
X178300000Y-97037454D01*
X178303119Y-97005784D01*
X178311641Y-96977691D01*
X178325483Y-96951796D01*
X178344104Y-96929104D01*
X178366796Y-96910483D01*
X178392691Y-96896641D01*
X178420784Y-96888119D01*
X178452454Y-96885000D01*
X179897546Y-96885000D01*
X179929216Y-96888119D01*
G37*
G36*
X163493879Y-96309440D02*
G01*
X163534870Y-96321874D01*
X163572645Y-96342065D01*
X163605758Y-96369242D01*
X163632935Y-96402355D01*
X163653126Y-96440130D01*
X163665560Y-96481121D01*
X163670000Y-96526204D01*
X163670000Y-97133796D01*
X163665560Y-97178879D01*
X163653126Y-97219870D01*
X163632935Y-97257645D01*
X163605758Y-97290758D01*
X163572645Y-97317935D01*
X163534870Y-97338126D01*
X163493879Y-97350560D01*
X163448796Y-97355000D01*
X162916204Y-97355000D01*
X162871121Y-97350560D01*
X162830130Y-97338126D01*
X162792355Y-97317935D01*
X162759242Y-97290758D01*
X162732065Y-97257645D01*
X162711874Y-97219870D01*
X162699440Y-97178879D01*
X162695000Y-97133796D01*
X162695000Y-96526204D01*
X162699440Y-96481121D01*
X162711874Y-96440130D01*
X162732065Y-96402355D01*
X162759242Y-96369242D01*
X162792355Y-96342065D01*
X162830130Y-96321874D01*
X162871121Y-96309440D01*
X162916204Y-96305000D01*
X163448796Y-96305000D01*
X163493879Y-96309440D01*
G37*
G36*
X165068879Y-96309440D02*
G01*
X165109870Y-96321874D01*
X165147645Y-96342065D01*
X165180758Y-96369242D01*
X165207935Y-96402355D01*
X165228126Y-96440130D01*
X165240560Y-96481121D01*
X165245000Y-96526204D01*
X165245000Y-97133796D01*
X165240560Y-97178879D01*
X165228126Y-97219870D01*
X165207935Y-97257645D01*
X165180758Y-97290758D01*
X165147645Y-97317935D01*
X165109870Y-97338126D01*
X165068879Y-97350560D01*
X165023796Y-97355000D01*
X164491204Y-97355000D01*
X164446121Y-97350560D01*
X164405130Y-97338126D01*
X164367355Y-97317935D01*
X164334242Y-97290758D01*
X164307065Y-97257645D01*
X164286874Y-97219870D01*
X164274440Y-97178879D01*
X164270000Y-97133796D01*
X164270000Y-96526204D01*
X164274440Y-96481121D01*
X164286874Y-96440130D01*
X164307065Y-96402355D01*
X164334242Y-96369242D01*
X164367355Y-96342065D01*
X164405130Y-96321874D01*
X164446121Y-96309440D01*
X164491204Y-96305000D01*
X165023796Y-96305000D01*
X165068879Y-96309440D01*
G37*
G36*
X191430000Y-97100000D02*
G01*
X190630000Y-97100000D01*
X190630000Y-96700000D01*
X191430000Y-96700000D01*
X191430000Y-97100000D01*
G37*
G36*
X191430000Y-96600000D02*
G01*
X190630000Y-96600000D01*
X190630000Y-96200000D01*
X191430000Y-96200000D01*
X191430000Y-96600000D01*
G37*
G36*
X179929216Y-95618119D02*
G01*
X179957309Y-95626641D01*
X179983204Y-95640483D01*
X180005896Y-95659104D01*
X180024517Y-95681796D01*
X180038359Y-95707691D01*
X180046881Y-95735784D01*
X180050000Y-95767454D01*
X180050000Y-96162546D01*
X180046881Y-96194216D01*
X180038359Y-96222309D01*
X180024517Y-96248204D01*
X180005896Y-96270896D01*
X179983204Y-96289517D01*
X179957309Y-96303359D01*
X179929216Y-96311881D01*
X179897546Y-96315000D01*
X178452454Y-96315000D01*
X178420784Y-96311881D01*
X178392691Y-96303359D01*
X178366796Y-96289517D01*
X178344104Y-96270896D01*
X178325483Y-96248204D01*
X178311641Y-96222309D01*
X178303119Y-96194216D01*
X178300000Y-96162546D01*
X178300000Y-95767454D01*
X178303119Y-95735784D01*
X178311641Y-95707691D01*
X178325483Y-95681796D01*
X178344104Y-95659104D01*
X178366796Y-95640483D01*
X178392691Y-95626641D01*
X178420784Y-95618119D01*
X178452454Y-95615000D01*
X179897546Y-95615000D01*
X179929216Y-95618119D01*
G37*
G36*
X185179216Y-95618119D02*
G01*
X185207309Y-95626641D01*
X185233204Y-95640483D01*
X185255896Y-95659104D01*
X185274517Y-95681796D01*
X185288359Y-95707691D01*
X185296881Y-95735784D01*
X185300000Y-95767454D01*
X185300000Y-96162546D01*
X185296881Y-96194216D01*
X185288359Y-96222309D01*
X185274517Y-96248204D01*
X185255896Y-96270896D01*
X185233204Y-96289517D01*
X185207309Y-96303359D01*
X185179216Y-96311881D01*
X185147546Y-96315000D01*
X183702454Y-96315000D01*
X183670784Y-96311881D01*
X183642691Y-96303359D01*
X183616796Y-96289517D01*
X183594104Y-96270896D01*
X183575483Y-96248204D01*
X183561641Y-96222309D01*
X183553119Y-96194216D01*
X183550000Y-96162546D01*
X183550000Y-95767454D01*
X183553119Y-95735784D01*
X183561641Y-95707691D01*
X183575483Y-95681796D01*
X183594104Y-95659104D01*
X183616796Y-95640483D01*
X183642691Y-95626641D01*
X183670784Y-95618119D01*
X183702454Y-95615000D01*
X185147546Y-95615000D01*
X185179216Y-95618119D01*
G37*
G36*
X189548879Y-95304440D02*
G01*
X189589870Y-95316874D01*
X189627645Y-95337065D01*
X189660758Y-95364242D01*
X189687935Y-95397355D01*
X189708126Y-95435130D01*
X189720560Y-95476121D01*
X189725000Y-95521204D01*
X189725000Y-96053796D01*
X189720560Y-96098879D01*
X189708126Y-96139870D01*
X189687935Y-96177645D01*
X189660758Y-96210758D01*
X189627645Y-96237935D01*
X189589870Y-96258126D01*
X189548879Y-96270560D01*
X189503796Y-96275000D01*
X188896204Y-96275000D01*
X188851121Y-96270560D01*
X188810130Y-96258126D01*
X188772355Y-96237935D01*
X188739242Y-96210758D01*
X188712065Y-96177645D01*
X188691874Y-96139870D01*
X188679440Y-96098879D01*
X188675000Y-96053796D01*
X188675000Y-95521204D01*
X188679440Y-95476121D01*
X188691874Y-95435130D01*
X188712065Y-95397355D01*
X188739242Y-95364242D01*
X188772355Y-95337065D01*
X188810130Y-95316874D01*
X188851121Y-95304440D01*
X188896204Y-95300000D01*
X189503796Y-95300000D01*
X189548879Y-95304440D01*
G37*
G36*
X187348879Y-95304440D02*
G01*
X187389870Y-95316874D01*
X187427645Y-95337065D01*
X187460758Y-95364242D01*
X187487935Y-95397355D01*
X187508126Y-95435130D01*
X187520560Y-95476121D01*
X187525000Y-95521204D01*
X187525000Y-96053796D01*
X187520560Y-96098879D01*
X187508126Y-96139870D01*
X187487935Y-96177645D01*
X187460758Y-96210758D01*
X187427645Y-96237935D01*
X187389870Y-96258126D01*
X187348879Y-96270560D01*
X187303796Y-96275000D01*
X186696204Y-96275000D01*
X186651121Y-96270560D01*
X186610130Y-96258126D01*
X186572355Y-96237935D01*
X186539242Y-96210758D01*
X186512065Y-96177645D01*
X186491874Y-96139870D01*
X186479440Y-96098879D01*
X186475000Y-96053796D01*
X186475000Y-95521204D01*
X186479440Y-95476121D01*
X186491874Y-95435130D01*
X186512065Y-95397355D01*
X186539242Y-95364242D01*
X186572355Y-95337065D01*
X186610130Y-95316874D01*
X186651121Y-95304440D01*
X186696204Y-95300000D01*
X187303796Y-95300000D01*
X187348879Y-95304440D01*
G37*
G36*
X191430000Y-96100000D02*
G01*
X190630000Y-96100000D01*
X190630000Y-95700000D01*
X191430000Y-95700000D01*
X191430000Y-96100000D01*
G37*
G36*
X191430000Y-95600000D02*
G01*
X190630000Y-95600000D01*
X190630000Y-95200000D01*
X191430000Y-95200000D01*
X191430000Y-95600000D01*
G37*
G36*
X191430000Y-95100000D02*
G01*
X190630000Y-95100000D01*
X190630000Y-94700000D01*
X191430000Y-94700000D01*
X191430000Y-95100000D01*
G37*
G36*
X185179216Y-94348119D02*
G01*
X185207309Y-94356641D01*
X185233204Y-94370483D01*
X185255896Y-94389104D01*
X185274517Y-94411796D01*
X185288359Y-94437691D01*
X185296881Y-94465784D01*
X185300000Y-94497454D01*
X185300000Y-94892546D01*
X185296881Y-94924216D01*
X185288359Y-94952309D01*
X185274517Y-94978204D01*
X185255896Y-95000896D01*
X185233204Y-95019517D01*
X185207309Y-95033359D01*
X185179216Y-95041881D01*
X185147546Y-95045000D01*
X183702454Y-95045000D01*
X183670784Y-95041881D01*
X183642691Y-95033359D01*
X183616796Y-95019517D01*
X183594104Y-95000896D01*
X183575483Y-94978204D01*
X183561641Y-94952309D01*
X183553119Y-94924216D01*
X183550000Y-94892546D01*
X183550000Y-94497454D01*
X183553119Y-94465784D01*
X183561641Y-94437691D01*
X183575483Y-94411796D01*
X183594104Y-94389104D01*
X183616796Y-94370483D01*
X183642691Y-94356641D01*
X183670784Y-94348119D01*
X183702454Y-94345000D01*
X185147546Y-94345000D01*
X185179216Y-94348119D01*
G37*
G36*
X179929216Y-94348119D02*
G01*
X179957309Y-94356641D01*
X179983204Y-94370483D01*
X180005896Y-94389104D01*
X180024517Y-94411796D01*
X180038359Y-94437691D01*
X180046881Y-94465784D01*
X180050000Y-94497454D01*
X180050000Y-94892546D01*
X180046881Y-94924216D01*
X180038359Y-94952309D01*
X180024517Y-94978204D01*
X180005896Y-95000896D01*
X179983204Y-95019517D01*
X179957309Y-95033359D01*
X179929216Y-95041881D01*
X179897546Y-95045000D01*
X178452454Y-95045000D01*
X178420784Y-95041881D01*
X178392691Y-95033359D01*
X178366796Y-95019517D01*
X178344104Y-95000896D01*
X178325483Y-94978204D01*
X178311641Y-94952309D01*
X178303119Y-94924216D01*
X178300000Y-94892546D01*
X178300000Y-94497454D01*
X178303119Y-94465784D01*
X178311641Y-94437691D01*
X178325483Y-94411796D01*
X178344104Y-94389104D01*
X178366796Y-94370483D01*
X178392691Y-94356641D01*
X178420784Y-94348119D01*
X178452454Y-94345000D01*
X179897546Y-94345000D01*
X179929216Y-94348119D01*
G37*
G36*
X187348879Y-93729440D02*
G01*
X187389870Y-93741874D01*
X187427645Y-93762065D01*
X187460758Y-93789242D01*
X187487935Y-93822355D01*
X187508126Y-93860130D01*
X187520560Y-93901121D01*
X187525000Y-93946204D01*
X187525000Y-94478796D01*
X187520560Y-94523879D01*
X187508126Y-94564870D01*
X187487935Y-94602645D01*
X187460758Y-94635758D01*
X187427645Y-94662935D01*
X187389870Y-94683126D01*
X187348879Y-94695560D01*
X187303796Y-94700000D01*
X186696204Y-94700000D01*
X186651121Y-94695560D01*
X186610130Y-94683126D01*
X186572355Y-94662935D01*
X186539242Y-94635758D01*
X186512065Y-94602645D01*
X186491874Y-94564870D01*
X186479440Y-94523879D01*
X186475000Y-94478796D01*
X186475000Y-93946204D01*
X186479440Y-93901121D01*
X186491874Y-93860130D01*
X186512065Y-93822355D01*
X186539242Y-93789242D01*
X186572355Y-93762065D01*
X186610130Y-93741874D01*
X186651121Y-93729440D01*
X186696204Y-93725000D01*
X187303796Y-93725000D01*
X187348879Y-93729440D01*
G37*
G36*
X189548879Y-93729440D02*
G01*
X189589870Y-93741874D01*
X189627645Y-93762065D01*
X189660758Y-93789242D01*
X189687935Y-93822355D01*
X189708126Y-93860130D01*
X189720560Y-93901121D01*
X189725000Y-93946204D01*
X189725000Y-94478796D01*
X189720560Y-94523879D01*
X189708126Y-94564870D01*
X189687935Y-94602645D01*
X189660758Y-94635758D01*
X189627645Y-94662935D01*
X189589870Y-94683126D01*
X189548879Y-94695560D01*
X189503796Y-94700000D01*
X188896204Y-94700000D01*
X188851121Y-94695560D01*
X188810130Y-94683126D01*
X188772355Y-94662935D01*
X188739242Y-94635758D01*
X188712065Y-94602645D01*
X188691874Y-94564870D01*
X188679440Y-94523879D01*
X188675000Y-94478796D01*
X188675000Y-93946204D01*
X188679440Y-93901121D01*
X188691874Y-93860130D01*
X188712065Y-93822355D01*
X188739242Y-93789242D01*
X188772355Y-93762065D01*
X188810130Y-93741874D01*
X188851121Y-93729440D01*
X188896204Y-93725000D01*
X189503796Y-93725000D01*
X189548879Y-93729440D01*
G37*
G36*
X191430000Y-94600000D02*
G01*
X190630000Y-94600000D01*
X190630000Y-94200000D01*
X191430000Y-94200000D01*
X191430000Y-94600000D01*
G37*
G36*
X191430000Y-94100000D02*
G01*
X190630000Y-94100000D01*
X190630000Y-93700000D01*
X191430000Y-93700000D01*
X191430000Y-94100000D01*
G37*
G36*
X170100000Y-93700000D02*
G01*
X168000000Y-93700000D01*
X168000000Y-92100000D01*
X170100000Y-92100000D01*
X170100000Y-93700000D01*
G37*
G36*
X191430000Y-93600000D02*
G01*
X190630000Y-93600000D01*
X190630000Y-93200000D01*
X191430000Y-93200000D01*
X191430000Y-93600000D01*
G37*
G36*
X165523879Y-92479440D02*
G01*
X165564870Y-92491874D01*
X165602645Y-92512065D01*
X165635758Y-92539242D01*
X165662935Y-92572355D01*
X165683126Y-92610130D01*
X165695560Y-92651121D01*
X165700000Y-92696204D01*
X165700000Y-93303796D01*
X165695560Y-93348879D01*
X165683126Y-93389870D01*
X165662935Y-93427645D01*
X165635758Y-93460758D01*
X165602645Y-93487935D01*
X165564870Y-93508126D01*
X165523879Y-93520560D01*
X165478796Y-93525000D01*
X164946204Y-93525000D01*
X164901121Y-93520560D01*
X164860130Y-93508126D01*
X164822355Y-93487935D01*
X164789242Y-93460758D01*
X164762065Y-93427645D01*
X164741874Y-93389870D01*
X164729440Y-93348879D01*
X164725000Y-93303796D01*
X164725000Y-92696204D01*
X164729440Y-92651121D01*
X164741874Y-92610130D01*
X164762065Y-92572355D01*
X164789242Y-92539242D01*
X164822355Y-92512065D01*
X164860130Y-92491874D01*
X164901121Y-92479440D01*
X164946204Y-92475000D01*
X165478796Y-92475000D01*
X165523879Y-92479440D01*
G37*
G36*
X167098879Y-92479440D02*
G01*
X167139870Y-92491874D01*
X167177645Y-92512065D01*
X167210758Y-92539242D01*
X167237935Y-92572355D01*
X167258126Y-92610130D01*
X167270560Y-92651121D01*
X167275000Y-92696204D01*
X167275000Y-93303796D01*
X167270560Y-93348879D01*
X167258126Y-93389870D01*
X167237935Y-93427645D01*
X167210758Y-93460758D01*
X167177645Y-93487935D01*
X167139870Y-93508126D01*
X167098879Y-93520560D01*
X167053796Y-93525000D01*
X166521204Y-93525000D01*
X166476121Y-93520560D01*
X166435130Y-93508126D01*
X166397355Y-93487935D01*
X166364242Y-93460758D01*
X166337065Y-93427645D01*
X166316874Y-93389870D01*
X166304440Y-93348879D01*
X166300000Y-93303796D01*
X166300000Y-92696204D01*
X166304440Y-92651121D01*
X166316874Y-92610130D01*
X166337065Y-92572355D01*
X166364242Y-92539242D01*
X166397355Y-92512065D01*
X166435130Y-92491874D01*
X166476121Y-92479440D01*
X166521204Y-92475000D01*
X167053796Y-92475000D01*
X167098879Y-92479440D01*
G37*
G36*
X184570000Y-93525000D02*
G01*
X183250000Y-93525000D01*
X183250000Y-92775000D01*
X184570000Y-92775000D01*
X184570000Y-93525000D01*
G37*
G36*
X181950000Y-93525000D02*
G01*
X180630000Y-93525000D01*
X180630000Y-92775000D01*
X181950000Y-92775000D01*
X181950000Y-93525000D01*
G37*
G36*
X179748879Y-92504440D02*
G01*
X179789870Y-92516874D01*
X179827645Y-92537065D01*
X179860758Y-92564242D01*
X179887935Y-92597355D01*
X179908126Y-92635130D01*
X179920560Y-92676121D01*
X179925000Y-92721204D01*
X179925000Y-93253796D01*
X179920560Y-93298879D01*
X179908126Y-93339870D01*
X179887935Y-93377645D01*
X179860758Y-93410758D01*
X179827645Y-93437935D01*
X179789870Y-93458126D01*
X179748879Y-93470560D01*
X179703796Y-93475000D01*
X179096204Y-93475000D01*
X179051121Y-93470560D01*
X179010130Y-93458126D01*
X178972355Y-93437935D01*
X178939242Y-93410758D01*
X178912065Y-93377645D01*
X178891874Y-93339870D01*
X178879440Y-93298879D01*
X178875000Y-93253796D01*
X178875000Y-92721204D01*
X178879440Y-92676121D01*
X178891874Y-92635130D01*
X178912065Y-92597355D01*
X178939242Y-92564242D01*
X178972355Y-92537065D01*
X179010130Y-92516874D01*
X179051121Y-92504440D01*
X179096204Y-92500000D01*
X179703796Y-92500000D01*
X179748879Y-92504440D01*
G37*
G36*
X191430000Y-93100000D02*
G01*
X190630000Y-93100000D01*
X190630000Y-92700000D01*
X191430000Y-92700000D01*
X191430000Y-93100000D01*
G37*
G36*
X189880000Y-92925000D02*
G01*
X188720000Y-92925000D01*
X188720000Y-92175000D01*
X189880000Y-92175000D01*
X189880000Y-92925000D01*
G37*
G36*
X187680000Y-92925000D02*
G01*
X186520000Y-92925000D01*
X186520000Y-92175000D01*
X187680000Y-92175000D01*
X187680000Y-92925000D01*
G37*
G36*
X191430000Y-92600000D02*
G01*
X190630000Y-92600000D01*
X190630000Y-92200000D01*
X191430000Y-92200000D01*
X191430000Y-92600000D01*
G37*
G36*
X181950000Y-92575000D02*
G01*
X180630000Y-92575000D01*
X180630000Y-91825000D01*
X181950000Y-91825000D01*
X181950000Y-92575000D01*
G37*
G36*
X184570000Y-92575000D02*
G01*
X183250000Y-92575000D01*
X183250000Y-91825000D01*
X184570000Y-91825000D01*
X184570000Y-92575000D01*
G37*
G36*
X176400000Y-92550000D02*
G01*
X174300000Y-92550000D01*
X174300000Y-88650000D01*
X176400000Y-88650000D01*
X176400000Y-92550000D01*
G37*
G36*
X161902422Y-90859405D02*
G01*
X162024948Y-90896573D01*
X162137868Y-90956930D01*
X162236843Y-91038157D01*
X162318070Y-91137132D01*
X162378427Y-91250052D01*
X162415595Y-91372578D01*
X162428145Y-91500000D01*
X162415595Y-91627422D01*
X162378427Y-91749948D01*
X162318070Y-91862868D01*
X162236843Y-91961843D01*
X162137868Y-92043070D01*
X162024948Y-92103427D01*
X161902422Y-92140595D01*
X161806932Y-92150000D01*
X161193068Y-92150000D01*
X161097578Y-92140595D01*
X160975052Y-92103427D01*
X160862132Y-92043070D01*
X160763157Y-91961843D01*
X160681930Y-91862868D01*
X160621573Y-91749948D01*
X160584405Y-91627422D01*
X160571855Y-91500000D01*
X160584405Y-91372578D01*
X160621573Y-91250052D01*
X160681930Y-91137132D01*
X160763157Y-91038157D01*
X160862132Y-90956930D01*
X160975052Y-90896573D01*
X161097578Y-90859405D01*
X161193068Y-90850000D01*
X161806932Y-90850000D01*
X161902422Y-90859405D01*
G37*
G36*
X191430000Y-92100000D02*
G01*
X190630000Y-92100000D01*
X190630000Y-91700000D01*
X191430000Y-91700000D01*
X191430000Y-92100000D01*
G37*
G36*
X189880000Y-91975000D02*
G01*
X188720000Y-91975000D01*
X188720000Y-91225000D01*
X189880000Y-91225000D01*
X189880000Y-91975000D01*
G37*
G36*
X187680000Y-91975000D02*
G01*
X186520000Y-91975000D01*
X186520000Y-91225000D01*
X187680000Y-91225000D01*
X187680000Y-91975000D01*
G37*
G36*
X179748879Y-90929440D02*
G01*
X179789870Y-90941874D01*
X179827645Y-90962065D01*
X179860758Y-90989242D01*
X179887935Y-91022355D01*
X179908126Y-91060130D01*
X179920560Y-91101121D01*
X179925000Y-91146204D01*
X179925000Y-91678796D01*
X179920560Y-91723879D01*
X179908126Y-91764870D01*
X179887935Y-91802645D01*
X179860758Y-91835758D01*
X179827645Y-91862935D01*
X179789870Y-91883126D01*
X179748879Y-91895560D01*
X179703796Y-91900000D01*
X179096204Y-91900000D01*
X179051121Y-91895560D01*
X179010130Y-91883126D01*
X178972355Y-91862935D01*
X178939242Y-91835758D01*
X178912065Y-91802645D01*
X178891874Y-91764870D01*
X178879440Y-91723879D01*
X178875000Y-91678796D01*
X178875000Y-91146204D01*
X178879440Y-91101121D01*
X178891874Y-91060130D01*
X178912065Y-91022355D01*
X178939242Y-90989242D01*
X178972355Y-90962065D01*
X179010130Y-90941874D01*
X179051121Y-90929440D01*
X179096204Y-90925000D01*
X179703796Y-90925000D01*
X179748879Y-90929440D01*
G37*
G36*
X181950000Y-91625000D02*
G01*
X180630000Y-91625000D01*
X180630000Y-90875000D01*
X181950000Y-90875000D01*
X181950000Y-91625000D01*
G37*
G36*
X184570000Y-91625000D02*
G01*
X183250000Y-91625000D01*
X183250000Y-90875000D01*
X184570000Y-90875000D01*
X184570000Y-91625000D01*
G37*
G36*
X191763512Y-90530426D02*
G01*
X191834199Y-90551869D01*
X191834201Y-90551870D01*
X191899344Y-90586689D01*
X191899346Y-90586691D01*
X191956448Y-90633552D01*
X192003309Y-90690653D01*
X192003310Y-90690655D01*
X192003311Y-90690656D01*
X192038130Y-90755798D01*
X192038131Y-90755800D01*
X192059574Y-90826487D01*
X192065000Y-90881581D01*
X192065000Y-91218419D01*
X192059574Y-91273513D01*
X192038131Y-91344200D01*
X192003309Y-91409347D01*
X191956448Y-91466448D01*
X191899347Y-91513309D01*
X191899345Y-91513310D01*
X191899344Y-91513311D01*
X191834202Y-91548130D01*
X191834200Y-91548131D01*
X191763513Y-91569574D01*
X191690000Y-91576814D01*
X191616488Y-91569574D01*
X191545801Y-91548131D01*
X191545799Y-91548130D01*
X191480657Y-91513311D01*
X191480656Y-91513310D01*
X191480654Y-91513309D01*
X191423553Y-91466448D01*
X191376692Y-91409347D01*
X191341869Y-91344200D01*
X191320426Y-91273513D01*
X191315000Y-91218419D01*
X191315000Y-90881582D01*
X191320426Y-90826488D01*
X191341869Y-90755801D01*
X191341871Y-90755798D01*
X191376689Y-90690656D01*
X191384402Y-90681258D01*
X191423552Y-90633552D01*
X191480653Y-90586691D01*
X191480655Y-90586690D01*
X191480656Y-90586689D01*
X191545798Y-90551870D01*
X191545800Y-90551869D01*
X191616487Y-90530426D01*
X191690000Y-90523186D01*
X191763512Y-90530426D01*
G37*
G36*
X170100000Y-91400000D02*
G01*
X168000000Y-91400000D01*
X168000000Y-89800000D01*
X170100000Y-89800000D01*
X170100000Y-91400000D01*
G37*
G36*
X165523879Y-90079440D02*
G01*
X165564870Y-90091874D01*
X165602645Y-90112065D01*
X165635758Y-90139242D01*
X165662935Y-90172355D01*
X165683126Y-90210130D01*
X165695560Y-90251121D01*
X165700000Y-90296204D01*
X165700000Y-90903796D01*
X165695560Y-90948879D01*
X165683126Y-90989870D01*
X165662935Y-91027645D01*
X165635758Y-91060758D01*
X165602645Y-91087935D01*
X165564870Y-91108126D01*
X165523879Y-91120560D01*
X165478796Y-91125000D01*
X164946204Y-91125000D01*
X164901121Y-91120560D01*
X164860130Y-91108126D01*
X164822355Y-91087935D01*
X164789242Y-91060758D01*
X164762065Y-91027645D01*
X164741874Y-90989870D01*
X164729440Y-90948879D01*
X164725000Y-90903796D01*
X164725000Y-90296204D01*
X164729440Y-90251121D01*
X164741874Y-90210130D01*
X164762065Y-90172355D01*
X164789242Y-90139242D01*
X164822355Y-90112065D01*
X164860130Y-90091874D01*
X164901121Y-90079440D01*
X164946204Y-90075000D01*
X165478796Y-90075000D01*
X165523879Y-90079440D01*
G37*
G36*
X167098879Y-90079440D02*
G01*
X167139870Y-90091874D01*
X167177645Y-90112065D01*
X167210758Y-90139242D01*
X167237935Y-90172355D01*
X167258126Y-90210130D01*
X167270560Y-90251121D01*
X167275000Y-90296204D01*
X167275000Y-90903796D01*
X167270560Y-90948879D01*
X167258126Y-90989870D01*
X167237935Y-91027645D01*
X167210758Y-91060758D01*
X167177645Y-91087935D01*
X167139870Y-91108126D01*
X167098879Y-91120560D01*
X167053796Y-91125000D01*
X166521204Y-91125000D01*
X166476121Y-91120560D01*
X166435130Y-91108126D01*
X166397355Y-91087935D01*
X166364242Y-91060758D01*
X166337065Y-91027645D01*
X166316874Y-90989870D01*
X166304440Y-90948879D01*
X166300000Y-90903796D01*
X166300000Y-90296204D01*
X166304440Y-90251121D01*
X166316874Y-90210130D01*
X166337065Y-90172355D01*
X166364242Y-90139242D01*
X166397355Y-90112065D01*
X166435130Y-90091874D01*
X166476121Y-90079440D01*
X166521204Y-90075000D01*
X167053796Y-90075000D01*
X167098879Y-90079440D01*
G37*
G36*
X189880000Y-91025000D02*
G01*
X188720000Y-91025000D01*
X188720000Y-90275000D01*
X189880000Y-90275000D01*
X189880000Y-91025000D01*
G37*
G36*
X187680000Y-91025000D02*
G01*
X186520000Y-91025000D01*
X186520000Y-90275000D01*
X187680000Y-90275000D01*
X187680000Y-91025000D01*
G37*
G36*
X193328215Y-90076511D02*
G01*
X193413040Y-90102242D01*
X193438926Y-90116079D01*
X193491216Y-90144029D01*
X193559737Y-90200263D01*
X193615971Y-90268784D01*
X193638307Y-90310571D01*
X193657758Y-90346960D01*
X193683489Y-90431785D01*
X193692177Y-90520000D01*
X193683489Y-90608215D01*
X193657758Y-90693040D01*
X193657757Y-90693041D01*
X193615971Y-90771216D01*
X193559737Y-90839737D01*
X193491216Y-90895971D01*
X193449429Y-90918307D01*
X193413040Y-90937758D01*
X193328215Y-90963489D01*
X193262106Y-90970000D01*
X192617894Y-90970000D01*
X192551785Y-90963489D01*
X192466960Y-90937758D01*
X192430571Y-90918307D01*
X192388784Y-90895971D01*
X192320263Y-90839737D01*
X192264029Y-90771216D01*
X192222243Y-90693041D01*
X192222242Y-90693040D01*
X192196511Y-90608215D01*
X192187823Y-90520000D01*
X192196511Y-90431785D01*
X192222242Y-90346960D01*
X192241693Y-90310571D01*
X192264029Y-90268784D01*
X192320263Y-90200263D01*
X192388784Y-90144029D01*
X192441074Y-90116079D01*
X192466960Y-90102242D01*
X192551785Y-90076511D01*
X192617894Y-90070000D01*
X193262106Y-90070000D01*
X193328215Y-90076511D01*
G37*
G36*
X199278215Y-89716511D02*
G01*
X199363040Y-89742242D01*
X199399429Y-89761693D01*
X199441216Y-89784029D01*
X199509737Y-89840263D01*
X199565971Y-89908784D01*
X199578383Y-89932005D01*
X199607758Y-89986960D01*
X199633489Y-90071785D01*
X199642177Y-90160000D01*
X199633489Y-90248215D01*
X199607758Y-90333040D01*
X199607757Y-90333041D01*
X199565971Y-90411216D01*
X199509737Y-90479737D01*
X199441216Y-90535971D01*
X199411473Y-90551869D01*
X199363040Y-90577758D01*
X199278215Y-90603489D01*
X199212106Y-90610000D01*
X198567894Y-90610000D01*
X198501785Y-90603489D01*
X198416960Y-90577758D01*
X198368527Y-90551869D01*
X198338784Y-90535971D01*
X198270263Y-90479737D01*
X198214029Y-90411216D01*
X198172243Y-90333041D01*
X198172242Y-90333040D01*
X198146511Y-90248215D01*
X198137823Y-90160000D01*
X198146511Y-90071785D01*
X198172242Y-89986960D01*
X198201617Y-89932005D01*
X198214029Y-89908784D01*
X198270263Y-89840263D01*
X198338784Y-89784029D01*
X198380571Y-89761693D01*
X198416960Y-89742242D01*
X198501785Y-89716511D01*
X198567894Y-89710000D01*
X199212106Y-89710000D01*
X199278215Y-89716511D01*
G37*
G36*
X179748879Y-89304440D02*
G01*
X179789870Y-89316874D01*
X179827645Y-89337065D01*
X179860758Y-89364242D01*
X179887935Y-89397355D01*
X179908126Y-89435130D01*
X179920560Y-89476121D01*
X179925000Y-89521204D01*
X179925000Y-90053796D01*
X179920560Y-90098879D01*
X179908126Y-90139870D01*
X179887935Y-90177645D01*
X179860758Y-90210758D01*
X179827645Y-90237935D01*
X179789870Y-90258126D01*
X179748879Y-90270560D01*
X179703796Y-90275000D01*
X179096204Y-90275000D01*
X179051121Y-90270560D01*
X179010130Y-90258126D01*
X178972355Y-90237935D01*
X178939242Y-90210758D01*
X178912065Y-90177645D01*
X178891874Y-90139870D01*
X178879440Y-90098879D01*
X178875000Y-90053796D01*
X178875000Y-89521204D01*
X178879440Y-89476121D01*
X178891874Y-89435130D01*
X178912065Y-89397355D01*
X178939242Y-89364242D01*
X178972355Y-89337065D01*
X179010130Y-89316874D01*
X179051121Y-89304440D01*
X179096204Y-89300000D01*
X179703796Y-89300000D01*
X179748879Y-89304440D01*
G37*
G36*
X184948879Y-89304440D02*
G01*
X184989870Y-89316874D01*
X185027645Y-89337065D01*
X185060758Y-89364242D01*
X185087935Y-89397355D01*
X185108126Y-89435130D01*
X185120560Y-89476121D01*
X185125000Y-89521204D01*
X185125000Y-90053796D01*
X185120560Y-90098879D01*
X185108126Y-90139870D01*
X185087935Y-90177645D01*
X185060758Y-90210758D01*
X185027645Y-90237935D01*
X184989870Y-90258126D01*
X184948879Y-90270560D01*
X184903796Y-90275000D01*
X184296204Y-90275000D01*
X184251121Y-90270560D01*
X184210130Y-90258126D01*
X184172355Y-90237935D01*
X184139242Y-90210758D01*
X184112065Y-90177645D01*
X184091874Y-90139870D01*
X184079440Y-90098879D01*
X184075000Y-90053796D01*
X184075000Y-89521204D01*
X184079440Y-89476121D01*
X184091874Y-89435130D01*
X184112065Y-89397355D01*
X184139242Y-89364242D01*
X184172355Y-89337065D01*
X184210130Y-89316874D01*
X184251121Y-89304440D01*
X184296204Y-89300000D01*
X184903796Y-89300000D01*
X184948879Y-89304440D01*
G37*
G36*
X181548879Y-89304440D02*
G01*
X181589870Y-89316874D01*
X181627645Y-89337065D01*
X181660758Y-89364242D01*
X181687935Y-89397355D01*
X181708126Y-89435130D01*
X181720560Y-89476121D01*
X181725000Y-89521204D01*
X181725000Y-90053796D01*
X181720560Y-90098879D01*
X181708126Y-90139870D01*
X181687935Y-90177645D01*
X181660758Y-90210758D01*
X181627645Y-90237935D01*
X181589870Y-90258126D01*
X181548879Y-90270560D01*
X181503796Y-90275000D01*
X180896204Y-90275000D01*
X180851121Y-90270560D01*
X180810130Y-90258126D01*
X180772355Y-90237935D01*
X180739242Y-90210758D01*
X180712065Y-90177645D01*
X180691874Y-90139870D01*
X180679440Y-90098879D01*
X180675000Y-90053796D01*
X180675000Y-89521204D01*
X180679440Y-89476121D01*
X180691874Y-89435130D01*
X180712065Y-89397355D01*
X180739242Y-89364242D01*
X180772355Y-89337065D01*
X180810130Y-89316874D01*
X180851121Y-89304440D01*
X180896204Y-89300000D01*
X181503796Y-89300000D01*
X181548879Y-89304440D01*
G37*
G36*
X183348879Y-89304440D02*
G01*
X183389870Y-89316874D01*
X183427645Y-89337065D01*
X183460758Y-89364242D01*
X183487935Y-89397355D01*
X183508126Y-89435130D01*
X183520560Y-89476121D01*
X183525000Y-89521204D01*
X183525000Y-90053796D01*
X183520560Y-90098879D01*
X183508126Y-90139870D01*
X183487935Y-90177645D01*
X183460758Y-90210758D01*
X183427645Y-90237935D01*
X183389870Y-90258126D01*
X183348879Y-90270560D01*
X183303796Y-90275000D01*
X182696204Y-90275000D01*
X182651121Y-90270560D01*
X182610130Y-90258126D01*
X182572355Y-90237935D01*
X182539242Y-90210758D01*
X182512065Y-90177645D01*
X182491874Y-90139870D01*
X182479440Y-90098879D01*
X182475000Y-90053796D01*
X182475000Y-89521204D01*
X182479440Y-89476121D01*
X182491874Y-89435130D01*
X182512065Y-89397355D01*
X182539242Y-89364242D01*
X182572355Y-89337065D01*
X182610130Y-89316874D01*
X182651121Y-89304440D01*
X182696204Y-89300000D01*
X183303796Y-89300000D01*
X183348879Y-89304440D01*
G37*
G36*
X162230432Y-88854880D02*
G01*
X162275724Y-88868620D01*
X162317463Y-88890929D01*
X162354047Y-88920953D01*
X162384071Y-88957537D01*
X162406380Y-88999276D01*
X162420120Y-89044568D01*
X162425000Y-89094120D01*
X162425000Y-89905880D01*
X162420120Y-89955432D01*
X162406380Y-90000724D01*
X162384071Y-90042463D01*
X162354047Y-90079047D01*
X162317463Y-90109071D01*
X162275724Y-90131380D01*
X162230432Y-90145120D01*
X162180880Y-90150000D01*
X160819120Y-90150000D01*
X160769568Y-90145120D01*
X160724276Y-90131380D01*
X160682537Y-90109071D01*
X160645953Y-90079047D01*
X160615929Y-90042463D01*
X160593620Y-90000724D01*
X160579880Y-89955432D01*
X160575000Y-89905880D01*
X160575000Y-89094120D01*
X160579880Y-89044568D01*
X160593620Y-88999276D01*
X160615929Y-88957537D01*
X160645953Y-88920953D01*
X160682537Y-88890929D01*
X160724276Y-88868620D01*
X160769568Y-88854880D01*
X160819120Y-88850000D01*
X162180880Y-88850000D01*
X162230432Y-88854880D01*
G37*
G36*
X170100000Y-89100000D02*
G01*
X168000000Y-89100000D01*
X168000000Y-87500000D01*
X170100000Y-87500000D01*
X170100000Y-89100000D01*
G37*
G36*
X167098879Y-87679440D02*
G01*
X167139870Y-87691874D01*
X167177645Y-87712065D01*
X167210758Y-87739242D01*
X167237935Y-87772355D01*
X167258126Y-87810130D01*
X167270560Y-87851121D01*
X167275000Y-87896204D01*
X167275000Y-88503796D01*
X167270560Y-88548879D01*
X167258126Y-88589870D01*
X167237935Y-88627645D01*
X167210758Y-88660758D01*
X167177645Y-88687935D01*
X167139870Y-88708126D01*
X167098879Y-88720560D01*
X167053796Y-88725000D01*
X166521204Y-88725000D01*
X166476121Y-88720560D01*
X166435130Y-88708126D01*
X166397355Y-88687935D01*
X166364242Y-88660758D01*
X166337065Y-88627645D01*
X166316874Y-88589870D01*
X166304440Y-88548879D01*
X166300000Y-88503796D01*
X166300000Y-87896204D01*
X166304440Y-87851121D01*
X166316874Y-87810130D01*
X166337065Y-87772355D01*
X166364242Y-87739242D01*
X166397355Y-87712065D01*
X166435130Y-87691874D01*
X166476121Y-87679440D01*
X166521204Y-87675000D01*
X167053796Y-87675000D01*
X167098879Y-87679440D01*
G37*
G36*
X165523879Y-87679440D02*
G01*
X165564870Y-87691874D01*
X165602645Y-87712065D01*
X165635758Y-87739242D01*
X165662935Y-87772355D01*
X165683126Y-87810130D01*
X165695560Y-87851121D01*
X165700000Y-87896204D01*
X165700000Y-88503796D01*
X165695560Y-88548879D01*
X165683126Y-88589870D01*
X165662935Y-88627645D01*
X165635758Y-88660758D01*
X165602645Y-88687935D01*
X165564870Y-88708126D01*
X165523879Y-88720560D01*
X165478796Y-88725000D01*
X164946204Y-88725000D01*
X164901121Y-88720560D01*
X164860130Y-88708126D01*
X164822355Y-88687935D01*
X164789242Y-88660758D01*
X164762065Y-88627645D01*
X164741874Y-88589870D01*
X164729440Y-88548879D01*
X164725000Y-88503796D01*
X164725000Y-87896204D01*
X164729440Y-87851121D01*
X164741874Y-87810130D01*
X164762065Y-87772355D01*
X164789242Y-87739242D01*
X164822355Y-87712065D01*
X164860130Y-87691874D01*
X164901121Y-87679440D01*
X164946204Y-87675000D01*
X165478796Y-87675000D01*
X165523879Y-87679440D01*
G37*
G36*
X183348879Y-87729440D02*
G01*
X183389870Y-87741874D01*
X183427645Y-87762065D01*
X183460758Y-87789242D01*
X183487935Y-87822355D01*
X183508126Y-87860130D01*
X183520560Y-87901121D01*
X183525000Y-87946204D01*
X183525000Y-88478796D01*
X183520560Y-88523879D01*
X183508126Y-88564870D01*
X183487935Y-88602645D01*
X183460758Y-88635758D01*
X183427645Y-88662935D01*
X183389870Y-88683126D01*
X183348879Y-88695560D01*
X183303796Y-88700000D01*
X182696204Y-88700000D01*
X182651121Y-88695560D01*
X182610130Y-88683126D01*
X182572355Y-88662935D01*
X182539242Y-88635758D01*
X182512065Y-88602645D01*
X182491874Y-88564870D01*
X182479440Y-88523879D01*
X182475000Y-88478796D01*
X182475000Y-87946204D01*
X182479440Y-87901121D01*
X182491874Y-87860130D01*
X182512065Y-87822355D01*
X182539242Y-87789242D01*
X182572355Y-87762065D01*
X182610130Y-87741874D01*
X182651121Y-87729440D01*
X182696204Y-87725000D01*
X183303796Y-87725000D01*
X183348879Y-87729440D01*
G37*
G36*
X181548879Y-87729440D02*
G01*
X181589870Y-87741874D01*
X181627645Y-87762065D01*
X181660758Y-87789242D01*
X181687935Y-87822355D01*
X181708126Y-87860130D01*
X181720560Y-87901121D01*
X181725000Y-87946204D01*
X181725000Y-88478796D01*
X181720560Y-88523879D01*
X181708126Y-88564870D01*
X181687935Y-88602645D01*
X181660758Y-88635758D01*
X181627645Y-88662935D01*
X181589870Y-88683126D01*
X181548879Y-88695560D01*
X181503796Y-88700000D01*
X180896204Y-88700000D01*
X180851121Y-88695560D01*
X180810130Y-88683126D01*
X180772355Y-88662935D01*
X180739242Y-88635758D01*
X180712065Y-88602645D01*
X180691874Y-88564870D01*
X180679440Y-88523879D01*
X180675000Y-88478796D01*
X180675000Y-87946204D01*
X180679440Y-87901121D01*
X180691874Y-87860130D01*
X180712065Y-87822355D01*
X180739242Y-87789242D01*
X180772355Y-87762065D01*
X180810130Y-87741874D01*
X180851121Y-87729440D01*
X180896204Y-87725000D01*
X181503796Y-87725000D01*
X181548879Y-87729440D01*
G37*
G36*
X179748879Y-87729440D02*
G01*
X179789870Y-87741874D01*
X179827645Y-87762065D01*
X179860758Y-87789242D01*
X179887935Y-87822355D01*
X179908126Y-87860130D01*
X179920560Y-87901121D01*
X179925000Y-87946204D01*
X179925000Y-88478796D01*
X179920560Y-88523879D01*
X179908126Y-88564870D01*
X179887935Y-88602645D01*
X179860758Y-88635758D01*
X179827645Y-88662935D01*
X179789870Y-88683126D01*
X179748879Y-88695560D01*
X179703796Y-88700000D01*
X179096204Y-88700000D01*
X179051121Y-88695560D01*
X179010130Y-88683126D01*
X178972355Y-88662935D01*
X178939242Y-88635758D01*
X178912065Y-88602645D01*
X178891874Y-88564870D01*
X178879440Y-88523879D01*
X178875000Y-88478796D01*
X178875000Y-87946204D01*
X178879440Y-87901121D01*
X178891874Y-87860130D01*
X178912065Y-87822355D01*
X178939242Y-87789242D01*
X178972355Y-87762065D01*
X179010130Y-87741874D01*
X179051121Y-87729440D01*
X179096204Y-87725000D01*
X179703796Y-87725000D01*
X179748879Y-87729440D01*
G37*
G36*
X184948879Y-87729440D02*
G01*
X184989870Y-87741874D01*
X185027645Y-87762065D01*
X185060758Y-87789242D01*
X185087935Y-87822355D01*
X185108126Y-87860130D01*
X185120560Y-87901121D01*
X185125000Y-87946204D01*
X185125000Y-88478796D01*
X185120560Y-88523879D01*
X185108126Y-88564870D01*
X185087935Y-88602645D01*
X185060758Y-88635758D01*
X185027645Y-88662935D01*
X184989870Y-88683126D01*
X184948879Y-88695560D01*
X184903796Y-88700000D01*
X184296204Y-88700000D01*
X184251121Y-88695560D01*
X184210130Y-88683126D01*
X184172355Y-88662935D01*
X184139242Y-88635758D01*
X184112065Y-88602645D01*
X184091874Y-88564870D01*
X184079440Y-88523879D01*
X184075000Y-88478796D01*
X184075000Y-87946204D01*
X184079440Y-87901121D01*
X184091874Y-87860130D01*
X184112065Y-87822355D01*
X184139242Y-87789242D01*
X184172355Y-87762065D01*
X184210130Y-87741874D01*
X184251121Y-87729440D01*
X184296204Y-87725000D01*
X184903796Y-87725000D01*
X184948879Y-87729440D01*
G37*
G36*
X191050000Y-88600000D02*
G01*
X188750000Y-88600000D01*
X188750000Y-86700000D01*
X191050000Y-86700000D01*
X191050000Y-88600000D01*
G37*
G36*
X167595000Y-86305000D02*
G01*
X166595000Y-86305000D01*
X166595000Y-84205000D01*
X167595000Y-84205000D01*
X167595000Y-86305000D01*
G37*
G36*
X166325000Y-86305000D02*
G01*
X165325000Y-86305000D01*
X165325000Y-84205000D01*
X166325000Y-84205000D01*
X166325000Y-86305000D01*
G37*
G36*
X168865000Y-86305000D02*
G01*
X167865000Y-86305000D01*
X167865000Y-84205000D01*
X168865000Y-84205000D01*
X168865000Y-86305000D01*
G37*
G36*
X170135000Y-86305000D02*
G01*
X169135000Y-86305000D01*
X169135000Y-84205000D01*
X170135000Y-84205000D01*
X170135000Y-86305000D01*
G37*
G36*
X171405000Y-86305000D02*
G01*
X170405000Y-86305000D01*
X170405000Y-84205000D01*
X171405000Y-84205000D01*
X171405000Y-86305000D01*
G37*
G36*
X172675000Y-86305000D02*
G01*
X171675000Y-86305000D01*
X171675000Y-84205000D01*
X172675000Y-84205000D01*
X172675000Y-86305000D01*
G37*
G36*
X173945000Y-86305000D02*
G01*
X172945000Y-86305000D01*
X172945000Y-84205000D01*
X173945000Y-84205000D01*
X173945000Y-86305000D01*
G37*
G36*
X175215000Y-86305000D02*
G01*
X174215000Y-86305000D01*
X174215000Y-84205000D01*
X175215000Y-84205000D01*
X175215000Y-86305000D01*
G37*
G36*
X163785000Y-86305000D02*
G01*
X162785000Y-86305000D01*
X162785000Y-84205000D01*
X163785000Y-84205000D01*
X163785000Y-86305000D01*
G37*
G36*
X165055000Y-86305000D02*
G01*
X164055000Y-86305000D01*
X164055000Y-84205000D01*
X165055000Y-84205000D01*
X165055000Y-86305000D01*
G37*
G36*
X183198879Y-85079440D02*
G01*
X183239870Y-85091874D01*
X183277645Y-85112065D01*
X183310758Y-85139242D01*
X183337935Y-85172355D01*
X183358126Y-85210130D01*
X183370560Y-85251121D01*
X183375000Y-85296204D01*
X183375000Y-85903796D01*
X183370560Y-85948879D01*
X183358126Y-85989870D01*
X183337935Y-86027645D01*
X183310758Y-86060758D01*
X183277645Y-86087935D01*
X183239870Y-86108126D01*
X183198879Y-86120560D01*
X183153796Y-86125000D01*
X182621204Y-86125000D01*
X182576121Y-86120560D01*
X182535130Y-86108126D01*
X182497355Y-86087935D01*
X182464242Y-86060758D01*
X182437065Y-86027645D01*
X182416874Y-85989870D01*
X182404440Y-85948879D01*
X182400000Y-85903796D01*
X182400000Y-85296204D01*
X182404440Y-85251121D01*
X182416874Y-85210130D01*
X182437065Y-85172355D01*
X182464242Y-85139242D01*
X182497355Y-85112065D01*
X182535130Y-85091874D01*
X182576121Y-85079440D01*
X182621204Y-85075000D01*
X183153796Y-85075000D01*
X183198879Y-85079440D01*
G37*
G36*
X181623879Y-85079440D02*
G01*
X181664870Y-85091874D01*
X181702645Y-85112065D01*
X181735758Y-85139242D01*
X181762935Y-85172355D01*
X181783126Y-85210130D01*
X181795560Y-85251121D01*
X181800000Y-85296204D01*
X181800000Y-85903796D01*
X181795560Y-85948879D01*
X181783126Y-85989870D01*
X181762935Y-86027645D01*
X181735758Y-86060758D01*
X181702645Y-86087935D01*
X181664870Y-86108126D01*
X181623879Y-86120560D01*
X181578796Y-86125000D01*
X181046204Y-86125000D01*
X181001121Y-86120560D01*
X180960130Y-86108126D01*
X180922355Y-86087935D01*
X180889242Y-86060758D01*
X180862065Y-86027645D01*
X180841874Y-85989870D01*
X180829440Y-85948879D01*
X180825000Y-85903796D01*
X180825000Y-85296204D01*
X180829440Y-85251121D01*
X180841874Y-85210130D01*
X180862065Y-85172355D01*
X180889242Y-85139242D01*
X180922355Y-85112065D01*
X180960130Y-85091874D01*
X181001121Y-85079440D01*
X181046204Y-85075000D01*
X181578796Y-85075000D01*
X181623879Y-85079440D01*
G37*
G36*
X187350000Y-85950000D02*
G01*
X185950000Y-85950000D01*
X185950000Y-85550000D01*
X187350000Y-85550000D01*
X187350000Y-85950000D01*
G37*
G36*
X187350000Y-85450000D02*
G01*
X185950000Y-85450000D01*
X185950000Y-85050000D01*
X187350000Y-85050000D01*
X187350000Y-85450000D01*
G37*
G36*
X187350000Y-84950000D02*
G01*
X185950000Y-84950000D01*
X185950000Y-84550000D01*
X187350000Y-84550000D01*
X187350000Y-84950000D01*
G37*
G36*
X161550000Y-84755000D02*
G01*
X159450000Y-84755000D01*
X159450000Y-83755000D01*
X161550000Y-83755000D01*
X161550000Y-84755000D01*
G37*
G36*
X178550000Y-84755000D02*
G01*
X176450000Y-84755000D01*
X176450000Y-83755000D01*
X178550000Y-83755000D01*
X178550000Y-84755000D01*
G37*
G36*
X181623879Y-83479440D02*
G01*
X181664870Y-83491874D01*
X181702645Y-83512065D01*
X181735758Y-83539242D01*
X181762935Y-83572355D01*
X181783126Y-83610130D01*
X181795560Y-83651121D01*
X181800000Y-83696204D01*
X181800000Y-84303796D01*
X181795560Y-84348879D01*
X181783126Y-84389870D01*
X181762935Y-84427645D01*
X181735758Y-84460758D01*
X181702645Y-84487935D01*
X181664870Y-84508126D01*
X181623879Y-84520560D01*
X181578796Y-84525000D01*
X181046204Y-84525000D01*
X181001121Y-84520560D01*
X180960130Y-84508126D01*
X180922355Y-84487935D01*
X180889242Y-84460758D01*
X180862065Y-84427645D01*
X180841874Y-84389870D01*
X180829440Y-84348879D01*
X180825000Y-84303796D01*
X180825000Y-83696204D01*
X180829440Y-83651121D01*
X180841874Y-83610130D01*
X180862065Y-83572355D01*
X180889242Y-83539242D01*
X180922355Y-83512065D01*
X180960130Y-83491874D01*
X181001121Y-83479440D01*
X181046204Y-83475000D01*
X181578796Y-83475000D01*
X181623879Y-83479440D01*
G37*
G36*
X183198879Y-83479440D02*
G01*
X183239870Y-83491874D01*
X183277645Y-83512065D01*
X183310758Y-83539242D01*
X183337935Y-83572355D01*
X183358126Y-83610130D01*
X183370560Y-83651121D01*
X183375000Y-83696204D01*
X183375000Y-84303796D01*
X183370560Y-84348879D01*
X183358126Y-84389870D01*
X183337935Y-84427645D01*
X183310758Y-84460758D01*
X183277645Y-84487935D01*
X183239870Y-84508126D01*
X183198879Y-84520560D01*
X183153796Y-84525000D01*
X182621204Y-84525000D01*
X182576121Y-84520560D01*
X182535130Y-84508126D01*
X182497355Y-84487935D01*
X182464242Y-84460758D01*
X182437065Y-84427645D01*
X182416874Y-84389870D01*
X182404440Y-84348879D01*
X182400000Y-84303796D01*
X182400000Y-83696204D01*
X182404440Y-83651121D01*
X182416874Y-83610130D01*
X182437065Y-83572355D01*
X182464242Y-83539242D01*
X182497355Y-83512065D01*
X182535130Y-83491874D01*
X182576121Y-83479440D01*
X182621204Y-83475000D01*
X183153796Y-83475000D01*
X183198879Y-83479440D01*
G37*
G36*
X187350000Y-84450000D02*
G01*
X185950000Y-84450000D01*
X185950000Y-84050000D01*
X187350000Y-84050000D01*
X187350000Y-84450000D01*
G37*
G36*
X187350000Y-83950000D02*
G01*
X185950000Y-83950000D01*
X185950000Y-83550000D01*
X187350000Y-83550000D01*
X187350000Y-83950000D01*
G37*
G36*
X178550000Y-83485000D02*
G01*
X176450000Y-83485000D01*
X176450000Y-82485000D01*
X178550000Y-82485000D01*
X178550000Y-83485000D01*
G37*
G36*
X161550000Y-83485000D02*
G01*
X159450000Y-83485000D01*
X159450000Y-82485000D01*
X161550000Y-82485000D01*
X161550000Y-83485000D01*
G37*
G36*
X187350000Y-83450000D02*
G01*
X185950000Y-83450000D01*
X185950000Y-83050000D01*
X187350000Y-83050000D01*
X187350000Y-83450000D01*
G37*
G36*
X187350000Y-82950000D02*
G01*
X185950000Y-82950000D01*
X185950000Y-82550000D01*
X187350000Y-82550000D01*
X187350000Y-82950000D01*
G37*
G36*
X181623879Y-81879440D02*
G01*
X181664870Y-81891874D01*
X181702645Y-81912065D01*
X181735758Y-81939242D01*
X181762935Y-81972355D01*
X181783126Y-82010130D01*
X181795560Y-82051121D01*
X181800000Y-82096204D01*
X181800000Y-82703796D01*
X181795560Y-82748879D01*
X181783126Y-82789870D01*
X181762935Y-82827645D01*
X181735758Y-82860758D01*
X181702645Y-82887935D01*
X181664870Y-82908126D01*
X181623879Y-82920560D01*
X181578796Y-82925000D01*
X181046204Y-82925000D01*
X181001121Y-82920560D01*
X180960130Y-82908126D01*
X180922355Y-82887935D01*
X180889242Y-82860758D01*
X180862065Y-82827645D01*
X180841874Y-82789870D01*
X180829440Y-82748879D01*
X180825000Y-82703796D01*
X180825000Y-82096204D01*
X180829440Y-82051121D01*
X180841874Y-82010130D01*
X180862065Y-81972355D01*
X180889242Y-81939242D01*
X180922355Y-81912065D01*
X180960130Y-81891874D01*
X181001121Y-81879440D01*
X181046204Y-81875000D01*
X181578796Y-81875000D01*
X181623879Y-81879440D01*
G37*
G36*
X183198879Y-81879440D02*
G01*
X183239870Y-81891874D01*
X183277645Y-81912065D01*
X183310758Y-81939242D01*
X183337935Y-81972355D01*
X183358126Y-82010130D01*
X183370560Y-82051121D01*
X183375000Y-82096204D01*
X183375000Y-82703796D01*
X183370560Y-82748879D01*
X183358126Y-82789870D01*
X183337935Y-82827645D01*
X183310758Y-82860758D01*
X183277645Y-82887935D01*
X183239870Y-82908126D01*
X183198879Y-82920560D01*
X183153796Y-82925000D01*
X182621204Y-82925000D01*
X182576121Y-82920560D01*
X182535130Y-82908126D01*
X182497355Y-82887935D01*
X182464242Y-82860758D01*
X182437065Y-82827645D01*
X182416874Y-82789870D01*
X182404440Y-82748879D01*
X182400000Y-82703796D01*
X182400000Y-82096204D01*
X182404440Y-82051121D01*
X182416874Y-82010130D01*
X182437065Y-81972355D01*
X182464242Y-81939242D01*
X182497355Y-81912065D01*
X182535130Y-81891874D01*
X182576121Y-81879440D01*
X182621204Y-81875000D01*
X183153796Y-81875000D01*
X183198879Y-81879440D01*
G37*
G36*
X187350000Y-82450000D02*
G01*
X185950000Y-82450000D01*
X185950000Y-82050000D01*
X187350000Y-82050000D01*
X187350000Y-82450000D01*
G37*
G36*
X161550000Y-82215000D02*
G01*
X159450000Y-82215000D01*
X159450000Y-81215000D01*
X161550000Y-81215000D01*
X161550000Y-82215000D01*
G37*
G36*
X178550000Y-82215000D02*
G01*
X176450000Y-82215000D01*
X176450000Y-81215000D01*
X178550000Y-81215000D01*
X178550000Y-82215000D01*
G37*
G36*
X198550000Y-82050000D02*
G01*
X196950000Y-82050000D01*
X196950000Y-80450000D01*
X198550000Y-80450000D01*
X198550000Y-82050000D01*
G37*
G36*
X187350000Y-81950000D02*
G01*
X185950000Y-81950000D01*
X185950000Y-81550000D01*
X187350000Y-81550000D01*
X187350000Y-81950000D01*
G37*
G36*
X187350000Y-81450000D02*
G01*
X185950000Y-81450000D01*
X185950000Y-81050000D01*
X187350000Y-81050000D01*
X187350000Y-81450000D01*
G37*
G36*
X181623879Y-80279440D02*
G01*
X181664870Y-80291874D01*
X181702645Y-80312065D01*
X181735758Y-80339242D01*
X181762935Y-80372355D01*
X181783126Y-80410130D01*
X181795560Y-80451121D01*
X181800000Y-80496204D01*
X181800000Y-81103796D01*
X181795560Y-81148879D01*
X181783126Y-81189870D01*
X181762935Y-81227645D01*
X181735758Y-81260758D01*
X181702645Y-81287935D01*
X181664870Y-81308126D01*
X181623879Y-81320560D01*
X181578796Y-81325000D01*
X181046204Y-81325000D01*
X181001121Y-81320560D01*
X180960130Y-81308126D01*
X180922355Y-81287935D01*
X180889242Y-81260758D01*
X180862065Y-81227645D01*
X180841874Y-81189870D01*
X180829440Y-81148879D01*
X180825000Y-81103796D01*
X180825000Y-80496204D01*
X180829440Y-80451121D01*
X180841874Y-80410130D01*
X180862065Y-80372355D01*
X180889242Y-80339242D01*
X180922355Y-80312065D01*
X180960130Y-80291874D01*
X181001121Y-80279440D01*
X181046204Y-80275000D01*
X181578796Y-80275000D01*
X181623879Y-80279440D01*
G37*
G36*
X183198879Y-80279440D02*
G01*
X183239870Y-80291874D01*
X183277645Y-80312065D01*
X183310758Y-80339242D01*
X183337935Y-80372355D01*
X183358126Y-80410130D01*
X183370560Y-80451121D01*
X183375000Y-80496204D01*
X183375000Y-81103796D01*
X183370560Y-81148879D01*
X183358126Y-81189870D01*
X183337935Y-81227645D01*
X183310758Y-81260758D01*
X183277645Y-81287935D01*
X183239870Y-81308126D01*
X183198879Y-81320560D01*
X183153796Y-81325000D01*
X182621204Y-81325000D01*
X182576121Y-81320560D01*
X182535130Y-81308126D01*
X182497355Y-81287935D01*
X182464242Y-81260758D01*
X182437065Y-81227645D01*
X182416874Y-81189870D01*
X182404440Y-81148879D01*
X182400000Y-81103796D01*
X182400000Y-80496204D01*
X182404440Y-80451121D01*
X182416874Y-80410130D01*
X182437065Y-80372355D01*
X182464242Y-80339242D01*
X182497355Y-80312065D01*
X182535130Y-80291874D01*
X182576121Y-80279440D01*
X182621204Y-80275000D01*
X183153796Y-80275000D01*
X183198879Y-80279440D01*
G37*
G36*
X187350000Y-80950000D02*
G01*
X185950000Y-80950000D01*
X185950000Y-80550000D01*
X187350000Y-80550000D01*
X187350000Y-80950000D01*
G37*
G36*
X161550000Y-80945000D02*
G01*
X159450000Y-80945000D01*
X159450000Y-79945000D01*
X161550000Y-79945000D01*
X161550000Y-80945000D01*
G37*
G36*
X178550000Y-80945000D02*
G01*
X176450000Y-80945000D01*
X176450000Y-79945000D01*
X178550000Y-79945000D01*
X178550000Y-80945000D01*
G37*
G36*
X187350000Y-80450000D02*
G01*
X185950000Y-80450000D01*
X185950000Y-80050000D01*
X187350000Y-80050000D01*
X187350000Y-80450000D01*
G37*
G36*
X187350000Y-79950000D02*
G01*
X185950000Y-79950000D01*
X185950000Y-79550000D01*
X187350000Y-79550000D01*
X187350000Y-79950000D01*
G37*
G36*
X183198879Y-78679440D02*
G01*
X183239870Y-78691874D01*
X183277645Y-78712065D01*
X183310758Y-78739242D01*
X183337935Y-78772355D01*
X183358126Y-78810130D01*
X183370560Y-78851121D01*
X183375000Y-78896204D01*
X183375000Y-79503796D01*
X183370560Y-79548879D01*
X183358126Y-79589870D01*
X183337935Y-79627645D01*
X183310758Y-79660758D01*
X183277645Y-79687935D01*
X183239870Y-79708126D01*
X183198879Y-79720560D01*
X183153796Y-79725000D01*
X182621204Y-79725000D01*
X182576121Y-79720560D01*
X182535130Y-79708126D01*
X182497355Y-79687935D01*
X182464242Y-79660758D01*
X182437065Y-79627645D01*
X182416874Y-79589870D01*
X182404440Y-79548879D01*
X182400000Y-79503796D01*
X182400000Y-78896204D01*
X182404440Y-78851121D01*
X182416874Y-78810130D01*
X182437065Y-78772355D01*
X182464242Y-78739242D01*
X182497355Y-78712065D01*
X182535130Y-78691874D01*
X182576121Y-78679440D01*
X182621204Y-78675000D01*
X183153796Y-78675000D01*
X183198879Y-78679440D01*
G37*
G36*
X181623879Y-78679440D02*
G01*
X181664870Y-78691874D01*
X181702645Y-78712065D01*
X181735758Y-78739242D01*
X181762935Y-78772355D01*
X181783126Y-78810130D01*
X181795560Y-78851121D01*
X181800000Y-78896204D01*
X181800000Y-79503796D01*
X181795560Y-79548879D01*
X181783126Y-79589870D01*
X181762935Y-79627645D01*
X181735758Y-79660758D01*
X181702645Y-79687935D01*
X181664870Y-79708126D01*
X181623879Y-79720560D01*
X181578796Y-79725000D01*
X181046204Y-79725000D01*
X181001121Y-79720560D01*
X180960130Y-79708126D01*
X180922355Y-79687935D01*
X180889242Y-79660758D01*
X180862065Y-79627645D01*
X180841874Y-79589870D01*
X180829440Y-79548879D01*
X180825000Y-79503796D01*
X180825000Y-78896204D01*
X180829440Y-78851121D01*
X180841874Y-78810130D01*
X180862065Y-78772355D01*
X180889242Y-78739242D01*
X180922355Y-78712065D01*
X180960130Y-78691874D01*
X181001121Y-78679440D01*
X181046204Y-78675000D01*
X181578796Y-78675000D01*
X181623879Y-78679440D01*
G37*
G36*
X161550000Y-79675000D02*
G01*
X159450000Y-79675000D01*
X159450000Y-78675000D01*
X161550000Y-78675000D01*
X161550000Y-79675000D01*
G37*
G36*
X178550000Y-79675000D02*
G01*
X176450000Y-79675000D01*
X176450000Y-78675000D01*
X178550000Y-78675000D01*
X178550000Y-79675000D01*
G37*
G36*
X197923324Y-77928803D02*
G01*
X197983351Y-77940743D01*
X198005699Y-77950000D01*
X198128941Y-78001048D01*
X198259969Y-78088598D01*
X198371402Y-78200031D01*
X198458952Y-78331059D01*
X198489579Y-78405000D01*
X198508219Y-78450000D01*
X198519257Y-78476650D01*
X198550000Y-78631205D01*
X198550000Y-78788795D01*
X198519257Y-78943350D01*
X198458952Y-79088941D01*
X198371402Y-79219969D01*
X198259969Y-79331402D01*
X198128941Y-79418952D01*
X198043656Y-79454278D01*
X197983351Y-79479257D01*
X197973331Y-79481250D01*
X197828795Y-79510000D01*
X197671205Y-79510000D01*
X197526669Y-79481250D01*
X197516649Y-79479257D01*
X197456344Y-79454278D01*
X197371059Y-79418952D01*
X197240031Y-79331402D01*
X197128598Y-79219969D01*
X197041048Y-79088941D01*
X196980743Y-78943350D01*
X196950000Y-78788795D01*
X196950000Y-78631205D01*
X196980743Y-78476650D01*
X196991782Y-78450000D01*
X197010421Y-78405000D01*
X197041048Y-78331059D01*
X197128598Y-78200031D01*
X197240031Y-78088598D01*
X197371059Y-78001048D01*
X197494301Y-77950000D01*
X197516649Y-77940743D01*
X197576676Y-77928803D01*
X197671205Y-77910000D01*
X197828795Y-77910000D01*
X197923324Y-77928803D01*
G37*
G36*
X187350000Y-79450000D02*
G01*
X185950000Y-79450000D01*
X185950000Y-79050000D01*
X187350000Y-79050000D01*
X187350000Y-79450000D01*
G37*
G36*
X187350000Y-78950000D02*
G01*
X185950000Y-78950000D01*
X185950000Y-78550000D01*
X187350000Y-78550000D01*
X187350000Y-78950000D01*
G37*
G36*
X187350000Y-78450000D02*
G01*
X185950000Y-78450000D01*
X185950000Y-78050000D01*
X187350000Y-78050000D01*
X187350000Y-78450000D01*
G37*
G36*
X178550000Y-78405000D02*
G01*
X176450000Y-78405000D01*
X176450000Y-77405000D01*
X178550000Y-77405000D01*
X178550000Y-78405000D01*
G37*
G36*
X161550000Y-78405000D02*
G01*
X159450000Y-78405000D01*
X159450000Y-77405000D01*
X161550000Y-77405000D01*
X161550000Y-78405000D01*
G37*
G36*
X183198879Y-77079440D02*
G01*
X183239870Y-77091874D01*
X183277645Y-77112065D01*
X183310758Y-77139242D01*
X183337935Y-77172355D01*
X183358126Y-77210130D01*
X183370560Y-77251121D01*
X183375000Y-77296204D01*
X183375000Y-77903796D01*
X183370560Y-77948879D01*
X183358126Y-77989870D01*
X183337935Y-78027645D01*
X183310758Y-78060758D01*
X183277645Y-78087935D01*
X183239870Y-78108126D01*
X183198879Y-78120560D01*
X183153796Y-78125000D01*
X182621204Y-78125000D01*
X182576121Y-78120560D01*
X182535130Y-78108126D01*
X182497355Y-78087935D01*
X182464242Y-78060758D01*
X182437065Y-78027645D01*
X182416874Y-77989870D01*
X182404440Y-77948879D01*
X182400000Y-77903796D01*
X182400000Y-77296204D01*
X182404440Y-77251121D01*
X182416874Y-77210130D01*
X182437065Y-77172355D01*
X182464242Y-77139242D01*
X182497355Y-77112065D01*
X182535130Y-77091874D01*
X182576121Y-77079440D01*
X182621204Y-77075000D01*
X183153796Y-77075000D01*
X183198879Y-77079440D01*
G37*
G36*
X181623879Y-77079440D02*
G01*
X181664870Y-77091874D01*
X181702645Y-77112065D01*
X181735758Y-77139242D01*
X181762935Y-77172355D01*
X181783126Y-77210130D01*
X181795560Y-77251121D01*
X181800000Y-77296204D01*
X181800000Y-77903796D01*
X181795560Y-77948879D01*
X181783126Y-77989870D01*
X181762935Y-78027645D01*
X181735758Y-78060758D01*
X181702645Y-78087935D01*
X181664870Y-78108126D01*
X181623879Y-78120560D01*
X181578796Y-78125000D01*
X181046204Y-78125000D01*
X181001121Y-78120560D01*
X180960130Y-78108126D01*
X180922355Y-78087935D01*
X180889242Y-78060758D01*
X180862065Y-78027645D01*
X180841874Y-77989870D01*
X180829440Y-77948879D01*
X180825000Y-77903796D01*
X180825000Y-77296204D01*
X180829440Y-77251121D01*
X180841874Y-77210130D01*
X180862065Y-77172355D01*
X180889242Y-77139242D01*
X180922355Y-77112065D01*
X180960130Y-77091874D01*
X181001121Y-77079440D01*
X181046204Y-77075000D01*
X181578796Y-77075000D01*
X181623879Y-77079440D01*
G37*
G36*
X187350000Y-77950000D02*
G01*
X185950000Y-77950000D01*
X185950000Y-77550000D01*
X187350000Y-77550000D01*
X187350000Y-77950000D01*
G37*
G36*
X170550000Y-77795000D02*
G01*
X165450000Y-77795000D01*
X165450000Y-72695000D01*
X170550000Y-72695000D01*
X170550000Y-77795000D01*
G37*
G36*
X187350000Y-77450000D02*
G01*
X185950000Y-77450000D01*
X185950000Y-77050000D01*
X187350000Y-77050000D01*
X187350000Y-77450000D01*
G37*
G36*
X161550000Y-77135000D02*
G01*
X159450000Y-77135000D01*
X159450000Y-76135000D01*
X161550000Y-76135000D01*
X161550000Y-77135000D01*
G37*
G36*
X178550000Y-77135000D02*
G01*
X176450000Y-77135000D01*
X176450000Y-76135000D01*
X178550000Y-76135000D01*
X178550000Y-77135000D01*
G37*
G36*
X197931832Y-75390495D02*
G01*
X197983351Y-75400743D01*
X198043656Y-75425722D01*
X198128941Y-75461048D01*
X198259969Y-75548598D01*
X198371402Y-75660031D01*
X198458952Y-75791059D01*
X198489579Y-75865000D01*
X198519257Y-75936649D01*
X198529505Y-75988168D01*
X198550000Y-76091205D01*
X198550000Y-76248795D01*
X198519257Y-76403350D01*
X198458952Y-76548941D01*
X198371402Y-76679969D01*
X198259969Y-76791402D01*
X198128941Y-76878952D01*
X198043656Y-76914278D01*
X197983351Y-76939257D01*
X197931832Y-76949505D01*
X197828795Y-76970000D01*
X197671205Y-76970000D01*
X197568168Y-76949505D01*
X197516649Y-76939257D01*
X197456344Y-76914278D01*
X197371059Y-76878952D01*
X197240031Y-76791402D01*
X197128598Y-76679969D01*
X197041048Y-76548941D01*
X196980743Y-76403350D01*
X196950000Y-76248795D01*
X196950000Y-76091205D01*
X196970495Y-75988168D01*
X196980743Y-75936649D01*
X197010421Y-75865000D01*
X197041048Y-75791059D01*
X197128598Y-75660031D01*
X197240031Y-75548598D01*
X197371059Y-75461048D01*
X197456344Y-75425722D01*
X197516649Y-75400743D01*
X197568168Y-75390495D01*
X197671205Y-75370000D01*
X197828795Y-75370000D01*
X197931832Y-75390495D01*
G37*
G36*
X187350000Y-76950000D02*
G01*
X185950000Y-76950000D01*
X185950000Y-76550000D01*
X187350000Y-76550000D01*
X187350000Y-76950000D01*
G37*
G36*
X183198879Y-75479440D02*
G01*
X183239870Y-75491874D01*
X183277645Y-75512065D01*
X183310758Y-75539242D01*
X183337935Y-75572355D01*
X183358126Y-75610130D01*
X183370560Y-75651121D01*
X183375000Y-75696204D01*
X183375000Y-76303796D01*
X183370560Y-76348879D01*
X183358126Y-76389870D01*
X183337935Y-76427645D01*
X183310758Y-76460758D01*
X183277645Y-76487935D01*
X183239870Y-76508126D01*
X183198879Y-76520560D01*
X183153796Y-76525000D01*
X182621204Y-76525000D01*
X182576121Y-76520560D01*
X182535130Y-76508126D01*
X182497355Y-76487935D01*
X182464242Y-76460758D01*
X182437065Y-76427645D01*
X182416874Y-76389870D01*
X182404440Y-76348879D01*
X182400000Y-76303796D01*
X182400000Y-75696204D01*
X182404440Y-75651121D01*
X182416874Y-75610130D01*
X182437065Y-75572355D01*
X182464242Y-75539242D01*
X182497355Y-75512065D01*
X182535130Y-75491874D01*
X182576121Y-75479440D01*
X182621204Y-75475000D01*
X183153796Y-75475000D01*
X183198879Y-75479440D01*
G37*
G36*
X181623879Y-75479440D02*
G01*
X181664870Y-75491874D01*
X181702645Y-75512065D01*
X181735758Y-75539242D01*
X181762935Y-75572355D01*
X181783126Y-75610130D01*
X181795560Y-75651121D01*
X181800000Y-75696204D01*
X181800000Y-76303796D01*
X181795560Y-76348879D01*
X181783126Y-76389870D01*
X181762935Y-76427645D01*
X181735758Y-76460758D01*
X181702645Y-76487935D01*
X181664870Y-76508126D01*
X181623879Y-76520560D01*
X181578796Y-76525000D01*
X181046204Y-76525000D01*
X181001121Y-76520560D01*
X180960130Y-76508126D01*
X180922355Y-76487935D01*
X180889242Y-76460758D01*
X180862065Y-76427645D01*
X180841874Y-76389870D01*
X180829440Y-76348879D01*
X180825000Y-76303796D01*
X180825000Y-75696204D01*
X180829440Y-75651121D01*
X180841874Y-75610130D01*
X180862065Y-75572355D01*
X180889242Y-75539242D01*
X180922355Y-75512065D01*
X180960130Y-75491874D01*
X181001121Y-75479440D01*
X181046204Y-75475000D01*
X181578796Y-75475000D01*
X181623879Y-75479440D01*
G37*
G36*
X187350000Y-76450000D02*
G01*
X185950000Y-76450000D01*
X185950000Y-76050000D01*
X187350000Y-76050000D01*
X187350000Y-76450000D01*
G37*
G36*
X187350000Y-75950000D02*
G01*
X185950000Y-75950000D01*
X185950000Y-75550000D01*
X187350000Y-75550000D01*
X187350000Y-75950000D01*
G37*
G36*
X161550000Y-75865000D02*
G01*
X159450000Y-75865000D01*
X159450000Y-74865000D01*
X161550000Y-74865000D01*
X161550000Y-75865000D01*
G37*
G36*
X178550000Y-75865000D02*
G01*
X176450000Y-75865000D01*
X176450000Y-74865000D01*
X178550000Y-74865000D01*
X178550000Y-75865000D01*
G37*
G36*
X187350000Y-75450000D02*
G01*
X185950000Y-75450000D01*
X185950000Y-75050000D01*
X187350000Y-75050000D01*
X187350000Y-75450000D01*
G37*
G36*
X187350000Y-74950000D02*
G01*
X185950000Y-74950000D01*
X185950000Y-74550000D01*
X187350000Y-74550000D01*
X187350000Y-74950000D01*
G37*
G36*
X183198879Y-73879440D02*
G01*
X183239870Y-73891874D01*
X183277645Y-73912065D01*
X183310758Y-73939242D01*
X183337935Y-73972355D01*
X183358126Y-74010130D01*
X183370560Y-74051121D01*
X183375000Y-74096204D01*
X183375000Y-74703796D01*
X183370560Y-74748879D01*
X183358126Y-74789870D01*
X183337935Y-74827645D01*
X183310758Y-74860758D01*
X183277645Y-74887935D01*
X183239870Y-74908126D01*
X183198879Y-74920560D01*
X183153796Y-74925000D01*
X182621204Y-74925000D01*
X182576121Y-74920560D01*
X182535130Y-74908126D01*
X182497355Y-74887935D01*
X182464242Y-74860758D01*
X182437065Y-74827645D01*
X182416874Y-74789870D01*
X182404440Y-74748879D01*
X182400000Y-74703796D01*
X182400000Y-74096204D01*
X182404440Y-74051121D01*
X182416874Y-74010130D01*
X182437065Y-73972355D01*
X182464242Y-73939242D01*
X182497355Y-73912065D01*
X182535130Y-73891874D01*
X182576121Y-73879440D01*
X182621204Y-73875000D01*
X183153796Y-73875000D01*
X183198879Y-73879440D01*
G37*
G36*
X181623879Y-73879440D02*
G01*
X181664870Y-73891874D01*
X181702645Y-73912065D01*
X181735758Y-73939242D01*
X181762935Y-73972355D01*
X181783126Y-74010130D01*
X181795560Y-74051121D01*
X181800000Y-74096204D01*
X181800000Y-74703796D01*
X181795560Y-74748879D01*
X181783126Y-74789870D01*
X181762935Y-74827645D01*
X181735758Y-74860758D01*
X181702645Y-74887935D01*
X181664870Y-74908126D01*
X181623879Y-74920560D01*
X181578796Y-74925000D01*
X181046204Y-74925000D01*
X181001121Y-74920560D01*
X180960130Y-74908126D01*
X180922355Y-74887935D01*
X180889242Y-74860758D01*
X180862065Y-74827645D01*
X180841874Y-74789870D01*
X180829440Y-74748879D01*
X180825000Y-74703796D01*
X180825000Y-74096204D01*
X180829440Y-74051121D01*
X180841874Y-74010130D01*
X180862065Y-73972355D01*
X180889242Y-73939242D01*
X180922355Y-73912065D01*
X180960130Y-73891874D01*
X181001121Y-73879440D01*
X181046204Y-73875000D01*
X181578796Y-73875000D01*
X181623879Y-73879440D01*
G37*
G36*
X156783879Y-73679440D02*
G01*
X156824870Y-73691874D01*
X156862645Y-73712065D01*
X156895758Y-73739242D01*
X156922935Y-73772355D01*
X156943126Y-73810130D01*
X156955560Y-73851121D01*
X156960000Y-73896204D01*
X156960000Y-74503796D01*
X156955560Y-74548879D01*
X156943126Y-74589870D01*
X156922935Y-74627645D01*
X156895758Y-74660758D01*
X156862645Y-74687935D01*
X156824870Y-74708126D01*
X156783879Y-74720560D01*
X156738796Y-74725000D01*
X156206204Y-74725000D01*
X156161121Y-74720560D01*
X156120130Y-74708126D01*
X156082355Y-74687935D01*
X156049242Y-74660758D01*
X156022065Y-74627645D01*
X156001874Y-74589870D01*
X155989440Y-74548879D01*
X155985000Y-74503796D01*
X155985000Y-73896204D01*
X155989440Y-73851121D01*
X156001874Y-73810130D01*
X156022065Y-73772355D01*
X156049242Y-73739242D01*
X156082355Y-73712065D01*
X156120130Y-73691874D01*
X156161121Y-73679440D01*
X156206204Y-73675000D01*
X156738796Y-73675000D01*
X156783879Y-73679440D01*
G37*
G36*
X158358879Y-73679440D02*
G01*
X158399870Y-73691874D01*
X158437645Y-73712065D01*
X158470758Y-73739242D01*
X158497935Y-73772355D01*
X158518126Y-73810130D01*
X158530560Y-73851121D01*
X158535000Y-73896204D01*
X158535000Y-74503796D01*
X158530560Y-74548879D01*
X158518126Y-74589870D01*
X158497935Y-74627645D01*
X158470758Y-74660758D01*
X158437645Y-74687935D01*
X158399870Y-74708126D01*
X158358879Y-74720560D01*
X158313796Y-74725000D01*
X157781204Y-74725000D01*
X157736121Y-74720560D01*
X157695130Y-74708126D01*
X157657355Y-74687935D01*
X157624242Y-74660758D01*
X157597065Y-74627645D01*
X157576874Y-74589870D01*
X157564440Y-74548879D01*
X157560000Y-74503796D01*
X157560000Y-73896204D01*
X157564440Y-73851121D01*
X157576874Y-73810130D01*
X157597065Y-73772355D01*
X157624242Y-73739242D01*
X157657355Y-73712065D01*
X157695130Y-73691874D01*
X157736121Y-73679440D01*
X157781204Y-73675000D01*
X158313796Y-73675000D01*
X158358879Y-73679440D01*
G37*
G36*
X178550000Y-74595000D02*
G01*
X176450000Y-74595000D01*
X176450000Y-73595000D01*
X178550000Y-73595000D01*
X178550000Y-74595000D01*
G37*
G36*
X161550000Y-74595000D02*
G01*
X159450000Y-74595000D01*
X159450000Y-73595000D01*
X161550000Y-73595000D01*
X161550000Y-74595000D01*
G37*
G36*
X187350000Y-74450000D02*
G01*
X185950000Y-74450000D01*
X185950000Y-74050000D01*
X187350000Y-74050000D01*
X187350000Y-74450000D01*
G37*
G36*
X197923706Y-72848879D02*
G01*
X197983351Y-72860743D01*
X198016633Y-72874529D01*
X198128941Y-72921048D01*
X198259969Y-73008598D01*
X198371402Y-73120031D01*
X198458952Y-73251059D01*
X198519257Y-73396650D01*
X198550000Y-73551205D01*
X198550000Y-73708795D01*
X198542521Y-73746393D01*
X198519257Y-73863351D01*
X198507442Y-73891874D01*
X198458952Y-74008941D01*
X198371402Y-74139969D01*
X198259969Y-74251402D01*
X198128941Y-74338952D01*
X198043656Y-74374278D01*
X197983351Y-74399257D01*
X197931832Y-74409505D01*
X197828795Y-74430000D01*
X197671205Y-74430000D01*
X197568168Y-74409505D01*
X197516649Y-74399257D01*
X197456344Y-74374278D01*
X197371059Y-74338952D01*
X197240031Y-74251402D01*
X197128598Y-74139969D01*
X197041048Y-74008941D01*
X196992558Y-73891874D01*
X196980743Y-73863351D01*
X196957479Y-73746393D01*
X196950000Y-73708795D01*
X196950000Y-73551205D01*
X196980743Y-73396650D01*
X197041048Y-73251059D01*
X197128598Y-73120031D01*
X197240031Y-73008598D01*
X197371059Y-72921048D01*
X197483367Y-72874529D01*
X197516649Y-72860743D01*
X197576294Y-72848879D01*
X197671205Y-72830000D01*
X197828795Y-72830000D01*
X197923706Y-72848879D01*
G37*
G36*
X178550000Y-73325000D02*
G01*
X176450000Y-73325000D01*
X176450000Y-72325000D01*
X178550000Y-72325000D01*
X178550000Y-73325000D01*
G37*
G36*
X161550000Y-73325000D02*
G01*
X159450000Y-73325000D01*
X159450000Y-72325000D01*
X161550000Y-72325000D01*
X161550000Y-73325000D01*
G37*
G36*
X181623879Y-72279440D02*
G01*
X181664870Y-72291874D01*
X181702645Y-72312065D01*
X181735758Y-72339242D01*
X181762935Y-72372355D01*
X181783126Y-72410130D01*
X181795560Y-72451121D01*
X181800000Y-72496204D01*
X181800000Y-73103796D01*
X181795560Y-73148879D01*
X181783126Y-73189870D01*
X181762935Y-73227645D01*
X181735758Y-73260758D01*
X181702645Y-73287935D01*
X181664870Y-73308126D01*
X181623879Y-73320560D01*
X181578796Y-73325000D01*
X181046204Y-73325000D01*
X181001121Y-73320560D01*
X180960130Y-73308126D01*
X180922355Y-73287935D01*
X180889242Y-73260758D01*
X180862065Y-73227645D01*
X180841874Y-73189870D01*
X180829440Y-73148879D01*
X180825000Y-73103796D01*
X180825000Y-72496204D01*
X180829440Y-72451121D01*
X180841874Y-72410130D01*
X180862065Y-72372355D01*
X180889242Y-72339242D01*
X180922355Y-72312065D01*
X180960130Y-72291874D01*
X181001121Y-72279440D01*
X181046204Y-72275000D01*
X181578796Y-72275000D01*
X181623879Y-72279440D01*
G37*
G36*
X183198879Y-72279440D02*
G01*
X183239870Y-72291874D01*
X183277645Y-72312065D01*
X183310758Y-72339242D01*
X183337935Y-72372355D01*
X183358126Y-72410130D01*
X183370560Y-72451121D01*
X183375000Y-72496204D01*
X183375000Y-73103796D01*
X183370560Y-73148879D01*
X183358126Y-73189870D01*
X183337935Y-73227645D01*
X183310758Y-73260758D01*
X183277645Y-73287935D01*
X183239870Y-73308126D01*
X183198879Y-73320560D01*
X183153796Y-73325000D01*
X182621204Y-73325000D01*
X182576121Y-73320560D01*
X182535130Y-73308126D01*
X182497355Y-73287935D01*
X182464242Y-73260758D01*
X182437065Y-73227645D01*
X182416874Y-73189870D01*
X182404440Y-73148879D01*
X182400000Y-73103796D01*
X182400000Y-72496204D01*
X182404440Y-72451121D01*
X182416874Y-72410130D01*
X182437065Y-72372355D01*
X182464242Y-72339242D01*
X182497355Y-72312065D01*
X182535130Y-72291874D01*
X182576121Y-72279440D01*
X182621204Y-72275000D01*
X183153796Y-72275000D01*
X183198879Y-72279440D01*
G37*
G36*
X191050000Y-73300000D02*
G01*
X188750000Y-73300000D01*
X188750000Y-71400000D01*
X191050000Y-71400000D01*
X191050000Y-73300000D01*
G37*
G36*
X156773879Y-71979440D02*
G01*
X156814870Y-71991874D01*
X156852645Y-72012065D01*
X156885758Y-72039242D01*
X156912935Y-72072355D01*
X156933126Y-72110130D01*
X156945560Y-72151121D01*
X156950000Y-72196204D01*
X156950000Y-72803796D01*
X156945560Y-72848879D01*
X156933126Y-72889870D01*
X156912935Y-72927645D01*
X156885758Y-72960758D01*
X156852645Y-72987935D01*
X156814870Y-73008126D01*
X156773879Y-73020560D01*
X156728796Y-73025000D01*
X156196204Y-73025000D01*
X156151121Y-73020560D01*
X156110130Y-73008126D01*
X156072355Y-72987935D01*
X156039242Y-72960758D01*
X156012065Y-72927645D01*
X155991874Y-72889870D01*
X155979440Y-72848879D01*
X155975000Y-72803796D01*
X155975000Y-72196204D01*
X155979440Y-72151121D01*
X155991874Y-72110130D01*
X156012065Y-72072355D01*
X156039242Y-72039242D01*
X156072355Y-72012065D01*
X156110130Y-71991874D01*
X156151121Y-71979440D01*
X156196204Y-71975000D01*
X156728796Y-71975000D01*
X156773879Y-71979440D01*
G37*
G36*
X158348879Y-71979440D02*
G01*
X158389870Y-71991874D01*
X158427645Y-72012065D01*
X158460758Y-72039242D01*
X158487935Y-72072355D01*
X158508126Y-72110130D01*
X158520560Y-72151121D01*
X158525000Y-72196204D01*
X158525000Y-72803796D01*
X158520560Y-72848879D01*
X158508126Y-72889870D01*
X158487935Y-72927645D01*
X158460758Y-72960758D01*
X158427645Y-72987935D01*
X158389870Y-73008126D01*
X158348879Y-73020560D01*
X158303796Y-73025000D01*
X157771204Y-73025000D01*
X157726121Y-73020560D01*
X157685130Y-73008126D01*
X157647355Y-72987935D01*
X157614242Y-72960758D01*
X157587065Y-72927645D01*
X157566874Y-72889870D01*
X157554440Y-72848879D01*
X157550000Y-72803796D01*
X157550000Y-72196204D01*
X157554440Y-72151121D01*
X157566874Y-72110130D01*
X157587065Y-72072355D01*
X157614242Y-72039242D01*
X157647355Y-72012065D01*
X157685130Y-71991874D01*
X157726121Y-71979440D01*
X157771204Y-71975000D01*
X158303796Y-71975000D01*
X158348879Y-71979440D01*
G37*
G36*
X178550000Y-72055000D02*
G01*
X176450000Y-72055000D01*
X176450000Y-71055000D01*
X178550000Y-71055000D01*
X178550000Y-72055000D01*
G37*
G36*
X161550000Y-72055000D02*
G01*
X159450000Y-72055000D01*
X159450000Y-71055000D01*
X161550000Y-71055000D01*
X161550000Y-72055000D01*
G37*
G36*
X181623879Y-70729440D02*
G01*
X181664870Y-70741874D01*
X181702645Y-70762065D01*
X181735758Y-70789242D01*
X181762935Y-70822355D01*
X181783126Y-70860130D01*
X181795560Y-70901121D01*
X181800000Y-70946204D01*
X181800000Y-71553796D01*
X181795560Y-71598879D01*
X181783126Y-71639870D01*
X181762935Y-71677645D01*
X181735758Y-71710758D01*
X181702645Y-71737935D01*
X181664870Y-71758126D01*
X181623879Y-71770560D01*
X181578796Y-71775000D01*
X181046204Y-71775000D01*
X181001121Y-71770560D01*
X180960130Y-71758126D01*
X180922355Y-71737935D01*
X180889242Y-71710758D01*
X180862065Y-71677645D01*
X180841874Y-71639870D01*
X180829440Y-71598879D01*
X180825000Y-71553796D01*
X180825000Y-70946204D01*
X180829440Y-70901121D01*
X180841874Y-70860130D01*
X180862065Y-70822355D01*
X180889242Y-70789242D01*
X180922355Y-70762065D01*
X180960130Y-70741874D01*
X181001121Y-70729440D01*
X181046204Y-70725000D01*
X181578796Y-70725000D01*
X181623879Y-70729440D01*
G37*
G36*
X183198879Y-70729440D02*
G01*
X183239870Y-70741874D01*
X183277645Y-70762065D01*
X183310758Y-70789242D01*
X183337935Y-70822355D01*
X183358126Y-70860130D01*
X183370560Y-70901121D01*
X183375000Y-70946204D01*
X183375000Y-71553796D01*
X183370560Y-71598879D01*
X183358126Y-71639870D01*
X183337935Y-71677645D01*
X183310758Y-71710758D01*
X183277645Y-71737935D01*
X183239870Y-71758126D01*
X183198879Y-71770560D01*
X183153796Y-71775000D01*
X182621204Y-71775000D01*
X182576121Y-71770560D01*
X182535130Y-71758126D01*
X182497355Y-71737935D01*
X182464242Y-71710758D01*
X182437065Y-71677645D01*
X182416874Y-71639870D01*
X182404440Y-71598879D01*
X182400000Y-71553796D01*
X182400000Y-70946204D01*
X182404440Y-70901121D01*
X182416874Y-70860130D01*
X182437065Y-70822355D01*
X182464242Y-70789242D01*
X182497355Y-70762065D01*
X182535130Y-70741874D01*
X182576121Y-70729440D01*
X182621204Y-70725000D01*
X183153796Y-70725000D01*
X183198879Y-70729440D01*
G37*
G36*
X158348879Y-70229440D02*
G01*
X158389870Y-70241874D01*
X158427645Y-70262065D01*
X158460758Y-70289242D01*
X158487935Y-70322355D01*
X158508126Y-70360130D01*
X158520560Y-70401121D01*
X158525000Y-70446204D01*
X158525000Y-71053796D01*
X158520560Y-71098879D01*
X158508126Y-71139870D01*
X158487935Y-71177645D01*
X158460758Y-71210758D01*
X158427645Y-71237935D01*
X158389870Y-71258126D01*
X158348879Y-71270560D01*
X158303796Y-71275000D01*
X157771204Y-71275000D01*
X157726121Y-71270560D01*
X157685130Y-71258126D01*
X157647355Y-71237935D01*
X157614242Y-71210758D01*
X157587065Y-71177645D01*
X157566874Y-71139870D01*
X157554440Y-71098879D01*
X157550000Y-71053796D01*
X157550000Y-70446204D01*
X157554440Y-70401121D01*
X157566874Y-70360130D01*
X157587065Y-70322355D01*
X157614242Y-70289242D01*
X157647355Y-70262065D01*
X157685130Y-70241874D01*
X157726121Y-70229440D01*
X157771204Y-70225000D01*
X158303796Y-70225000D01*
X158348879Y-70229440D01*
G37*
G36*
X156773879Y-70229440D02*
G01*
X156814870Y-70241874D01*
X156852645Y-70262065D01*
X156885758Y-70289242D01*
X156912935Y-70322355D01*
X156933126Y-70360130D01*
X156945560Y-70401121D01*
X156950000Y-70446204D01*
X156950000Y-71053796D01*
X156945560Y-71098879D01*
X156933126Y-71139870D01*
X156912935Y-71177645D01*
X156885758Y-71210758D01*
X156852645Y-71237935D01*
X156814870Y-71258126D01*
X156773879Y-71270560D01*
X156728796Y-71275000D01*
X156196204Y-71275000D01*
X156151121Y-71270560D01*
X156110130Y-71258126D01*
X156072355Y-71237935D01*
X156039242Y-71210758D01*
X156012065Y-71177645D01*
X155991874Y-71139870D01*
X155979440Y-71098879D01*
X155975000Y-71053796D01*
X155975000Y-70446204D01*
X155979440Y-70401121D01*
X155991874Y-70360130D01*
X156012065Y-70322355D01*
X156039242Y-70289242D01*
X156072355Y-70262065D01*
X156110130Y-70241874D01*
X156151121Y-70229440D01*
X156196204Y-70225000D01*
X156728796Y-70225000D01*
X156773879Y-70229440D01*
G37*
G36*
X161550000Y-70785000D02*
G01*
X159450000Y-70785000D01*
X159450000Y-69785000D01*
X161550000Y-69785000D01*
X161550000Y-70785000D01*
G37*
G36*
X178550000Y-70785000D02*
G01*
X176450000Y-70785000D01*
X176450000Y-69785000D01*
X178550000Y-69785000D01*
X178550000Y-70785000D01*
G37*
G36*
X194698879Y-68879440D02*
G01*
X194739870Y-68891874D01*
X194777645Y-68912065D01*
X194810758Y-68939242D01*
X194837935Y-68972355D01*
X194858126Y-69010130D01*
X194870560Y-69051121D01*
X194875000Y-69096204D01*
X194875000Y-69703796D01*
X194870560Y-69748879D01*
X194858126Y-69789870D01*
X194837935Y-69827645D01*
X194810758Y-69860758D01*
X194777645Y-69887935D01*
X194739870Y-69908126D01*
X194698879Y-69920560D01*
X194653796Y-69925000D01*
X194121204Y-69925000D01*
X194076121Y-69920560D01*
X194035130Y-69908126D01*
X193997355Y-69887935D01*
X193964242Y-69860758D01*
X193937065Y-69827645D01*
X193916874Y-69789870D01*
X193904440Y-69748879D01*
X193900000Y-69703796D01*
X193900000Y-69096204D01*
X193904440Y-69051121D01*
X193916874Y-69010130D01*
X193937065Y-68972355D01*
X193964242Y-68939242D01*
X193997355Y-68912065D01*
X194035130Y-68891874D01*
X194076121Y-68879440D01*
X194121204Y-68875000D01*
X194653796Y-68875000D01*
X194698879Y-68879440D01*
G37*
G36*
X193123879Y-68879440D02*
G01*
X193164870Y-68891874D01*
X193202645Y-68912065D01*
X193235758Y-68939242D01*
X193262935Y-68972355D01*
X193283126Y-69010130D01*
X193295560Y-69051121D01*
X193300000Y-69096204D01*
X193300000Y-69703796D01*
X193295560Y-69748879D01*
X193283126Y-69789870D01*
X193262935Y-69827645D01*
X193235758Y-69860758D01*
X193202645Y-69887935D01*
X193164870Y-69908126D01*
X193123879Y-69920560D01*
X193078796Y-69925000D01*
X192546204Y-69925000D01*
X192501121Y-69920560D01*
X192460130Y-69908126D01*
X192422355Y-69887935D01*
X192389242Y-69860758D01*
X192362065Y-69827645D01*
X192341874Y-69789870D01*
X192329440Y-69748879D01*
X192325000Y-69703796D01*
X192325000Y-69096204D01*
X192329440Y-69051121D01*
X192341874Y-69010130D01*
X192362065Y-68972355D01*
X192389242Y-68939242D01*
X192422355Y-68912065D01*
X192460130Y-68891874D01*
X192501121Y-68879440D01*
X192546204Y-68875000D01*
X193078796Y-68875000D01*
X193123879Y-68879440D01*
G37*
G36*
X185723879Y-68879440D02*
G01*
X185764870Y-68891874D01*
X185802645Y-68912065D01*
X185835758Y-68939242D01*
X185862935Y-68972355D01*
X185883126Y-69010130D01*
X185895560Y-69051121D01*
X185900000Y-69096204D01*
X185900000Y-69703796D01*
X185895560Y-69748879D01*
X185883126Y-69789870D01*
X185862935Y-69827645D01*
X185835758Y-69860758D01*
X185802645Y-69887935D01*
X185764870Y-69908126D01*
X185723879Y-69920560D01*
X185678796Y-69925000D01*
X185146204Y-69925000D01*
X185101121Y-69920560D01*
X185060130Y-69908126D01*
X185022355Y-69887935D01*
X184989242Y-69860758D01*
X184962065Y-69827645D01*
X184941874Y-69789870D01*
X184929440Y-69748879D01*
X184925000Y-69703796D01*
X184925000Y-69096204D01*
X184929440Y-69051121D01*
X184941874Y-69010130D01*
X184962065Y-68972355D01*
X184989242Y-68939242D01*
X185022355Y-68912065D01*
X185060130Y-68891874D01*
X185101121Y-68879440D01*
X185146204Y-68875000D01*
X185678796Y-68875000D01*
X185723879Y-68879440D01*
G37*
G36*
X187298879Y-68879440D02*
G01*
X187339870Y-68891874D01*
X187377645Y-68912065D01*
X187410758Y-68939242D01*
X187437935Y-68972355D01*
X187458126Y-69010130D01*
X187470560Y-69051121D01*
X187475000Y-69096204D01*
X187475000Y-69703796D01*
X187470560Y-69748879D01*
X187458126Y-69789870D01*
X187437935Y-69827645D01*
X187410758Y-69860758D01*
X187377645Y-69887935D01*
X187339870Y-69908126D01*
X187298879Y-69920560D01*
X187253796Y-69925000D01*
X186721204Y-69925000D01*
X186676121Y-69920560D01*
X186635130Y-69908126D01*
X186597355Y-69887935D01*
X186564242Y-69860758D01*
X186537065Y-69827645D01*
X186516874Y-69789870D01*
X186504440Y-69748879D01*
X186500000Y-69703796D01*
X186500000Y-69096204D01*
X186504440Y-69051121D01*
X186516874Y-69010130D01*
X186537065Y-68972355D01*
X186564242Y-68939242D01*
X186597355Y-68912065D01*
X186635130Y-68891874D01*
X186676121Y-68879440D01*
X186721204Y-68875000D01*
X187253796Y-68875000D01*
X187298879Y-68879440D01*
G37*
G36*
X189100000Y-69900000D02*
G01*
X188100000Y-69900000D01*
X188100000Y-69000000D01*
X189100000Y-69000000D01*
X189100000Y-69900000D01*
G37*
G36*
X158348879Y-68479440D02*
G01*
X158389870Y-68491874D01*
X158427645Y-68512065D01*
X158460758Y-68539242D01*
X158487935Y-68572355D01*
X158508126Y-68610130D01*
X158520560Y-68651121D01*
X158525000Y-68696204D01*
X158525000Y-69303796D01*
X158520560Y-69348879D01*
X158508126Y-69389870D01*
X158487935Y-69427645D01*
X158460758Y-69460758D01*
X158427645Y-69487935D01*
X158389870Y-69508126D01*
X158348879Y-69520560D01*
X158303796Y-69525000D01*
X157771204Y-69525000D01*
X157726121Y-69520560D01*
X157685130Y-69508126D01*
X157647355Y-69487935D01*
X157614242Y-69460758D01*
X157587065Y-69427645D01*
X157566874Y-69389870D01*
X157554440Y-69348879D01*
X157550000Y-69303796D01*
X157550000Y-68696204D01*
X157554440Y-68651121D01*
X157566874Y-68610130D01*
X157587065Y-68572355D01*
X157614242Y-68539242D01*
X157647355Y-68512065D01*
X157685130Y-68491874D01*
X157726121Y-68479440D01*
X157771204Y-68475000D01*
X158303796Y-68475000D01*
X158348879Y-68479440D01*
G37*
G36*
X156773879Y-68479440D02*
G01*
X156814870Y-68491874D01*
X156852645Y-68512065D01*
X156885758Y-68539242D01*
X156912935Y-68572355D01*
X156933126Y-68610130D01*
X156945560Y-68651121D01*
X156950000Y-68696204D01*
X156950000Y-69303796D01*
X156945560Y-69348879D01*
X156933126Y-69389870D01*
X156912935Y-69427645D01*
X156885758Y-69460758D01*
X156852645Y-69487935D01*
X156814870Y-69508126D01*
X156773879Y-69520560D01*
X156728796Y-69525000D01*
X156196204Y-69525000D01*
X156151121Y-69520560D01*
X156110130Y-69508126D01*
X156072355Y-69487935D01*
X156039242Y-69460758D01*
X156012065Y-69427645D01*
X155991874Y-69389870D01*
X155979440Y-69348879D01*
X155975000Y-69303796D01*
X155975000Y-68696204D01*
X155979440Y-68651121D01*
X155991874Y-68610130D01*
X156012065Y-68572355D01*
X156039242Y-68539242D01*
X156072355Y-68512065D01*
X156110130Y-68491874D01*
X156151121Y-68479440D01*
X156196204Y-68475000D01*
X156728796Y-68475000D01*
X156773879Y-68479440D01*
G37*
G36*
X178550000Y-69515000D02*
G01*
X176450000Y-69515000D01*
X176450000Y-68515000D01*
X178550000Y-68515000D01*
X178550000Y-69515000D01*
G37*
G36*
X161550000Y-69515000D02*
G01*
X159450000Y-69515000D01*
X159450000Y-68515000D01*
X161550000Y-68515000D01*
X161550000Y-69515000D01*
G37*
G36*
X191100000Y-68950000D02*
G01*
X190100000Y-68950000D01*
X190100000Y-68050000D01*
X191100000Y-68050000D01*
X191100000Y-68950000D01*
G37*
G36*
X178550000Y-68245000D02*
G01*
X176450000Y-68245000D01*
X176450000Y-67245000D01*
X178550000Y-67245000D01*
X178550000Y-68245000D01*
G37*
G36*
X161550000Y-68245000D02*
G01*
X159450000Y-68245000D01*
X159450000Y-67245000D01*
X161550000Y-67245000D01*
X161550000Y-68245000D01*
G37*
G36*
X187298879Y-67079440D02*
G01*
X187339870Y-67091874D01*
X187377645Y-67112065D01*
X187410758Y-67139242D01*
X187437935Y-67172355D01*
X187458126Y-67210130D01*
X187470560Y-67251121D01*
X187475000Y-67296204D01*
X187475000Y-67903796D01*
X187470560Y-67948879D01*
X187458126Y-67989870D01*
X187437935Y-68027645D01*
X187410758Y-68060758D01*
X187377645Y-68087935D01*
X187339870Y-68108126D01*
X187298879Y-68120560D01*
X187253796Y-68125000D01*
X186721204Y-68125000D01*
X186676121Y-68120560D01*
X186635130Y-68108126D01*
X186597355Y-68087935D01*
X186564242Y-68060758D01*
X186537065Y-68027645D01*
X186516874Y-67989870D01*
X186504440Y-67948879D01*
X186500000Y-67903796D01*
X186500000Y-67296204D01*
X186504440Y-67251121D01*
X186516874Y-67210130D01*
X186537065Y-67172355D01*
X186564242Y-67139242D01*
X186597355Y-67112065D01*
X186635130Y-67091874D01*
X186676121Y-67079440D01*
X186721204Y-67075000D01*
X187253796Y-67075000D01*
X187298879Y-67079440D01*
G37*
G36*
X185723879Y-67079440D02*
G01*
X185764870Y-67091874D01*
X185802645Y-67112065D01*
X185835758Y-67139242D01*
X185862935Y-67172355D01*
X185883126Y-67210130D01*
X185895560Y-67251121D01*
X185900000Y-67296204D01*
X185900000Y-67903796D01*
X185895560Y-67948879D01*
X185883126Y-67989870D01*
X185862935Y-68027645D01*
X185835758Y-68060758D01*
X185802645Y-68087935D01*
X185764870Y-68108126D01*
X185723879Y-68120560D01*
X185678796Y-68125000D01*
X185146204Y-68125000D01*
X185101121Y-68120560D01*
X185060130Y-68108126D01*
X185022355Y-68087935D01*
X184989242Y-68060758D01*
X184962065Y-68027645D01*
X184941874Y-67989870D01*
X184929440Y-67948879D01*
X184925000Y-67903796D01*
X184925000Y-67296204D01*
X184929440Y-67251121D01*
X184941874Y-67210130D01*
X184962065Y-67172355D01*
X184989242Y-67139242D01*
X185022355Y-67112065D01*
X185060130Y-67091874D01*
X185101121Y-67079440D01*
X185146204Y-67075000D01*
X185678796Y-67075000D01*
X185723879Y-67079440D01*
G37*
G36*
X189100000Y-68000000D02*
G01*
X188100000Y-68000000D01*
X188100000Y-67100000D01*
X189100000Y-67100000D01*
X189100000Y-68000000D01*
G37*
G36*
X194698879Y-66879440D02*
G01*
X194739870Y-66891874D01*
X194777645Y-66912065D01*
X194810758Y-66939242D01*
X194837935Y-66972355D01*
X194858126Y-67010130D01*
X194870560Y-67051121D01*
X194875000Y-67096204D01*
X194875000Y-67703796D01*
X194870560Y-67748879D01*
X194858126Y-67789870D01*
X194837935Y-67827645D01*
X194810758Y-67860758D01*
X194777645Y-67887935D01*
X194739870Y-67908126D01*
X194698879Y-67920560D01*
X194653796Y-67925000D01*
X194121204Y-67925000D01*
X194076121Y-67920560D01*
X194035130Y-67908126D01*
X193997355Y-67887935D01*
X193964242Y-67860758D01*
X193937065Y-67827645D01*
X193916874Y-67789870D01*
X193904440Y-67748879D01*
X193900000Y-67703796D01*
X193900000Y-67096204D01*
X193904440Y-67051121D01*
X193916874Y-67010130D01*
X193937065Y-66972355D01*
X193964242Y-66939242D01*
X193997355Y-66912065D01*
X194035130Y-66891874D01*
X194076121Y-66879440D01*
X194121204Y-66875000D01*
X194653796Y-66875000D01*
X194698879Y-66879440D01*
G37*
G36*
X193123879Y-66879440D02*
G01*
X193164870Y-66891874D01*
X193202645Y-66912065D01*
X193235758Y-66939242D01*
X193262935Y-66972355D01*
X193283126Y-67010130D01*
X193295560Y-67051121D01*
X193300000Y-67096204D01*
X193300000Y-67703796D01*
X193295560Y-67748879D01*
X193283126Y-67789870D01*
X193262935Y-67827645D01*
X193235758Y-67860758D01*
X193202645Y-67887935D01*
X193164870Y-67908126D01*
X193123879Y-67920560D01*
X193078796Y-67925000D01*
X192546204Y-67925000D01*
X192501121Y-67920560D01*
X192460130Y-67908126D01*
X192422355Y-67887935D01*
X192389242Y-67860758D01*
X192362065Y-67827645D01*
X192341874Y-67789870D01*
X192329440Y-67748879D01*
X192325000Y-67703796D01*
X192325000Y-67096204D01*
X192329440Y-67051121D01*
X192341874Y-67010130D01*
X192362065Y-66972355D01*
X192389242Y-66939242D01*
X192422355Y-66912065D01*
X192460130Y-66891874D01*
X192501121Y-66879440D01*
X192546204Y-66875000D01*
X193078796Y-66875000D01*
X193123879Y-66879440D01*
G37*
G36*
X191253197Y-65329934D02*
G01*
X191299009Y-65343831D01*
X191341226Y-65366396D01*
X191378233Y-65396767D01*
X191408604Y-65433774D01*
X191431169Y-65475991D01*
X191445066Y-65521803D01*
X191450000Y-65571898D01*
X191450000Y-66303102D01*
X191445066Y-66353197D01*
X191431169Y-66399009D01*
X191408604Y-66441226D01*
X191378233Y-66478233D01*
X191341226Y-66508604D01*
X191299009Y-66531169D01*
X191253197Y-66545066D01*
X191203102Y-66550000D01*
X188196898Y-66550000D01*
X188146803Y-66545066D01*
X188100991Y-66531169D01*
X188058774Y-66508604D01*
X188021767Y-66478233D01*
X187991396Y-66441226D01*
X187968831Y-66399009D01*
X187954934Y-66353197D01*
X187950000Y-66303102D01*
X187950000Y-65571898D01*
X187954934Y-65521803D01*
X187968831Y-65475991D01*
X187991396Y-65433774D01*
X188021767Y-65396767D01*
X188058774Y-65366396D01*
X188100991Y-65343831D01*
X188146803Y-65329934D01*
X188196898Y-65325000D01*
X191203102Y-65325000D01*
X191253197Y-65329934D01*
G37*
G36*
X185723879Y-65279440D02*
G01*
X185764870Y-65291874D01*
X185802645Y-65312065D01*
X185835758Y-65339242D01*
X185862935Y-65372355D01*
X185883126Y-65410130D01*
X185895560Y-65451121D01*
X185900000Y-65496204D01*
X185900000Y-66103796D01*
X185895560Y-66148879D01*
X185883126Y-66189870D01*
X185862935Y-66227645D01*
X185835758Y-66260758D01*
X185802645Y-66287935D01*
X185764870Y-66308126D01*
X185723879Y-66320560D01*
X185678796Y-66325000D01*
X185146204Y-66325000D01*
X185101121Y-66320560D01*
X185060130Y-66308126D01*
X185022355Y-66287935D01*
X184989242Y-66260758D01*
X184962065Y-66227645D01*
X184941874Y-66189870D01*
X184929440Y-66148879D01*
X184925000Y-66103796D01*
X184925000Y-65496204D01*
X184929440Y-65451121D01*
X184941874Y-65410130D01*
X184962065Y-65372355D01*
X184989242Y-65339242D01*
X185022355Y-65312065D01*
X185060130Y-65291874D01*
X185101121Y-65279440D01*
X185146204Y-65275000D01*
X185678796Y-65275000D01*
X185723879Y-65279440D01*
G37*
G36*
X187298879Y-65279440D02*
G01*
X187339870Y-65291874D01*
X187377645Y-65312065D01*
X187410758Y-65339242D01*
X187437935Y-65372355D01*
X187458126Y-65410130D01*
X187470560Y-65451121D01*
X187475000Y-65496204D01*
X187475000Y-66103796D01*
X187470560Y-66148879D01*
X187458126Y-66189870D01*
X187437935Y-66227645D01*
X187410758Y-66260758D01*
X187377645Y-66287935D01*
X187339870Y-66308126D01*
X187298879Y-66320560D01*
X187253796Y-66325000D01*
X186721204Y-66325000D01*
X186676121Y-66320560D01*
X186635130Y-66308126D01*
X186597355Y-66287935D01*
X186564242Y-66260758D01*
X186537065Y-66227645D01*
X186516874Y-66189870D01*
X186504440Y-66148879D01*
X186500000Y-66103796D01*
X186500000Y-65496204D01*
X186504440Y-65451121D01*
X186516874Y-65410130D01*
X186537065Y-65372355D01*
X186564242Y-65339242D01*
X186597355Y-65312065D01*
X186635130Y-65291874D01*
X186676121Y-65279440D01*
X186721204Y-65275000D01*
X187253796Y-65275000D01*
X187298879Y-65279440D01*
G37*
G36*
X194698879Y-65079440D02*
G01*
X194739870Y-65091874D01*
X194777645Y-65112065D01*
X194810758Y-65139242D01*
X194837935Y-65172355D01*
X194858126Y-65210130D01*
X194870560Y-65251121D01*
X194875000Y-65296204D01*
X194875000Y-65903796D01*
X194870560Y-65948879D01*
X194858126Y-65989870D01*
X194837935Y-66027645D01*
X194810758Y-66060758D01*
X194777645Y-66087935D01*
X194739870Y-66108126D01*
X194698879Y-66120560D01*
X194653796Y-66125000D01*
X194121204Y-66125000D01*
X194076121Y-66120560D01*
X194035130Y-66108126D01*
X193997355Y-66087935D01*
X193964242Y-66060758D01*
X193937065Y-66027645D01*
X193916874Y-65989870D01*
X193904440Y-65948879D01*
X193900000Y-65903796D01*
X193900000Y-65296204D01*
X193904440Y-65251121D01*
X193916874Y-65210130D01*
X193937065Y-65172355D01*
X193964242Y-65139242D01*
X193997355Y-65112065D01*
X194035130Y-65091874D01*
X194076121Y-65079440D01*
X194121204Y-65075000D01*
X194653796Y-65075000D01*
X194698879Y-65079440D01*
G37*
G36*
X193123879Y-65079440D02*
G01*
X193164870Y-65091874D01*
X193202645Y-65112065D01*
X193235758Y-65139242D01*
X193262935Y-65172355D01*
X193283126Y-65210130D01*
X193295560Y-65251121D01*
X193300000Y-65296204D01*
X193300000Y-65903796D01*
X193295560Y-65948879D01*
X193283126Y-65989870D01*
X193262935Y-66027645D01*
X193235758Y-66060758D01*
X193202645Y-66087935D01*
X193164870Y-66108126D01*
X193123879Y-66120560D01*
X193078796Y-66125000D01*
X192546204Y-66125000D01*
X192501121Y-66120560D01*
X192460130Y-66108126D01*
X192422355Y-66087935D01*
X192389242Y-66060758D01*
X192362065Y-66027645D01*
X192341874Y-65989870D01*
X192329440Y-65948879D01*
X192325000Y-65903796D01*
X192325000Y-65296204D01*
X192329440Y-65251121D01*
X192341874Y-65210130D01*
X192362065Y-65172355D01*
X192389242Y-65139242D01*
X192422355Y-65112065D01*
X192460130Y-65091874D01*
X192501121Y-65079440D01*
X192546204Y-65075000D01*
X193078796Y-65075000D01*
X193123879Y-65079440D01*
G37*
G36*
X187148879Y-62804440D02*
G01*
X187189870Y-62816874D01*
X187227645Y-62837065D01*
X187260758Y-62864242D01*
X187287935Y-62897355D01*
X187308126Y-62935130D01*
X187320560Y-62976121D01*
X187325000Y-63021204D01*
X187325000Y-63553796D01*
X187320560Y-63598879D01*
X187308126Y-63639870D01*
X187287935Y-63677645D01*
X187260758Y-63710758D01*
X187227645Y-63737935D01*
X187189870Y-63758126D01*
X187148879Y-63770560D01*
X187103796Y-63775000D01*
X186496204Y-63775000D01*
X186451121Y-63770560D01*
X186410130Y-63758126D01*
X186372355Y-63737935D01*
X186339242Y-63710758D01*
X186312065Y-63677645D01*
X186291874Y-63639870D01*
X186279440Y-63598879D01*
X186275000Y-63553796D01*
X186275000Y-63021204D01*
X186279440Y-62976121D01*
X186291874Y-62935130D01*
X186312065Y-62897355D01*
X186339242Y-62864242D01*
X186372355Y-62837065D01*
X186410130Y-62816874D01*
X186451121Y-62804440D01*
X186496204Y-62800000D01*
X187103796Y-62800000D01*
X187148879Y-62804440D01*
G37*
G36*
X197724354Y-61372097D02*
G01*
X197835443Y-61394194D01*
X197958039Y-61444976D01*
X198044728Y-61480883D01*
X198233081Y-61606736D01*
X198393264Y-61766919D01*
X198519117Y-61955272D01*
X198538795Y-62002779D01*
X198605806Y-62164557D01*
X198650000Y-62386735D01*
X198650000Y-62613265D01*
X198605806Y-62835443D01*
X198580161Y-62897355D01*
X198519117Y-63044728D01*
X198393264Y-63233081D01*
X198233081Y-63393264D01*
X198044728Y-63519117D01*
X197961005Y-63553796D01*
X197835443Y-63605806D01*
X197741316Y-63624529D01*
X197613267Y-63650000D01*
X197386733Y-63650000D01*
X197258684Y-63624529D01*
X197164557Y-63605806D01*
X197038995Y-63553796D01*
X196955272Y-63519117D01*
X196766919Y-63393264D01*
X196606736Y-63233081D01*
X196480883Y-63044728D01*
X196419839Y-62897355D01*
X196394194Y-62835443D01*
X196350000Y-62613265D01*
X196350000Y-62386735D01*
X196394194Y-62164557D01*
X196461205Y-62002779D01*
X196480883Y-61955272D01*
X196606736Y-61766919D01*
X196766919Y-61606736D01*
X196955272Y-61480883D01*
X197041961Y-61444976D01*
X197164557Y-61394194D01*
X197275646Y-61372097D01*
X197386733Y-61350000D01*
X197613267Y-61350000D01*
X197724354Y-61372097D01*
G37*
G36*
X191253197Y-61054934D02*
G01*
X191299009Y-61068831D01*
X191341226Y-61091396D01*
X191378233Y-61121767D01*
X191408604Y-61158774D01*
X191431169Y-61200991D01*
X191445066Y-61246803D01*
X191450000Y-61296898D01*
X191450000Y-62028102D01*
X191445066Y-62078197D01*
X191431169Y-62124009D01*
X191408604Y-62166226D01*
X191378233Y-62203233D01*
X191341226Y-62233604D01*
X191299009Y-62256169D01*
X191253197Y-62270066D01*
X191203102Y-62275000D01*
X188196898Y-62275000D01*
X188146803Y-62270066D01*
X188100991Y-62256169D01*
X188058774Y-62233604D01*
X188021767Y-62203233D01*
X187991396Y-62166226D01*
X187968831Y-62124009D01*
X187954934Y-62078197D01*
X187950000Y-62028102D01*
X187950000Y-61296898D01*
X187954934Y-61246803D01*
X187968831Y-61200991D01*
X187991396Y-61158774D01*
X188021767Y-61121767D01*
X188058774Y-61091396D01*
X188100991Y-61068831D01*
X188146803Y-61054934D01*
X188196898Y-61050000D01*
X191203102Y-61050000D01*
X191253197Y-61054934D01*
G37*
G36*
X187148879Y-61229440D02*
G01*
X187189870Y-61241874D01*
X187227645Y-61262065D01*
X187260758Y-61289242D01*
X187287935Y-61322355D01*
X187308126Y-61360130D01*
X187320560Y-61401121D01*
X187325000Y-61446204D01*
X187325000Y-61978796D01*
X187320560Y-62023879D01*
X187308126Y-62064870D01*
X187287935Y-62102645D01*
X187260758Y-62135758D01*
X187227645Y-62162935D01*
X187189870Y-62183126D01*
X187148879Y-62195560D01*
X187103796Y-62200000D01*
X186496204Y-62200000D01*
X186451121Y-62195560D01*
X186410130Y-62183126D01*
X186372355Y-62162935D01*
X186339242Y-62135758D01*
X186312065Y-62102645D01*
X186291874Y-62064870D01*
X186279440Y-62023879D01*
X186275000Y-61978796D01*
X186275000Y-61446204D01*
X186279440Y-61401121D01*
X186291874Y-61360130D01*
X186312065Y-61322355D01*
X186339242Y-61289242D01*
X186372355Y-61262065D01*
X186410130Y-61241874D01*
X186451121Y-61229440D01*
X186496204Y-61225000D01*
X187103796Y-61225000D01*
X187148879Y-61229440D01*
G37*
M02*
