%TF.GenerationSoftware,KiCad,Pcbnew,(5.1.8)-1*%
%TF.CreationDate,2021-08-10T17:59:01+08:00*%
%TF.ProjectId,smartdisplay,736d6172-7464-4697-9370-6c61792e6b69,rev?*%
%TF.SameCoordinates,Original*%
%TF.FileFunction,Profile,NP*%
%FSLAX46Y46*%
G04 Gerber Fmt 4.6, Leading zero omitted, Abs format (unit mm)*
G04 Created by KiCad (PCBNEW (5.1.8)-1) date 2021-08-10 17:59:01*
%MOMM*%
%LPD*%
G01*
G04 APERTURE LIST*
%TA.AperFunction,Profile*%
%ADD10C,0.100000*%
%TD*%
G04 APERTURE END LIST*
D10*
X174000000Y-100000000D02*
X174000000Y-97800000D01*
X178400000Y-100000000D02*
X174000000Y-100000000D01*
X178400000Y-97800000D02*
X178400000Y-100000000D01*
X183000000Y-60000000D02*
X155000000Y-60000000D01*
X173400000Y-100000000D02*
X116800000Y-100000000D01*
X200000000Y-100000000D02*
X179000000Y-100000000D01*
X179000000Y-96000000D02*
X179000000Y-100000000D01*
X178400000Y-96000000D02*
X179000000Y-96000000D01*
X178400000Y-97800000D02*
X178400000Y-96000000D01*
X173400000Y-96000000D02*
X173400000Y-100000000D01*
X174000000Y-96000000D02*
X173400000Y-96000000D01*
X174000000Y-97800000D02*
X174000000Y-96000000D01*
X116800000Y-100000000D02*
X116800000Y-94200000D01*
X116800000Y-60000000D02*
X116800000Y-60100000D01*
X149900000Y-60000000D02*
X116800000Y-60000000D01*
X116800000Y-65800000D02*
X116800000Y-60100000D01*
X149900000Y-60000000D02*
X151400000Y-60000000D01*
X153000000Y-60000000D02*
X151400000Y-60000000D01*
X200000000Y-60000000D02*
X183000000Y-60000000D01*
X155000000Y-60000000D02*
X153000000Y-60000000D01*
X116800000Y-94200000D02*
X116800000Y-65800000D01*
X200000000Y-100000000D02*
X200000000Y-60000000D01*
M02*
