M48
; DRILL file {KiCad (5.1.8)-1} date 08/10/21 17:59:01
; FORMAT={-:-/ absolute / metric / decimal}
; #@! TF.CreationDate,2021-08-10T17:59:01+08:00
; #@! TF.GenerationSoftware,Kicad,Pcbnew,(5.1.8)-1
; #@! TF.FileFunction,Plated,1,2,PTH
FMAT,2
METRIC
T1C0.300
T2C0.600
%
G90
G05
T1
X162.45Y-69.7
X162.45Y-73.6
X163.45Y-91.85
X163.45Y-97.15
X165.8Y-97.6
X167.5Y-96.15
X168.4Y-90.05
X169.85Y-93.0
X171.529Y-82.908
X171.6Y-88.2
X172.178Y-82.879
X172.2Y-87.6
X172.3Y-96.15
X172.8Y-87.0
X172.81Y-82.727
X173.4Y-91.25
X173.4Y-83.0
X174.3Y-93.5
X174.975Y-81.625
X175.025Y-95.55
X175.205Y-80.445
X176.2Y-96.15
X176.2Y-99.062
X176.95Y-87.25
X177.153Y-90.975
X177.8Y-90.2
X178.0Y-95.4
X178.893Y-79.207
X178.9Y-80.5
X179.3Y-89.75
X179.8Y-88.6
X180.9Y-80.1
X181.55Y-77.05
X181.6Y-94.0
X182.2Y-70.8
X183.2Y-96.2
X183.4Y-90.2
X183.4Y-90.9
X184.95Y-88.8
X185.075Y-71.575
X185.5Y-76.4
X187.2Y-78.825
X187.285Y-90.85
X189.9Y-77.725
X190.35Y-80.75
X190.486Y-78.022
X190.49Y-79.69
X190.646Y-78.7
X190.9Y-93.4
X190.9Y-94.5
X191.7Y-97.2
X192.8Y-65.4
X192.825Y-83.4
X193.6Y-65.3
X193.65Y-82.85
X195.2Y-94.5
T2
X193.77Y-90.43
X193.97Y-90.43
X194.17Y-90.43
X194.37Y-90.43
X194.57Y-90.43
X194.87Y-90.43
X193.77Y-99.07
X193.97Y-99.07
X194.17Y-99.07
X194.37Y-99.07
X194.57Y-99.07
X194.87Y-99.07
X198.2Y-90.43
X198.4Y-90.43
X198.6Y-90.43
X198.8Y-90.43
X198.2Y-99.07
X198.4Y-99.07
X198.6Y-99.07
X198.8Y-99.07
T0
M30
